  0
SECTION
  2
HEADER
  9
$ANGBASE
  50
0.0
  9
$ANGDIR
  70
1
  9
$MEASUREMENT
  70
1
  0
ENDSEC
  0
SECTION
  2
TABLES
  0
TABLE
  2
LTYPE
  70
4
  0
LTYPE
  5
40F
  2
CONTINUOUS
  70
0
  3
Solid line
  72
65
  73
0
  40
0.0
  0
LTYPE
  5
410
  2
DASHDOT
 70
0
  3
Dash Dot ____ _ ____ _
 72
65
 73
4
 40
2.0
 49
1.25
 49
-0.25
 49
0.25
 49
-0.25
  0
LTYPE
  5
411
  2
DASHED
 70
0
  3
Dashed __ __ __ __ __
 72
65
 73
2
 40
0.75
 49
0.5
 49
-0.25
  0
LTYPE
  5
43B
  2
DOTTED
 70
0
  3
Dotted .  .  .  .
 72
65
 73
2
 40
0.2
 49
0.0
 49
-0.2
  0
ENDTAB
  0
TABLE
  2
STYLE
  70
4
  0
STYLE
  2
KICAD
  70
0
  40
0
  41
1
  42
1
  50
0
  71
0
  3
isocp.shx
  0
STYLE
  2
KICADB
  70
0
  40
0
  41
1
  42
1
  50
0
  71
0
  3
isocp.shx
  0
STYLE
  2
KICADI
  70
0
  40
0
  41
1
  42
1
  50
15
  71
0
  3
isocp.shx
  0
STYLE
  2
KICADBI
  70
0
  40
0
  41
1
  42
1
  50
15
  71
0
  3
isocp.shx
  0
ENDTAB
  0
TABLE
  2
LAYER
  70
1
  0
LAYER
  2
BLACK
  70
0
  62
7
  6
CONTINUOUS
  0
ENDTAB
  0
ENDSEC
  0
SECTION
  2
ENTITIES
0
LINE
8
BLACK
6
CONTINUOUS
10
65.2752380000000016
20
-54.2239329999999953
11
65.3187389999999937
21
-54.2530000000000001
0
LINE
8
BLACK
6
CONTINUOUS
10
65.3187389999999937
20
-54.2530000000000001
11
66.5049999999999955
21
-54.2530000000000001
0
LINE
8
BLACK
6
CONTINUOUS
10
66.5049999999999955
20
-54.2530000000000001
11
66.5702479999999923
21
-54.2572769999999949
0
LINE
8
BLACK
6
CONTINUOUS
10
66.5702479999999923
20
-54.2572769999999949
11
66.5702629999999971
21
-54.2572769999999949
0
LINE
8
BLACK
6
CONTINUOUS
10
66.5702629999999971
20
-54.2572769999999949
11
66.6963420000000013
21
-54.2910599999999945
0
LINE
8
BLACK
6
CONTINUOUS
10
66.6963420000000013
20
-54.2910599999999945
11
66.8093810000000019
21
-54.3563229999999962
0
LINE
8
BLACK
6
CONTINUOUS
10
66.8093810000000019
20
-54.3563229999999962
11
66.8093959999999925
21
-54.3563380000000009
0
LINE
8
BLACK
6
CONTINUOUS
10
66.8093959999999925
20
-54.3563380000000009
11
66.8585530000000006
21
-54.399446999999995
0
LINE
8
BLACK
6
CONTINUOUS
10
66.8585530000000006
20
-54.399446999999995
11
69.5135530000000017
21
-57.0544469999999961
0
LINE
8
BLACK
6
CONTINUOUS
10
69.5135530000000017
20
-57.0544469999999961
11
69.5566609999999912
21
-57.1036029999999997
0
LINE
8
BLACK
6
CONTINUOUS
10
69.5566609999999912
20
-57.1036029999999997
11
69.5566769999999934
21
-57.1036189999999948
0
LINE
8
BLACK
6
CONTINUOUS
10
69.5566769999999934
20
-57.1036189999999948
11
69.6169409999999971
21
-57.2079999999999984
0
LINE
8
BLACK
6
CONTINUOUS
10
69.6169409999999971
20
-57.2079999999999984
11
69.6219399999999951
21
-57.2166579999999954
0
LINE
8
BLACK
6
CONTINUOUS
10
69.6219399999999951
20
-57.2166579999999954
11
69.6557229999999947
21
-57.3427369999999996
0
LINE
8
BLACK
6
CONTINUOUS
10
69.6557229999999947
20
-57.3427369999999996
11
69.6557229999999947
21
-57.3427519999999973
0
LINE
8
BLACK
6
CONTINUOUS
10
69.6557229999999947
20
-57.3427519999999973
11
69.6599999999999966
21
-57.4079999999999941
0
LINE
8
BLACK
6
CONTINUOUS
10
69.6599999999999966
20
-57.4079999999999941
11
69.6599999999999966
21
-68.1402509999999921
0
LINE
8
BLACK
6
CONTINUOUS
10
69.6599999999999966
20
-68.1402509999999921
11
69.7057459999999907
21
-68.1493509999999958
0
LINE
8
BLACK
6
CONTINUOUS
10
69.7057459999999907
20
-68.1493509999999958
11
69.7868519999999961
21
-68.2035439999999937
0
LINE
8
BLACK
6
CONTINUOUS
10
69.7868519999999961
20
-68.2035439999999937
11
69.841044999999994
21
-68.2846499999999992
0
LINE
8
BLACK
6
CONTINUOUS
10
69.841044999999994
20
-68.2846499999999992
11
69.8600739999999973
21
-68.380320999999995
0
LINE
8
BLACK
6
CONTINUOUS
10
69.8600739999999973
20
-68.380320999999995
11
69.8600749999999948
21
-71.230322000000001
0
LINE
8
BLACK
6
CONTINUOUS
10
69.8600749999999948
20
-71.230322000000001
11
69.841044999999994
21
-71.3259919999999994
0
LINE
8
BLACK
6
CONTINUOUS
10
69.841044999999994
20
-71.3259919999999994
11
69.7868519999999961
21
-71.4070979999999906
0
LINE
8
BLACK
6
CONTINUOUS
10
69.7868519999999961
20
-71.4070979999999906
11
69.7057459999999907
21
-71.4612910000000028
0
LINE
8
BLACK
6
CONTINUOUS
10
69.7057459999999907
20
-71.4612910000000028
11
69.6100749999999948
21
-71.4803199999999919
0
LINE
8
BLACK
6
CONTINUOUS
10
69.6100749999999948
20
-71.4803199999999919
11
69.5600749999999977
21
-71.4803199999999919
0
LINE
8
BLACK
6
CONTINUOUS
10
69.5600749999999977
20
-71.4803199999999919
11
69.5600749999999977
21
-72.207925000000003
0
LINE
8
BLACK
6
CONTINUOUS
10
69.5600749999999977
20
-72.207925000000003
11
69.5566529999999972
21
-72.2601349999999911
0
LINE
8
BLACK
6
CONTINUOUS
10
69.5566529999999972
20
-72.2601349999999911
11
69.5296269999999907
21
-72.3609989999999925
0
LINE
8
BLACK
6
CONTINUOUS
10
69.5296269999999907
20
-72.3609989999999925
11
69.477415999999991
21
-72.451430000000002
0
LINE
8
BLACK
6
CONTINUOUS
10
69.477415999999991
20
-72.451430000000002
11
69.4429179999999917
21
-72.4907680000000028
0
LINE
8
BLACK
6
CONTINUOUS
10
69.4429179999999917
20
-72.4907680000000028
11
68.4928429999999935
21
-73.440843000000001
0
LINE
8
BLACK
6
CONTINUOUS
10
68.4928429999999935
20
-73.440843000000001
11
68.4535049999999927
21
-73.4753410000000002
0
LINE
8
BLACK
6
CONTINUOUS
10
68.4535049999999927
20
-73.4753410000000002
11
68.3630739999999975
21
-73.527552
0
LINE
8
BLACK
6
CONTINUOUS
10
68.3630739999999975
20
-73.527552
11
68.2622099999999961
21
-73.5545779999999922
0
LINE
8
BLACK
6
CONTINUOUS
10
68.2622099999999961
20
-73.5545779999999922
11
68.2099999999999937
21
-73.5579999999999927
0
LINE
8
BLACK
6
CONTINUOUS
10
68.2099999999999937
20
-73.5579999999999927
11
62.6599999999999966
21
-73.5579999999999927
0
LINE
8
BLACK
6
CONTINUOUS
10
62.6599999999999966
20
-73.5579999999999927
11
62.6077899999999943
21
-73.5545779999999922
0
LINE
8
BLACK
6
CONTINUOUS
10
62.6077899999999943
20
-73.5545779999999922
11
62.5069269999999975
21
-73.527552
0
LINE
8
BLACK
6
CONTINUOUS
10
62.5069269999999975
20
-73.527552
11
62.4164949999999976
21
-73.4753410000000002
0
LINE
8
BLACK
6
CONTINUOUS
10
62.4164949999999976
20
-73.4753410000000002
11
62.3771569999999969
21
-73.4408420000000035
0
LINE
8
BLACK
6
CONTINUOUS
10
62.3771569999999969
20
-73.4408420000000035
11
55.1271569999999969
21
-66.190843000000001
0
LINE
8
BLACK
6
CONTINUOUS
10
55.1271569999999969
20
-66.190843000000001
11
55.0926589999999976
21
-66.1515050000000002
0
LINE
8
BLACK
6
CONTINUOUS
10
55.0926589999999976
20
-66.1515050000000002
11
55.0404479999999978
21
-66.0610739999999907
0
LINE
8
BLACK
6
CONTINUOUS
10
55.0404479999999978
20
-66.0610739999999907
11
55.0134219999999985
21
-65.9602100000000036
0
LINE
8
BLACK
6
CONTINUOUS
10
55.0134219999999985
20
-65.9602100000000036
11
55.009999999999998
21
-65.9080000000000013
0
LINE
8
BLACK
6
CONTINUOUS
10
55.009999999999998
20
-65.9080000000000013
11
55.009999999999998
21
-61.073685999999995
0
LINE
8
BLACK
6
CONTINUOUS
10
55.009999999999998
20
-61.073685999999995
11
54.3771569999999969
21
-60.4408429999999939
0
LINE
8
BLACK
6
CONTINUOUS
10
54.3771569999999969
20
-60.4408429999999939
11
54.3426589999999976
21
-60.4015050000000002
0
LINE
8
BLACK
6
CONTINUOUS
10
54.3426589999999976
20
-60.4015050000000002
11
54.2904479999999978
21
-60.3110739999999979
0
LINE
8
BLACK
6
CONTINUOUS
10
54.2904479999999978
20
-60.3110739999999979
11
54.2634219999999985
21
-60.2102099999999965
0
LINE
8
BLACK
6
CONTINUOUS
10
54.2634219999999985
20
-60.2102099999999965
11
54.259999999999998
21
-60.1579999999999941
0
LINE
8
BLACK
6
CONTINUOUS
10
54.259999999999998
20
-60.1579999999999941
11
54.259999999999998
21
-58.1579999999999941
0
LINE
8
BLACK
6
CONTINUOUS
10
54.259999999999998
20
-58.1579999999999941
11
54.2634219999999985
21
-58.1057899999999989
0
LINE
8
BLACK
6
CONTINUOUS
10
54.2634219999999985
20
-58.1057899999999989
11
54.2904479999999978
21
-58.004926999999995
0
LINE
8
BLACK
6
CONTINUOUS
10
54.2904479999999978
20
-58.004926999999995
11
54.3426589999999976
21
-57.9144949999999952
0
LINE
8
BLACK
6
CONTINUOUS
10
54.3426589999999976
20
-57.9144949999999952
11
54.3599999999999994
21
-57.8971540000000005
0
LINE
8
BLACK
6
CONTINUOUS
10
54.3599999999999994
20
-57.8971540000000005
11
54.3599999999999994
21
-57.5704999999999956
0
LINE
8
BLACK
6
CONTINUOUS
10
54.3599999999999994
20
-57.5704999999999956
11
54.3714179999999985
21
-57.5130969999999948
0
LINE
8
BLACK
6
CONTINUOUS
10
54.3714179999999985
20
-57.5130969999999948
11
54.4039339999999996
21
-57.4644339999999971
0
LINE
8
BLACK
6
CONTINUOUS
10
54.4039339999999996
20
-57.4644339999999971
11
54.4525969999999973
21
-57.431917999999996
0
LINE
8
BLACK
6
CONTINUOUS
10
54.4525969999999973
20
-57.431917999999996
11
54.509999999999998
21
-57.420499999999997
0
LINE
8
BLACK
6
CONTINUOUS
10
54.509999999999998
20
-57.420499999999997
11
54.8099999999999952
21
-57.420499999999997
0
LINE
8
BLACK
6
CONTINUOUS
10
54.8099999999999952
20
-57.420499999999997
11
54.8674029999999959
21
-57.431917999999996
0
LINE
8
BLACK
6
CONTINUOUS
10
54.8674029999999959
20
-57.431917999999996
11
54.9160660000000007
21
-57.4644339999999971
0
LINE
8
BLACK
6
CONTINUOUS
10
54.9160660000000007
20
-57.4644339999999971
11
54.9485819999999947
21
-57.5130969999999948
0
LINE
8
BLACK
6
CONTINUOUS
10
54.9485819999999947
20
-57.5130969999999948
11
54.9600000000000009
21
-57.5704999999999956
0
LINE
8
BLACK
6
CONTINUOUS
10
54.9600000000000009
20
-57.5704999999999956
11
54.9600000000000009
21
-57.8971540000000005
0
LINE
8
BLACK
6
CONTINUOUS
10
54.9600000000000009
20
-57.8971540000000005
11
54.9773409999999956
21
-57.9144949999999952
0
LINE
8
BLACK
6
CONTINUOUS
10
54.9773409999999956
20
-57.9144949999999952
11
55.0295519999999954
21
-58.004926999999995
0
LINE
8
BLACK
6
CONTINUOUS
10
55.0295519999999954
20
-58.004926999999995
11
55.0565779999999947
21
-58.1057899999999989
0
LINE
8
BLACK
6
CONTINUOUS
10
55.0565779999999947
20
-58.1057899999999989
11
55.0599999999999952
21
-58.1579999999999941
0
LINE
8
BLACK
6
CONTINUOUS
10
55.0599999999999952
20
-58.1579999999999941
11
55.0599999999999952
21
-59.9923140000000004
0
LINE
8
BLACK
6
CONTINUOUS
10
55.0599999999999952
20
-59.9923140000000004
11
55.6928429999999963
21
-60.6251569999999944
0
LINE
8
BLACK
6
CONTINUOUS
10
55.6928429999999963
20
-60.6251569999999944
11
55.7273409999999956
21
-60.6644949999999952
0
LINE
8
BLACK
6
CONTINUOUS
10
55.7273409999999956
20
-60.6644949999999952
11
55.7795519999999954
21
-60.7549259999999975
0
LINE
8
BLACK
6
CONTINUOUS
10
55.7795519999999954
20
-60.7549259999999975
11
55.7795519999999954
21
-60.754926999999995
0
LINE
8
BLACK
6
CONTINUOUS
10
55.7795519999999954
20
-60.754926999999995
11
55.8065779999999947
21
-60.8557899999999989
0
LINE
8
BLACK
6
CONTINUOUS
10
55.8065779999999947
20
-60.8557899999999989
11
55.8099999999999952
21
-60.9079999999999941
0
LINE
8
BLACK
6
CONTINUOUS
10
55.8099999999999952
20
-60.9079999999999941
11
55.8099999999999952
21
-65.7423139999999933
0
LINE
8
BLACK
6
CONTINUOUS
10
55.8099999999999952
20
-65.7423139999999933
11
62.825685
21
-72.7579999999999956
0
LINE
8
BLACK
6
CONTINUOUS
10
62.825685
20
-72.7579999999999956
11
68.044314
21
-72.7579999999999956
0
LINE
8
BLACK
6
CONTINUOUS
10
68.044314
20
-72.7579999999999956
11
68.7600750000000005
21
-72.042238999999995
0
LINE
8
BLACK
6
CONTINUOUS
10
68.7600750000000005
20
-72.042238999999995
11
68.7600750000000005
21
-71.4803199999999919
0
LINE
8
BLACK
6
CONTINUOUS
10
68.7600750000000005
20
-71.4803199999999919
11
68.7100739999999917
21
-71.4803210000000036
0
LINE
8
BLACK
6
CONTINUOUS
10
68.7100739999999917
20
-71.4803210000000036
11
68.6144039999999933
21
-71.4612910000000028
0
LINE
8
BLACK
6
CONTINUOUS
10
68.6144039999999933
20
-71.4612910000000028
11
68.533298000000002
21
-71.4070979999999906
0
LINE
8
BLACK
6
CONTINUOUS
10
68.533298000000002
20
-71.4070979999999906
11
68.4791049999999899
21
-71.3259919999999994
0
LINE
8
BLACK
6
CONTINUOUS
10
68.4791049999999899
20
-71.3259919999999994
11
68.4600760000000008
21
-71.2303210000000036
0
LINE
8
BLACK
6
CONTINUOUS
10
68.4600760000000008
20
-71.2303210000000036
11
68.4600750000000033
21
-68.3803199999999975
0
LINE
8
BLACK
6
CONTINUOUS
10
68.4600750000000033
20
-68.3803199999999975
11
68.4791049999999899
21
-68.2846499999999992
0
LINE
8
BLACK
6
CONTINUOUS
10
68.4791049999999899
20
-68.2846499999999992
11
68.533298000000002
21
-68.2035439999999937
0
LINE
8
BLACK
6
CONTINUOUS
10
68.533298000000002
20
-68.2035439999999937
11
68.6144039999999933
21
-68.1493509999999958
0
LINE
8
BLACK
6
CONTINUOUS
10
68.6144039999999933
20
-68.1493509999999958
11
68.6599999999999966
21
-68.1402810000000017
0
LINE
8
BLACK
6
CONTINUOUS
10
68.6599999999999966
20
-68.1402810000000017
11
68.6599999999999966
21
-57.6151059999999973
0
LINE
8
BLACK
6
CONTINUOUS
10
68.6599999999999966
20
-57.6151059999999973
11
66.2978939999999994
21
-55.2530000000000001
0
LINE
8
BLACK
6
CONTINUOUS
10
66.2978939999999994
20
-55.2530000000000001
11
65.3187389999999937
21
-55.2530000000000001
0
LINE
8
BLACK
6
CONTINUOUS
10
65.3187389999999937
20
-55.2530000000000001
11
65.2752380000000016
21
-55.2820669999999978
0
LINE
8
BLACK
6
CONTINUOUS
10
65.2752380000000016
20
-55.2820669999999978
11
65.1700000000000017
21
-55.3029999999999973
0
LINE
8
BLACK
6
CONTINUOUS
10
65.1700000000000017
20
-55.3029999999999973
11
63.2199999999999989
21
-55.3029999999999973
0
LINE
8
BLACK
6
CONTINUOUS
10
63.2199999999999989
20
-55.3029999999999973
11
63.1147619999999989
21
-55.2820669999999978
0
LINE
8
BLACK
6
CONTINUOUS
10
63.1147619999999989
20
-55.2820669999999978
11
63.0255459999999985
21
-55.222453999999999
0
LINE
8
BLACK
6
CONTINUOUS
10
63.0255459999999985
20
-55.222453999999999
11
62.9659329999999997
21
-55.1332379999999986
0
LINE
8
BLACK
6
CONTINUOUS
10
62.9659329999999997
20
-55.1332379999999986
11
62.9450000000000003
21
-55.0279999999999987
0
LINE
8
BLACK
6
CONTINUOUS
10
62.9450000000000003
20
-55.0279999999999987
11
62.9450000000000003
21
-54.4779999999999944
0
LINE
8
BLACK
6
CONTINUOUS
10
62.9450000000000003
20
-54.4779999999999944
11
62.9659329999999997
21
-54.3727619999999945
0
LINE
8
BLACK
6
CONTINUOUS
10
62.9659329999999997
20
-54.3727619999999945
11
63.0255459999999985
21
-54.2835459999999941
0
LINE
8
BLACK
6
CONTINUOUS
10
63.0255459999999985
20
-54.2835459999999941
11
63.1147619999999989
21
-54.2239329999999953
0
LINE
8
BLACK
6
CONTINUOUS
10
63.1147619999999989
20
-54.2239329999999953
11
63.2199999999999989
21
-54.2029999999999959
0
LINE
8
BLACK
6
CONTINUOUS
10
63.2199999999999989
20
-54.2029999999999959
11
65.1700000000000017
21
-54.2029999999999959
0
LINE
8
BLACK
6
CONTINUOUS
10
65.1700000000000017
20
-54.2029999999999959
11
65.2752380000000016
21
-54.2239329999999953
0
LINE
8
BLACK
6
CONTINUOUS
10
61.5662829999999985
20
-50.9714269999999985
11
61.699624
21
-51.0211609999999993
0
LINE
8
BLACK
6
CONTINUOUS
10
61.699624
20
-51.0211609999999993
11
61.8135529999999989
21
-51.1064469999999957
0
LINE
8
BLACK
6
CONTINUOUS
10
61.8135529999999989
20
-51.1064469999999957
11
61.8988389999999953
21
-51.2203759999999946
0
LINE
8
BLACK
6
CONTINUOUS
10
61.8988389999999953
20
-51.2203759999999946
11
61.9485729999999961
21
-51.3537169999999961
0
LINE
8
BLACK
6
CONTINUOUS
10
61.9485729999999961
20
-51.3537169999999961
11
61.9599999999999937
21
-51.4600000000000009
0
LINE
8
BLACK
6
CONTINUOUS
10
61.9599999999999937
20
-51.4600000000000009
11
61.9599999999999937
21
-51.5599999999999952
0
LINE
8
BLACK
6
CONTINUOUS
10
61.9599999999999937
20
-51.5599999999999952
11
66.9620000000000033
21
-51.5599999999999952
0
LINE
8
BLACK
6
CONTINUOUS
10
66.9620000000000033
20
-51.5599999999999952
11
67.0142099999999914
21
-51.5634219999999956
0
LINE
8
BLACK
6
CONTINUOUS
10
67.0142099999999914
20
-51.5634219999999956
11
67.1150739999999928
21
-51.590447999999995
0
LINE
8
BLACK
6
CONTINUOUS
10
67.1150739999999928
20
-51.590447999999995
11
67.2055050000000023
21
-51.6426589999999948
0
LINE
8
BLACK
6
CONTINUOUS
10
67.2055050000000023
20
-51.6426589999999948
11
67.244843000000003
21
-51.6771570000000011
0
LINE
8
BLACK
6
CONTINUOUS
10
67.244843000000003
20
-51.6771570000000011
11
71.9428419999999988
21
-56.3751569999999944
0
LINE
8
BLACK
6
CONTINUOUS
10
71.9428419999999988
20
-56.3751569999999944
11
71.9773409999999956
21
-56.4144949999999952
0
LINE
8
BLACK
6
CONTINUOUS
10
71.9773409999999956
20
-56.4144949999999952
11
72.0295519999999954
21
-56.504926999999995
0
LINE
8
BLACK
6
CONTINUOUS
10
72.0295519999999954
20
-56.504926999999995
11
72.0565780000000018
21
-56.6057899999999989
0
LINE
8
BLACK
6
CONTINUOUS
10
72.0565780000000018
20
-56.6057899999999989
11
72.0600000000000023
21
-56.6579999999999941
0
LINE
8
BLACK
6
CONTINUOUS
10
72.0600000000000023
20
-56.6579999999999941
11
72.0600000000000023
21
-67.9423139999999961
0
LINE
8
BLACK
6
CONTINUOUS
10
72.0600000000000023
20
-67.9423139999999961
11
75.7256859999999961
21
-71.6079999999999899
0
LINE
8
BLACK
6
CONTINUOUS
10
75.7256859999999961
20
-71.6079999999999899
11
76.3599999999999994
21
-71.6079999999999899
0
LINE
8
BLACK
6
CONTINUOUS
10
76.3599999999999994
20
-71.6079999999999899
11
76.3599999999999994
21
-71.5079999999999956
0
LINE
8
BLACK
6
CONTINUOUS
10
76.3599999999999994
20
-71.5079999999999956
11
77.2599999999999909
21
-71.5079999999999956
0
LINE
8
BLACK
6
CONTINUOUS
10
77.2599999999999909
20
-71.5079999999999956
11
77.2599999999999909
21
-72.5079999999999956
0
LINE
8
BLACK
6
CONTINUOUS
10
77.2599999999999909
20
-72.5079999999999956
11
76.3599999999999994
21
-72.5079999999999956
0
LINE
8
BLACK
6
CONTINUOUS
10
76.3599999999999994
20
-72.5079999999999956
11
76.3599999999999994
21
-72.4080000000000013
0
LINE
8
BLACK
6
CONTINUOUS
10
76.3599999999999994
20
-72.4080000000000013
11
75.5600000000000023
21
-72.4080000000000013
0
LINE
8
BLACK
6
CONTINUOUS
10
75.5600000000000023
20
-72.4080000000000013
11
75.50779
21
-72.4045780000000008
0
LINE
8
BLACK
6
CONTINUOUS
10
75.50779
20
-72.4045780000000008
11
75.4069259999999986
21
-72.3775519999999943
0
LINE
8
BLACK
6
CONTINUOUS
10
75.4069259999999986
20
-72.3775519999999943
11
75.3164950000000033
21
-72.3253409999999946
0
LINE
8
BLACK
6
CONTINUOUS
10
75.3164950000000033
20
-72.3253409999999946
11
75.2771570000000025
21
-72.2908429999999953
0
LINE
8
BLACK
6
CONTINUOUS
10
75.2771570000000025
20
-72.2908429999999953
11
71.3771569999999969
21
-68.3908430000000038
0
LINE
8
BLACK
6
CONTINUOUS
10
71.3771569999999969
20
-68.3908430000000038
11
71.3426589999999976
21
-68.3515050000000031
0
LINE
8
BLACK
6
CONTINUOUS
10
71.3426589999999976
20
-68.3515050000000031
11
71.2904479999999978
21
-68.2610739999999936
0
LINE
8
BLACK
6
CONTINUOUS
10
71.2904479999999978
20
-68.2610739999999936
11
71.2634219999999914
21
-68.1602099999999922
0
LINE
8
BLACK
6
CONTINUOUS
10
71.2634219999999914
20
-68.1602099999999922
11
71.2599999999999909
21
-68.1079999999999899
0
LINE
8
BLACK
6
CONTINUOUS
10
71.2599999999999909
20
-68.1079999999999899
11
71.2599999999999909
21
-56.8236849999999976
0
LINE
8
BLACK
6
CONTINUOUS
10
71.2599999999999909
20
-56.8236849999999976
11
66.7963139999999953
21
-52.3599999999999994
0
LINE
8
BLACK
6
CONTINUOUS
10
66.7963139999999953
20
-52.3599999999999994
11
61.9599999999999937
21
-52.3599999999999994
0
LINE
8
BLACK
6
CONTINUOUS
10
61.9599999999999937
20
-52.3599999999999994
11
61.9599999999999937
21
-52.4600000000000009
0
LINE
8
BLACK
6
CONTINUOUS
10
61.9599999999999937
20
-52.4600000000000009
11
61.9485729999999961
21
-52.5662829999999985
0
LINE
8
BLACK
6
CONTINUOUS
10
61.9485729999999961
20
-52.5662829999999985
11
61.8988389999999953
21
-52.699624
0
LINE
8
BLACK
6
CONTINUOUS
10
61.8988389999999953
20
-52.699624
11
61.8135529999999989
21
-52.8135529999999989
0
LINE
8
BLACK
6
CONTINUOUS
10
61.8135529999999989
20
-52.8135529999999989
11
61.699624
21
-52.8988389999999953
0
LINE
8
BLACK
6
CONTINUOUS
10
61.699624
20
-52.8988389999999953
11
61.5662829999999985
21
-52.9485729999999961
0
LINE
8
BLACK
6
CONTINUOUS
10
61.5662829999999985
20
-52.9485729999999961
11
61.4599999999999937
21
-52.9600000000000009
0
LINE
8
BLACK
6
CONTINUOUS
10
61.4599999999999937
20
-52.9600000000000009
11
59.7099999999999937
21
-52.9600000000000009
0
LINE
8
BLACK
6
CONTINUOUS
10
59.7099999999999937
20
-52.9600000000000009
11
59.6037169999999961
21
-52.9485729999999961
0
LINE
8
BLACK
6
CONTINUOUS
10
59.6037169999999961
20
-52.9485729999999961
11
59.4703759999999946
21
-52.8988389999999953
0
LINE
8
BLACK
6
CONTINUOUS
10
59.4703759999999946
20
-52.8988389999999953
11
59.3564469999999957
21
-52.8135529999999989
0
LINE
8
BLACK
6
CONTINUOUS
10
59.3564469999999957
20
-52.8135529999999989
11
59.2711609999999993
21
-52.699624
0
LINE
8
BLACK
6
CONTINUOUS
10
59.2711609999999993
20
-52.699624
11
59.2214269999999985
21
-52.5662829999999985
0
LINE
8
BLACK
6
CONTINUOUS
10
59.2214269999999985
20
-52.5662829999999985
11
59.2100000000000009
21
-52.4600000000000009
0
LINE
8
BLACK
6
CONTINUOUS
10
59.2100000000000009
20
-52.4600000000000009
11
59.2100000000000009
21
-51.4600000000000009
0
LINE
8
BLACK
6
CONTINUOUS
10
59.2100000000000009
20
-51.4600000000000009
11
59.2214269999999985
21
-51.3537169999999961
0
LINE
8
BLACK
6
CONTINUOUS
10
59.2214269999999985
20
-51.3537169999999961
11
59.2711609999999993
21
-51.2203759999999946
0
LINE
8
BLACK
6
CONTINUOUS
10
59.2711609999999993
20
-51.2203759999999946
11
59.3564469999999957
21
-51.1064469999999957
0
LINE
8
BLACK
6
CONTINUOUS
10
59.3564469999999957
20
-51.1064469999999957
11
59.4703759999999946
21
-51.0211609999999993
0
LINE
8
BLACK
6
CONTINUOUS
10
59.4703759999999946
20
-51.0211609999999993
11
59.6037169999999961
21
-50.9714269999999985
0
LINE
8
BLACK
6
CONTINUOUS
10
59.6037169999999961
20
-50.9714269999999985
11
59.7099999999999937
21
-50.9600000000000009
0
LINE
8
BLACK
6
CONTINUOUS
10
59.7099999999999937
20
-50.9600000000000009
11
61.4599999999999937
21
-50.9600000000000009
0
LINE
8
BLACK
6
CONTINUOUS
10
61.4599999999999937
20
-50.9600000000000009
11
61.5662829999999985
21
-50.9714269999999985
0
LINE
8
BLACK
6
CONTINUOUS
10
81.3599999999999994
20
-72.5079999999999956
11
80.4599999999999937
21
-72.5079999999999956
0
LINE
8
BLACK
6
CONTINUOUS
10
80.4599999999999937
20
-72.5079999999999956
11
80.4599999999999937
21
-71.5079999999999956
0
LINE
8
BLACK
6
CONTINUOUS
10
80.4599999999999937
20
-71.5079999999999956
11
81.3599999999999994
21
-71.5079999999999956
0
LINE
8
BLACK
6
CONTINUOUS
10
81.3599999999999994
20
-71.5079999999999956
11
81.3599999999999994
21
-72.5079999999999956
0
LINE
8
BLACK
6
CONTINUOUS
10
65.2752380000000016
20
-56.1289329999999964
11
65.3644539999999949
21
-56.1885459999999952
0
LINE
8
BLACK
6
CONTINUOUS
10
65.3644539999999949
20
-56.1885459999999952
11
65.4240669999999938
21
-56.2777619999999956
0
LINE
8
BLACK
6
CONTINUOUS
10
65.4240669999999938
20
-56.2777619999999956
11
65.4449999999999932
21
-56.3829999999999956
0
LINE
8
BLACK
6
CONTINUOUS
10
65.4449999999999932
20
-56.3829999999999956
11
65.4449999999999932
21
-56.9329999999999998
0
LINE
8
BLACK
6
CONTINUOUS
10
65.4449999999999932
20
-56.9329999999999998
11
65.4240669999999938
21
-57.0382379999999998
0
LINE
8
BLACK
6
CONTINUOUS
10
65.4240669999999938
20
-57.0382379999999998
11
65.3644539999999949
21
-57.1274540000000002
0
LINE
8
BLACK
6
CONTINUOUS
10
65.3644539999999949
20
-57.1274540000000002
11
65.2752380000000016
21
-57.187066999999999
0
LINE
8
BLACK
6
CONTINUOUS
10
65.2752380000000016
20
-57.187066999999999
11
65.1700000000000017
21
-57.2079999999999984
0
LINE
8
BLACK
6
CONTINUOUS
10
65.1700000000000017
20
-57.2079999999999984
11
64.6599999999999966
21
-57.2079999999999984
0
LINE
8
BLACK
6
CONTINUOUS
10
64.6599999999999966
20
-57.2079999999999984
11
64.6599999999999966
21
-68.7053959999999933
0
LINE
8
BLACK
6
CONTINUOUS
10
64.6599999999999966
20
-68.7053959999999933
11
64.6557229999999947
21
-68.7706429999999926
0
LINE
8
BLACK
6
CONTINUOUS
10
64.6557229999999947
20
-68.7706429999999926
11
64.6557229999999947
21
-68.7706589999999949
0
LINE
8
BLACK
6
CONTINUOUS
10
64.6557229999999947
20
-68.7706589999999949
11
64.6219399999999951
21
-68.8967379999999991
0
LINE
8
BLACK
6
CONTINUOUS
10
64.6219399999999951
20
-68.8967379999999991
11
64.5566769999999934
21
-69.0097769999999997
0
LINE
8
BLACK
6
CONTINUOUS
10
64.5566769999999934
20
-69.0097769999999997
11
64.5566609999999912
21
-69.0097919999999903
0
LINE
8
BLACK
6
CONTINUOUS
10
64.5566609999999912
20
-69.0097919999999903
11
64.5135530000000017
21
-69.0589489999999984
0
LINE
8
BLACK
6
CONTINUOUS
10
64.5135530000000017
20
-69.0589489999999984
11
63.7600739999999959
21
-69.8124269999999996
0
LINE
8
BLACK
6
CONTINUOUS
10
63.7600739999999959
20
-69.8124269999999996
11
63.7600750000000005
21
-71.230322000000001
0
LINE
8
BLACK
6
CONTINUOUS
10
63.7600750000000005
20
-71.230322000000001
11
63.7410449999999997
21
-71.3259919999999994
0
LINE
8
BLACK
6
CONTINUOUS
10
63.7410449999999997
20
-71.3259919999999994
11
63.6868519999999947
21
-71.4070979999999906
0
LINE
8
BLACK
6
CONTINUOUS
10
63.6868519999999947
20
-71.4070979999999906
11
63.6057459999999963
21
-71.4612910000000028
0
LINE
8
BLACK
6
CONTINUOUS
10
63.6057459999999963
20
-71.4612910000000028
11
63.5100750000000005
21
-71.4803199999999919
0
LINE
8
BLACK
6
CONTINUOUS
10
63.5100750000000005
20
-71.4803199999999919
11
62.6100739999999973
21
-71.4803210000000036
0
LINE
8
BLACK
6
CONTINUOUS
10
62.6100739999999973
20
-71.4803210000000036
11
62.514403999999999
21
-71.4612910000000028
0
LINE
8
BLACK
6
CONTINUOUS
10
62.514403999999999
20
-71.4612910000000028
11
62.4332980000000006
21
-71.4070979999999906
0
LINE
8
BLACK
6
CONTINUOUS
10
62.4332980000000006
20
-71.4070979999999906
11
62.3791049999999956
21
-71.3259919999999994
0
LINE
8
BLACK
6
CONTINUOUS
10
62.3791049999999956
20
-71.3259919999999994
11
62.3600759999999994
21
-71.2303210000000036
0
LINE
8
BLACK
6
CONTINUOUS
10
62.3600759999999994
20
-71.2303210000000036
11
62.3600759999999994
21
-70.2053209999999979
0
LINE
8
BLACK
6
CONTINUOUS
10
62.3600759999999994
20
-70.2053209999999979
11
61.3073209999999946
21
-70.2053209999999979
0
LINE
8
BLACK
6
CONTINUOUS
10
61.3073209999999946
20
-70.2053209999999979
11
61.2551109999999994
21
-70.2018989999999974
0
LINE
8
BLACK
6
CONTINUOUS
10
61.2551109999999994
20
-70.2018989999999974
11
61.154246999999998
21
-70.174872999999991
0
LINE
8
BLACK
6
CONTINUOUS
10
61.154246999999998
20
-70.174872999999991
11
61.0638159999999957
21
-70.1226619999999912
0
LINE
8
BLACK
6
CONTINUOUS
10
61.0638159999999957
20
-70.1226619999999912
11
61.0244779999999949
21
-70.0881639999999919
0
LINE
8
BLACK
6
CONTINUOUS
10
61.0244779999999949
20
-70.0881639999999919
11
57.1271569999999969
21
-66.190843000000001
0
LINE
8
BLACK
6
CONTINUOUS
10
57.1271569999999969
20
-66.190843000000001
11
57.0926589999999976
21
-66.1515050000000002
0
LINE
8
BLACK
6
CONTINUOUS
10
57.0926589999999976
20
-66.1515050000000002
11
57.0404479999999978
21
-66.0610739999999907
0
LINE
8
BLACK
6
CONTINUOUS
10
57.0404479999999978
20
-66.0610739999999907
11
57.0134219999999985
21
-65.9602100000000036
0
LINE
8
BLACK
6
CONTINUOUS
10
57.0134219999999985
20
-65.9602100000000036
11
57.009999999999998
21
-65.9080000000000013
0
LINE
8
BLACK
6
CONTINUOUS
10
57.009999999999998
20
-65.9080000000000013
11
57.009999999999998
21
-59.357999999999997
0
LINE
8
BLACK
6
CONTINUOUS
10
57.009999999999998
20
-59.357999999999997
11
56.7849999999999966
21
-59.357999999999997
0
LINE
8
BLACK
6
CONTINUOUS
10
56.7849999999999966
20
-59.357999999999997
11
56.6893290000000007
21
-59.3389699999999962
0
LINE
8
BLACK
6
CONTINUOUS
10
56.6893290000000007
20
-59.3389699999999962
11
56.6082229999999953
21
-59.2847769999999983
0
LINE
8
BLACK
6
CONTINUOUS
10
56.6082229999999953
20
-59.2847769999999983
11
56.5540299999999974
21
-59.2036709999999999
0
LINE
8
BLACK
6
CONTINUOUS
10
56.5540299999999974
20
-59.2036709999999999
11
56.5349999999999966
21
-59.107999999999997
0
LINE
8
BLACK
6
CONTINUOUS
10
56.5349999999999966
20
-59.107999999999997
11
56.5349999999999966
21
-58.3079999999999998
0
LINE
8
BLACK
6
CONTINUOUS
10
56.5349999999999966
20
-58.3079999999999998
11
56.5540299999999974
21
-58.2123289999999969
0
LINE
8
BLACK
6
CONTINUOUS
10
56.5540299999999974
20
-58.2123289999999969
11
56.6082229999999953
21
-58.1312229999999985
0
LINE
8
BLACK
6
CONTINUOUS
10
56.6082229999999953
20
-58.1312229999999985
11
56.6893290000000007
21
-58.0770300000000006
0
LINE
8
BLACK
6
CONTINUOUS
10
56.6893290000000007
20
-58.0770300000000006
11
56.7849999999999966
21
-58.0579999999999998
0
LINE
8
BLACK
6
CONTINUOUS
10
56.7849999999999966
20
-58.0579999999999998
11
58.0349999999999966
21
-58.0579999999999998
0
LINE
8
BLACK
6
CONTINUOUS
10
58.0349999999999966
20
-58.0579999999999998
11
58.1306709999999995
21
-58.0770300000000006
0
LINE
8
BLACK
6
CONTINUOUS
10
58.1306709999999995
20
-58.0770300000000006
11
58.2117769999999979
21
-58.1312229999999985
0
LINE
8
BLACK
6
CONTINUOUS
10
58.2117769999999979
20
-58.1312229999999985
11
58.2659699999999958
21
-58.2123289999999969
0
LINE
8
BLACK
6
CONTINUOUS
10
58.2659699999999958
20
-58.2123289999999969
11
58.2849999999999966
21
-58.3079999999999998
0
LINE
8
BLACK
6
CONTINUOUS
10
58.2849999999999966
20
-58.3079999999999998
11
58.2849999999999966
21
-59.107999999999997
0
LINE
8
BLACK
6
CONTINUOUS
10
58.2849999999999966
20
-59.107999999999997
11
58.2659699999999958
21
-59.2036709999999999
0
LINE
8
BLACK
6
CONTINUOUS
10
58.2659699999999958
20
-59.2036709999999999
11
58.2117769999999979
21
-59.2847769999999983
0
LINE
8
BLACK
6
CONTINUOUS
10
58.2117769999999979
20
-59.2847769999999983
11
58.1306709999999995
21
-59.3389699999999962
0
LINE
8
BLACK
6
CONTINUOUS
10
58.1306709999999995
20
-59.3389699999999962
11
58.0349999999999966
21
-59.357999999999997
0
LINE
8
BLACK
6
CONTINUOUS
10
58.0349999999999966
20
-59.357999999999997
11
57.8099999999999952
21
-59.357999999999997
0
LINE
8
BLACK
6
CONTINUOUS
10
57.8099999999999952
20
-59.357999999999997
11
57.8099999999999952
21
-65.7423139999999933
0
LINE
8
BLACK
6
CONTINUOUS
10
57.8099999999999952
20
-65.7423139999999933
11
61.4730069999999955
21
-69.4053210000000007
0
LINE
8
BLACK
6
CONTINUOUS
10
61.4730069999999955
20
-69.4053210000000007
11
62.3600749999999948
21
-69.4053210000000007
0
LINE
8
BLACK
6
CONTINUOUS
10
62.3600749999999948
20
-69.4053210000000007
11
62.3600749999999948
21
-68.3803199999999975
0
LINE
8
BLACK
6
CONTINUOUS
10
62.3600749999999948
20
-68.3803199999999975
11
62.3791049999999956
21
-68.2846499999999992
0
LINE
8
BLACK
6
CONTINUOUS
10
62.3791049999999956
20
-68.2846499999999992
11
62.4332980000000006
21
-68.2035439999999937
0
LINE
8
BLACK
6
CONTINUOUS
10
62.4332980000000006
20
-68.2035439999999937
11
62.514403999999999
21
-68.1493509999999958
0
LINE
8
BLACK
6
CONTINUOUS
10
62.514403999999999
20
-68.1493509999999958
11
62.6100749999999948
21
-68.1303219999999925
0
LINE
8
BLACK
6
CONTINUOUS
10
62.6100749999999948
20
-68.1303219999999925
11
63.510075999999998
21
-68.130320999999995
0
LINE
8
BLACK
6
CONTINUOUS
10
63.510075999999998
20
-68.130320999999995
11
63.6057459999999963
21
-68.1493509999999958
0
LINE
8
BLACK
6
CONTINUOUS
10
63.6057459999999963
20
-68.1493509999999958
11
63.6599999999999966
21
-68.1856020000000029
0
LINE
8
BLACK
6
CONTINUOUS
10
63.6599999999999966
20
-68.1856020000000029
11
63.6599999999999966
21
-57.2079999999999984
0
LINE
8
BLACK
6
CONTINUOUS
10
63.6599999999999966
20
-57.2079999999999984
11
63.2199999999999989
21
-57.2079999999999984
0
LINE
8
BLACK
6
CONTINUOUS
10
63.2199999999999989
20
-57.2079999999999984
11
63.1147619999999989
21
-57.187066999999999
0
LINE
8
BLACK
6
CONTINUOUS
10
63.1147619999999989
20
-57.187066999999999
11
63.0255459999999985
21
-57.1274540000000002
0
LINE
8
BLACK
6
CONTINUOUS
10
63.0255459999999985
20
-57.1274540000000002
11
62.9659329999999997
21
-57.0382379999999998
0
LINE
8
BLACK
6
CONTINUOUS
10
62.9659329999999997
20
-57.0382379999999998
11
62.9450000000000003
21
-56.9329999999999998
0
LINE
8
BLACK
6
CONTINUOUS
10
62.9450000000000003
20
-56.9329999999999998
11
62.9450000000000003
21
-56.3829999999999956
0
LINE
8
BLACK
6
CONTINUOUS
10
62.9450000000000003
20
-56.3829999999999956
11
62.9659329999999997
21
-56.2777619999999956
0
LINE
8
BLACK
6
CONTINUOUS
10
62.9659329999999997
20
-56.2777619999999956
11
63.0255459999999985
21
-56.1885459999999952
0
LINE
8
BLACK
6
CONTINUOUS
10
63.0255459999999985
20
-56.1885459999999952
11
63.1147619999999989
21
-56.1289329999999964
0
LINE
8
BLACK
6
CONTINUOUS
10
63.1147619999999989
20
-56.1289329999999964
11
63.2199999999999989
21
-56.107999999999997
0
LINE
8
BLACK
6
CONTINUOUS
10
63.2199999999999989
20
-56.107999999999997
11
65.1700000000000017
21
-56.107999999999997
0
LINE
8
BLACK
6
CONTINUOUS
10
65.1700000000000017
20
-56.107999999999997
11
65.2752380000000016
21
-56.1289329999999964
0
LINE
8
BLACK
6
CONTINUOUS
10
87.9622099999999989
20
-47.011421999999996
11
88.0630740000000003
21
-47.0384479999999954
0
LINE
8
BLACK
6
CONTINUOUS
10
88.0630740000000003
20
-47.0384479999999954
11
88.1535049999999956
21
-47.0906589999999952
0
LINE
8
BLACK
6
CONTINUOUS
10
88.1535049999999956
20
-47.0906589999999952
11
88.1928429999999963
21
-47.1251569999999944
0
LINE
8
BLACK
6
CONTINUOUS
10
88.1928429999999963
20
-47.1251569999999944
11
88.9928429999999935
21
-47.9251569999999987
0
LINE
8
BLACK
6
CONTINUOUS
10
88.9928429999999935
20
-47.9251569999999987
11
89.0273409999999927
21
-47.9644949999999994
0
LINE
8
BLACK
6
CONTINUOUS
10
89.0273409999999927
20
-47.9644949999999994
11
89.0795519999999925
21
-48.0549259999999947
0
LINE
8
BLACK
6
CONTINUOUS
10
89.0795519999999925
20
-48.0549259999999947
11
89.0795519999999925
21
-48.0549269999999993
0
LINE
8
BLACK
6
CONTINUOUS
10
89.0795519999999925
20
-48.0549269999999993
11
89.106577999999999
21
-48.1557899999999961
0
LINE
8
BLACK
6
CONTINUOUS
10
89.106577999999999
20
-48.1557899999999961
11
89.1099999999999994
21
-48.2079999999999984
0
LINE
8
BLACK
6
CONTINUOUS
10
89.1099999999999994
20
-48.2079999999999984
11
89.1099999999999994
21
-48.6685639999999964
0
LINE
8
BLACK
6
CONTINUOUS
10
89.1099999999999994
20
-48.6685639999999964
11
89.1336399999999998
21
-48.6843599999999981
0
LINE
8
BLACK
6
CONTINUOUS
10
89.1336399999999998
20
-48.6843599999999981
11
89.1531489999999991
21
-48.713557999999999
0
LINE
8
BLACK
6
CONTINUOUS
10
89.1531489999999991
20
-48.713557999999999
11
89.1599999999999966
21
-48.7479999999999976
0
LINE
8
BLACK
6
CONTINUOUS
10
89.1599999999999966
20
-48.7479999999999976
11
89.1599999999999966
21
-49.2923139999999975
0
LINE
8
BLACK
6
CONTINUOUS
10
89.1599999999999966
20
-49.2923139999999975
11
90.6928429999999963
21
-50.8251569999999973
0
LINE
8
BLACK
6
CONTINUOUS
10
90.6928429999999963
20
-50.8251569999999973
11
90.7273409999999956
21
-50.864494999999998
0
LINE
8
BLACK
6
CONTINUOUS
10
90.7273409999999956
20
-50.864494999999998
11
90.7795519999999954
21
-50.9549260000000004
0
LINE
8
BLACK
6
CONTINUOUS
10
90.7795519999999954
20
-50.9549260000000004
11
90.7809680000000014
21
-50.9602099999999965
0
LINE
8
BLACK
6
CONTINUOUS
10
90.7809680000000014
20
-50.9602099999999965
11
90.8065780000000018
21
-51.0557899999999947
0
LINE
8
BLACK
6
CONTINUOUS
10
90.8065780000000018
20
-51.0557899999999947
11
90.8100000000000023
21
-51.107999999999997
0
LINE
8
BLACK
6
CONTINUOUS
10
90.8100000000000023
20
-51.107999999999997
11
90.8100000000000023
21
-55.9079999999999941
0
LINE
8
BLACK
6
CONTINUOUS
10
90.8100000000000023
20
-55.9079999999999941
11
90.8100000000000023
21
-56.6579999999999941
0
LINE
8
BLACK
6
CONTINUOUS
10
90.8100000000000023
20
-56.6579999999999941
11
90.8065780000000018
21
-56.7102099999999965
0
LINE
8
BLACK
6
CONTINUOUS
10
90.8065780000000018
20
-56.7102099999999965
11
90.7795519999999954
21
-56.8110739999999979
0
LINE
8
BLACK
6
CONTINUOUS
10
90.7795519999999954
20
-56.8110739999999979
11
90.7273409999999956
21
-56.9015050000000002
0
LINE
8
BLACK
6
CONTINUOUS
10
90.7273409999999956
20
-56.9015050000000002
11
90.6928429999999963
21
-56.9408429999999939
0
LINE
8
BLACK
6
CONTINUOUS
10
90.6928429999999963
20
-56.9408429999999939
11
89.1599999999999966
21
-58.4736860000000007
0
LINE
8
BLACK
6
CONTINUOUS
10
89.1599999999999966
20
-58.4736860000000007
11
89.1599999999999966
21
-59.0180000000000007
0
LINE
8
BLACK
6
CONTINUOUS
10
89.1599999999999966
20
-59.0180000000000007
11
89.1531489999999991
21
-59.0524419999999992
0
LINE
8
BLACK
6
CONTINUOUS
10
89.1531489999999991
20
-59.0524419999999992
11
89.1336399999999998
21
-59.0816400000000002
0
LINE
8
BLACK
6
CONTINUOUS
10
89.1336399999999998
20
-59.0816400000000002
11
89.1044419999999917
21
-59.1011489999999995
0
LINE
8
BLACK
6
CONTINUOUS
10
89.1044419999999917
20
-59.1011489999999995
11
89.0699999999999932
21
-59.107999999999997
0
LINE
8
BLACK
6
CONTINUOUS
10
89.0699999999999932
20
-59.107999999999997
11
88.5256859999999932
21
-59.107999999999997
0
LINE
8
BLACK
6
CONTINUOUS
10
88.5256859999999932
20
-59.107999999999997
11
87.1610000000000014
21
-60.4726859999999959
0
LINE
8
BLACK
6
CONTINUOUS
10
87.1610000000000014
20
-60.4726859999999959
11
87.1610000000000014
21
-64.3309799999999967
0
LINE
8
BLACK
6
CONTINUOUS
10
87.1610000000000014
20
-64.3309799999999967
11
87.1575780000000009
21
-64.383189999999999
0
LINE
8
BLACK
6
CONTINUOUS
10
87.1575780000000009
20
-64.383189999999999
11
87.1305519999999945
21
-64.4840540000000004
0
LINE
8
BLACK
6
CONTINUOUS
10
87.1305519999999945
20
-64.4840540000000004
11
87.0783409999999947
21
-64.5744849999999957
0
LINE
8
BLACK
6
CONTINUOUS
10
87.0783409999999947
20
-64.5744849999999957
11
87.0438429999999954
21
-64.6138229999999965
0
LINE
8
BLACK
6
CONTINUOUS
10
87.0438429999999954
20
-64.6138229999999965
11
81.3599999999999994
21
-70.2976659999999924
0
LINE
8
BLACK
6
CONTINUOUS
10
81.3599999999999994
20
-70.2976659999999924
11
81.3599999999999994
21
-70.9080000000000013
0
LINE
8
BLACK
6
CONTINUOUS
10
81.3599999999999994
20
-70.9080000000000013
11
80.4599999999999937
21
-70.9080000000000013
0
LINE
8
BLACK
6
CONTINUOUS
10
80.4599999999999937
20
-70.9080000000000013
11
80.4599999999999937
21
-70.8079999999999927
0
LINE
8
BLACK
6
CONTINUOUS
10
80.4599999999999937
20
-70.8079999999999927
11
77.2599999999999909
21
-70.8079999999999927
0
LINE
8
BLACK
6
CONTINUOUS
10
77.2599999999999909
20
-70.8079999999999927
11
77.2599999999999909
21
-70.9080000000000013
0
LINE
8
BLACK
6
CONTINUOUS
10
77.2599999999999909
20
-70.9080000000000013
11
76.3599999999999994
21
-70.9080000000000013
0
LINE
8
BLACK
6
CONTINUOUS
10
76.3599999999999994
20
-70.9080000000000013
11
76.3599999999999994
21
-69.9080000000000013
0
LINE
8
BLACK
6
CONTINUOUS
10
76.3599999999999994
20
-69.9080000000000013
11
77.2599999999999909
21
-69.9080000000000013
0
LINE
8
BLACK
6
CONTINUOUS
10
77.2599999999999909
20
-69.9080000000000013
11
77.2599999999999909
21
-70.0079999999999956
0
LINE
8
BLACK
6
CONTINUOUS
10
77.2599999999999909
20
-70.0079999999999956
11
80.4599999999999937
21
-70.0079999999999956
0
LINE
8
BLACK
6
CONTINUOUS
10
80.4599999999999937
20
-70.0079999999999956
11
80.4599999999999937
21
-69.9080000000000013
0
LINE
8
BLACK
6
CONTINUOUS
10
80.4599999999999937
20
-69.9080000000000013
11
80.6182939999999917
21
-69.9080000000000013
0
LINE
8
BLACK
6
CONTINUOUS
10
80.6182939999999917
20
-69.9080000000000013
11
86.36099999999999
21
-64.1652940000000029
0
LINE
8
BLACK
6
CONTINUOUS
10
86.36099999999999
20
-64.1652940000000029
11
86.36099999999999
21
-60.6454999999999984
0
LINE
8
BLACK
6
CONTINUOUS
10
86.36099999999999
20
-60.6454999999999984
11
83.3100000000000023
21
-60.6454999999999984
0
LINE
8
BLACK
6
CONTINUOUS
10
83.3100000000000023
20
-60.6454999999999984
11
83.3100000000000023
21
-60.6579999999999941
0
LINE
8
BLACK
6
CONTINUOUS
10
83.3100000000000023
20
-60.6579999999999941
11
83.2909700000000015
21
-60.7536709999999971
0
LINE
8
BLACK
6
CONTINUOUS
10
83.2909700000000015
20
-60.7536709999999971
11
83.2367769999999894
21
-60.8347769999999954
0
LINE
8
BLACK
6
CONTINUOUS
10
83.2367769999999894
20
-60.8347769999999954
11
83.1556709999999981
21
-60.8889700000000005
0
LINE
8
BLACK
6
CONTINUOUS
10
83.1556709999999981
20
-60.8889700000000005
11
83.0600000000000023
21
-60.9079999999999941
0
LINE
8
BLACK
6
CONTINUOUS
10
83.0600000000000023
20
-60.9079999999999941
11
81.7599999999999909
21
-60.9079999999999941
0
LINE
8
BLACK
6
CONTINUOUS
10
81.7599999999999909
20
-60.9079999999999941
11
81.6643289999999951
21
-60.8889700000000005
0
LINE
8
BLACK
6
CONTINUOUS
10
81.6643289999999951
20
-60.8889700000000005
11
81.5832229999999896
21
-60.8347769999999954
0
LINE
8
BLACK
6
CONTINUOUS
10
81.5832229999999896
20
-60.8347769999999954
11
81.5290299999999917
21
-60.7536709999999971
0
LINE
8
BLACK
6
CONTINUOUS
10
81.5290299999999917
20
-60.7536709999999971
11
81.5099999999999909
21
-60.6579999999999941
0
LINE
8
BLACK
6
CONTINUOUS
10
81.5099999999999909
20
-60.6579999999999941
11
81.5099999999999909
21
-59.8329999999999984
0
LINE
8
BLACK
6
CONTINUOUS
10
81.5099999999999909
20
-59.8329999999999984
11
81.5290299999999917
21
-59.7373289999999955
0
LINE
8
BLACK
6
CONTINUOUS
10
81.5290299999999917
20
-59.7373289999999955
11
81.5832229999999896
21
-59.6562229999999971
0
LINE
8
BLACK
6
CONTINUOUS
10
81.5832229999999896
20
-59.6562229999999971
11
81.6643289999999951
21
-59.6020299999999992
0
LINE
8
BLACK
6
CONTINUOUS
10
81.6643289999999951
20
-59.6020299999999992
11
81.7599999999999909
21
-59.5829999999999984
0
LINE
8
BLACK
6
CONTINUOUS
10
81.7599999999999909
20
-59.5829999999999984
11
83.0600000000000023
21
-59.5829999999999984
0
LINE
8
BLACK
6
CONTINUOUS
10
83.0600000000000023
20
-59.5829999999999984
11
83.1556709999999981
21
-59.6020299999999992
0
LINE
8
BLACK
6
CONTINUOUS
10
83.1556709999999981
20
-59.6020299999999992
11
83.2367769999999894
21
-59.6562229999999971
0
LINE
8
BLACK
6
CONTINUOUS
10
83.2367769999999894
20
-59.6562229999999971
11
83.2909700000000015
21
-59.7373289999999955
0
LINE
8
BLACK
6
CONTINUOUS
10
83.2909700000000015
20
-59.7373289999999955
11
83.3100000000000023
21
-59.8329999999999984
0
LINE
8
BLACK
6
CONTINUOUS
10
83.3100000000000023
20
-59.8329999999999984
11
83.3100000000000023
21
-59.8454999999999941
0
LINE
8
BLACK
6
CONTINUOUS
10
83.3100000000000023
20
-59.8454999999999941
11
86.6568139999999971
21
-59.8454999999999941
0
LINE
8
BLACK
6
CONTINUOUS
10
86.6568139999999971
20
-59.8454999999999941
11
88.2599999999999909
21
-58.2423140000000004
0
LINE
8
BLACK
6
CONTINUOUS
10
88.2599999999999909
20
-58.2423140000000004
11
88.2599999999999909
21
-57.6980000000000004
0
LINE
8
BLACK
6
CONTINUOUS
10
88.2599999999999909
20
-57.6980000000000004
11
88.2668510000000026
21
-57.6635579999999948
0
LINE
8
BLACK
6
CONTINUOUS
10
88.2668510000000026
20
-57.6635579999999948
11
88.2863600000000019
21
-57.6343600000000009
0
LINE
8
BLACK
6
CONTINUOUS
10
88.2863600000000019
20
-57.6343600000000009
11
88.3155579999999958
21
-57.6148509999999945
0
LINE
8
BLACK
6
CONTINUOUS
10
88.3155579999999958
20
-57.6148509999999945
11
88.3499999999999943
21
-57.607999999999997
0
LINE
8
BLACK
6
CONTINUOUS
10
88.3499999999999943
20
-57.607999999999997
11
88.8943139999999943
21
-57.607999999999997
0
LINE
8
BLACK
6
CONTINUOUS
10
88.8943139999999943
20
-57.607999999999997
11
90.0099999999999909
21
-56.4923140000000004
0
LINE
8
BLACK
6
CONTINUOUS
10
90.0099999999999909
20
-56.4923140000000004
11
90.0099999999999909
21
-55.9079999999999941
0
LINE
8
BLACK
6
CONTINUOUS
10
90.0099999999999909
20
-55.9079999999999941
11
90.0099999999999909
21
-51.2736859999999979
0
LINE
8
BLACK
6
CONTINUOUS
10
90.0099999999999909
20
-51.2736859999999979
11
88.8943139999999943
21
-50.1580000000000013
0
LINE
8
BLACK
6
CONTINUOUS
10
88.8943139999999943
20
-50.1580000000000013
11
88.3499999999999943
21
-50.1580000000000013
0
LINE
8
BLACK
6
CONTINUOUS
10
88.3499999999999943
20
-50.1580000000000013
11
88.3155579999999958
21
-50.1511489999999966
0
LINE
8
BLACK
6
CONTINUOUS
10
88.3155579999999958
20
-50.1511489999999966
11
88.2863600000000019
21
-50.1316399999999973
0
LINE
8
BLACK
6
CONTINUOUS
10
88.2863600000000019
20
-50.1316399999999973
11
88.2668510000000026
21
-50.1024419999999964
0
LINE
8
BLACK
6
CONTINUOUS
10
88.2668510000000026
20
-50.1024419999999964
11
88.2599999999999909
21
-50.0679999999999978
0
LINE
8
BLACK
6
CONTINUOUS
10
88.2599999999999909
20
-50.0679999999999978
11
88.2599999999999909
21
-48.7479999999999976
0
LINE
8
BLACK
6
CONTINUOUS
10
88.2599999999999909
20
-48.7479999999999976
11
88.2668510000000026
21
-48.713557999999999
0
LINE
8
BLACK
6
CONTINUOUS
10
88.2668510000000026
20
-48.713557999999999
11
88.2863600000000019
21
-48.6843599999999981
0
LINE
8
BLACK
6
CONTINUOUS
10
88.2863600000000019
20
-48.6843599999999981
11
88.3100000000000023
21
-48.6685639999999964
0
LINE
8
BLACK
6
CONTINUOUS
10
88.3100000000000023
20
-48.6685639999999964
11
88.3100000000000023
21
-48.3736859999999993
0
LINE
8
BLACK
6
CONTINUOUS
10
88.3100000000000023
20
-48.3736859999999993
11
87.7443140000000028
21
-47.8079999999999998
0
LINE
8
BLACK
6
CONTINUOUS
10
87.7443140000000028
20
-47.8079999999999998
11
84.0756849999999929
21
-47.8079999999999998
0
LINE
8
BLACK
6
CONTINUOUS
10
84.0756849999999929
20
-47.8079999999999998
11
82.8100000000000023
21
-49.0736849999999976
0
LINE
8
BLACK
6
CONTINUOUS
10
82.8100000000000023
20
-49.0736849999999976
11
82.8100000000000023
21
-50.5829999999999984
0
LINE
8
BLACK
6
CONTINUOUS
10
82.8100000000000023
20
-50.5829999999999984
11
83.0600000000000023
21
-50.5829999999999984
0
LINE
8
BLACK
6
CONTINUOUS
10
83.0600000000000023
20
-50.5829999999999984
11
83.1556709999999981
21
-50.6020299999999992
0
LINE
8
BLACK
6
CONTINUOUS
10
83.1556709999999981
20
-50.6020299999999992
11
83.2367769999999894
21
-50.6562229999999971
0
LINE
8
BLACK
6
CONTINUOUS
10
83.2367769999999894
20
-50.6562229999999971
11
83.2909700000000015
21
-50.7373289999999955
0
LINE
8
BLACK
6
CONTINUOUS
10
83.2909700000000015
20
-50.7373289999999955
11
83.3100000000000023
21
-50.8329999999999984
0
LINE
8
BLACK
6
CONTINUOUS
10
83.3100000000000023
20
-50.8329999999999984
11
83.3100000000000023
21
-51.6579999999999941
0
LINE
8
BLACK
6
CONTINUOUS
10
83.3100000000000023
20
-51.6579999999999941
11
83.2909700000000015
21
-51.7536709999999971
0
LINE
8
BLACK
6
CONTINUOUS
10
83.2909700000000015
20
-51.7536709999999971
11
83.2367769999999894
21
-51.8347769999999954
0
LINE
8
BLACK
6
CONTINUOUS
10
83.2367769999999894
20
-51.8347769999999954
11
83.1556709999999981
21
-51.8889700000000005
0
LINE
8
BLACK
6
CONTINUOUS
10
83.1556709999999981
20
-51.8889700000000005
11
83.0600000000000023
21
-51.9079999999999941
0
LINE
8
BLACK
6
CONTINUOUS
10
83.0600000000000023
20
-51.9079999999999941
11
82.3131860000000017
21
-51.9079999999999941
0
LINE
8
BLACK
6
CONTINUOUS
10
82.3131860000000017
20
-51.9079999999999941
11
81.9783429999999953
21
-52.2428430000000006
0
LINE
8
BLACK
6
CONTINUOUS
10
81.9783429999999953
20
-52.2428430000000006
11
81.9390049999999945
21
-52.2773409999999998
0
LINE
8
BLACK
6
CONTINUOUS
10
81.9390049999999945
20
-52.2773409999999998
11
81.8485739999999993
21
-52.3295519999999996
0
LINE
8
BLACK
6
CONTINUOUS
10
81.8485739999999993
20
-52.3295519999999996
11
81.7477099999999979
21
-52.356577999999999
0
LINE
8
BLACK
6
CONTINUOUS
10
81.7477099999999979
20
-52.356577999999999
11
81.6954999999999956
21
-52.3599999999999994
0
LINE
8
BLACK
6
CONTINUOUS
10
81.6954999999999956
20
-52.3599999999999994
11
78.125
21
-52.3599999999999994
0
LINE
8
BLACK
6
CONTINUOUS
10
78.125
20
-52.3599999999999994
11
78.125
21
-52.4600000000000009
0
LINE
8
BLACK
6
CONTINUOUS
10
78.125
20
-52.4600000000000009
11
78.1135730000000024
21
-52.5662829999999985
0
LINE
8
BLACK
6
CONTINUOUS
10
78.1135730000000024
20
-52.5662829999999985
11
78.0638390000000015
21
-52.699624
0
LINE
8
BLACK
6
CONTINUOUS
10
78.0638390000000015
20
-52.699624
11
77.9785529999999909
21
-52.8135529999999989
0
LINE
8
BLACK
6
CONTINUOUS
10
77.9785529999999909
20
-52.8135529999999989
11
77.8646239999999921
21
-52.8988389999999953
0
LINE
8
BLACK
6
CONTINUOUS
10
77.8646239999999921
20
-52.8988389999999953
11
77.7312829999999906
21
-52.9485729999999961
0
LINE
8
BLACK
6
CONTINUOUS
10
77.7312829999999906
20
-52.9485729999999961
11
77.625
21
-52.9600000000000009
0
LINE
8
BLACK
6
CONTINUOUS
10
77.625
20
-52.9600000000000009
11
75.875
21
-52.9600000000000009
0
LINE
8
BLACK
6
CONTINUOUS
10
75.875
20
-52.9600000000000009
11
75.7687169999999952
21
-52.9485729999999961
0
LINE
8
BLACK
6
CONTINUOUS
10
75.7687169999999952
20
-52.9485729999999961
11
75.6353759999999937
21
-52.8988389999999953
0
LINE
8
BLACK
6
CONTINUOUS
10
75.6353759999999937
20
-52.8988389999999953
11
75.5214469999999949
21
-52.8135529999999989
0
LINE
8
BLACK
6
CONTINUOUS
10
75.5214469999999949
20
-52.8135529999999989
11
75.4361609999999985
21
-52.699624
0
LINE
8
BLACK
6
CONTINUOUS
10
75.4361609999999985
20
-52.699624
11
75.3864269999999976
21
-52.5662829999999985
0
LINE
8
BLACK
6
CONTINUOUS
10
75.3864269999999976
20
-52.5662829999999985
11
75.375
21
-52.4600000000000009
0
LINE
8
BLACK
6
CONTINUOUS
10
75.375
20
-52.4600000000000009
11
75.375
21
-51.4600000000000009
0
LINE
8
BLACK
6
CONTINUOUS
10
75.375
20
-51.4600000000000009
11
75.3864269999999976
21
-51.3537169999999961
0
LINE
8
BLACK
6
CONTINUOUS
10
75.3864269999999976
20
-51.3537169999999961
11
75.4361609999999985
21
-51.2203759999999946
0
LINE
8
BLACK
6
CONTINUOUS
10
75.4361609999999985
20
-51.2203759999999946
11
75.5214469999999949
21
-51.1064469999999957
0
LINE
8
BLACK
6
CONTINUOUS
10
75.5214469999999949
20
-51.1064469999999957
11
75.6353759999999937
21
-51.0211609999999993
0
LINE
8
BLACK
6
CONTINUOUS
10
75.6353759999999937
20
-51.0211609999999993
11
75.7687169999999952
21
-50.9714269999999985
0
LINE
8
BLACK
6
CONTINUOUS
10
75.7687169999999952
20
-50.9714269999999985
11
75.875
21
-50.9600000000000009
0
LINE
8
BLACK
6
CONTINUOUS
10
75.875
20
-50.9600000000000009
11
77.625
21
-50.9600000000000009
0
LINE
8
BLACK
6
CONTINUOUS
10
77.625
20
-50.9600000000000009
11
77.7312829999999906
21
-50.9714269999999985
0
LINE
8
BLACK
6
CONTINUOUS
10
77.7312829999999906
20
-50.9714269999999985
11
77.8646239999999921
21
-51.0211609999999993
0
LINE
8
BLACK
6
CONTINUOUS
10
77.8646239999999921
20
-51.0211609999999993
11
77.9785529999999909
21
-51.1064469999999957
0
LINE
8
BLACK
6
CONTINUOUS
10
77.9785529999999909
20
-51.1064469999999957
11
78.0638390000000015
21
-51.2203759999999946
0
LINE
8
BLACK
6
CONTINUOUS
10
78.0638390000000015
20
-51.2203759999999946
11
78.1135730000000024
21
-51.3537169999999961
0
LINE
8
BLACK
6
CONTINUOUS
10
78.1135730000000024
20
-51.3537169999999961
11
78.125
21
-51.4600000000000009
0
LINE
8
BLACK
6
CONTINUOUS
10
78.125
20
-51.4600000000000009
11
78.125
21
-51.5599999999999952
0
LINE
8
BLACK
6
CONTINUOUS
10
78.125
20
-51.5599999999999952
11
81.5099999999999909
21
-51.5599999999999952
0
LINE
8
BLACK
6
CONTINUOUS
10
81.5099999999999909
20
-51.5599999999999952
11
81.5099999999999909
21
-50.8329999999999984
0
LINE
8
BLACK
6
CONTINUOUS
10
81.5099999999999909
20
-50.8329999999999984
11
81.5290299999999917
21
-50.7373289999999955
0
LINE
8
BLACK
6
CONTINUOUS
10
81.5290299999999917
20
-50.7373289999999955
11
81.5832229999999896
21
-50.6562229999999971
0
LINE
8
BLACK
6
CONTINUOUS
10
81.5832229999999896
20
-50.6562229999999971
11
81.6643289999999951
21
-50.6020299999999992
0
LINE
8
BLACK
6
CONTINUOUS
10
81.6643289999999951
20
-50.6020299999999992
11
81.7599999999999909
21
-50.5829999999999984
0
LINE
8
BLACK
6
CONTINUOUS
10
81.7599999999999909
20
-50.5829999999999984
11
82.0099999999999909
21
-50.5829999999999984
0
LINE
8
BLACK
6
CONTINUOUS
10
82.0099999999999909
20
-50.5829999999999984
11
82.0099999999999909
21
-48.9080000000000013
0
LINE
8
BLACK
6
CONTINUOUS
10
82.0099999999999909
20
-48.9080000000000013
11
82.0134219999999914
21
-48.8557899999999989
0
LINE
8
BLACK
6
CONTINUOUS
10
82.0134219999999914
20
-48.8557899999999989
11
82.0404479999999978
21
-48.754926999999995
0
LINE
8
BLACK
6
CONTINUOUS
10
82.0404479999999978
20
-48.754926999999995
11
82.0404479999999978
21
-48.7549259999999975
0
LINE
8
BLACK
6
CONTINUOUS
10
82.0404479999999978
20
-48.7549259999999975
11
82.0926589999999976
21
-48.6644949999999952
0
LINE
8
BLACK
6
CONTINUOUS
10
82.0926589999999976
20
-48.6644949999999952
11
82.1271569999999969
21
-48.6251569999999944
0
LINE
8
BLACK
6
CONTINUOUS
10
82.1271569999999969
20
-48.6251569999999944
11
83.6271569999999969
21
-47.125157999999999
0
LINE
8
BLACK
6
CONTINUOUS
10
83.6271569999999969
20
-47.125157999999999
11
83.6664949999999976
21
-47.0906589999999952
0
LINE
8
BLACK
6
CONTINUOUS
10
83.6664949999999976
20
-47.0906589999999952
11
83.7569269999999904
21
-47.0384479999999954
0
LINE
8
BLACK
6
CONTINUOUS
10
83.7569269999999904
20
-47.0384479999999954
11
83.8577899999999943
21
-47.011421999999996
0
LINE
8
BLACK
6
CONTINUOUS
10
83.8577899999999943
20
-47.011421999999996
11
83.9099999999999966
21
-47.0079999999999956
0
LINE
8
BLACK
6
CONTINUOUS
10
83.9099999999999966
20
-47.0079999999999956
11
87.9099999999999966
21
-47.0079999999999956
0
LINE
8
BLACK
6
CONTINUOUS
10
87.9099999999999966
20
-47.0079999999999956
11
87.9622099999999989
21
-47.011421999999996
0
LINE
8
BLACK
6
CONTINUOUS
10
77.7312829999999906
20
-53.5114269999999976
11
77.8646239999999921
21
-53.5611609999999985
0
LINE
8
BLACK
6
CONTINUOUS
10
77.8646239999999921
20
-53.5611609999999985
11
77.9785529999999909
21
-53.6464469999999949
0
LINE
8
BLACK
6
CONTINUOUS
10
77.9785529999999909
20
-53.6464469999999949
11
78.0638390000000015
21
-53.7603760000000008
0
LINE
8
BLACK
6
CONTINUOUS
10
78.0638390000000015
20
-53.7603760000000008
11
78.1135730000000024
21
-53.8937169999999952
0
LINE
8
BLACK
6
CONTINUOUS
10
78.1135730000000024
20
-53.8937169999999952
11
78.125
21
-54.
0
LINE
8
BLACK
6
CONTINUOUS
10
78.125
20
-54.
11
78.125
21
-54.0999999999999943
0
LINE
8
BLACK
6
CONTINUOUS
10
78.125
20
-54.0999999999999943
11
81.5099999999999909
21
-54.0999999999999943
0
LINE
8
BLACK
6
CONTINUOUS
10
81.5099999999999909
20
-54.0999999999999943
11
81.5099999999999909
21
-53.9579999999999984
0
LINE
8
BLACK
6
CONTINUOUS
10
81.5099999999999909
20
-53.9579999999999984
11
81.5290299999999917
21
-53.8623289999999955
0
LINE
8
BLACK
6
CONTINUOUS
10
81.5290299999999917
20
-53.8623289999999955
11
81.5832229999999896
21
-53.7812229999999971
0
LINE
8
BLACK
6
CONTINUOUS
10
81.5832229999999896
20
-53.7812229999999971
11
81.6643289999999951
21
-53.7270299999999992
0
LINE
8
BLACK
6
CONTINUOUS
10
81.6643289999999951
20
-53.7270299999999992
11
81.7599999999999909
21
-53.7079999999999984
0
LINE
8
BLACK
6
CONTINUOUS
10
81.7599999999999909
20
-53.7079999999999984
11
83.0600000000000023
21
-53.7079999999999984
0
LINE
8
BLACK
6
CONTINUOUS
10
83.0600000000000023
20
-53.7079999999999984
11
83.1556709999999981
21
-53.7270299999999992
0
LINE
8
BLACK
6
CONTINUOUS
10
83.1556709999999981
20
-53.7270299999999992
11
83.2367769999999894
21
-53.7812229999999971
0
LINE
8
BLACK
6
CONTINUOUS
10
83.2367769999999894
20
-53.7812229999999971
11
83.2909700000000015
21
-53.8623289999999955
0
LINE
8
BLACK
6
CONTINUOUS
10
83.2909700000000015
20
-53.8623289999999955
11
83.3100000000000023
21
-53.9579999999999984
0
LINE
8
BLACK
6
CONTINUOUS
10
83.3100000000000023
20
-53.9579999999999984
11
83.3100000000000023
21
-53.9704999999999941
0
LINE
8
BLACK
6
CONTINUOUS
10
83.3100000000000023
20
-53.9704999999999941
11
84.9599999999999937
21
-53.9704999999999941
0
LINE
8
BLACK
6
CONTINUOUS
10
84.9599999999999937
20
-53.9704999999999941
11
84.9599999999999937
21
-53.6479999999999961
0
LINE
8
BLACK
6
CONTINUOUS
10
84.9599999999999937
20
-53.6479999999999961
11
84.9668509999999912
21
-53.6135579999999976
0
LINE
8
BLACK
6
CONTINUOUS
10
84.9668509999999912
20
-53.6135579999999976
11
84.9863599999999906
21
-53.5843599999999967
0
LINE
8
BLACK
6
CONTINUOUS
10
84.9863599999999906
20
-53.5843599999999967
11
85.0155579999999986
21
-53.5648509999999973
0
LINE
8
BLACK
6
CONTINUOUS
10
85.0155579999999986
20
-53.5648509999999973
11
85.0499999999999972
21
-53.5579999999999998
0
LINE
8
BLACK
6
CONTINUOUS
10
85.0499999999999972
20
-53.5579999999999998
11
85.769999999999996
21
-53.5579999999999998
0
LINE
8
BLACK
6
CONTINUOUS
10
85.769999999999996
20
-53.5579999999999998
11
85.8044419999999946
21
-53.5648509999999973
0
LINE
8
BLACK
6
CONTINUOUS
10
85.8044419999999946
20
-53.5648509999999973
11
85.8336400000000026
21
-53.5843599999999967
0
LINE
8
BLACK
6
CONTINUOUS
10
85.8336400000000026
20
-53.5843599999999967
11
85.8531490000000019
21
-53.6135579999999976
0
LINE
8
BLACK
6
CONTINUOUS
10
85.8531490000000019
20
-53.6135579999999976
11
85.8599999999999994
21
-53.6479999999999961
0
LINE
8
BLACK
6
CONTINUOUS
10
85.8599999999999994
20
-53.6479999999999961
11
85.8599999999999994
21
-54.9679999999999964
0
LINE
8
BLACK
6
CONTINUOUS
10
85.8599999999999994
20
-54.9679999999999964
11
85.8531490000000019
21
-55.0024419999999949
0
LINE
8
BLACK
6
CONTINUOUS
10
85.8531490000000019
20
-55.0024419999999949
11
85.8336400000000026
21
-55.0316399999999959
0
LINE
8
BLACK
6
CONTINUOUS
10
85.8336400000000026
20
-55.0316399999999959
11
85.8044419999999946
21
-55.0511489999999952
0
LINE
8
BLACK
6
CONTINUOUS
10
85.8044419999999946
20
-55.0511489999999952
11
85.769999999999996
21
-55.0579999999999998
0
LINE
8
BLACK
6
CONTINUOUS
10
85.769999999999996
20
-55.0579999999999998
11
85.0499999999999972
21
-55.0579999999999998
0
LINE
8
BLACK
6
CONTINUOUS
10
85.0499999999999972
20
-55.0579999999999998
11
85.0155579999999986
21
-55.0511489999999952
0
LINE
8
BLACK
6
CONTINUOUS
10
85.0155579999999986
20
-55.0511489999999952
11
84.9863599999999906
21
-55.0316399999999959
0
LINE
8
BLACK
6
CONTINUOUS
10
84.9863599999999906
20
-55.0316399999999959
11
84.9668509999999912
21
-55.0024419999999949
0
LINE
8
BLACK
6
CONTINUOUS
10
84.9668509999999912
20
-55.0024419999999949
11
84.9599999999999937
21
-54.9679999999999964
0
LINE
8
BLACK
6
CONTINUOUS
10
84.9599999999999937
20
-54.9679999999999964
11
84.9599999999999937
21
-54.7704999999999984
0
LINE
8
BLACK
6
CONTINUOUS
10
84.9599999999999937
20
-54.7704999999999984
11
83.3100000000000023
21
-54.7704999999999984
0
LINE
8
BLACK
6
CONTINUOUS
10
83.3100000000000023
20
-54.7704999999999984
11
83.3100000000000023
21
-54.7829999999999941
0
LINE
8
BLACK
6
CONTINUOUS
10
83.3100000000000023
20
-54.7829999999999941
11
83.2909700000000015
21
-54.8786709999999971
0
LINE
8
BLACK
6
CONTINUOUS
10
83.2909700000000015
20
-54.8786709999999971
11
83.2367769999999894
21
-54.9597769999999954
0
LINE
8
BLACK
6
CONTINUOUS
10
83.2367769999999894
20
-54.9597769999999954
11
83.1556709999999981
21
-55.0139700000000005
0
LINE
8
BLACK
6
CONTINUOUS
10
83.1556709999999981
20
-55.0139700000000005
11
83.0600000000000023
21
-55.0329999999999941
0
LINE
8
BLACK
6
CONTINUOUS
10
83.0600000000000023
20
-55.0329999999999941
11
81.7599999999999909
21
-55.0329999999999941
0
LINE
8
BLACK
6
CONTINUOUS
10
81.7599999999999909
20
-55.0329999999999941
11
81.6643289999999951
21
-55.0139700000000005
0
LINE
8
BLACK
6
CONTINUOUS
10
81.6643289999999951
20
-55.0139700000000005
11
81.5832229999999896
21
-54.9597769999999954
0
LINE
8
BLACK
6
CONTINUOUS
10
81.5832229999999896
20
-54.9597769999999954
11
81.5432819999999907
21
-54.8999999999999986
0
LINE
8
BLACK
6
CONTINUOUS
10
81.5432819999999907
20
-54.8999999999999986
11
78.125
21
-54.8999999999999986
0
LINE
8
BLACK
6
CONTINUOUS
10
78.125
20
-54.8999999999999986
11
78.125
21
-55.
0
LINE
8
BLACK
6
CONTINUOUS
10
78.125
20
-55.
11
78.1135730000000024
21
-55.1062829999999977
0
LINE
8
BLACK
6
CONTINUOUS
10
78.1135730000000024
20
-55.1062829999999977
11
78.0638390000000015
21
-55.2396239999999992
0
LINE
8
BLACK
6
CONTINUOUS
10
78.0638390000000015
20
-55.2396239999999992
11
77.9785529999999909
21
-55.353552999999998
0
LINE
8
BLACK
6
CONTINUOUS
10
77.9785529999999909
20
-55.353552999999998
11
77.8646239999999921
21
-55.4388389999999944
0
LINE
8
BLACK
6
CONTINUOUS
10
77.8646239999999921
20
-55.4388389999999944
11
77.7312829999999906
21
-55.4885729999999953
0
LINE
8
BLACK
6
CONTINUOUS
10
77.7312829999999906
20
-55.4885729999999953
11
77.625
21
-55.5
0
LINE
8
BLACK
6
CONTINUOUS
10
77.625
20
-55.5
11
75.875
21
-55.5
0
LINE
8
BLACK
6
CONTINUOUS
10
75.875
20
-55.5
11
75.7687169999999952
21
-55.4885729999999953
0
LINE
8
BLACK
6
CONTINUOUS
10
75.7687169999999952
20
-55.4885729999999953
11
75.6353759999999937
21
-55.4388389999999944
0
LINE
8
BLACK
6
CONTINUOUS
10
75.6353759999999937
20
-55.4388389999999944
11
75.5214469999999949
21
-55.353552999999998
0
LINE
8
BLACK
6
CONTINUOUS
10
75.5214469999999949
20
-55.353552999999998
11
75.4361609999999985
21
-55.2396239999999992
0
LINE
8
BLACK
6
CONTINUOUS
10
75.4361609999999985
20
-55.2396239999999992
11
75.3864269999999976
21
-55.1062829999999977
0
LINE
8
BLACK
6
CONTINUOUS
10
75.3864269999999976
20
-55.1062829999999977
11
75.375
21
-55.
0
LINE
8
BLACK
6
CONTINUOUS
10
75.375
20
-55.
11
75.375
21
-54.8999999999999986
0
LINE
8
BLACK
6
CONTINUOUS
10
75.375
20
-54.8999999999999986
11
74.7336849999999941
21
-54.8999999999999986
0
LINE
8
BLACK
6
CONTINUOUS
10
74.7336849999999941
20
-54.8999999999999986
11
74.3100000000000023
21
-55.3236849999999976
0
LINE
8
BLACK
6
CONTINUOUS
10
74.3100000000000023
20
-55.3236849999999976
11
74.3100000000000023
21
-66.2423139999999933
0
LINE
8
BLACK
6
CONTINUOUS
10
74.3100000000000023
20
-66.2423139999999933
11
75.0756849999999929
21
-67.0079999999999956
0
LINE
8
BLACK
6
CONTINUOUS
10
75.0756849999999929
20
-67.0079999999999956
11
78.2068139999999943
21
-67.0079999999999956
0
LINE
8
BLACK
6
CONTINUOUS
10
78.2068139999999943
20
-67.0079999999999956
11
81.5099999999999909
21
-63.7048139999999989
0
LINE
8
BLACK
6
CONTINUOUS
10
81.5099999999999909
20
-63.7048139999999989
11
81.5099999999999909
21
-62.9579999999999984
0
LINE
8
BLACK
6
CONTINUOUS
10
81.5099999999999909
20
-62.9579999999999984
11
81.5290299999999917
21
-62.8623289999999955
0
LINE
8
BLACK
6
CONTINUOUS
10
81.5290299999999917
20
-62.8623289999999955
11
81.5832229999999896
21
-62.7812229999999971
0
LINE
8
BLACK
6
CONTINUOUS
10
81.5832229999999896
20
-62.7812229999999971
11
81.6643289999999951
21
-62.7270299999999992
0
LINE
8
BLACK
6
CONTINUOUS
10
81.6643289999999951
20
-62.7270299999999992
11
81.7599999999999909
21
-62.7079999999999984
0
LINE
8
BLACK
6
CONTINUOUS
10
81.7599999999999909
20
-62.7079999999999984
11
83.0600000000000023
21
-62.7079999999999984
0
LINE
8
BLACK
6
CONTINUOUS
10
83.0600000000000023
20
-62.7079999999999984
11
83.1556709999999981
21
-62.7270299999999992
0
LINE
8
BLACK
6
CONTINUOUS
10
83.1556709999999981
20
-62.7270299999999992
11
83.2367769999999894
21
-62.7812229999999971
0
LINE
8
BLACK
6
CONTINUOUS
10
83.2367769999999894
20
-62.7812229999999971
11
83.2880770000000012
21
-62.857999999999997
0
LINE
8
BLACK
6
CONTINUOUS
10
83.2880770000000012
20
-62.857999999999997
11
84.9599999999999937
21
-62.857999999999997
0
LINE
8
BLACK
6
CONTINUOUS
10
84.9599999999999937
20
-62.857999999999997
11
84.9599999999999937
21
-62.597999999999999
0
LINE
8
BLACK
6
CONTINUOUS
10
84.9599999999999937
20
-62.597999999999999
11
84.9668509999999912
21
-62.5635580000000004
0
LINE
8
BLACK
6
CONTINUOUS
10
84.9668509999999912
20
-62.5635580000000004
11
84.9863599999999906
21
-62.5343599999999995
0
LINE
8
BLACK
6
CONTINUOUS
10
84.9863599999999906
20
-62.5343599999999995
11
85.0155579999999986
21
-62.5148510000000002
0
LINE
8
BLACK
6
CONTINUOUS
10
85.0155579999999986
20
-62.5148510000000002
11
85.0499999999999972
21
-62.5079999999999956
0
LINE
8
BLACK
6
CONTINUOUS
10
85.0499999999999972
20
-62.5079999999999956
11
85.769999999999996
21
-62.5079999999999956
0
LINE
8
BLACK
6
CONTINUOUS
10
85.769999999999996
20
-62.5079999999999956
11
85.8044419999999946
21
-62.5148510000000002
0
LINE
8
BLACK
6
CONTINUOUS
10
85.8044419999999946
20
-62.5148510000000002
11
85.8336400000000026
21
-62.5343599999999995
0
LINE
8
BLACK
6
CONTINUOUS
10
85.8336400000000026
20
-62.5343599999999995
11
85.8531490000000019
21
-62.5635580000000004
0
LINE
8
BLACK
6
CONTINUOUS
10
85.8531490000000019
20
-62.5635580000000004
11
85.8599999999999994
21
-62.597999999999999
0
LINE
8
BLACK
6
CONTINUOUS
10
85.8599999999999994
20
-62.597999999999999
11
85.8599999999999994
21
-63.9179999999999993
0
LINE
8
BLACK
6
CONTINUOUS
10
85.8599999999999994
20
-63.9179999999999993
11
85.8531490000000019
21
-63.9524419999999978
0
LINE
8
BLACK
6
CONTINUOUS
10
85.8531490000000019
20
-63.9524419999999978
11
85.8336400000000026
21
-63.9816399999999987
0
LINE
8
BLACK
6
CONTINUOUS
10
85.8336400000000026
20
-63.9816399999999987
11
85.8044419999999946
21
-64.0011489999999981
0
LINE
8
BLACK
6
CONTINUOUS
10
85.8044419999999946
20
-64.0011489999999981
11
85.769999999999996
21
-64.0079999999999956
0
LINE
8
BLACK
6
CONTINUOUS
10
85.769999999999996
20
-64.0079999999999956
11
85.0499999999999972
21
-64.0079999999999956
0
LINE
8
BLACK
6
CONTINUOUS
10
85.0499999999999972
20
-64.0079999999999956
11
85.0155579999999986
21
-64.0011489999999981
0
LINE
8
BLACK
6
CONTINUOUS
10
85.0155579999999986
20
-64.0011489999999981
11
84.9863599999999906
21
-63.9816399999999987
0
LINE
8
BLACK
6
CONTINUOUS
10
84.9863599999999906
20
-63.9816399999999987
11
84.9668509999999912
21
-63.9524419999999978
0
LINE
8
BLACK
6
CONTINUOUS
10
84.9668509999999912
20
-63.9524419999999978
11
84.9599999999999937
21
-63.9179999999999993
0
LINE
8
BLACK
6
CONTINUOUS
10
84.9599999999999937
20
-63.9179999999999993
11
84.9599999999999937
21
-63.6579999999999941
0
LINE
8
BLACK
6
CONTINUOUS
10
84.9599999999999937
20
-63.6579999999999941
11
83.3100000000000023
21
-63.6579999999999941
0
LINE
8
BLACK
6
CONTINUOUS
10
83.3100000000000023
20
-63.6579999999999941
11
83.3100000000000023
21
-63.7829999999999941
0
LINE
8
BLACK
6
CONTINUOUS
10
83.3100000000000023
20
-63.7829999999999941
11
83.2909700000000015
21
-63.8786709999999971
0
LINE
8
BLACK
6
CONTINUOUS
10
83.2909700000000015
20
-63.8786709999999971
11
83.2367769999999894
21
-63.9597769999999954
0
LINE
8
BLACK
6
CONTINUOUS
10
83.2367769999999894
20
-63.9597769999999954
11
83.1556709999999981
21
-64.0139700000000005
0
LINE
8
BLACK
6
CONTINUOUS
10
83.1556709999999981
20
-64.0139700000000005
11
83.0600000000000023
21
-64.0330000000000013
0
LINE
8
BLACK
6
CONTINUOUS
10
83.0600000000000023
20
-64.0330000000000013
11
82.3131860000000017
21
-64.0330000000000013
0
LINE
8
BLACK
6
CONTINUOUS
10
82.3131860000000017
20
-64.0330000000000013
11
78.655343000000002
21
-67.690843000000001
0
LINE
8
BLACK
6
CONTINUOUS
10
78.655343000000002
20
-67.690843000000001
11
78.6160050000000012
21
-67.7253410000000002
0
LINE
8
BLACK
6
CONTINUOUS
10
78.6160050000000012
20
-67.7253410000000002
11
78.5255739999999918
21
-67.777552
0
LINE
8
BLACK
6
CONTINUOUS
10
78.5255739999999918
20
-67.777552
11
78.4247099999999904
21
-67.8045779999999922
0
LINE
8
BLACK
6
CONTINUOUS
10
78.4247099999999904
20
-67.8045779999999922
11
78.3725000000000023
21
-67.8079999999999927
0
LINE
8
BLACK
6
CONTINUOUS
10
78.3725000000000023
20
-67.8079999999999927
11
74.9099999999999966
21
-67.8079999999999927
0
LINE
8
BLACK
6
CONTINUOUS
10
74.9099999999999966
20
-67.8079999999999927
11
74.8577899999999943
21
-67.8045779999999922
0
LINE
8
BLACK
6
CONTINUOUS
10
74.8577899999999943
20
-67.8045779999999922
11
74.7569269999999904
21
-67.777552
0
LINE
8
BLACK
6
CONTINUOUS
10
74.7569269999999904
20
-67.777552
11
74.6664949999999976
21
-67.7253410000000002
0
LINE
8
BLACK
6
CONTINUOUS
10
74.6664949999999976
20
-67.7253410000000002
11
74.6271579999999943
21
-67.690843000000001
0
LINE
8
BLACK
6
CONTINUOUS
10
74.6271579999999943
20
-67.690843000000001
11
73.6271569999999969
21
-66.690843000000001
0
LINE
8
BLACK
6
CONTINUOUS
10
73.6271569999999969
20
-66.690843000000001
11
73.5926589999999976
21
-66.6515050000000002
0
LINE
8
BLACK
6
CONTINUOUS
10
73.5926589999999976
20
-66.6515050000000002
11
73.5404479999999978
21
-66.5610739999999907
0
LINE
8
BLACK
6
CONTINUOUS
10
73.5404479999999978
20
-66.5610739999999907
11
73.5134219999999914
21
-66.4602100000000036
0
LINE
8
BLACK
6
CONTINUOUS
10
73.5134219999999914
20
-66.4602100000000036
11
73.5099999999999909
21
-66.4080000000000013
0
LINE
8
BLACK
6
CONTINUOUS
10
73.5099999999999909
20
-66.4080000000000013
11
73.5099999999999909
21
-55.1579999999999941
0
LINE
8
BLACK
6
CONTINUOUS
10
73.5099999999999909
20
-55.1579999999999941
11
73.5134219999999914
21
-55.1057899999999989
0
LINE
8
BLACK
6
CONTINUOUS
10
73.5134219999999914
20
-55.1057899999999989
11
73.5334019999999953
21
-55.0312229999999971
0
LINE
8
BLACK
6
CONTINUOUS
10
73.5334019999999953
20
-55.0312229999999971
11
73.5404479999999978
21
-55.0049259999999975
0
LINE
8
BLACK
6
CONTINUOUS
10
73.5404479999999978
20
-55.0049259999999975
11
73.5926589999999976
21
-54.9144949999999952
0
LINE
8
BLACK
6
CONTINUOUS
10
73.5926589999999976
20
-54.9144949999999952
11
73.6271569999999969
21
-54.8751569999999944
0
LINE
8
BLACK
6
CONTINUOUS
10
73.6271569999999969
20
-54.8751569999999944
11
74.2851579999999956
21
-54.2171570000000003
0
LINE
8
BLACK
6
CONTINUOUS
10
74.2851579999999956
20
-54.2171570000000003
11
74.3244949999999989
21
-54.182659000000001
0
LINE
8
BLACK
6
CONTINUOUS
10
74.3244949999999989
20
-54.182659000000001
11
74.4149269999999916
21
-54.1304479999999941
0
LINE
8
BLACK
6
CONTINUOUS
10
74.4149269999999916
20
-54.1304479999999941
11
74.5157899999999955
21
-54.1034219999999948
0
LINE
8
BLACK
6
CONTINUOUS
10
74.5157899999999955
20
-54.1034219999999948
11
74.5679999999999978
21
-54.0999999999999943
0
LINE
8
BLACK
6
CONTINUOUS
10
74.5679999999999978
20
-54.0999999999999943
11
75.375
21
-54.0999999999999943
0
LINE
8
BLACK
6
CONTINUOUS
10
75.375
20
-54.0999999999999943
11
75.375
21
-54.
0
LINE
8
BLACK
6
CONTINUOUS
10
75.375
20
-54.
11
75.3864269999999976
21
-53.8937169999999952
0
LINE
8
BLACK
6
CONTINUOUS
10
75.3864269999999976
20
-53.8937169999999952
11
75.4361609999999985
21
-53.7603760000000008
0
LINE
8
BLACK
6
CONTINUOUS
10
75.4361609999999985
20
-53.7603760000000008
11
75.5214469999999949
21
-53.6464469999999949
0
LINE
8
BLACK
6
CONTINUOUS
10
75.5214469999999949
20
-53.6464469999999949
11
75.6353759999999937
21
-53.5611609999999985
0
LINE
8
BLACK
6
CONTINUOUS
10
75.6353759999999937
20
-53.5611609999999985
11
75.7687169999999952
21
-53.5114269999999976
0
LINE
8
BLACK
6
CONTINUOUS
10
75.7687169999999952
20
-53.5114269999999976
11
75.875
21
-53.5
0
LINE
8
BLACK
6
CONTINUOUS
10
75.875
20
-53.5
11
77.625
21
-53.5
0
LINE
8
BLACK
6
CONTINUOUS
10
77.625
20
-53.5
11
77.7312829999999906
21
-53.5114269999999976
0
LINE
8
BLACK
6
CONTINUOUS
10
61.5662829999999985
20
-63.6714269999999942
11
61.699624
21
-63.7211609999999951
0
LINE
8
BLACK
6
CONTINUOUS
10
61.699624
20
-63.7211609999999951
11
61.8135529999999989
21
-63.8064469999999986
0
LINE
8
BLACK
6
CONTINUOUS
10
61.8135529999999989
20
-63.8064469999999986
11
61.8988389999999953
21
-63.9203759999999974
0
LINE
8
BLACK
6
CONTINUOUS
10
61.8988389999999953
20
-63.9203759999999974
11
61.9485729999999961
21
-64.0537169999999918
0
LINE
8
BLACK
6
CONTINUOUS
10
61.9485729999999961
20
-64.0537169999999918
11
61.9599999999999937
21
-64.1599999999999966
0
LINE
8
BLACK
6
CONTINUOUS
10
61.9599999999999937
20
-64.1599999999999966
11
61.9599999999999937
21
-65.1599999999999966
0
LINE
8
BLACK
6
CONTINUOUS
10
61.9599999999999937
20
-65.1599999999999966
11
61.9485729999999961
21
-65.2662830000000014
0
LINE
8
BLACK
6
CONTINUOUS
10
61.9485729999999961
20
-65.2662830000000014
11
61.8988389999999953
21
-65.3996240000000029
0
LINE
8
BLACK
6
CONTINUOUS
10
61.8988389999999953
20
-65.3996240000000029
11
61.8135529999999989
21
-65.5135530000000017
0
LINE
8
BLACK
6
CONTINUOUS
10
61.8135529999999989
20
-65.5135530000000017
11
61.699624
21
-65.5988389999999981
0
LINE
8
BLACK
6
CONTINUOUS
10
61.699624
20
-65.5988389999999981
11
61.5662829999999985
21
-65.648572999999999
0
LINE
8
BLACK
6
CONTINUOUS
10
61.5662829999999985
20
-65.648572999999999
11
61.4599999999999937
21
-65.6599999999999966
0
LINE
8
BLACK
6
CONTINUOUS
10
61.4599999999999937
20
-65.6599999999999966
11
59.7099999999999937
21
-65.6599999999999966
0
LINE
8
BLACK
6
CONTINUOUS
10
59.7099999999999937
20
-65.6599999999999966
11
59.6037169999999961
21
-65.648572999999999
0
LINE
8
BLACK
6
CONTINUOUS
10
59.6037169999999961
20
-65.648572999999999
11
59.4703759999999946
21
-65.5988389999999981
0
LINE
8
BLACK
6
CONTINUOUS
10
59.4703759999999946
20
-65.5988389999999981
11
59.3564469999999957
21
-65.5135530000000017
0
LINE
8
BLACK
6
CONTINUOUS
10
59.3564469999999957
20
-65.5135530000000017
11
59.2711609999999993
21
-65.3996240000000029
0
LINE
8
BLACK
6
CONTINUOUS
10
59.2711609999999993
20
-65.3996240000000029
11
59.2214269999999985
21
-65.2662830000000014
0
LINE
8
BLACK
6
CONTINUOUS
10
59.2214269999999985
20
-65.2662830000000014
11
59.2100000000000009
21
-65.1599999999999966
0
LINE
8
BLACK
6
CONTINUOUS
10
59.2100000000000009
20
-65.1599999999999966
11
59.2100000000000009
21
-64.1599999999999966
0
LINE
8
BLACK
6
CONTINUOUS
10
59.2100000000000009
20
-64.1599999999999966
11
59.2214269999999985
21
-64.0537169999999918
0
LINE
8
BLACK
6
CONTINUOUS
10
59.2214269999999985
20
-64.0537169999999918
11
59.2711609999999993
21
-63.9203759999999974
0
LINE
8
BLACK
6
CONTINUOUS
10
59.2711609999999993
20
-63.9203759999999974
11
59.3564469999999957
21
-63.8064469999999986
0
LINE
8
BLACK
6
CONTINUOUS
10
59.3564469999999957
20
-63.8064469999999986
11
59.4703759999999946
21
-63.7211609999999951
0
LINE
8
BLACK
6
CONTINUOUS
10
59.4703759999999946
20
-63.7211609999999951
11
59.6037169999999961
21
-63.6714269999999942
0
LINE
8
BLACK
6
CONTINUOUS
10
59.6037169999999961
20
-63.6714269999999942
11
59.7099999999999937
21
-63.6599999999999966
0
LINE
8
BLACK
6
CONTINUOUS
10
59.7099999999999937
20
-63.6599999999999966
11
61.4599999999999937
21
-63.6599999999999966
0
LINE
8
BLACK
6
CONTINUOUS
10
61.4599999999999937
20
-63.6599999999999966
11
61.5662829999999985
21
-63.6714269999999942
0
LINE
8
BLACK
6
CONTINUOUS
10
77.7312829999999906
20
-63.6714269999999942
11
77.8646239999999921
21
-63.7211609999999951
0
LINE
8
BLACK
6
CONTINUOUS
10
77.8646239999999921
20
-63.7211609999999951
11
77.9785529999999909
21
-63.8064469999999986
0
LINE
8
BLACK
6
CONTINUOUS
10
77.9785529999999909
20
-63.8064469999999986
11
78.0638390000000015
21
-63.9203759999999974
0
LINE
8
BLACK
6
CONTINUOUS
10
78.0638390000000015
20
-63.9203759999999974
11
78.1135730000000024
21
-64.0537169999999918
0
LINE
8
BLACK
6
CONTINUOUS
10
78.1135730000000024
20
-64.0537169999999918
11
78.125
21
-64.1599999999999966
0
LINE
8
BLACK
6
CONTINUOUS
10
78.125
20
-64.1599999999999966
11
78.125
21
-65.1599999999999966
0
LINE
8
BLACK
6
CONTINUOUS
10
78.125
20
-65.1599999999999966
11
78.1135730000000024
21
-65.2662830000000014
0
LINE
8
BLACK
6
CONTINUOUS
10
78.1135730000000024
20
-65.2662830000000014
11
78.0638390000000015
21
-65.3996240000000029
0
LINE
8
BLACK
6
CONTINUOUS
10
78.0638390000000015
20
-65.3996240000000029
11
77.9785529999999909
21
-65.5135530000000017
0
LINE
8
BLACK
6
CONTINUOUS
10
77.9785529999999909
20
-65.5135530000000017
11
77.8646239999999921
21
-65.5988389999999981
0
LINE
8
BLACK
6
CONTINUOUS
10
77.8646239999999921
20
-65.5988389999999981
11
77.7312829999999906
21
-65.648572999999999
0
LINE
8
BLACK
6
CONTINUOUS
10
77.7312829999999906
20
-65.648572999999999
11
77.625
21
-65.6599999999999966
0
LINE
8
BLACK
6
CONTINUOUS
10
77.625
20
-65.6599999999999966
11
75.875
21
-65.6599999999999966
0
LINE
8
BLACK
6
CONTINUOUS
10
75.875
20
-65.6599999999999966
11
75.7687169999999952
21
-65.648572999999999
0
LINE
8
BLACK
6
CONTINUOUS
10
75.7687169999999952
20
-65.648572999999999
11
75.6353759999999937
21
-65.5988389999999981
0
LINE
8
BLACK
6
CONTINUOUS
10
75.6353759999999937
20
-65.5988389999999981
11
75.5214469999999949
21
-65.5135530000000017
0
LINE
8
BLACK
6
CONTINUOUS
10
75.5214469999999949
20
-65.5135530000000017
11
75.4361609999999985
21
-65.3996240000000029
0
LINE
8
BLACK
6
CONTINUOUS
10
75.4361609999999985
20
-65.3996240000000029
11
75.3864269999999976
21
-65.2662830000000014
0
LINE
8
BLACK
6
CONTINUOUS
10
75.3864269999999976
20
-65.2662830000000014
11
75.375
21
-65.1599999999999966
0
LINE
8
BLACK
6
CONTINUOUS
10
75.375
20
-65.1599999999999966
11
75.375
21
-64.1599999999999966
0
LINE
8
BLACK
6
CONTINUOUS
10
75.375
20
-64.1599999999999966
11
75.3864269999999976
21
-64.0537169999999918
0
LINE
8
BLACK
6
CONTINUOUS
10
75.3864269999999976
20
-64.0537169999999918
11
75.4361609999999985
21
-63.9203759999999974
0
LINE
8
BLACK
6
CONTINUOUS
10
75.4361609999999985
20
-63.9203759999999974
11
75.5214469999999949
21
-63.8064469999999986
0
LINE
8
BLACK
6
CONTINUOUS
10
75.5214469999999949
20
-63.8064469999999986
11
75.6353759999999937
21
-63.7211609999999951
0
LINE
8
BLACK
6
CONTINUOUS
10
75.6353759999999937
20
-63.7211609999999951
11
75.7687169999999952
21
-63.6714269999999942
0
LINE
8
BLACK
6
CONTINUOUS
10
75.7687169999999952
20
-63.6714269999999942
11
75.875
21
-63.6599999999999966
0
LINE
8
BLACK
6
CONTINUOUS
10
75.875
20
-63.6599999999999966
11
77.625
21
-63.6599999999999966
0
LINE
8
BLACK
6
CONTINUOUS
10
77.625
20
-63.6599999999999966
11
77.7312829999999906
21
-63.6714269999999942
0
LINE
8
BLACK
6
CONTINUOUS
10
89.1044419999999917
20
-62.5148510000000002
11
89.1336399999999998
21
-62.5343599999999995
0
LINE
8
BLACK
6
CONTINUOUS
10
89.1336399999999998
20
-62.5343599999999995
11
89.1531489999999991
21
-62.5635580000000004
0
LINE
8
BLACK
6
CONTINUOUS
10
89.1531489999999991
20
-62.5635580000000004
11
89.1599999999999966
21
-62.597999999999999
0
LINE
8
BLACK
6
CONTINUOUS
10
89.1599999999999966
20
-62.597999999999999
11
89.1599999999999966
21
-63.9179999999999993
0
LINE
8
BLACK
6
CONTINUOUS
10
89.1599999999999966
20
-63.9179999999999993
11
89.1531489999999991
21
-63.9524419999999978
0
LINE
8
BLACK
6
CONTINUOUS
10
89.1531489999999991
20
-63.9524419999999978
11
89.1336399999999998
21
-63.9816399999999987
0
LINE
8
BLACK
6
CONTINUOUS
10
89.1336399999999998
20
-63.9816399999999987
11
89.1044419999999917
21
-64.0011489999999981
0
LINE
8
BLACK
6
CONTINUOUS
10
89.1044419999999917
20
-64.0011489999999981
11
89.0699999999999932
21
-64.0079999999999956
0
LINE
8
BLACK
6
CONTINUOUS
10
89.0699999999999932
20
-64.0079999999999956
11
88.3499999999999943
21
-64.0079999999999956
0
LINE
8
BLACK
6
CONTINUOUS
10
88.3499999999999943
20
-64.0079999999999956
11
88.3155579999999958
21
-64.0011489999999981
0
LINE
8
BLACK
6
CONTINUOUS
10
88.3155579999999958
20
-64.0011489999999981
11
88.2863600000000019
21
-63.9816399999999987
0
LINE
8
BLACK
6
CONTINUOUS
10
88.2863600000000019
20
-63.9816399999999987
11
88.2668510000000026
21
-63.9524419999999978
0
LINE
8
BLACK
6
CONTINUOUS
10
88.2668510000000026
20
-63.9524419999999978
11
88.2599999999999909
21
-63.9179999999999993
0
LINE
8
BLACK
6
CONTINUOUS
10
88.2599999999999909
20
-63.9179999999999993
11
88.2599999999999909
21
-62.597999999999999
0
LINE
8
BLACK
6
CONTINUOUS
10
88.2599999999999909
20
-62.597999999999999
11
88.2668510000000026
21
-62.5635580000000004
0
LINE
8
BLACK
6
CONTINUOUS
10
88.2668510000000026
20
-62.5635580000000004
11
88.2863600000000019
21
-62.5343599999999995
0
LINE
8
BLACK
6
CONTINUOUS
10
88.2863600000000019
20
-62.5343599999999995
11
88.3155579999999958
21
-62.5148510000000002
0
LINE
8
BLACK
6
CONTINUOUS
10
88.3155579999999958
20
-62.5148510000000002
11
88.3499999999999943
21
-62.5079999999999956
0
LINE
8
BLACK
6
CONTINUOUS
10
88.3499999999999943
20
-62.5079999999999956
11
89.0699999999999932
21
-62.5079999999999956
0
LINE
8
BLACK
6
CONTINUOUS
10
89.0699999999999932
20
-62.5079999999999956
11
89.1044419999999917
21
-62.5148510000000002
0
LINE
8
BLACK
6
CONTINUOUS
10
61.5662829999999985
20
-61.1314269999999951
11
61.699624
21
-61.1811609999999959
0
LINE
8
BLACK
6
CONTINUOUS
10
61.699624
20
-61.1811609999999959
11
61.8135529999999989
21
-61.2664469999999994
0
LINE
8
BLACK
6
CONTINUOUS
10
61.8135529999999989
20
-61.2664469999999994
11
61.8988389999999953
21
-61.3803759999999983
0
LINE
8
BLACK
6
CONTINUOUS
10
61.8988389999999953
20
-61.3803759999999983
11
61.9485729999999961
21
-61.5137169999999998
0
LINE
8
BLACK
6
CONTINUOUS
10
61.9485729999999961
20
-61.5137169999999998
11
61.9599999999999937
21
-61.6199999999999974
0
LINE
8
BLACK
6
CONTINUOUS
10
61.9599999999999937
20
-61.6199999999999974
11
61.9599999999999937
21
-62.6199999999999974
0
LINE
8
BLACK
6
CONTINUOUS
10
61.9599999999999937
20
-62.6199999999999974
11
61.9485729999999961
21
-62.7262829999999951
0
LINE
8
BLACK
6
CONTINUOUS
10
61.9485729999999961
20
-62.7262829999999951
11
61.8988389999999953
21
-62.8596239999999966
0
LINE
8
BLACK
6
CONTINUOUS
10
61.8988389999999953
20
-62.8596239999999966
11
61.8135529999999989
21
-62.9735529999999954
0
LINE
8
BLACK
6
CONTINUOUS
10
61.8135529999999989
20
-62.9735529999999954
11
61.699624
21
-63.058838999999999
0
LINE
8
BLACK
6
CONTINUOUS
10
61.699624
20
-63.058838999999999
11
61.5662829999999985
21
-63.1085729999999998
0
LINE
8
BLACK
6
CONTINUOUS
10
61.5662829999999985
20
-63.1085729999999998
11
61.4599999999999937
21
-63.1199999999999974
0
LINE
8
BLACK
6
CONTINUOUS
10
61.4599999999999937
20
-63.1199999999999974
11
59.7099999999999937
21
-63.1199999999999974
0
LINE
8
BLACK
6
CONTINUOUS
10
59.7099999999999937
20
-63.1199999999999974
11
59.6037169999999961
21
-63.1085729999999998
0
LINE
8
BLACK
6
CONTINUOUS
10
59.6037169999999961
20
-63.1085729999999998
11
59.4703759999999946
21
-63.058838999999999
0
LINE
8
BLACK
6
CONTINUOUS
10
59.4703759999999946
20
-63.058838999999999
11
59.3564469999999957
21
-62.9735529999999954
0
LINE
8
BLACK
6
CONTINUOUS
10
59.3564469999999957
20
-62.9735529999999954
11
59.2711609999999993
21
-62.8596239999999966
0
LINE
8
BLACK
6
CONTINUOUS
10
59.2711609999999993
20
-62.8596239999999966
11
59.2214269999999985
21
-62.7262829999999951
0
LINE
8
BLACK
6
CONTINUOUS
10
59.2214269999999985
20
-62.7262829999999951
11
59.2100000000000009
21
-62.6199999999999974
0
LINE
8
BLACK
6
CONTINUOUS
10
59.2100000000000009
20
-62.6199999999999974
11
59.2100000000000009
21
-61.6199999999999974
0
LINE
8
BLACK
6
CONTINUOUS
10
59.2100000000000009
20
-61.6199999999999974
11
59.2214269999999985
21
-61.5137169999999998
0
LINE
8
BLACK
6
CONTINUOUS
10
59.2214269999999985
20
-61.5137169999999998
11
59.2711609999999993
21
-61.3803759999999983
0
LINE
8
BLACK
6
CONTINUOUS
10
59.2711609999999993
20
-61.3803759999999983
11
59.3564469999999957
21
-61.2664469999999994
0
LINE
8
BLACK
6
CONTINUOUS
10
59.3564469999999957
20
-61.2664469999999994
11
59.4703759999999946
21
-61.1811609999999959
0
LINE
8
BLACK
6
CONTINUOUS
10
59.4703759999999946
20
-61.1811609999999959
11
59.6037169999999961
21
-61.1314269999999951
0
LINE
8
BLACK
6
CONTINUOUS
10
59.6037169999999961
20
-61.1314269999999951
11
59.7099999999999937
21
-61.1199999999999974
0
LINE
8
BLACK
6
CONTINUOUS
10
59.7099999999999937
20
-61.1199999999999974
11
61.4599999999999937
21
-61.1199999999999974
0
LINE
8
BLACK
6
CONTINUOUS
10
61.4599999999999937
20
-61.1199999999999974
11
61.5662829999999985
21
-61.1314269999999951
0
LINE
8
BLACK
6
CONTINUOUS
10
85.8044419999999946
20
-48.6648509999999987
11
85.8336400000000026
21
-48.6843599999999981
0
LINE
8
BLACK
6
CONTINUOUS
10
85.8336400000000026
20
-48.6843599999999981
11
85.8531490000000019
21
-48.713557999999999
0
LINE
8
BLACK
6
CONTINUOUS
10
85.8531490000000019
20
-48.713557999999999
11
85.8599999999999994
21
-48.7479999999999976
0
LINE
8
BLACK
6
CONTINUOUS
10
85.8599999999999994
20
-48.7479999999999976
11
85.8599999999999994
21
-49.2923139999999975
0
LINE
8
BLACK
6
CONTINUOUS
10
85.8599999999999994
20
-49.2923139999999975
11
87.1928419999999988
21
-50.6251569999999944
0
LINE
8
BLACK
6
CONTINUOUS
10
87.1928419999999988
20
-50.6251569999999944
11
87.2273409999999956
21
-50.6644949999999952
0
LINE
8
BLACK
6
CONTINUOUS
10
87.2273409999999956
20
-50.6644949999999952
11
87.2795519999999954
21
-50.754926999999995
0
LINE
8
BLACK
6
CONTINUOUS
10
87.2795519999999954
20
-50.754926999999995
11
87.3065780000000018
21
-50.8557899999999989
0
LINE
8
BLACK
6
CONTINUOUS
10
87.3065780000000018
20
-50.8557899999999989
11
87.3100000000000023
21
-50.9079999999999941
0
LINE
8
BLACK
6
CONTINUOUS
10
87.3100000000000023
20
-50.9079999999999941
11
87.3100000000000023
21
-54.8582839999999976
0
LINE
8
BLACK
6
CONTINUOUS
10
87.3100000000000023
20
-54.8582839999999976
11
87.3065780000000018
21
-54.9104939999999999
0
LINE
8
BLACK
6
CONTINUOUS
10
87.3065780000000018
20
-54.9104939999999999
11
87.2795519999999954
21
-55.0113579999999942
0
LINE
8
BLACK
6
CONTINUOUS
10
87.2795519999999954
20
-55.0113579999999942
11
87.2273409999999956
21
-55.1017889999999966
0
LINE
8
BLACK
6
CONTINUOUS
10
87.2273409999999956
20
-55.1017889999999966
11
87.1928429999999963
21
-55.1411269999999973
0
LINE
8
BLACK
6
CONTINUOUS
10
87.1928429999999963
20
-55.1411269999999973
11
84.6431269999999927
21
-57.6908429999999939
0
LINE
8
BLACK
6
CONTINUOUS
10
84.6431269999999927
20
-57.6908429999999939
11
84.6037889999999919
21
-57.7253410000000002
0
LINE
8
BLACK
6
CONTINUOUS
10
84.6037889999999919
20
-57.7253410000000002
11
84.5133579999999967
21
-57.777552
0
LINE
8
BLACK
6
CONTINUOUS
10
84.5133579999999967
20
-57.777552
11
84.4124939999999953
21
-57.8045779999999993
0
LINE
8
BLACK
6
CONTINUOUS
10
84.4124939999999953
20
-57.8045779999999993
11
84.3602839999999929
21
-57.8079999999999998
0
LINE
8
BLACK
6
CONTINUOUS
10
84.3602839999999929
20
-57.8079999999999998
11
81.5756849999999929
21
-57.8079999999999998
0
LINE
8
BLACK
6
CONTINUOUS
10
81.5756849999999929
20
-57.8079999999999998
11
80.3100000000000023
21
-59.0736849999999976
0
LINE
8
BLACK
6
CONTINUOUS
10
80.3100000000000023
20
-59.0736849999999976
11
80.3100000000000023
21
-60.9079999999999941
0
LINE
8
BLACK
6
CONTINUOUS
10
80.3100000000000023
20
-60.9079999999999941
11
80.3065780000000018
21
-60.9602099999999965
0
LINE
8
BLACK
6
CONTINUOUS
10
80.3065780000000018
20
-60.9602099999999965
11
80.2795519999999954
21
-61.0610739999999979
0
LINE
8
BLACK
6
CONTINUOUS
10
80.2795519999999954
20
-61.0610739999999979
11
80.2273409999999956
21
-61.1515050000000002
0
LINE
8
BLACK
6
CONTINUOUS
10
80.2273409999999956
20
-61.1515050000000002
11
80.1928429999999963
21
-61.1908429999999939
0
LINE
8
BLACK
6
CONTINUOUS
10
80.1928429999999963
20
-61.1908429999999939
11
78.980842999999993
21
-62.4028429999999972
0
LINE
8
BLACK
6
CONTINUOUS
10
78.980842999999993
20
-62.4028429999999972
11
78.9415049999999923
21
-62.4373409999999964
0
LINE
8
BLACK
6
CONTINUOUS
10
78.9415049999999923
20
-62.4373409999999964
11
78.851073999999997
21
-62.4895519999999962
0
LINE
8
BLACK
6
CONTINUOUS
10
78.851073999999997
20
-62.4895519999999962
11
78.7502099999999956
21
-62.5165779999999955
0
LINE
8
BLACK
6
CONTINUOUS
10
78.7502099999999956
20
-62.5165779999999955
11
78.6979999999999933
21
-62.519999999999996
0
LINE
8
BLACK
6
CONTINUOUS
10
78.6979999999999933
20
-62.519999999999996
11
78.125
21
-62.519999999999996
0
LINE
8
BLACK
6
CONTINUOUS
10
78.125
20
-62.519999999999996
11
78.125
21
-62.6199999999999974
0
LINE
8
BLACK
6
CONTINUOUS
10
78.125
20
-62.6199999999999974
11
78.1135730000000024
21
-62.7262829999999951
0
LINE
8
BLACK
6
CONTINUOUS
10
78.1135730000000024
20
-62.7262829999999951
11
78.0638390000000015
21
-62.8596239999999966
0
LINE
8
BLACK
6
CONTINUOUS
10
78.0638390000000015
20
-62.8596239999999966
11
77.9785529999999909
21
-62.9735529999999954
0
LINE
8
BLACK
6
CONTINUOUS
10
77.9785529999999909
20
-62.9735529999999954
11
77.8646239999999921
21
-63.058838999999999
0
LINE
8
BLACK
6
CONTINUOUS
10
77.8646239999999921
20
-63.058838999999999
11
77.7312829999999906
21
-63.1085729999999998
0
LINE
8
BLACK
6
CONTINUOUS
10
77.7312829999999906
20
-63.1085729999999998
11
77.625
21
-63.1199999999999974
0
LINE
8
BLACK
6
CONTINUOUS
10
77.625
20
-63.1199999999999974
11
75.875
21
-63.1199999999999974
0
LINE
8
BLACK
6
CONTINUOUS
10
75.875
20
-63.1199999999999974
11
75.7687169999999952
21
-63.1085729999999998
0
LINE
8
BLACK
6
CONTINUOUS
10
75.7687169999999952
20
-63.1085729999999998
11
75.6353759999999937
21
-63.058838999999999
0
LINE
8
BLACK
6
CONTINUOUS
10
75.6353759999999937
20
-63.058838999999999
11
75.5214469999999949
21
-62.9735529999999954
0
LINE
8
BLACK
6
CONTINUOUS
10
75.5214469999999949
20
-62.9735529999999954
11
75.4361609999999985
21
-62.8596239999999966
0
LINE
8
BLACK
6
CONTINUOUS
10
75.4361609999999985
20
-62.8596239999999966
11
75.3864269999999976
21
-62.7262829999999951
0
LINE
8
BLACK
6
CONTINUOUS
10
75.3864269999999976
20
-62.7262829999999951
11
75.375
21
-62.6199999999999974
0
LINE
8
BLACK
6
CONTINUOUS
10
75.375
20
-62.6199999999999974
11
75.375
21
-61.6199999999999974
0
LINE
8
BLACK
6
CONTINUOUS
10
75.375
20
-61.6199999999999974
11
75.3864269999999976
21
-61.5137169999999998
0
LINE
8
BLACK
6
CONTINUOUS
10
75.3864269999999976
20
-61.5137169999999998
11
75.4361609999999985
21
-61.3803759999999983
0
LINE
8
BLACK
6
CONTINUOUS
10
75.4361609999999985
20
-61.3803759999999983
11
75.5214469999999949
21
-61.2664469999999994
0
LINE
8
BLACK
6
CONTINUOUS
10
75.5214469999999949
20
-61.2664469999999994
11
75.6353759999999937
21
-61.1811609999999959
0
LINE
8
BLACK
6
CONTINUOUS
10
75.6353759999999937
20
-61.1811609999999959
11
75.7687169999999952
21
-61.1314269999999951
0
LINE
8
BLACK
6
CONTINUOUS
10
75.7687169999999952
20
-61.1314269999999951
11
75.875
21
-61.1199999999999974
0
LINE
8
BLACK
6
CONTINUOUS
10
75.875
20
-61.1199999999999974
11
77.625
21
-61.1199999999999974
0
LINE
8
BLACK
6
CONTINUOUS
10
77.625
20
-61.1199999999999974
11
77.7312829999999906
21
-61.1314269999999951
0
LINE
8
BLACK
6
CONTINUOUS
10
77.7312829999999906
20
-61.1314269999999951
11
77.8646239999999921
21
-61.1811609999999959
0
LINE
8
BLACK
6
CONTINUOUS
10
77.8646239999999921
20
-61.1811609999999959
11
77.9785529999999909
21
-61.2664469999999994
0
LINE
8
BLACK
6
CONTINUOUS
10
77.9785529999999909
20
-61.2664469999999994
11
78.0638390000000015
21
-61.3803759999999983
0
LINE
8
BLACK
6
CONTINUOUS
10
78.0638390000000015
20
-61.3803759999999983
11
78.1135730000000024
21
-61.5137169999999998
0
LINE
8
BLACK
6
CONTINUOUS
10
78.1135730000000024
20
-61.5137169999999998
11
78.125
21
-61.6199999999999974
0
LINE
8
BLACK
6
CONTINUOUS
10
78.125
20
-61.6199999999999974
11
78.125
21
-61.7199999999999989
0
LINE
8
BLACK
6
CONTINUOUS
10
78.125
20
-61.7199999999999989
11
78.5323139999999995
21
-61.7199999999999989
0
LINE
8
BLACK
6
CONTINUOUS
10
78.5323139999999995
20
-61.7199999999999989
11
79.5099999999999909
21
-60.7423140000000004
0
LINE
8
BLACK
6
CONTINUOUS
10
79.5099999999999909
20
-60.7423140000000004
11
79.5099999999999909
21
-58.9079999999999941
0
LINE
8
BLACK
6
CONTINUOUS
10
79.5099999999999909
20
-58.9079999999999941
11
79.5134219999999914
21
-58.8557899999999989
0
LINE
8
BLACK
6
CONTINUOUS
10
79.5134219999999914
20
-58.8557899999999989
11
79.5404479999999978
21
-58.754926999999995
0
LINE
8
BLACK
6
CONTINUOUS
10
79.5404479999999978
20
-58.754926999999995
11
79.5404479999999978
21
-58.7549259999999975
0
LINE
8
BLACK
6
CONTINUOUS
10
79.5404479999999978
20
-58.7549259999999975
11
79.5926589999999976
21
-58.6644949999999952
0
LINE
8
BLACK
6
CONTINUOUS
10
79.5926589999999976
20
-58.6644949999999952
11
79.6271569999999969
21
-58.6251569999999944
0
LINE
8
BLACK
6
CONTINUOUS
10
79.6271569999999969
20
-58.6251569999999944
11
81.1271569999999969
21
-57.125157999999999
0
LINE
8
BLACK
6
CONTINUOUS
10
81.1271569999999969
20
-57.125157999999999
11
81.1664949999999976
21
-57.0906589999999952
0
LINE
8
BLACK
6
CONTINUOUS
10
81.1664949999999976
20
-57.0906589999999952
11
81.1681979999999896
21
-57.0896759999999972
0
LINE
8
BLACK
6
CONTINUOUS
10
81.1681979999999896
20
-57.0896759999999972
11
81.2569269999999904
21
-57.0384479999999954
0
LINE
8
BLACK
6
CONTINUOUS
10
81.2569269999999904
20
-57.0384479999999954
11
81.3577899999999943
21
-57.011421999999996
0
LINE
8
BLACK
6
CONTINUOUS
10
81.3577899999999943
20
-57.011421999999996
11
81.4099999999999966
21
-57.0079999999999956
0
LINE
8
BLACK
6
CONTINUOUS
10
81.4099999999999966
20
-57.0079999999999956
11
84.1945979999999992
21
-57.0079999999999956
0
LINE
8
BLACK
6
CONTINUOUS
10
84.1945979999999992
20
-57.0079999999999956
11
86.5099999999999909
21
-54.6925979999999967
0
LINE
8
BLACK
6
CONTINUOUS
10
86.5099999999999909
20
-54.6925979999999967
11
86.5099999999999909
21
-51.0736849999999976
0
LINE
8
BLACK
6
CONTINUOUS
10
86.5099999999999909
20
-51.0736849999999976
11
85.5943139999999971
21
-50.1580000000000013
0
LINE
8
BLACK
6
CONTINUOUS
10
85.5943139999999971
20
-50.1580000000000013
11
85.0499999999999972
21
-50.1580000000000013
0
LINE
8
BLACK
6
CONTINUOUS
10
85.0499999999999972
20
-50.1580000000000013
11
85.0155579999999986
21
-50.1511489999999966
0
LINE
8
BLACK
6
CONTINUOUS
10
85.0155579999999986
20
-50.1511489999999966
11
84.9863599999999906
21
-50.1316399999999973
0
LINE
8
BLACK
6
CONTINUOUS
10
84.9863599999999906
20
-50.1316399999999973
11
84.9668509999999912
21
-50.1024419999999964
0
LINE
8
BLACK
6
CONTINUOUS
10
84.9668509999999912
20
-50.1024419999999964
11
84.9599999999999937
21
-50.0679999999999978
0
LINE
8
BLACK
6
CONTINUOUS
10
84.9599999999999937
20
-50.0679999999999978
11
84.9599999999999937
21
-48.7479999999999976
0
LINE
8
BLACK
6
CONTINUOUS
10
84.9599999999999937
20
-48.7479999999999976
11
84.9668509999999912
21
-48.713557999999999
0
LINE
8
BLACK
6
CONTINUOUS
10
84.9668509999999912
20
-48.713557999999999
11
84.9863599999999906
21
-48.6843599999999981
0
LINE
8
BLACK
6
CONTINUOUS
10
84.9863599999999906
20
-48.6843599999999981
11
85.0155579999999986
21
-48.6648509999999987
0
LINE
8
BLACK
6
CONTINUOUS
10
85.0155579999999986
20
-48.6648509999999987
11
85.0499999999999972
21
-48.6580000000000013
0
LINE
8
BLACK
6
CONTINUOUS
10
85.0499999999999972
20
-48.6580000000000013
11
85.769999999999996
21
-48.6580000000000013
0
LINE
8
BLACK
6
CONTINUOUS
10
85.769999999999996
20
-48.6580000000000013
11
85.8044419999999946
21
-48.6648509999999987
0
LINE
8
BLACK
6
CONTINUOUS
10
61.5662829999999985
20
-58.5914269999999959
11
61.699624
21
-58.6411609999999968
0
LINE
8
BLACK
6
CONTINUOUS
10
61.699624
20
-58.6411609999999968
11
61.8135529999999989
21
-58.7264470000000003
0
LINE
8
BLACK
6
CONTINUOUS
10
61.8135529999999989
20
-58.7264470000000003
11
61.8988389999999953
21
-58.8403759999999991
0
LINE
8
BLACK
6
CONTINUOUS
10
61.8988389999999953
20
-58.8403759999999991
11
61.9485729999999961
21
-58.9737170000000006
0
LINE
8
BLACK
6
CONTINUOUS
10
61.9485729999999961
20
-58.9737170000000006
11
61.9599999999999937
21
-59.0799999999999983
0
LINE
8
BLACK
6
CONTINUOUS
10
61.9599999999999937
20
-59.0799999999999983
11
61.9599999999999937
21
-60.0799999999999983
0
LINE
8
BLACK
6
CONTINUOUS
10
61.9599999999999937
20
-60.0799999999999983
11
61.9485729999999961
21
-60.186282999999996
0
LINE
8
BLACK
6
CONTINUOUS
10
61.9485729999999961
20
-60.186282999999996
11
61.8988389999999953
21
-60.3196239999999975
0
LINE
8
BLACK
6
CONTINUOUS
10
61.8988389999999953
20
-60.3196239999999975
11
61.8135529999999989
21
-60.4335529999999963
0
LINE
8
BLACK
6
CONTINUOUS
10
61.8135529999999989
20
-60.4335529999999963
11
61.699624
21
-60.5188389999999998
0
LINE
8
BLACK
6
CONTINUOUS
10
61.699624
20
-60.5188389999999998
11
61.5662829999999985
21
-60.5685730000000007
0
LINE
8
BLACK
6
CONTINUOUS
10
61.5662829999999985
20
-60.5685730000000007
11
61.4599999999999937
21
-60.5799999999999983
0
LINE
8
BLACK
6
CONTINUOUS
10
61.4599999999999937
20
-60.5799999999999983
11
59.7099999999999937
21
-60.5799999999999983
0
LINE
8
BLACK
6
CONTINUOUS
10
59.7099999999999937
20
-60.5799999999999983
11
59.6037169999999961
21
-60.5685730000000007
0
LINE
8
BLACK
6
CONTINUOUS
10
59.6037169999999961
20
-60.5685730000000007
11
59.4703759999999946
21
-60.5188389999999998
0
LINE
8
BLACK
6
CONTINUOUS
10
59.4703759999999946
20
-60.5188389999999998
11
59.3564469999999957
21
-60.4335529999999963
0
LINE
8
BLACK
6
CONTINUOUS
10
59.3564469999999957
20
-60.4335529999999963
11
59.2711609999999993
21
-60.3196239999999975
0
LINE
8
BLACK
6
CONTINUOUS
10
59.2711609999999993
20
-60.3196239999999975
11
59.2214269999999985
21
-60.186282999999996
0
LINE
8
BLACK
6
CONTINUOUS
10
59.2214269999999985
20
-60.186282999999996
11
59.2100000000000009
21
-60.0799999999999983
0
LINE
8
BLACK
6
CONTINUOUS
10
59.2100000000000009
20
-60.0799999999999983
11
59.2100000000000009
21
-59.0799999999999983
0
LINE
8
BLACK
6
CONTINUOUS
10
59.2100000000000009
20
-59.0799999999999983
11
59.2214269999999985
21
-58.9737170000000006
0
LINE
8
BLACK
6
CONTINUOUS
10
59.2214269999999985
20
-58.9737170000000006
11
59.2711609999999993
21
-58.8403759999999991
0
LINE
8
BLACK
6
CONTINUOUS
10
59.2711609999999993
20
-58.8403759999999991
11
59.3564469999999957
21
-58.7264470000000003
0
LINE
8
BLACK
6
CONTINUOUS
10
59.3564469999999957
20
-58.7264470000000003
11
59.4703759999999946
21
-58.6411609999999968
0
LINE
8
BLACK
6
CONTINUOUS
10
59.4703759999999946
20
-58.6411609999999968
11
59.6037169999999961
21
-58.5914269999999959
0
LINE
8
BLACK
6
CONTINUOUS
10
59.6037169999999961
20
-58.5914269999999959
11
59.7099999999999937
21
-58.5799999999999983
0
LINE
8
BLACK
6
CONTINUOUS
10
59.7099999999999937
20
-58.5799999999999983
11
61.4599999999999937
21
-58.5799999999999983
0
LINE
8
BLACK
6
CONTINUOUS
10
61.4599999999999937
20
-58.5799999999999983
11
61.5662829999999985
21
-58.5914269999999959
0
LINE
8
BLACK
6
CONTINUOUS
10
77.7312829999999906
20
-58.5914269999999959
11
77.8646239999999921
21
-58.6411609999999968
0
LINE
8
BLACK
6
CONTINUOUS
10
77.8646239999999921
20
-58.6411609999999968
11
77.9785529999999909
21
-58.7264470000000003
0
LINE
8
BLACK
6
CONTINUOUS
10
77.9785529999999909
20
-58.7264470000000003
11
78.0638390000000015
21
-58.8403759999999991
0
LINE
8
BLACK
6
CONTINUOUS
10
78.0638390000000015
20
-58.8403759999999991
11
78.1135730000000024
21
-58.9737170000000006
0
LINE
8
BLACK
6
CONTINUOUS
10
78.1135730000000024
20
-58.9737170000000006
11
78.125
21
-59.0799999999999983
0
LINE
8
BLACK
6
CONTINUOUS
10
78.125
20
-59.0799999999999983
11
78.125
21
-60.0799999999999983
0
LINE
8
BLACK
6
CONTINUOUS
10
78.125
20
-60.0799999999999983
11
78.1135730000000024
21
-60.186282999999996
0
LINE
8
BLACK
6
CONTINUOUS
10
78.1135730000000024
20
-60.186282999999996
11
78.0638390000000015
21
-60.3196239999999975
0
LINE
8
BLACK
6
CONTINUOUS
10
78.0638390000000015
20
-60.3196239999999975
11
77.9785529999999909
21
-60.4335529999999963
0
LINE
8
BLACK
6
CONTINUOUS
10
77.9785529999999909
20
-60.4335529999999963
11
77.8646239999999921
21
-60.5188389999999998
0
LINE
8
BLACK
6
CONTINUOUS
10
77.8646239999999921
20
-60.5188389999999998
11
77.7312829999999906
21
-60.5685730000000007
0
LINE
8
BLACK
6
CONTINUOUS
10
77.7312829999999906
20
-60.5685730000000007
11
77.625
21
-60.5799999999999983
0
LINE
8
BLACK
6
CONTINUOUS
10
77.625
20
-60.5799999999999983
11
75.875
21
-60.5799999999999983
0
LINE
8
BLACK
6
CONTINUOUS
10
75.875
20
-60.5799999999999983
11
75.7687169999999952
21
-60.5685730000000007
0
LINE
8
BLACK
6
CONTINUOUS
10
75.7687169999999952
20
-60.5685730000000007
11
75.6353759999999937
21
-60.5188389999999998
0
LINE
8
BLACK
6
CONTINUOUS
10
75.6353759999999937
20
-60.5188389999999998
11
75.5214469999999949
21
-60.4335529999999963
0
LINE
8
BLACK
6
CONTINUOUS
10
75.5214469999999949
20
-60.4335529999999963
11
75.4361609999999985
21
-60.3196239999999975
0
LINE
8
BLACK
6
CONTINUOUS
10
75.4361609999999985
20
-60.3196239999999975
11
75.3864269999999976
21
-60.186282999999996
0
LINE
8
BLACK
6
CONTINUOUS
10
75.3864269999999976
20
-60.186282999999996
11
75.375
21
-60.0799999999999983
0
LINE
8
BLACK
6
CONTINUOUS
10
75.375
20
-60.0799999999999983
11
75.375
21
-59.0799999999999983
0
LINE
8
BLACK
6
CONTINUOUS
10
75.375
20
-59.0799999999999983
11
75.3864269999999976
21
-58.9737170000000006
0
LINE
8
BLACK
6
CONTINUOUS
10
75.3864269999999976
20
-58.9737170000000006
11
75.4361609999999985
21
-58.8403759999999991
0
LINE
8
BLACK
6
CONTINUOUS
10
75.4361609999999985
20
-58.8403759999999991
11
75.5214469999999949
21
-58.7264470000000003
0
LINE
8
BLACK
6
CONTINUOUS
10
75.5214469999999949
20
-58.7264470000000003
11
75.6353759999999937
21
-58.6411609999999968
0
LINE
8
BLACK
6
CONTINUOUS
10
75.6353759999999937
20
-58.6411609999999968
11
75.7687169999999952
21
-58.5914269999999959
0
LINE
8
BLACK
6
CONTINUOUS
10
75.7687169999999952
20
-58.5914269999999959
11
75.875
21
-58.5799999999999983
0
LINE
8
BLACK
6
CONTINUOUS
10
75.875
20
-58.5799999999999983
11
77.625
21
-58.5799999999999983
0
LINE
8
BLACK
6
CONTINUOUS
10
77.625
20
-58.5799999999999983
11
77.7312829999999906
21
-58.5914269999999959
0
LINE
8
BLACK
6
CONTINUOUS
10
89.1044419999999917
20
-53.5648509999999973
11
89.1336399999999998
21
-53.5843599999999967
0
LINE
8
BLACK
6
CONTINUOUS
10
89.1336399999999998
20
-53.5843599999999967
11
89.1531489999999991
21
-53.6135579999999976
0
LINE
8
BLACK
6
CONTINUOUS
10
89.1531489999999991
20
-53.6135579999999976
11
89.1599999999999966
21
-53.6479999999999961
0
LINE
8
BLACK
6
CONTINUOUS
10
89.1599999999999966
20
-53.6479999999999961
11
89.1599999999999966
21
-54.9679999999999964
0
LINE
8
BLACK
6
CONTINUOUS
10
89.1599999999999966
20
-54.9679999999999964
11
89.1531489999999991
21
-55.0024419999999949
0
LINE
8
BLACK
6
CONTINUOUS
10
89.1531489999999991
20
-55.0024419999999949
11
89.1336399999999998
21
-55.0316399999999959
0
LINE
8
BLACK
6
CONTINUOUS
10
89.1336399999999998
20
-55.0316399999999959
11
89.1099999999999994
21
-55.0474350000000001
0
LINE
8
BLACK
6
CONTINUOUS
10
89.1099999999999994
20
-55.0474350000000001
11
89.1099999999999994
21
-55.0579999999999998
0
LINE
8
BLACK
6
CONTINUOUS
10
89.1099999999999994
20
-55.0579999999999998
11
89.106577999999999
21
-55.110209999999995
0
LINE
8
BLACK
6
CONTINUOUS
10
89.106577999999999
20
-55.110209999999995
11
89.0795519999999925
21
-55.2110739999999964
0
LINE
8
BLACK
6
CONTINUOUS
10
89.0795519999999925
20
-55.2110739999999964
11
89.0273409999999927
21
-55.3015049999999988
0
LINE
8
BLACK
6
CONTINUOUS
10
89.0273409999999927
20
-55.3015049999999988
11
88.9928429999999935
21
-55.3408429999999996
0
LINE
8
BLACK
6
CONTINUOUS
10
88.9928429999999935
20
-55.3408429999999996
11
85.8599999999999994
21
-58.4736860000000007
0
LINE
8
BLACK
6
CONTINUOUS
10
85.8599999999999994
20
-58.4736860000000007
11
85.8599999999999994
21
-59.0180000000000007
0
LINE
8
BLACK
6
CONTINUOUS
10
85.8599999999999994
20
-59.0180000000000007
11
85.8531490000000019
21
-59.0524419999999992
0
LINE
8
BLACK
6
CONTINUOUS
10
85.8531490000000019
20
-59.0524419999999992
11
85.8336400000000026
21
-59.0816400000000002
0
LINE
8
BLACK
6
CONTINUOUS
10
85.8336400000000026
20
-59.0816400000000002
11
85.8044419999999946
21
-59.1011489999999995
0
LINE
8
BLACK
6
CONTINUOUS
10
85.8044419999999946
20
-59.1011489999999995
11
85.769999999999996
21
-59.107999999999997
0
LINE
8
BLACK
6
CONTINUOUS
10
85.769999999999996
20
-59.107999999999997
11
85.0499999999999972
21
-59.107999999999997
0
LINE
8
BLACK
6
CONTINUOUS
10
85.0499999999999972
20
-59.107999999999997
11
85.0155579999999986
21
-59.1011489999999995
0
LINE
8
BLACK
6
CONTINUOUS
10
85.0155579999999986
20
-59.1011489999999995
11
84.9863599999999906
21
-59.0816400000000002
0
LINE
8
BLACK
6
CONTINUOUS
10
84.9863599999999906
20
-59.0816400000000002
11
84.9668509999999912
21
-59.0524419999999992
0
LINE
8
BLACK
6
CONTINUOUS
10
84.9668509999999912
20
-59.0524419999999992
11
84.9599999999999937
21
-59.0180000000000007
0
LINE
8
BLACK
6
CONTINUOUS
10
84.9599999999999937
20
-59.0180000000000007
11
84.9599999999999937
21
-57.6980000000000004
0
LINE
8
BLACK
6
CONTINUOUS
10
84.9599999999999937
20
-57.6980000000000004
11
84.9668509999999912
21
-57.6635579999999948
0
LINE
8
BLACK
6
CONTINUOUS
10
84.9668509999999912
20
-57.6635579999999948
11
84.9863599999999906
21
-57.6343600000000009
0
LINE
8
BLACK
6
CONTINUOUS
10
84.9863599999999906
20
-57.6343600000000009
11
85.0155579999999986
21
-57.6148509999999945
0
LINE
8
BLACK
6
CONTINUOUS
10
85.0155579999999986
20
-57.6148509999999945
11
85.0499999999999972
21
-57.607999999999997
0
LINE
8
BLACK
6
CONTINUOUS
10
85.0499999999999972
20
-57.607999999999997
11
85.5943139999999971
21
-57.607999999999997
0
LINE
8
BLACK
6
CONTINUOUS
10
85.5943139999999971
20
-57.607999999999997
11
88.2599999999999909
21
-54.9423139999999961
0
LINE
8
BLACK
6
CONTINUOUS
10
88.2599999999999909
20
-54.9423139999999961
11
88.2599999999999909
21
-53.6479999999999961
0
LINE
8
BLACK
6
CONTINUOUS
10
88.2599999999999909
20
-53.6479999999999961
11
88.2668510000000026
21
-53.6135579999999976
0
LINE
8
BLACK
6
CONTINUOUS
10
88.2668510000000026
20
-53.6135579999999976
11
88.2863600000000019
21
-53.5843599999999967
0
LINE
8
BLACK
6
CONTINUOUS
10
88.2863600000000019
20
-53.5843599999999967
11
88.3155579999999958
21
-53.5648509999999973
0
LINE
8
BLACK
6
CONTINUOUS
10
88.3155579999999958
20
-53.5648509999999973
11
88.3499999999999943
21
-53.5579999999999998
0
LINE
8
BLACK
6
CONTINUOUS
10
88.3499999999999943
20
-53.5579999999999998
11
89.0699999999999932
21
-53.5579999999999998
0
LINE
8
BLACK
6
CONTINUOUS
10
89.0699999999999932
20
-53.5579999999999998
11
89.1044419999999917
21
-53.5648509999999973
0
LINE
8
BLACK
6
CONTINUOUS
10
54.8056709999999967
20
-48.5520299999999949
11
54.886776999999995
21
-48.606223
0
LINE
8
BLACK
6
CONTINUOUS
10
54.886776999999995
20
-48.606223
11
54.9409700000000001
21
-48.6873289999999983
0
LINE
8
BLACK
6
CONTINUOUS
10
54.9409700000000001
20
-48.6873289999999983
11
54.9600000000000009
21
-48.7830000000000013
0
LINE
8
BLACK
6
CONTINUOUS
10
54.9600000000000009
20
-48.7830000000000013
11
54.9600000000000009
21
-50.0330000000000013
0
LINE
8
BLACK
6
CONTINUOUS
10
54.9600000000000009
20
-50.0330000000000013
11
54.9409700000000001
21
-50.1286709999999971
0
LINE
8
BLACK
6
CONTINUOUS
10
54.9409700000000001
20
-50.1286709999999971
11
54.886776999999995
21
-50.2097769999999954
0
LINE
8
BLACK
6
CONTINUOUS
10
54.886776999999995
20
-50.2097769999999954
11
54.8056709999999967
21
-50.2639700000000005
0
LINE
8
BLACK
6
CONTINUOUS
10
54.8056709999999967
20
-50.2639700000000005
11
54.7100000000000009
21
-50.2830000000000013
0
LINE
8
BLACK
6
CONTINUOUS
10
54.7100000000000009
20
-50.2830000000000013
11
54.0006859999999946
21
-50.2830000000000013
0
LINE
8
BLACK
6
CONTINUOUS
10
54.0006859999999946
20
-50.2830000000000013
11
52.8089999999999975
21
-51.4746859999999984
0
LINE
8
BLACK
6
CONTINUOUS
10
52.8089999999999975
20
-51.4746859999999984
11
52.8089999999999975
21
-57.420499999999997
0
LINE
8
BLACK
6
CONTINUOUS
10
52.8089999999999975
20
-57.420499999999997
11
52.9099999999999966
21
-57.420499999999997
0
LINE
8
BLACK
6
CONTINUOUS
10
52.9099999999999966
20
-57.420499999999997
11
52.9674029999999973
21
-57.431917999999996
0
LINE
8
BLACK
6
CONTINUOUS
10
52.9674029999999973
20
-57.431917999999996
11
53.016065999999995
21
-57.4644339999999971
0
LINE
8
BLACK
6
CONTINUOUS
10
53.016065999999995
20
-57.4644339999999971
11
53.0485819999999961
21
-57.5130969999999948
0
LINE
8
BLACK
6
CONTINUOUS
10
53.0485819999999961
20
-57.5130969999999948
11
53.0599999999999952
21
-57.5704999999999956
0
LINE
8
BLACK
6
CONTINUOUS
10
53.0599999999999952
20
-57.5704999999999956
11
53.0599999999999952
21
-57.894720999999997
0
LINE
8
BLACK
6
CONTINUOUS
10
53.0599999999999952
20
-57.894720999999997
11
53.077340999999997
21
-57.9144949999999952
0
LINE
8
BLACK
6
CONTINUOUS
10
53.077340999999997
20
-57.9144949999999952
11
53.1295519999999968
21
-58.0049259999999975
0
LINE
8
BLACK
6
CONTINUOUS
10
53.1295519999999968
20
-58.0049259999999975
11
53.1565779999999961
21
-58.1057899999999989
0
LINE
8
BLACK
6
CONTINUOUS
10
53.1565779999999961
20
-58.1057899999999989
11
53.1565779999999961
21
-58.2102099999999965
0
LINE
8
BLACK
6
CONTINUOUS
10
53.1565779999999961
20
-58.2102099999999965
11
53.1295519999999968
21
-58.3110739999999979
0
LINE
8
BLACK
6
CONTINUOUS
10
53.1295519999999968
20
-58.3110739999999979
11
53.077340999999997
21
-58.4015050000000002
0
LINE
8
BLACK
6
CONTINUOUS
10
53.077340999999997
20
-58.4015050000000002
11
53.0599999999999952
21
-58.4188459999999949
0
LINE
8
BLACK
6
CONTINUOUS
10
53.0599999999999952
20
-58.4188459999999949
11
53.0599999999999952
21
-58.7454999999999998
0
LINE
8
BLACK
6
CONTINUOUS
10
53.0599999999999952
20
-58.7454999999999998
11
53.0485819999999961
21
-58.8029030000000006
0
LINE
8
BLACK
6
CONTINUOUS
10
53.0485819999999961
20
-58.8029030000000006
11
53.016065999999995
21
-58.8515659999999983
0
LINE
8
BLACK
6
CONTINUOUS
10
53.016065999999995
20
-58.8515659999999983
11
52.9674029999999973
21
-58.8840819999999994
0
LINE
8
BLACK
6
CONTINUOUS
10
52.9674029999999973
20
-58.8840819999999994
11
52.9099999999999966
21
-58.8954999999999984
0
LINE
8
BLACK
6
CONTINUOUS
10
52.9099999999999966
20
-58.8954999999999984
11
52.6099999999999994
21
-58.8954999999999984
0
LINE
8
BLACK
6
CONTINUOUS
10
52.6099999999999994
20
-58.8954999999999984
11
52.5525969999999987
21
-58.8840819999999994
0
LINE
8
BLACK
6
CONTINUOUS
10
52.5525969999999987
20
-58.8840819999999994
11
52.503934000000001
21
-58.8515659999999983
0
LINE
8
BLACK
6
CONTINUOUS
10
52.503934000000001
20
-58.8515659999999983
11
52.4714179999999999
21
-58.8029030000000006
0
LINE
8
BLACK
6
CONTINUOUS
10
52.4714179999999999
20
-58.8029030000000006
11
52.4600000000000009
21
-58.7454999999999998
0
LINE
8
BLACK
6
CONTINUOUS
10
52.4600000000000009
20
-58.7454999999999998
11
52.4600000000000009
21
-58.4236859999999965
0
LINE
8
BLACK
6
CONTINUOUS
10
52.4600000000000009
20
-58.4236859999999965
11
52.1261569999999992
21
-58.0898429999999948
0
LINE
8
BLACK
6
CONTINUOUS
10
52.1261569999999992
20
-58.0898429999999948
11
52.0916589999999999
21
-58.050504999999994
0
LINE
8
BLACK
6
CONTINUOUS
10
52.0916589999999999
20
-58.050504999999994
11
52.0394480000000001
21
-57.9600739999999988
0
LINE
8
BLACK
6
CONTINUOUS
10
52.0394480000000001
20
-57.9600739999999988
11
52.0124220000000008
21
-57.8592099999999974
0
LINE
8
BLACK
6
CONTINUOUS
10
52.0124220000000008
20
-57.8592099999999974
11
52.0090000000000003
21
-57.8069999999999951
0
LINE
8
BLACK
6
CONTINUOUS
10
52.0090000000000003
20
-57.8069999999999951
11
52.0090000000000003
21
-51.3089999999999975
0
LINE
8
BLACK
6
CONTINUOUS
10
52.0090000000000003
20
-51.3089999999999975
11
52.0124220000000008
21
-51.2567899999999952
0
LINE
8
BLACK
6
CONTINUOUS
10
52.0124220000000008
20
-51.2567899999999952
11
52.0294369999999944
21
-51.1932899999999975
0
LINE
8
BLACK
6
CONTINUOUS
10
52.0294369999999944
20
-51.1932899999999975
11
52.0394480000000001
21
-51.1559260000000009
0
LINE
8
BLACK
6
CONTINUOUS
10
52.0394480000000001
20
-51.1559260000000009
11
52.0916589999999999
21
-51.0654949999999985
0
LINE
8
BLACK
6
CONTINUOUS
10
52.0916589999999999
20
-51.0654949999999985
11
52.1261569999999992
21
-51.0261569999999978
0
LINE
8
BLACK
6
CONTINUOUS
10
52.1261569999999992
20
-51.0261569999999978
11
53.6599999999999966
21
-49.4923140000000004
0
LINE
8
BLACK
6
CONTINUOUS
10
53.6599999999999966
20
-49.4923140000000004
11
53.6599999999999966
21
-48.7830000000000013
0
LINE
8
BLACK
6
CONTINUOUS
10
53.6599999999999966
20
-48.7830000000000013
11
53.6790299999999974
21
-48.6873289999999983
0
LINE
8
BLACK
6
CONTINUOUS
10
53.6790299999999974
20
-48.6873289999999983
11
53.7332229999999953
21
-48.606223
0
LINE
8
BLACK
6
CONTINUOUS
10
53.7332229999999953
20
-48.606223
11
53.8143290000000007
21
-48.5520299999999949
0
LINE
8
BLACK
6
CONTINUOUS
10
53.8143290000000007
20
-48.5520299999999949
11
53.9099999999999966
21
-48.5330000000000013
0
LINE
8
BLACK
6
CONTINUOUS
10
53.9099999999999966
20
-48.5330000000000013
11
54.7100000000000009
21
-48.5330000000000013
0
LINE
8
BLACK
6
CONTINUOUS
10
54.7100000000000009
20
-48.5330000000000013
11
54.8056709999999967
21
-48.5520299999999949
0
LINE
8
BLACK
6
CONTINUOUS
10
61.5662829999999985
20
-56.0514269999999968
11
61.699624
21
-56.1011609999999976
0
LINE
8
BLACK
6
CONTINUOUS
10
61.699624
20
-56.1011609999999976
11
61.8135529999999989
21
-56.186446999999994
0
LINE
8
BLACK
6
CONTINUOUS
10
61.8135529999999989
20
-56.186446999999994
11
61.8988389999999953
21
-56.300376
0
LINE
8
BLACK
6
CONTINUOUS
10
61.8988389999999953
20
-56.300376
11
61.9485729999999961
21
-56.4337169999999944
0
LINE
8
BLACK
6
CONTINUOUS
10
61.9485729999999961
20
-56.4337169999999944
11
61.9599999999999937
21
-56.5399999999999991
0
LINE
8
BLACK
6
CONTINUOUS
10
61.9599999999999937
20
-56.5399999999999991
11
61.9599999999999937
21
-57.5399999999999991
0
LINE
8
BLACK
6
CONTINUOUS
10
61.9599999999999937
20
-57.5399999999999991
11
61.9485729999999961
21
-57.6462829999999968
0
LINE
8
BLACK
6
CONTINUOUS
10
61.9485729999999961
20
-57.6462829999999968
11
61.8988389999999953
21
-57.7796239999999983
0
LINE
8
BLACK
6
CONTINUOUS
10
61.8988389999999953
20
-57.7796239999999983
11
61.8135529999999989
21
-57.8935529999999972
0
LINE
8
BLACK
6
CONTINUOUS
10
61.8135529999999989
20
-57.8935529999999972
11
61.699624
21
-57.9788390000000007
0
LINE
8
BLACK
6
CONTINUOUS
10
61.699624
20
-57.9788390000000007
11
61.5662829999999985
21
-58.0285729999999944
0
LINE
8
BLACK
6
CONTINUOUS
10
61.5662829999999985
20
-58.0285729999999944
11
61.4599999999999937
21
-58.0399999999999991
0
LINE
8
BLACK
6
CONTINUOUS
10
61.4599999999999937
20
-58.0399999999999991
11
59.7099999999999937
21
-58.0399999999999991
0
LINE
8
BLACK
6
CONTINUOUS
10
59.7099999999999937
20
-58.0399999999999991
11
59.6037169999999961
21
-58.0285729999999944
0
LINE
8
BLACK
6
CONTINUOUS
10
59.6037169999999961
20
-58.0285729999999944
11
59.4703759999999946
21
-57.9788390000000007
0
LINE
8
BLACK
6
CONTINUOUS
10
59.4703759999999946
20
-57.9788390000000007
11
59.3564469999999957
21
-57.8935529999999972
0
LINE
8
BLACK
6
CONTINUOUS
10
59.3564469999999957
20
-57.8935529999999972
11
59.2711609999999993
21
-57.7796239999999983
0
LINE
8
BLACK
6
CONTINUOUS
10
59.2711609999999993
20
-57.7796239999999983
11
59.2214269999999985
21
-57.6462829999999968
0
LINE
8
BLACK
6
CONTINUOUS
10
59.2214269999999985
20
-57.6462829999999968
11
59.2100000000000009
21
-57.5399999999999991
0
LINE
8
BLACK
6
CONTINUOUS
10
59.2100000000000009
20
-57.5399999999999991
11
59.2100000000000009
21
-56.5399999999999991
0
LINE
8
BLACK
6
CONTINUOUS
10
59.2100000000000009
20
-56.5399999999999991
11
59.2214269999999985
21
-56.4337169999999944
0
LINE
8
BLACK
6
CONTINUOUS
10
59.2214269999999985
20
-56.4337169999999944
11
59.2711609999999993
21
-56.300376
0
LINE
8
BLACK
6
CONTINUOUS
10
59.2711609999999993
20
-56.300376
11
59.3564469999999957
21
-56.186446999999994
0
LINE
8
BLACK
6
CONTINUOUS
10
59.3564469999999957
20
-56.186446999999994
11
59.4703759999999946
21
-56.1011609999999976
0
LINE
8
BLACK
6
CONTINUOUS
10
59.4703759999999946
20
-56.1011609999999976
11
59.6037169999999961
21
-56.0514269999999968
0
LINE
8
BLACK
6
CONTINUOUS
10
59.6037169999999961
20
-56.0514269999999968
11
59.7099999999999937
21
-56.0399999999999991
0
LINE
8
BLACK
6
CONTINUOUS
10
59.7099999999999937
20
-56.0399999999999991
11
61.4599999999999937
21
-56.0399999999999991
0
LINE
8
BLACK
6
CONTINUOUS
10
61.4599999999999937
20
-56.0399999999999991
11
61.5662829999999985
21
-56.0514269999999968
0
LINE
8
BLACK
6
CONTINUOUS
10
77.7312829999999906
20
-56.0514269999999968
11
77.8646239999999921
21
-56.1011609999999976
0
LINE
8
BLACK
6
CONTINUOUS
10
77.8646239999999921
20
-56.1011609999999976
11
77.9785529999999909
21
-56.186446999999994
0
LINE
8
BLACK
6
CONTINUOUS
10
77.9785529999999909
20
-56.186446999999994
11
78.0638390000000015
21
-56.300376
0
LINE
8
BLACK
6
CONTINUOUS
10
78.0638390000000015
20
-56.300376
11
78.1135730000000024
21
-56.4337169999999944
0
LINE
8
BLACK
6
CONTINUOUS
10
78.1135730000000024
20
-56.4337169999999944
11
78.125
21
-56.5399999999999991
0
LINE
8
BLACK
6
CONTINUOUS
10
78.125
20
-56.5399999999999991
11
78.125
21
-57.5399999999999991
0
LINE
8
BLACK
6
CONTINUOUS
10
78.125
20
-57.5399999999999991
11
78.1135730000000024
21
-57.6462829999999968
0
LINE
8
BLACK
6
CONTINUOUS
10
78.1135730000000024
20
-57.6462829999999968
11
78.0638390000000015
21
-57.7796239999999983
0
LINE
8
BLACK
6
CONTINUOUS
10
78.0638390000000015
20
-57.7796239999999983
11
77.9785529999999909
21
-57.8935529999999972
0
LINE
8
BLACK
6
CONTINUOUS
10
77.9785529999999909
20
-57.8935529999999972
11
77.8646239999999921
21
-57.9788390000000007
0
LINE
8
BLACK
6
CONTINUOUS
10
77.8646239999999921
20
-57.9788390000000007
11
77.7312829999999906
21
-58.0285729999999944
0
LINE
8
BLACK
6
CONTINUOUS
10
77.7312829999999906
20
-58.0285729999999944
11
77.625
21
-58.0399999999999991
0
LINE
8
BLACK
6
CONTINUOUS
10
77.625
20
-58.0399999999999991
11
75.875
21
-58.0399999999999991
0
LINE
8
BLACK
6
CONTINUOUS
10
75.875
20
-58.0399999999999991
11
75.7687169999999952
21
-58.0285729999999944
0
LINE
8
BLACK
6
CONTINUOUS
10
75.7687169999999952
20
-58.0285729999999944
11
75.6353759999999937
21
-57.9788390000000007
0
LINE
8
BLACK
6
CONTINUOUS
10
75.6353759999999937
20
-57.9788390000000007
11
75.5214469999999949
21
-57.8935529999999972
0
LINE
8
BLACK
6
CONTINUOUS
10
75.5214469999999949
20
-57.8935529999999972
11
75.4361609999999985
21
-57.7796239999999983
0
LINE
8
BLACK
6
CONTINUOUS
10
75.4361609999999985
20
-57.7796239999999983
11
75.3864269999999976
21
-57.6462829999999968
0
LINE
8
BLACK
6
CONTINUOUS
10
75.3864269999999976
20
-57.6462829999999968
11
75.375
21
-57.5399999999999991
0
LINE
8
BLACK
6
CONTINUOUS
10
75.375
20
-57.5399999999999991
11
75.375
21
-56.5399999999999991
0
LINE
8
BLACK
6
CONTINUOUS
10
75.375
20
-56.5399999999999991
11
75.3864269999999976
21
-56.4337169999999944
0
LINE
8
BLACK
6
CONTINUOUS
10
75.3864269999999976
20
-56.4337169999999944
11
75.4361609999999985
21
-56.300376
0
LINE
8
BLACK
6
CONTINUOUS
10
75.4361609999999985
20
-56.300376
11
75.5214469999999949
21
-56.186446999999994
0
LINE
8
BLACK
6
CONTINUOUS
10
75.5214469999999949
20
-56.186446999999994
11
75.6353759999999937
21
-56.1011609999999976
0
LINE
8
BLACK
6
CONTINUOUS
10
75.6353759999999937
20
-56.1011609999999976
11
75.7687169999999952
21
-56.0514269999999968
0
LINE
8
BLACK
6
CONTINUOUS
10
75.7687169999999952
20
-56.0514269999999968
11
75.875
21
-56.0399999999999991
0
LINE
8
BLACK
6
CONTINUOUS
10
75.875
20
-56.0399999999999991
11
77.625
21
-56.0399999999999991
0
LINE
8
BLACK
6
CONTINUOUS
10
77.625
20
-56.0399999999999991
11
77.7312829999999906
21
-56.0514269999999968
0
LINE
8
BLACK
6
CONTINUOUS
10
54.8056709999999967
20
-51.5520299999999949
11
54.886776999999995
21
-51.606223
0
LINE
8
BLACK
6
CONTINUOUS
10
54.886776999999995
20
-51.606223
11
54.9409700000000001
21
-51.6873289999999983
0
LINE
8
BLACK
6
CONTINUOUS
10
54.9409700000000001
20
-51.6873289999999983
11
54.9600000000000009
21
-51.7829999999999941
0
LINE
8
BLACK
6
CONTINUOUS
10
54.9600000000000009
20
-51.7829999999999941
11
54.9600000000000009
21
-53.0329999999999941
0
LINE
8
BLACK
6
CONTINUOUS
10
54.9600000000000009
20
-53.0329999999999941
11
54.9409700000000001
21
-53.1286709999999971
0
LINE
8
BLACK
6
CONTINUOUS
10
54.9409700000000001
20
-53.1286709999999971
11
54.886776999999995
21
-53.2097769999999954
0
LINE
8
BLACK
6
CONTINUOUS
10
54.886776999999995
20
-53.2097769999999954
11
54.8056709999999967
21
-53.2639700000000005
0
LINE
8
BLACK
6
CONTINUOUS
10
54.8056709999999967
20
-53.2639700000000005
11
54.7100000000000009
21
-53.2829999999999941
0
LINE
8
BLACK
6
CONTINUOUS
10
54.7100000000000009
20
-53.2829999999999941
11
54.1099999999999994
21
-53.2829999999999941
0
LINE
8
BLACK
6
CONTINUOUS
10
54.1099999999999994
20
-53.2829999999999941
11
54.1099999999999994
21
-56.2829999999999941
0
LINE
8
BLACK
6
CONTINUOUS
10
54.1099999999999994
20
-56.2829999999999941
11
54.106577999999999
21
-56.3352099999999965
0
LINE
8
BLACK
6
CONTINUOUS
10
54.106577999999999
20
-56.3352099999999965
11
54.0795519999999996
21
-56.4360730000000004
0
LINE
8
BLACK
6
CONTINUOUS
10
54.0795519999999996
20
-56.4360730000000004
11
54.0273409999999998
21
-56.5265050000000002
0
LINE
8
BLACK
6
CONTINUOUS
10
54.0273409999999998
20
-56.5265050000000002
11
54.009999999999998
21
-56.5438459999999949
0
LINE
8
BLACK
6
CONTINUOUS
10
54.009999999999998
20
-56.5438459999999949
11
54.009999999999998
21
-56.8704999999999998
0
LINE
8
BLACK
6
CONTINUOUS
10
54.009999999999998
20
-56.8704999999999998
11
53.998581999999999
21
-56.9279030000000006
0
LINE
8
BLACK
6
CONTINUOUS
10
53.998581999999999
20
-56.9279030000000006
11
53.9660659999999979
21
-56.9765659999999983
0
LINE
8
BLACK
6
CONTINUOUS
10
53.9660659999999979
20
-56.9765659999999983
11
53.9174030000000002
21
-57.0090819999999994
0
LINE
8
BLACK
6
CONTINUOUS
10
53.9174030000000002
20
-57.0090819999999994
11
53.8599999999999994
21
-57.0204999999999984
0
LINE
8
BLACK
6
CONTINUOUS
10
53.8599999999999994
20
-57.0204999999999984
11
53.5599999999999952
21
-57.0204999999999984
0
LINE
8
BLACK
6
CONTINUOUS
10
53.5599999999999952
20
-57.0204999999999984
11
53.5025969999999944
21
-57.0090819999999994
0
LINE
8
BLACK
6
CONTINUOUS
10
53.5025969999999944
20
-57.0090819999999994
11
53.4539339999999967
21
-56.9765659999999983
0
LINE
8
BLACK
6
CONTINUOUS
10
53.4539339999999967
20
-56.9765659999999983
11
53.4214179999999956
21
-56.9279030000000006
0
LINE
8
BLACK
6
CONTINUOUS
10
53.4214179999999956
20
-56.9279030000000006
11
53.4099999999999966
21
-56.8704999999999998
0
LINE
8
BLACK
6
CONTINUOUS
10
53.4099999999999966
20
-56.8704999999999998
11
53.4099999999999966
21
-56.5438459999999949
0
LINE
8
BLACK
6
CONTINUOUS
10
53.4099999999999966
20
-56.5438459999999949
11
53.3926589999999948
21
-56.5265050000000002
0
LINE
8
BLACK
6
CONTINUOUS
10
53.3926589999999948
20
-56.5265050000000002
11
53.340447999999995
21
-56.4360730000000004
0
LINE
8
BLACK
6
CONTINUOUS
10
53.340447999999995
20
-56.4360730000000004
11
53.3134219999999956
21
-56.3352099999999965
0
LINE
8
BLACK
6
CONTINUOUS
10
53.3134219999999956
20
-56.3352099999999965
11
53.3099999999999952
21
-56.2829999999999941
0
LINE
8
BLACK
6
CONTINUOUS
10
53.3099999999999952
20
-56.2829999999999941
11
53.3099999999999952
21
-52.857999999999997
0
LINE
8
BLACK
6
CONTINUOUS
10
53.3099999999999952
20
-52.857999999999997
11
53.3134219999999956
21
-52.8057899999999947
0
LINE
8
BLACK
6
CONTINUOUS
10
53.3134219999999956
20
-52.8057899999999947
11
53.340447999999995
21
-52.7049269999999979
0
LINE
8
BLACK
6
CONTINUOUS
10
53.340447999999995
20
-52.7049269999999979
11
53.340447999999995
21
-52.7049260000000004
0
LINE
8
BLACK
6
CONTINUOUS
10
53.340447999999995
20
-52.7049260000000004
11
53.3926589999999948
21
-52.614494999999998
0
LINE
8
BLACK
6
CONTINUOUS
10
53.3926589999999948
20
-52.614494999999998
11
53.4271570000000011
21
-52.5751569999999973
0
LINE
8
BLACK
6
CONTINUOUS
10
53.4271570000000011
20
-52.5751569999999973
11
53.6599999999999966
21
-52.3423139999999947
0
LINE
8
BLACK
6
CONTINUOUS
10
53.6599999999999966
20
-52.3423139999999947
11
53.6599999999999966
21
-51.7829999999999941
0
LINE
8
BLACK
6
CONTINUOUS
10
53.6599999999999966
20
-51.7829999999999941
11
53.6790299999999974
21
-51.6873289999999983
0
LINE
8
BLACK
6
CONTINUOUS
10
53.6790299999999974
20
-51.6873289999999983
11
53.7332229999999953
21
-51.606223
0
LINE
8
BLACK
6
CONTINUOUS
10
53.7332229999999953
20
-51.606223
11
53.8143290000000007
21
-51.5520299999999949
0
LINE
8
BLACK
6
CONTINUOUS
10
53.8143290000000007
20
-51.5520299999999949
11
53.9099999999999966
21
-51.5329999999999941
0
LINE
8
BLACK
6
CONTINUOUS
10
53.9099999999999966
20
-51.5329999999999941
11
54.7100000000000009
21
-51.5329999999999941
0
LINE
8
BLACK
6
CONTINUOUS
10
54.7100000000000009
20
-51.5329999999999941
11
54.8056709999999967
21
-51.5520299999999949
0
LINE
8
BLACK
6
CONTINUOUS
10
57.9056709999999981
20
-51.5520299999999949
11
57.9867769999999965
21
-51.606223
0
LINE
8
BLACK
6
CONTINUOUS
10
57.9867769999999965
20
-51.606223
11
58.0409699999999944
21
-51.6873289999999983
0
LINE
8
BLACK
6
CONTINUOUS
10
58.0409699999999944
20
-51.6873289999999983
11
58.0599999999999952
21
-51.7829999999999941
0
LINE
8
BLACK
6
CONTINUOUS
10
58.0599999999999952
20
-51.7829999999999941
11
58.0599999999999952
21
-53.0329999999999941
0
LINE
8
BLACK
6
CONTINUOUS
10
58.0599999999999952
20
-53.0329999999999941
11
58.0409699999999944
21
-53.1286709999999971
0
LINE
8
BLACK
6
CONTINUOUS
10
58.0409699999999944
20
-53.1286709999999971
11
57.9867769999999965
21
-53.2097769999999954
0
LINE
8
BLACK
6
CONTINUOUS
10
57.9867769999999965
20
-53.2097769999999954
11
57.9056709999999981
21
-53.2639700000000005
0
LINE
8
BLACK
6
CONTINUOUS
10
57.9056709999999981
20
-53.2639700000000005
11
57.8099999999999952
21
-53.2829999999999941
0
LINE
8
BLACK
6
CONTINUOUS
10
57.8099999999999952
20
-53.2829999999999941
11
57.8099999999999952
21
-54.3763140000000007
0
LINE
8
BLACK
6
CONTINUOUS
10
57.8099999999999952
20
-54.3763140000000007
11
57.9691569999999956
21
-54.2171570000000003
0
LINE
8
BLACK
6
CONTINUOUS
10
57.9691569999999956
20
-54.2171570000000003
11
58.0084949999999964
21
-54.182659000000001
0
LINE
8
BLACK
6
CONTINUOUS
10
58.0084949999999964
20
-54.182659000000001
11
58.0989259999999987
21
-54.1304479999999941
0
LINE
8
BLACK
6
CONTINUOUS
10
58.0989259999999987
20
-54.1304479999999941
11
58.1997900000000001
21
-54.1034219999999948
0
LINE
8
BLACK
6
CONTINUOUS
10
58.1997900000000001
20
-54.1034219999999948
11
58.2519999999999953
21
-54.0999999999999943
0
LINE
8
BLACK
6
CONTINUOUS
10
58.2519999999999953
20
-54.0999999999999943
11
59.2100000000000009
21
-54.0999999999999943
0
LINE
8
BLACK
6
CONTINUOUS
10
59.2100000000000009
20
-54.0999999999999943
11
59.2100000000000009
21
-54.
0
LINE
8
BLACK
6
CONTINUOUS
10
59.2100000000000009
20
-54.
11
59.2214269999999985
21
-53.8937169999999952
0
LINE
8
BLACK
6
CONTINUOUS
10
59.2214269999999985
20
-53.8937169999999952
11
59.2711609999999993
21
-53.7603760000000008
0
LINE
8
BLACK
6
CONTINUOUS
10
59.2711609999999993
20
-53.7603760000000008
11
59.3564469999999957
21
-53.6464469999999949
0
LINE
8
BLACK
6
CONTINUOUS
10
59.3564469999999957
20
-53.6464469999999949
11
59.4703759999999946
21
-53.5611609999999985
0
LINE
8
BLACK
6
CONTINUOUS
10
59.4703759999999946
20
-53.5611609999999985
11
59.6037169999999961
21
-53.5114269999999976
0
LINE
8
BLACK
6
CONTINUOUS
10
59.6037169999999961
20
-53.5114269999999976
11
59.7099999999999937
21
-53.5
0
LINE
8
BLACK
6
CONTINUOUS
10
59.7099999999999937
20
-53.5
11
61.4599999999999937
21
-53.5
0
LINE
8
BLACK
6
CONTINUOUS
10
61.4599999999999937
20
-53.5
11
61.5662829999999985
21
-53.5114269999999976
0
LINE
8
BLACK
6
CONTINUOUS
10
61.5662829999999985
20
-53.5114269999999976
11
61.699624
21
-53.5611609999999985
0
LINE
8
BLACK
6
CONTINUOUS
10
61.699624
20
-53.5611609999999985
11
61.8135529999999989
21
-53.6464469999999949
0
LINE
8
BLACK
6
CONTINUOUS
10
61.8135529999999989
20
-53.6464469999999949
11
61.8988389999999953
21
-53.7603760000000008
0
LINE
8
BLACK
6
CONTINUOUS
10
61.8988389999999953
20
-53.7603760000000008
11
61.9485729999999961
21
-53.8937169999999952
0
LINE
8
BLACK
6
CONTINUOUS
10
61.9485729999999961
20
-53.8937169999999952
11
61.9599999999999937
21
-54.
0
LINE
8
BLACK
6
CONTINUOUS
10
61.9599999999999937
20
-54.
11
61.9599999999999937
21
-55.
0
LINE
8
BLACK
6
CONTINUOUS
10
61.9599999999999937
20
-55.
11
61.9485729999999961
21
-55.1062829999999977
0
LINE
8
BLACK
6
CONTINUOUS
10
61.9485729999999961
20
-55.1062829999999977
11
61.8988389999999953
21
-55.2396239999999992
0
LINE
8
BLACK
6
CONTINUOUS
10
61.8988389999999953
20
-55.2396239999999992
11
61.8135529999999989
21
-55.353552999999998
0
LINE
8
BLACK
6
CONTINUOUS
10
61.8135529999999989
20
-55.353552999999998
11
61.699624
21
-55.4388389999999944
0
LINE
8
BLACK
6
CONTINUOUS
10
61.699624
20
-55.4388389999999944
11
61.5662829999999985
21
-55.4885729999999953
0
LINE
8
BLACK
6
CONTINUOUS
10
61.5662829999999985
20
-55.4885729999999953
11
61.4599999999999937
21
-55.5
0
LINE
8
BLACK
6
CONTINUOUS
10
61.4599999999999937
20
-55.5
11
59.7099999999999937
21
-55.5
0
LINE
8
BLACK
6
CONTINUOUS
10
59.7099999999999937
20
-55.5
11
59.6037169999999961
21
-55.4885729999999953
0
LINE
8
BLACK
6
CONTINUOUS
10
59.6037169999999961
20
-55.4885729999999953
11
59.4703759999999946
21
-55.4388389999999944
0
LINE
8
BLACK
6
CONTINUOUS
10
59.4703759999999946
20
-55.4388389999999944
11
59.3564469999999957
21
-55.353552999999998
0
LINE
8
BLACK
6
CONTINUOUS
10
59.3564469999999957
20
-55.353552999999998
11
59.2711609999999993
21
-55.2396239999999992
0
LINE
8
BLACK
6
CONTINUOUS
10
59.2711609999999993
20
-55.2396239999999992
11
59.2214269999999985
21
-55.1062829999999977
0
LINE
8
BLACK
6
CONTINUOUS
10
59.2214269999999985
20
-55.1062829999999977
11
59.2100000000000009
21
-55.
0
LINE
8
BLACK
6
CONTINUOUS
10
59.2100000000000009
20
-55.
11
59.2100000000000009
21
-54.8999999999999986
0
LINE
8
BLACK
6
CONTINUOUS
10
59.2100000000000009
20
-54.8999999999999986
11
58.4176859999999962
21
-54.8999999999999986
0
LINE
8
BLACK
6
CONTINUOUS
10
58.4176859999999962
20
-54.8999999999999986
11
58.2416909999999959
21
-55.0759939999999943
0
LINE
8
BLACK
6
CONTINUOUS
10
58.2416909999999959
20
-55.0759939999999943
11
58.2659699999999958
21
-55.1123289999999955
0
LINE
8
BLACK
6
CONTINUOUS
10
58.2659699999999958
20
-55.1123289999999955
11
58.2849999999999966
21
-55.2079999999999984
0
LINE
8
BLACK
6
CONTINUOUS
10
58.2849999999999966
20
-55.2079999999999984
11
58.2849999999999966
21
-56.0079999999999956
0
LINE
8
BLACK
6
CONTINUOUS
10
58.2849999999999966
20
-56.0079999999999956
11
58.2659699999999958
21
-56.1036709999999985
0
LINE
8
BLACK
6
CONTINUOUS
10
58.2659699999999958
20
-56.1036709999999985
11
58.2117769999999979
21
-56.1847769999999969
0
LINE
8
BLACK
6
CONTINUOUS
10
58.2117769999999979
20
-56.1847769999999969
11
58.1306709999999995
21
-56.2389699999999948
0
LINE
8
BLACK
6
CONTINUOUS
10
58.1306709999999995
20
-56.2389699999999948
11
58.0349999999999966
21
-56.2579999999999956
0
LINE
8
BLACK
6
CONTINUOUS
10
58.0349999999999966
20
-56.2579999999999956
11
56.7849999999999966
21
-56.2579999999999956
0
LINE
8
BLACK
6
CONTINUOUS
10
56.7849999999999966
20
-56.2579999999999956
11
56.6893290000000007
21
-56.2389699999999948
0
LINE
8
BLACK
6
CONTINUOUS
10
56.6893290000000007
20
-56.2389699999999948
11
56.6082229999999953
21
-56.1847769999999969
0
LINE
8
BLACK
6
CONTINUOUS
10
56.6082229999999953
20
-56.1847769999999969
11
56.5540299999999974
21
-56.1036709999999985
0
LINE
8
BLACK
6
CONTINUOUS
10
56.5540299999999974
20
-56.1036709999999985
11
56.5349999999999966
21
-56.0079999999999956
0
LINE
8
BLACK
6
CONTINUOUS
10
56.5349999999999966
20
-56.0079999999999956
11
56.5349999999999966
21
-55.2079999999999984
0
LINE
8
BLACK
6
CONTINUOUS
10
56.5349999999999966
20
-55.2079999999999984
11
56.5540299999999974
21
-55.1123289999999955
0
LINE
8
BLACK
6
CONTINUOUS
10
56.5540299999999974
20
-55.1123289999999955
11
56.6082229999999953
21
-55.0312229999999971
0
LINE
8
BLACK
6
CONTINUOUS
10
56.6082229999999953
20
-55.0312229999999971
11
56.6893290000000007
21
-54.9770299999999992
0
LINE
8
BLACK
6
CONTINUOUS
10
56.6893290000000007
20
-54.9770299999999992
11
56.7849999999999966
21
-54.9579999999999984
0
LINE
8
BLACK
6
CONTINUOUS
10
56.7849999999999966
20
-54.9579999999999984
11
57.009999999999998
21
-54.9579999999999984
0
LINE
8
BLACK
6
CONTINUOUS
10
57.009999999999998
20
-54.9579999999999984
11
57.009999999999998
21
-53.2829999999999941
0
LINE
8
BLACK
6
CONTINUOUS
10
57.009999999999998
20
-53.2829999999999941
11
56.9143289999999951
21
-53.2639700000000005
0
LINE
8
BLACK
6
CONTINUOUS
10
56.9143289999999951
20
-53.2639700000000005
11
56.8332229999999967
21
-53.2097769999999954
0
LINE
8
BLACK
6
CONTINUOUS
10
56.8332229999999967
20
-53.2097769999999954
11
56.7790299999999988
21
-53.1286709999999971
0
LINE
8
BLACK
6
CONTINUOUS
10
56.7790299999999988
20
-53.1286709999999971
11
56.759999999999998
21
-53.0329999999999941
0
LINE
8
BLACK
6
CONTINUOUS
10
56.759999999999998
20
-53.0329999999999941
11
56.759999999999998
21
-51.7829999999999941
0
LINE
8
BLACK
6
CONTINUOUS
10
56.759999999999998
20
-51.7829999999999941
11
56.7790299999999988
21
-51.6873289999999983
0
LINE
8
BLACK
6
CONTINUOUS
10
56.7790299999999988
20
-51.6873289999999983
11
56.8332229999999967
21
-51.606223
0
LINE
8
BLACK
6
CONTINUOUS
10
56.8332229999999967
20
-51.606223
11
56.9143289999999951
21
-51.5520299999999949
0
LINE
8
BLACK
6
CONTINUOUS
10
56.9143289999999951
20
-51.5520299999999949
11
57.009999999999998
21
-51.5329999999999941
0
LINE
8
BLACK
6
CONTINUOUS
10
57.009999999999998
20
-51.5329999999999941
11
57.8099999999999952
21
-51.5329999999999941
0
LINE
8
BLACK
6
CONTINUOUS
10
57.8099999999999952
20
-51.5329999999999941
11
57.9056709999999981
21
-51.5520299999999949
0
LINE
8
BLACK
6
CONTINUOUS
10
61.5662829999999985
20
-48.4314269999999993
11
61.699624
21
-48.4811610000000002
0
LINE
8
BLACK
6
CONTINUOUS
10
61.699624
20
-48.4811610000000002
11
61.8135529999999989
21
-48.5664469999999966
0
LINE
8
BLACK
6
CONTINUOUS
10
61.8135529999999989
20
-48.5664469999999966
11
61.8988389999999953
21
-48.6803759999999954
0
LINE
8
BLACK
6
CONTINUOUS
10
61.8988389999999953
20
-48.6803759999999954
11
61.9485729999999961
21
-48.8137169999999969
0
LINE
8
BLACK
6
CONTINUOUS
10
61.9485729999999961
20
-48.8137169999999969
11
61.9599999999999937
21
-48.9199999999999946
0
LINE
8
BLACK
6
CONTINUOUS
10
61.9599999999999937
20
-48.9199999999999946
11
61.9599999999999937
21
-49.9199999999999946
0
LINE
8
BLACK
6
CONTINUOUS
10
61.9599999999999937
20
-49.9199999999999946
11
61.9485729999999961
21
-50.0262829999999994
0
LINE
8
BLACK
6
CONTINUOUS
10
61.9485729999999961
20
-50.0262829999999994
11
61.8988389999999953
21
-50.1596240000000009
0
LINE
8
BLACK
6
CONTINUOUS
10
61.8988389999999953
20
-50.1596240000000009
11
61.8135529999999989
21
-50.2735529999999997
0
LINE
8
BLACK
6
CONTINUOUS
10
61.8135529999999989
20
-50.2735529999999997
11
61.699624
21
-50.3588389999999961
0
LINE
8
BLACK
6
CONTINUOUS
10
61.699624
20
-50.3588389999999961
11
61.5662829999999985
21
-50.408572999999997
0
LINE
8
BLACK
6
CONTINUOUS
10
61.5662829999999985
20
-50.408572999999997
11
61.4599999999999937
21
-50.4199999999999946
0
LINE
8
BLACK
6
CONTINUOUS
10
61.4599999999999937
20
-50.4199999999999946
11
59.7099999999999937
21
-50.4199999999999946
0
LINE
8
BLACK
6
CONTINUOUS
10
59.7099999999999937
20
-50.4199999999999946
11
59.6037169999999961
21
-50.408572999999997
0
LINE
8
BLACK
6
CONTINUOUS
10
59.6037169999999961
20
-50.408572999999997
11
59.4703759999999946
21
-50.3588389999999961
0
LINE
8
BLACK
6
CONTINUOUS
10
59.4703759999999946
20
-50.3588389999999961
11
59.3564469999999957
21
-50.2735529999999997
0
LINE
8
BLACK
6
CONTINUOUS
10
59.3564469999999957
20
-50.2735529999999997
11
59.2711609999999993
21
-50.1596240000000009
0
LINE
8
BLACK
6
CONTINUOUS
10
59.2711609999999993
20
-50.1596240000000009
11
59.2214269999999985
21
-50.0262829999999994
0
LINE
8
BLACK
6
CONTINUOUS
10
59.2214269999999985
20
-50.0262829999999994
11
59.2100000000000009
21
-49.9199999999999946
0
LINE
8
BLACK
6
CONTINUOUS
10
59.2100000000000009
20
-49.9199999999999946
11
59.2100000000000009
21
-49.8200000000000003
0
LINE
8
BLACK
6
CONTINUOUS
10
59.2100000000000009
20
-49.8200000000000003
11
58.0599999999999952
21
-49.8200000000000003
0
LINE
8
BLACK
6
CONTINUOUS
10
58.0599999999999952
20
-49.8200000000000003
11
58.0599999999999952
21
-50.0330000000000013
0
LINE
8
BLACK
6
CONTINUOUS
10
58.0599999999999952
20
-50.0330000000000013
11
58.0409699999999944
21
-50.1286709999999971
0
LINE
8
BLACK
6
CONTINUOUS
10
58.0409699999999944
20
-50.1286709999999971
11
57.9867769999999965
21
-50.2097769999999954
0
LINE
8
BLACK
6
CONTINUOUS
10
57.9867769999999965
20
-50.2097769999999954
11
57.9056709999999981
21
-50.2639700000000005
0
LINE
8
BLACK
6
CONTINUOUS
10
57.9056709999999981
20
-50.2639700000000005
11
57.8099999999999952
21
-50.2830000000000013
0
LINE
8
BLACK
6
CONTINUOUS
10
57.8099999999999952
20
-50.2830000000000013
11
57.009999999999998
21
-50.2830000000000013
0
LINE
8
BLACK
6
CONTINUOUS
10
57.009999999999998
20
-50.2830000000000013
11
56.9143289999999951
21
-50.2639700000000005
0
LINE
8
BLACK
6
CONTINUOUS
10
56.9143289999999951
20
-50.2639700000000005
11
56.8332229999999967
21
-50.2097769999999954
0
LINE
8
BLACK
6
CONTINUOUS
10
56.8332229999999967
20
-50.2097769999999954
11
56.7790299999999988
21
-50.1286709999999971
0
LINE
8
BLACK
6
CONTINUOUS
10
56.7790299999999988
20
-50.1286709999999971
11
56.759999999999998
21
-50.0330000000000013
0
LINE
8
BLACK
6
CONTINUOUS
10
56.759999999999998
20
-50.0330000000000013
11
56.759999999999998
21
-48.7830000000000013
0
LINE
8
BLACK
6
CONTINUOUS
10
56.759999999999998
20
-48.7830000000000013
11
56.7790299999999988
21
-48.6873289999999983
0
LINE
8
BLACK
6
CONTINUOUS
10
56.7790299999999988
20
-48.6873289999999983
11
56.8332229999999967
21
-48.606223
0
LINE
8
BLACK
6
CONTINUOUS
10
56.8332229999999967
20
-48.606223
11
56.9143289999999951
21
-48.5520299999999949
0
LINE
8
BLACK
6
CONTINUOUS
10
56.9143289999999951
20
-48.5520299999999949
11
57.009999999999998
21
-48.5330000000000013
0
LINE
8
BLACK
6
CONTINUOUS
10
57.009999999999998
20
-48.5330000000000013
11
57.8099999999999952
21
-48.5330000000000013
0
LINE
8
BLACK
6
CONTINUOUS
10
57.8099999999999952
20
-48.5330000000000013
11
57.9056709999999981
21
-48.5520299999999949
0
LINE
8
BLACK
6
CONTINUOUS
10
57.9056709999999981
20
-48.5520299999999949
11
57.9867769999999965
21
-48.606223
0
LINE
8
BLACK
6
CONTINUOUS
10
57.9867769999999965
20
-48.606223
11
58.0409699999999944
21
-48.6873289999999983
0
LINE
8
BLACK
6
CONTINUOUS
10
58.0409699999999944
20
-48.6873289999999983
11
58.0599999999999952
21
-48.7830000000000013
0
LINE
8
BLACK
6
CONTINUOUS
10
58.0599999999999952
20
-48.7830000000000013
11
58.0599999999999952
21
-49.019999999999996
0
LINE
8
BLACK
6
CONTINUOUS
10
58.0599999999999952
20
-49.019999999999996
11
59.2100000000000009
21
-49.019999999999996
0
LINE
8
BLACK
6
CONTINUOUS
10
59.2100000000000009
20
-49.019999999999996
11
59.2100000000000009
21
-48.9199999999999946
0
LINE
8
BLACK
6
CONTINUOUS
10
59.2100000000000009
20
-48.9199999999999946
11
59.2214269999999985
21
-48.8137169999999969
0
LINE
8
BLACK
6
CONTINUOUS
10
59.2214269999999985
20
-48.8137169999999969
11
59.2711609999999993
21
-48.6803759999999954
0
LINE
8
BLACK
6
CONTINUOUS
10
59.2711609999999993
20
-48.6803759999999954
11
59.3564469999999957
21
-48.5664469999999966
0
LINE
8
BLACK
6
CONTINUOUS
10
59.3564469999999957
20
-48.5664469999999966
11
59.4703759999999946
21
-48.4811610000000002
0
LINE
8
BLACK
6
CONTINUOUS
10
59.4703759999999946
20
-48.4811610000000002
11
59.6037169999999961
21
-48.4314269999999993
0
LINE
8
BLACK
6
CONTINUOUS
10
59.6037169999999961
20
-48.4314269999999993
11
59.7099999999999937
21
-48.4199999999999946
0
LINE
8
BLACK
6
CONTINUOUS
10
59.7099999999999937
20
-48.4199999999999946
11
61.4599999999999937
21
-48.4199999999999946
0
LINE
8
BLACK
6
CONTINUOUS
10
61.4599999999999937
20
-48.4199999999999946
11
61.5662829999999985
21
-48.4314269999999993
0
LINE
8
BLACK
6
CONTINUOUS
10
77.7312829999999906
20
-48.4314269999999993
11
77.8646239999999921
21
-48.4811610000000002
0
LINE
8
BLACK
6
CONTINUOUS
10
77.8646239999999921
20
-48.4811610000000002
11
77.9785529999999909
21
-48.5664469999999966
0
LINE
8
BLACK
6
CONTINUOUS
10
77.9785529999999909
20
-48.5664469999999966
11
78.0638390000000015
21
-48.6803759999999954
0
LINE
8
BLACK
6
CONTINUOUS
10
78.0638390000000015
20
-48.6803759999999954
11
78.1135730000000024
21
-48.8137169999999969
0
LINE
8
BLACK
6
CONTINUOUS
10
78.1135730000000024
20
-48.8137169999999969
11
78.125
21
-48.9199999999999946
0
LINE
8
BLACK
6
CONTINUOUS
10
78.125
20
-48.9199999999999946
11
78.125
21
-49.9199999999999946
0
LINE
8
BLACK
6
CONTINUOUS
10
78.125
20
-49.9199999999999946
11
78.1135730000000024
21
-50.0262829999999994
0
LINE
8
BLACK
6
CONTINUOUS
10
78.1135730000000024
20
-50.0262829999999994
11
78.0638390000000015
21
-50.1596240000000009
0
LINE
8
BLACK
6
CONTINUOUS
10
78.0638390000000015
20
-50.1596240000000009
11
77.9785529999999909
21
-50.2735529999999997
0
LINE
8
BLACK
6
CONTINUOUS
10
77.9785529999999909
20
-50.2735529999999997
11
77.8646239999999921
21
-50.3588389999999961
0
LINE
8
BLACK
6
CONTINUOUS
10
77.8646239999999921
20
-50.3588389999999961
11
77.7312829999999906
21
-50.408572999999997
0
LINE
8
BLACK
6
CONTINUOUS
10
77.7312829999999906
20
-50.408572999999997
11
77.625
21
-50.4199999999999946
0
LINE
8
BLACK
6
CONTINUOUS
10
77.625
20
-50.4199999999999946
11
75.875
21
-50.4199999999999946
0
LINE
8
BLACK
6
CONTINUOUS
10
75.875
20
-50.4199999999999946
11
75.7687169999999952
21
-50.408572999999997
0
LINE
8
BLACK
6
CONTINUOUS
10
75.7687169999999952
20
-50.408572999999997
11
75.6353759999999937
21
-50.3588389999999961
0
LINE
8
BLACK
6
CONTINUOUS
10
75.6353759999999937
20
-50.3588389999999961
11
75.5214469999999949
21
-50.2735529999999997
0
LINE
8
BLACK
6
CONTINUOUS
10
75.5214469999999949
20
-50.2735529999999997
11
75.4361609999999985
21
-50.1596240000000009
0
LINE
8
BLACK
6
CONTINUOUS
10
75.4361609999999985
20
-50.1596240000000009
11
75.3864269999999976
21
-50.0262829999999994
0
LINE
8
BLACK
6
CONTINUOUS
10
75.3864269999999976
20
-50.0262829999999994
11
75.375
21
-49.9199999999999946
0
LINE
8
BLACK
6
CONTINUOUS
10
75.375
20
-49.9199999999999946
11
75.375
21
-48.9199999999999946
0
LINE
8
BLACK
6
CONTINUOUS
10
75.375
20
-48.9199999999999946
11
75.3864269999999976
21
-48.8137169999999969
0
LINE
8
BLACK
6
CONTINUOUS
10
75.3864269999999976
20
-48.8137169999999969
11
75.4361609999999985
21
-48.6803759999999954
0
LINE
8
BLACK
6
CONTINUOUS
10
75.4361609999999985
20
-48.6803759999999954
11
75.5214469999999949
21
-48.5664469999999966
0
LINE
8
BLACK
6
CONTINUOUS
10
75.5214469999999949
20
-48.5664469999999966
11
75.6353759999999937
21
-48.4811610000000002
0
LINE
8
BLACK
6
CONTINUOUS
10
75.6353759999999937
20
-48.4811610000000002
11
75.7687169999999952
21
-48.4314269999999993
0
LINE
8
BLACK
6
CONTINUOUS
10
75.7687169999999952
20
-48.4314269999999993
11
75.875
21
-48.4199999999999946
0
LINE
8
BLACK
6
CONTINUOUS
10
75.875
20
-48.4199999999999946
11
77.625
21
-48.4199999999999946
0
LINE
8
BLACK
6
CONTINUOUS
10
77.625
20
-48.4199999999999946
11
77.7312829999999906
21
-48.4314269999999993
  0
ENDSEC
  0
EOF
