  0
SECTION
  2
HEADER
  9
$ANGBASE
  50
0.0
  9
$ANGDIR
  70
1
  9
$MEASUREMENT
  70
1
  9
$INSUNITS
  70
4
  0
ENDSEC
  0
SECTION
  2
TABLES
  0
TABLE
  2
LTYPE
  70
4
  0
LTYPE
  5
40F
  2
CONTINUOUS
  70
0
  3
Solid line
  72
65
  73
0
  40
0.0
  0
LTYPE
  5
410
  2
DASHDOT
 70
0
  3
Dash Dot ____ _ ____ _
 72
65
 73
4
 40
2.0
 49
1.25
 49
-0.25
 49
0.25
 49
-0.25
  0
LTYPE
  5
411
  2
DASHED
 70
0
  3
Dashed __ __ __ __ __
 72
65
 73
2
 40
0.75
 49
0.5
 49
-0.25
  0
LTYPE
  5
43B
  2
DOTTED
 70
0
  3
Dotted .  .  .  .
 72
65
 73
2
 40
0.2
 49
0.0
 49
-0.2
  0
ENDTAB
  0
TABLE
  2
STYLE
  70
4
  0
STYLE
  2
KICAD
  70
0
  40
0
  41
1
  42
1
  50
0
  71
0
  3
isocp.shx
  0
STYLE
  2
KICADB
  70
0
  40
0
  41
1
  42
1
  50
0
  71
0
  3
isocp.shx
  0
STYLE
  2
KICADI
  70
0
  40
0
  41
1
  42
1
  50
15
  71
0
  3
isocp.shx
  0
STYLE
  2
KICADBI
  70
0
  40
0
  41
1
  42
1
  50
15
  71
0
  3
isocp.shx
  0
ENDTAB
  0
TABLE
  2
LAYER
  70
2
  0
LAYER
  2
F.Cu
  70
0
  62
13
  420
13120564
  6
CONTINUOUS
  0
LAYER
  2
Edge.Cuts
  70
0
  62
254
  420
13685453
  6
CONTINUOUS
  0
ENDTAB
  0
ENDSEC
  0
SECTION
  2
ENTITIES
0
LINE
8
F.Cu
6
CONTINUOUS
10
63.3162829999999985
20
-50.5514269999999968
11
63.449624
21
-50.6011609999999976
0
LINE
8
F.Cu
6
CONTINUOUS
10
63.449624
20
-50.6011609999999976
11
63.5635529999999989
21
-50.6864470000000011
0
LINE
8
F.Cu
6
CONTINUOUS
10
63.5635529999999989
20
-50.6864470000000011
11
63.6488389999999953
21
-50.800376
0
LINE
8
F.Cu
6
CONTINUOUS
10
63.6488389999999953
20
-50.800376
11
63.6985729999999961
21
-50.9337169999999944
0
LINE
8
F.Cu
6
CONTINUOUS
10
63.6985729999999961
20
-50.9337169999999944
11
63.7099999999999937
21
-51.0399999999999991
0
LINE
8
F.Cu
6
CONTINUOUS
10
63.7099999999999937
20
-51.0399999999999991
11
63.7099999999999937
21
-51.0999999999999943
0
LINE
8
F.Cu
6
CONTINUOUS
10
63.7099999999999937
20
-51.0999999999999943
11
68.
21
-51.0999999999999943
0
LINE
8
F.Cu
6
CONTINUOUS
10
68.
20
-51.0999999999999943
11
68.0522100000000023
21
-51.1034219999999948
0
LINE
8
F.Cu
6
CONTINUOUS
10
68.0522100000000023
20
-51.1034219999999948
11
68.1530740000000037
21
-51.1304480000000012
0
LINE
8
F.Cu
6
CONTINUOUS
10
68.1530740000000037
20
-51.1304480000000012
11
68.243504999999999
21
-51.182659000000001
0
LINE
8
F.Cu
6
CONTINUOUS
10
68.243504999999999
20
-51.182659000000001
11
68.2828429999999997
21
-51.2171570000000003
0
LINE
8
F.Cu
6
CONTINUOUS
10
68.2828429999999997
20
-51.2171570000000003
11
72.2828429999999997
21
-55.2171570000000003
0
LINE
8
F.Cu
6
CONTINUOUS
10
72.2828429999999997
20
-55.2171570000000003
11
72.317340999999999
21
-55.256495000000001
0
LINE
8
F.Cu
6
CONTINUOUS
10
72.317340999999999
20
-55.256495000000001
11
72.3695519999999988
21
-55.3469259999999963
0
LINE
8
F.Cu
6
CONTINUOUS
10
72.3695519999999988
20
-55.3469259999999963
11
72.3802699999999959
21
-55.3869259999999954
0
LINE
8
F.Cu
6
CONTINUOUS
10
72.3802699999999959
20
-55.3869259999999954
11
72.396577999999991
21
-55.4477899999999977
0
LINE
8
F.Cu
6
CONTINUOUS
10
72.396577999999991
20
-55.4477899999999977
11
72.3999999999999915
21
-55.5
0
LINE
8
F.Cu
6
CONTINUOUS
10
72.3999999999999915
20
-55.5
11
72.3999999999999915
21
-68.2823139999999995
0
LINE
8
F.Cu
6
CONTINUOUS
10
72.3999999999999915
20
-68.2823139999999995
11
74.5176859999999976
21
-70.3999999999999915
0
LINE
8
F.Cu
6
CONTINUOUS
10
74.5176859999999976
20
-70.3999999999999915
11
76.3599999999999994
21
-70.3999999999999915
0
LINE
8
F.Cu
6
CONTINUOUS
10
76.3599999999999994
20
-70.3999999999999915
11
76.3599999999999994
21
-70.2999999999999972
0
LINE
8
F.Cu
6
CONTINUOUS
10
76.3599999999999994
20
-70.2999999999999972
11
77.2599999999999909
21
-70.2999999999999972
0
LINE
8
F.Cu
6
CONTINUOUS
10
77.2599999999999909
20
-70.2999999999999972
11
77.2599999999999909
21
-71.2999999999999972
0
LINE
8
F.Cu
6
CONTINUOUS
10
77.2599999999999909
20
-71.2999999999999972
11
76.3599999999999994
21
-71.2999999999999972
0
LINE
8
F.Cu
6
CONTINUOUS
10
76.3599999999999994
20
-71.2999999999999972
11
76.3599999999999994
21
-71.2000000000000028
0
LINE
8
F.Cu
6
CONTINUOUS
10
76.3599999999999994
20
-71.2000000000000028
11
74.3519999999999897
21
-71.2000000000000028
0
LINE
8
F.Cu
6
CONTINUOUS
10
74.3519999999999897
20
-71.2000000000000028
11
74.2997900000000016
21
-71.1965780000000024
0
LINE
8
F.Cu
6
CONTINUOUS
10
74.2997900000000016
20
-71.1965780000000024
11
74.1989269999999976
21
-71.1695519999999959
0
LINE
8
F.Cu
6
CONTINUOUS
10
74.1989269999999976
20
-71.1695519999999959
11
74.1084949999999907
21
-71.1173409999999961
0
LINE
8
F.Cu
6
CONTINUOUS
10
74.1084949999999907
20
-71.1173409999999961
11
74.0691569999999899
21
-71.0828429999999969
0
LINE
8
F.Cu
6
CONTINUOUS
10
74.0691569999999899
20
-71.0828429999999969
11
71.7171570000000003
21
-68.730842999999993
0
LINE
8
F.Cu
6
CONTINUOUS
10
71.7171570000000003
20
-68.730842999999993
11
71.682659000000001
21
-68.6915049999999923
0
LINE
8
F.Cu
6
CONTINUOUS
10
71.682659000000001
20
-68.6915049999999923
11
71.6304480000000012
21
-68.601073999999997
0
LINE
8
F.Cu
6
CONTINUOUS
10
71.6304480000000012
20
-68.601073999999997
11
71.6034219999999948
21
-68.5002099999999956
0
LINE
8
F.Cu
6
CONTINUOUS
10
71.6034219999999948
20
-68.5002099999999956
11
71.5999999999999943
21
-68.4479999999999933
0
LINE
8
F.Cu
6
CONTINUOUS
10
71.5999999999999943
20
-68.4479999999999933
11
71.5999999999999943
21
-55.6656860000000009
0
LINE
8
F.Cu
6
CONTINUOUS
10
71.5999999999999943
20
-55.6656860000000009
11
67.834313999999992
21
-51.8999999999999986
0
LINE
8
F.Cu
6
CONTINUOUS
10
67.834313999999992
20
-51.8999999999999986
11
63.7099999999999937
21
-51.8999999999999986
0
LINE
8
F.Cu
6
CONTINUOUS
10
63.7099999999999937
20
-51.8999999999999986
11
63.7099999999999937
21
-52.0399999999999991
0
LINE
8
F.Cu
6
CONTINUOUS
10
63.7099999999999937
20
-52.0399999999999991
11
63.6985729999999961
21
-52.1462829999999968
0
LINE
8
F.Cu
6
CONTINUOUS
10
63.6985729999999961
20
-52.1462829999999968
11
63.6488389999999953
21
-52.2796239999999983
0
LINE
8
F.Cu
6
CONTINUOUS
10
63.6488389999999953
20
-52.2796239999999983
11
63.5635529999999989
21
-52.3935529999999972
0
LINE
8
F.Cu
6
CONTINUOUS
10
63.5635529999999989
20
-52.3935529999999972
11
63.449624
21
-52.4788390000000007
0
LINE
8
F.Cu
6
CONTINUOUS
10
63.449624
20
-52.4788390000000007
11
63.3162829999999985
21
-52.5285729999999944
0
LINE
8
F.Cu
6
CONTINUOUS
10
63.3162829999999985
20
-52.5285729999999944
11
63.2099999999999937
21
-52.5399999999999991
0
LINE
8
F.Cu
6
CONTINUOUS
10
63.2099999999999937
20
-52.5399999999999991
11
61.4599999999999937
21
-52.5399999999999991
0
LINE
8
F.Cu
6
CONTINUOUS
10
61.4599999999999937
20
-52.5399999999999991
11
61.3537169999999961
21
-52.5285729999999944
0
LINE
8
F.Cu
6
CONTINUOUS
10
61.3537169999999961
20
-52.5285729999999944
11
61.2203759999999946
21
-52.4788390000000007
0
LINE
8
F.Cu
6
CONTINUOUS
10
61.2203759999999946
20
-52.4788390000000007
11
61.1064469999999957
21
-52.3935529999999972
0
LINE
8
F.Cu
6
CONTINUOUS
10
61.1064469999999957
20
-52.3935529999999972
11
61.0211609999999993
21
-52.2796239999999983
0
LINE
8
F.Cu
6
CONTINUOUS
10
61.0211609999999993
20
-52.2796239999999983
11
60.9714269999999985
21
-52.1462829999999968
0
LINE
8
F.Cu
6
CONTINUOUS
10
60.9714269999999985
20
-52.1462829999999968
11
60.9599999999999937
21
-52.0399999999999991
0
LINE
8
F.Cu
6
CONTINUOUS
10
60.9599999999999937
20
-52.0399999999999991
11
60.9599999999999937
21
-51.0399999999999991
0
LINE
8
F.Cu
6
CONTINUOUS
10
60.9599999999999937
20
-51.0399999999999991
11
60.9714269999999985
21
-50.9337169999999944
0
LINE
8
F.Cu
6
CONTINUOUS
10
60.9714269999999985
20
-50.9337169999999944
11
61.0211609999999993
21
-50.800376
0
LINE
8
F.Cu
6
CONTINUOUS
10
61.0211609999999993
20
-50.800376
11
61.1064469999999957
21
-50.6864470000000011
0
LINE
8
F.Cu
6
CONTINUOUS
10
61.1064469999999957
20
-50.6864470000000011
11
61.2203759999999946
21
-50.6011609999999976
0
LINE
8
F.Cu
6
CONTINUOUS
10
61.2203759999999946
20
-50.6011609999999976
11
61.3537169999999961
21
-50.5514269999999968
0
LINE
8
F.Cu
6
CONTINUOUS
10
61.3537169999999961
20
-50.5514269999999968
11
61.4599999999999937
21
-50.5399999999999991
0
LINE
8
F.Cu
6
CONTINUOUS
10
61.4599999999999937
20
-50.5399999999999991
11
63.2099999999999937
21
-50.5399999999999991
0
LINE
8
F.Cu
6
CONTINUOUS
10
63.2099999999999937
20
-50.5399999999999991
11
63.3162829999999985
21
-50.5514269999999968
0
LINE
8
F.Cu
6
CONTINUOUS
10
81.3599999999999994
20
-71.2999999999999972
11
80.4599999999999937
21
-71.2999999999999972
0
LINE
8
F.Cu
6
CONTINUOUS
10
80.4599999999999937
20
-71.2999999999999972
11
80.4599999999999937
21
-70.2999999999999972
0
LINE
8
F.Cu
6
CONTINUOUS
10
80.4599999999999937
20
-70.2999999999999972
11
81.3599999999999994
21
-70.2999999999999972
0
LINE
8
F.Cu
6
CONTINUOUS
10
81.3599999999999994
20
-70.2999999999999972
11
81.3599999999999994
21
-71.2999999999999972
0
LINE
8
F.Cu
6
CONTINUOUS
10
67.0252380000000016
20
-53.8039330000000007
11
67.1144539999999949
21
-53.8635459999999995
0
LINE
8
F.Cu
6
CONTINUOUS
10
67.1144539999999949
20
-53.8635459999999995
11
67.1740669999999938
21
-53.9527619999999999
0
LINE
8
F.Cu
6
CONTINUOUS
10
67.1740669999999938
20
-53.9527619999999999
11
67.1844689999999929
21
-54.0050609999999978
0
LINE
8
F.Cu
6
CONTINUOUS
10
67.1844689999999929
20
-54.0050609999999978
11
67.20282499999999
21
-54.0156589999999994
0
LINE
8
F.Cu
6
CONTINUOUS
10
67.20282499999999
20
-54.0156589999999994
11
67.2421629999999908
21
-54.0501569999999987
0
LINE
8
F.Cu
6
CONTINUOUS
10
67.2421629999999908
20
-54.0501569999999987
11
68.3778429999999986
21
-55.1858369999999994
0
LINE
8
F.Cu
6
CONTINUOUS
10
68.3778429999999986
20
-55.1858369999999994
11
68.4123409999999978
21
-55.2251750000000001
0
LINE
8
F.Cu
6
CONTINUOUS
10
68.4123409999999978
20
-55.2251750000000001
11
68.4645519999999976
21
-55.3156059999999954
0
LINE
8
F.Cu
6
CONTINUOUS
10
68.4645519999999976
20
-55.3156059999999954
11
68.4836619999999954
21
-55.3869259999999954
0
LINE
8
F.Cu
6
CONTINUOUS
10
68.4836619999999954
20
-55.3869259999999954
11
68.4915779999999899
21
-55.4164699999999968
0
LINE
8
F.Cu
6
CONTINUOUS
10
68.4915779999999899
20
-55.4164699999999968
11
68.4949999999999903
21
-55.4686799999999991
0
LINE
8
F.Cu
6
CONTINUOUS
10
68.4949999999999903
20
-55.4686799999999991
11
68.4949999999999903
21
-66.1550000000000011
0
LINE
8
F.Cu
6
CONTINUOUS
10
68.4949999999999903
20
-66.1550000000000011
11
68.4915779999999899
21
-66.2072100000000034
0
LINE
8
F.Cu
6
CONTINUOUS
10
68.4915779999999899
20
-66.2072100000000034
11
68.4645519999999976
21
-66.3080739999999906
0
LINE
8
F.Cu
6
CONTINUOUS
10
68.4645519999999976
20
-66.3080739999999906
11
68.4123409999999978
21
-66.3985050000000001
0
LINE
8
F.Cu
6
CONTINUOUS
10
68.4123409999999978
20
-66.3985050000000001
11
68.3778429999999986
21
-66.4378430000000009
0
LINE
8
F.Cu
6
CONTINUOUS
10
68.3778429999999986
20
-66.4378430000000009
11
64.7828429999999997
21
-70.0328429999999997
0
LINE
8
F.Cu
6
CONTINUOUS
10
64.7828429999999997
20
-70.0328429999999997
11
64.743504999999999
21
-70.067340999999999
0
LINE
8
F.Cu
6
CONTINUOUS
10
64.743504999999999
20
-70.067340999999999
11
64.6530740000000037
21
-70.1195519999999988
0
LINE
8
F.Cu
6
CONTINUOUS
10
64.6530740000000037
20
-70.1195519999999988
11
64.5522100000000023
21
-70.146577999999991
0
LINE
8
F.Cu
6
CONTINUOUS
10
64.5522100000000023
20
-70.146577999999991
11
64.5
21
-70.1499999999999915
0
LINE
8
F.Cu
6
CONTINUOUS
10
64.5
20
-70.1499999999999915
11
60.
21
-70.1499999999999915
0
LINE
8
F.Cu
6
CONTINUOUS
10
60.
20
-70.1499999999999915
11
59.9477899999999977
21
-70.146577999999991
0
LINE
8
F.Cu
6
CONTINUOUS
10
59.9477899999999977
20
-70.146577999999991
11
59.8469259999999963
21
-70.1195519999999988
0
LINE
8
F.Cu
6
CONTINUOUS
10
59.8469259999999963
20
-70.1195519999999988
11
59.7564949999999939
21
-70.067340999999999
0
LINE
8
F.Cu
6
CONTINUOUS
10
59.7564949999999939
20
-70.067340999999999
11
59.7171579999999977
21
-70.0328429999999997
0
LINE
8
F.Cu
6
CONTINUOUS
10
59.7171579999999977
20
-70.0328429999999997
11
59.1188069999999968
21
-69.4344930000000033
0
LINE
8
F.Cu
6
CONTINUOUS
10
59.1188069999999968
20
-69.4344930000000033
11
58.3940229999999971
21
-70.1592789999999979
0
LINE
8
F.Cu
6
CONTINUOUS
10
58.3940229999999971
20
-70.1592789999999979
11
58.3129179999999963
21
-70.2134709999999984
0
LINE
8
F.Cu
6
CONTINUOUS
10
58.3129179999999963
20
-70.2134709999999984
11
58.2172470000000004
21
-70.2325019999999967
0
LINE
8
F.Cu
6
CONTINUOUS
10
58.2172470000000004
20
-70.2325019999999967
11
58.1215759999999975
21
-70.2134709999999984
0
LINE
8
F.Cu
6
CONTINUOUS
10
58.1215759999999975
20
-70.2134709999999984
11
58.0404709999999966
21
-70.159277000000003
0
LINE
8
F.Cu
6
CONTINUOUS
10
58.0404709999999966
20
-70.159277000000003
11
57.9734389999999991
21
-70.0922460000000029
0
LINE
8
F.Cu
6
CONTINUOUS
10
57.9734389999999991
20
-70.0922460000000029
11
57.7828429999999997
21
-70.2828429999999997
0
LINE
8
F.Cu
6
CONTINUOUS
10
57.7828429999999997
20
-70.2828429999999997
11
57.743504999999999
21
-70.317340999999999
0
LINE
8
F.Cu
6
CONTINUOUS
10
57.743504999999999
20
-70.317340999999999
11
57.6530739999999966
21
-70.3695519999999988
0
LINE
8
F.Cu
6
CONTINUOUS
10
57.6530739999999966
20
-70.3695519999999988
11
57.5522099999999952
21
-70.396577999999991
0
LINE
8
F.Cu
6
CONTINUOUS
10
57.5522099999999952
20
-70.396577999999991
11
57.5
21
-70.3999999999999915
0
LINE
8
F.Cu
6
CONTINUOUS
10
57.5
20
-70.3999999999999915
11
56.0232919999999979
21
-70.3999999999999915
0
LINE
8
F.Cu
6
CONTINUOUS
10
56.0232919999999979
20
-70.3999999999999915
11
55.9710819999999956
21
-70.396577999999991
0
LINE
8
F.Cu
6
CONTINUOUS
10
55.9710819999999956
20
-70.396577999999991
11
55.8702179999999942
21
-70.3695519999999988
0
LINE
8
F.Cu
6
CONTINUOUS
10
55.8702179999999942
20
-70.3695519999999988
11
55.7797869999999989
21
-70.317340999999999
0
LINE
8
F.Cu
6
CONTINUOUS
10
55.7797869999999989
20
-70.317340999999999
11
55.7404489999999981
21
-70.2828429999999997
0
LINE
8
F.Cu
6
CONTINUOUS
10
55.7404489999999981
20
-70.2828429999999997
11
51.2171570000000003
21
-65.7595510000000019
0
LINE
8
F.Cu
6
CONTINUOUS
10
51.2171570000000003
20
-65.7595510000000019
11
51.182659000000001
21
-65.7202130000000011
0
LINE
8
F.Cu
6
CONTINUOUS
10
51.182659000000001
20
-65.7202130000000011
11
51.1304480000000012
21
-65.6297819999999916
0
LINE
8
F.Cu
6
CONTINUOUS
10
51.1304480000000012
20
-65.6297819999999916
11
51.1034219999999948
21
-65.5289179999999902
0
LINE
8
F.Cu
6
CONTINUOUS
10
51.1034219999999948
20
-65.5289179999999902
11
51.0999999999999943
21
-65.4767080000000021
0
LINE
8
F.Cu
6
CONTINUOUS
10
51.0999999999999943
20
-65.4767080000000021
11
51.0999999999999943
21
-63.75
0
LINE
8
F.Cu
6
CONTINUOUS
10
51.0999999999999943
20
-63.75
11
51.1034219999999948
21
-63.6977899999999977
0
LINE
8
F.Cu
6
CONTINUOUS
10
51.1034219999999948
20
-63.6977899999999977
11
51.1140839999999983
21
-63.6579999999999941
0
LINE
8
F.Cu
6
CONTINUOUS
10
51.1140839999999983
20
-63.6579999999999941
11
51.1304480000000012
21
-63.5969259999999963
0
LINE
8
F.Cu
6
CONTINUOUS
10
51.1304480000000012
20
-63.5969259999999963
11
51.182659000000001
21
-63.5064949999999939
0
LINE
8
F.Cu
6
CONTINUOUS
10
51.182659000000001
20
-63.5064949999999939
11
51.2171570000000003
21
-63.4671570000000003
0
LINE
8
F.Cu
6
CONTINUOUS
10
51.2171570000000003
20
-63.4671570000000003
11
55.3499999999999943
21
-59.3343139999999991
0
LINE
8
F.Cu
6
CONTINUOUS
10
55.3499999999999943
20
-59.3343139999999991
11
55.3499999999999943
21
-57.6829999999999998
0
LINE
8
F.Cu
6
CONTINUOUS
10
55.3499999999999943
20
-57.6829999999999998
11
55.3534219999999948
21
-57.6307899999999975
0
LINE
8
F.Cu
6
CONTINUOUS
10
55.3534219999999948
20
-57.6307899999999975
11
55.3804479999999941
21
-57.5299270000000007
0
LINE
8
F.Cu
6
CONTINUOUS
10
55.3804479999999941
20
-57.5299270000000007
11
55.432659000000001
21
-57.4394950000000009
0
LINE
8
F.Cu
6
CONTINUOUS
10
55.432659000000001
20
-57.4394950000000009
11
55.4499999999999957
21
-57.422153999999999
0
LINE
8
F.Cu
6
CONTINUOUS
10
55.4499999999999957
20
-57.422153999999999
11
55.4499999999999957
21
-57.0954999999999941
0
LINE
8
F.Cu
6
CONTINUOUS
10
55.4499999999999957
20
-57.0954999999999941
11
55.4614179999999948
21
-57.0380970000000005
0
LINE
8
F.Cu
6
CONTINUOUS
10
55.4614179999999948
20
-57.0380970000000005
11
55.4939339999999959
21
-56.9894339999999957
0
LINE
8
F.Cu
6
CONTINUOUS
10
55.4939339999999959
20
-56.9894339999999957
11
55.5425970000000007
21
-56.9569179999999946
0
LINE
8
F.Cu
6
CONTINUOUS
10
55.5425970000000007
20
-56.9569179999999946
11
55.5999999999999943
21
-56.9454999999999956
0
LINE
8
F.Cu
6
CONTINUOUS
10
55.5999999999999943
20
-56.9454999999999956
11
55.8999999999999986
21
-56.9454999999999956
0
LINE
8
F.Cu
6
CONTINUOUS
10
55.8999999999999986
20
-56.9454999999999956
11
55.9574029999999993
21
-56.9569179999999946
0
LINE
8
F.Cu
6
CONTINUOUS
10
55.9574029999999993
20
-56.9569179999999946
11
56.006065999999997
21
-56.9894339999999957
0
LINE
8
F.Cu
6
CONTINUOUS
10
56.006065999999997
20
-56.9894339999999957
11
56.0385819999999981
21
-57.0380970000000005
0
LINE
8
F.Cu
6
CONTINUOUS
10
56.0385819999999981
20
-57.0380970000000005
11
56.0499999999999972
21
-57.0954999999999941
0
LINE
8
F.Cu
6
CONTINUOUS
10
56.0499999999999972
20
-57.0954999999999941
11
56.0499999999999972
21
-57.422153999999999
0
LINE
8
F.Cu
6
CONTINUOUS
10
56.0499999999999972
20
-57.422153999999999
11
56.067340999999999
21
-57.4394950000000009
0
LINE
8
F.Cu
6
CONTINUOUS
10
56.067340999999999
20
-57.4394950000000009
11
56.1195519999999988
21
-57.5299270000000007
0
LINE
8
F.Cu
6
CONTINUOUS
10
56.1195519999999988
20
-57.5299270000000007
11
56.1465779999999981
21
-57.6307899999999975
0
LINE
8
F.Cu
6
CONTINUOUS
10
56.1465779999999981
20
-57.6307899999999975
11
56.1499999999999986
21
-57.6829999999999998
0
LINE
8
F.Cu
6
CONTINUOUS
10
56.1499999999999986
20
-57.6829999999999998
11
56.1499999999999986
21
-59.5
0
LINE
8
F.Cu
6
CONTINUOUS
10
56.1499999999999986
20
-59.5
11
56.1465779999999981
21
-59.5522099999999952
0
LINE
8
F.Cu
6
CONTINUOUS
10
56.1465779999999981
20
-59.5522099999999952
11
56.1195519999999988
21
-59.6530739999999966
0
LINE
8
F.Cu
6
CONTINUOUS
10
56.1195519999999988
20
-59.6530739999999966
11
56.067340999999999
21
-59.743504999999999
0
LINE
8
F.Cu
6
CONTINUOUS
10
56.067340999999999
20
-59.743504999999999
11
56.0328429999999997
21
-59.7828419999999952
0
LINE
8
F.Cu
6
CONTINUOUS
10
56.0328429999999997
20
-59.7828419999999952
11
51.8999999999999986
21
-63.9156849999999963
0
LINE
8
F.Cu
6
CONTINUOUS
10
51.8999999999999986
20
-63.9156849999999963
11
51.8999999999999986
21
-65.3110219999999941
0
LINE
8
F.Cu
6
CONTINUOUS
10
51.8999999999999986
20
-65.3110219999999941
11
56.1889779999999988
21
-69.5999999999999943
0
LINE
8
F.Cu
6
CONTINUOUS
10
56.1889779999999988
20
-69.5999999999999943
11
57.3343139999999991
21
-69.5999999999999943
0
LINE
8
F.Cu
6
CONTINUOUS
10
57.3343139999999991
20
-69.5999999999999943
11
57.4077529999999996
21
-69.5265600000000035
0
LINE
8
F.Cu
6
CONTINUOUS
10
57.4077529999999996
20
-69.5265600000000035
11
57.4040729999999968
21
-69.5228809999999982
0
LINE
8
F.Cu
6
CONTINUOUS
10
57.4040729999999968
20
-69.5228809999999982
11
57.3498809999999963
21
-69.4417759999999902
0
LINE
8
F.Cu
6
CONTINUOUS
10
57.3498809999999963
20
-69.4417759999999902
11
57.3308499999999981
21
-69.3461049999999943
0
LINE
8
F.Cu
6
CONTINUOUS
10
57.3308499999999981
20
-69.3461049999999943
11
57.3498809999999963
21
-69.2504339999999985
0
LINE
8
F.Cu
6
CONTINUOUS
10
57.3498809999999963
20
-69.2504339999999985
11
57.4040749999999989
21
-69.1693289999999905
0
LINE
8
F.Cu
6
CONTINUOUS
10
57.4040749999999989
20
-69.1693289999999905
11
59.4193289999999976
21
-67.1540729999999968
0
LINE
8
F.Cu
6
CONTINUOUS
10
59.4193289999999976
20
-67.1540729999999968
11
59.5004339999999985
21
-67.0998809999999963
0
LINE
8
F.Cu
6
CONTINUOUS
10
59.5004339999999985
20
-67.0998809999999963
11
59.5961049999999943
21
-67.0808499999999981
0
LINE
8
F.Cu
6
CONTINUOUS
10
59.5961049999999943
20
-67.0808499999999981
11
59.6917759999999973
21
-67.0998809999999963
0
LINE
8
F.Cu
6
CONTINUOUS
10
59.6917759999999973
20
-67.0998809999999963
11
59.7728809999999982
21
-67.1540749999999917
0
LINE
8
F.Cu
6
CONTINUOUS
10
59.7728809999999982
20
-67.1540749999999917
11
60.4092789999999979
21
-67.7904709999999966
0
LINE
8
F.Cu
6
CONTINUOUS
10
60.4092789999999979
20
-67.7904709999999966
11
60.4634709999999984
21
-67.8715759999999904
0
LINE
8
F.Cu
6
CONTINUOUS
10
60.4634709999999984
20
-67.8715759999999904
11
60.4825019999999967
21
-67.9672470000000004
0
LINE
8
F.Cu
6
CONTINUOUS
10
60.4825019999999967
20
-67.9672470000000004
11
60.4634709999999984
21
-68.0629179999999963
0
LINE
8
F.Cu
6
CONTINUOUS
10
60.4634709999999984
20
-68.0629179999999963
11
60.4092769999999959
21
-68.14402299999999
0
LINE
8
F.Cu
6
CONTINUOUS
10
60.4092769999999959
20
-68.14402299999999
11
59.6844929999999962
21
-68.8688070000000039
0
LINE
8
F.Cu
6
CONTINUOUS
10
59.6844929999999962
20
-68.8688070000000039
11
60.1656849999999963
21
-69.3499999999999943
0
LINE
8
F.Cu
6
CONTINUOUS
10
60.1656849999999963
20
-69.3499999999999943
11
64.334313999999992
21
-69.3499999999999943
0
LINE
8
F.Cu
6
CONTINUOUS
10
64.334313999999992
20
-69.3499999999999943
11
67.6949999999999932
21
-65.9893139999999931
0
LINE
8
F.Cu
6
CONTINUOUS
10
67.6949999999999932
20
-65.9893139999999931
11
67.6949999999999932
21
-55.634366
0
LINE
8
F.Cu
6
CONTINUOUS
10
67.6949999999999932
20
-55.634366
11
66.9397120000000001
21
-54.8790779999999998
0
LINE
8
F.Cu
6
CONTINUOUS
10
66.9397120000000001
20
-54.8790779999999998
11
66.9200000000000017
21
-54.8829999999999956
0
LINE
8
F.Cu
6
CONTINUOUS
10
66.9200000000000017
20
-54.8829999999999956
11
64.9699999999999989
21
-54.8829999999999956
0
LINE
8
F.Cu
6
CONTINUOUS
10
64.9699999999999989
20
-54.8829999999999956
11
64.8647619999999989
21
-54.8620669999999961
0
LINE
8
F.Cu
6
CONTINUOUS
10
64.8647619999999989
20
-54.8620669999999961
11
64.7755459999999914
21
-54.8024539999999973
0
LINE
8
F.Cu
6
CONTINUOUS
10
64.7755459999999914
20
-54.8024539999999973
11
64.7159329999999926
21
-54.7132379999999969
0
LINE
8
F.Cu
6
CONTINUOUS
10
64.7159329999999926
20
-54.7132379999999969
11
64.6949999999999932
21
-54.607999999999997
0
LINE
8
F.Cu
6
CONTINUOUS
10
64.6949999999999932
20
-54.607999999999997
11
64.6949999999999932
21
-54.0579999999999998
0
LINE
8
F.Cu
6
CONTINUOUS
10
64.6949999999999932
20
-54.0579999999999998
11
64.7159329999999926
21
-53.9527619999999999
0
LINE
8
F.Cu
6
CONTINUOUS
10
64.7159329999999926
20
-53.9527619999999999
11
64.7755459999999914
21
-53.8635459999999995
0
LINE
8
F.Cu
6
CONTINUOUS
10
64.7755459999999914
20
-53.8635459999999995
11
64.8647619999999989
21
-53.8039330000000007
0
LINE
8
F.Cu
6
CONTINUOUS
10
64.8647619999999989
20
-53.8039330000000007
11
64.9699999999999989
21
-53.7829999999999941
0
LINE
8
F.Cu
6
CONTINUOUS
10
64.9699999999999989
20
-53.7829999999999941
11
66.9200000000000017
21
-53.7829999999999941
0
LINE
8
F.Cu
6
CONTINUOUS
10
66.9200000000000017
20
-53.7829999999999941
11
67.0252380000000016
21
-53.8039330000000007
0
LINE
8
F.Cu
6
CONTINUOUS
10
87.8022100000000023
20
-46.8534219999999948
11
87.9030739999999895
21
-46.8804480000000012
0
LINE
8
F.Cu
6
CONTINUOUS
10
87.9030739999999895
20
-46.8804480000000012
11
87.993504999999999
21
-46.932659000000001
0
LINE
8
F.Cu
6
CONTINUOUS
10
87.993504999999999
20
-46.932659000000001
11
88.0328429999999997
21
-46.9671570000000003
0
LINE
8
F.Cu
6
CONTINUOUS
10
88.0328429999999997
20
-46.9671570000000003
11
88.9928429999999935
21
-47.9271570000000011
0
LINE
8
F.Cu
6
CONTINUOUS
10
88.9928429999999935
20
-47.9271570000000011
11
89.0273409999999927
21
-47.9664949999999948
0
LINE
8
F.Cu
6
CONTINUOUS
10
89.0273409999999927
20
-47.9664949999999948
11
89.0795519999999925
21
-48.0569259999999971
0
LINE
8
F.Cu
6
CONTINUOUS
10
89.0795519999999925
20
-48.0569259999999971
11
89.1035389999999978
21
-48.1464469999999949
0
LINE
8
F.Cu
6
CONTINUOUS
10
89.1035389999999978
20
-48.1464469999999949
11
89.106577999999999
21
-48.1577899999999985
0
LINE
8
F.Cu
6
CONTINUOUS
10
89.106577999999999
20
-48.1577899999999985
11
89.1099999999999994
21
-48.2100000000000009
0
LINE
8
F.Cu
6
CONTINUOUS
10
89.1099999999999994
20
-48.2100000000000009
11
89.1099999999999994
21
-48.6685639999999964
0
LINE
8
F.Cu
6
CONTINUOUS
10
89.1099999999999994
20
-48.6685639999999964
11
89.1336399999999998
21
-48.6843599999999981
0
LINE
8
F.Cu
6
CONTINUOUS
10
89.1336399999999998
20
-48.6843599999999981
11
89.1531489999999991
21
-48.713557999999999
0
LINE
8
F.Cu
6
CONTINUOUS
10
89.1531489999999991
20
-48.713557999999999
11
89.1599999999999966
21
-48.7479999999999976
0
LINE
8
F.Cu
6
CONTINUOUS
10
89.1599999999999966
20
-48.7479999999999976
11
89.1599999999999966
21
-49.2923139999999975
0
LINE
8
F.Cu
6
CONTINUOUS
10
89.1599999999999966
20
-49.2923139999999975
11
90.6928429999999963
21
-50.8251569999999973
0
LINE
8
F.Cu
6
CONTINUOUS
10
90.6928429999999963
20
-50.8251569999999973
11
90.7273409999999956
21
-50.864494999999998
0
LINE
8
F.Cu
6
CONTINUOUS
10
90.7273409999999956
20
-50.864494999999998
11
90.7795519999999954
21
-50.9549260000000004
0
LINE
8
F.Cu
6
CONTINUOUS
10
90.7795519999999954
20
-50.9549260000000004
11
90.7921639999999996
21
-51.0019950000000009
0
LINE
8
F.Cu
6
CONTINUOUS
10
90.7921639999999996
20
-51.0019950000000009
11
90.8065780000000018
21
-51.0557899999999947
0
LINE
8
F.Cu
6
CONTINUOUS
10
90.8065780000000018
20
-51.0557899999999947
11
90.8100000000000023
21
-51.107999999999997
0
LINE
8
F.Cu
6
CONTINUOUS
10
90.8100000000000023
20
-51.107999999999997
11
90.8100000000000023
21
-56.6579999999999941
0
LINE
8
F.Cu
6
CONTINUOUS
10
90.8100000000000023
20
-56.6579999999999941
11
90.8065780000000018
21
-56.7102099999999965
0
LINE
8
F.Cu
6
CONTINUOUS
10
90.8065780000000018
20
-56.7102099999999965
11
90.7795519999999954
21
-56.8110739999999979
0
LINE
8
F.Cu
6
CONTINUOUS
10
90.7795519999999954
20
-56.8110739999999979
11
90.7273409999999956
21
-56.9015050000000002
0
LINE
8
F.Cu
6
CONTINUOUS
10
90.7273409999999956
20
-56.9015050000000002
11
90.6928429999999963
21
-56.9408429999999939
0
LINE
8
F.Cu
6
CONTINUOUS
10
90.6928429999999963
20
-56.9408429999999939
11
89.1599999999999966
21
-58.4736860000000007
0
LINE
8
F.Cu
6
CONTINUOUS
10
89.1599999999999966
20
-58.4736860000000007
11
89.1599999999999966
21
-59.0180000000000007
0
LINE
8
F.Cu
6
CONTINUOUS
10
89.1599999999999966
20
-59.0180000000000007
11
89.1531489999999991
21
-59.0524419999999992
0
LINE
8
F.Cu
6
CONTINUOUS
10
89.1531489999999991
20
-59.0524419999999992
11
89.1336399999999998
21
-59.0816400000000002
0
LINE
8
F.Cu
6
CONTINUOUS
10
89.1336399999999998
20
-59.0816400000000002
11
89.1044419999999917
21
-59.1011489999999995
0
LINE
8
F.Cu
6
CONTINUOUS
10
89.1044419999999917
20
-59.1011489999999995
11
89.0699999999999932
21
-59.107999999999997
0
LINE
8
F.Cu
6
CONTINUOUS
10
89.0699999999999932
20
-59.107999999999997
11
88.5256859999999932
21
-59.107999999999997
0
LINE
8
F.Cu
6
CONTINUOUS
10
88.5256859999999932
20
-59.107999999999997
11
87.1610000000000014
21
-60.4726859999999959
0
LINE
8
F.Cu
6
CONTINUOUS
10
87.1610000000000014
20
-60.4726859999999959
11
87.1610000000000014
21
-64.3309799999999967
0
LINE
8
F.Cu
6
CONTINUOUS
10
87.1610000000000014
20
-64.3309799999999967
11
87.1575780000000009
21
-64.383189999999999
0
LINE
8
F.Cu
6
CONTINUOUS
10
87.1575780000000009
20
-64.383189999999999
11
87.1305519999999945
21
-64.4840540000000004
0
LINE
8
F.Cu
6
CONTINUOUS
10
87.1305519999999945
20
-64.4840540000000004
11
87.0783409999999947
21
-64.5744849999999957
0
LINE
8
F.Cu
6
CONTINUOUS
10
87.0783409999999947
20
-64.5744849999999957
11
87.0438429999999954
21
-64.6138229999999965
0
LINE
8
F.Cu
6
CONTINUOUS
10
87.0438429999999954
20
-64.6138229999999965
11
82.1748229999999893
21
-69.4828430000000026
0
LINE
8
F.Cu
6
CONTINUOUS
10
82.1748229999999893
20
-69.4828430000000026
11
82.1354850000000027
21
-69.5173410000000018
0
LINE
8
F.Cu
6
CONTINUOUS
10
82.1354850000000027
20
-69.5173410000000018
11
82.0450539999999933
21
-69.5695520000000016
0
LINE
8
F.Cu
6
CONTINUOUS
10
82.0450539999999933
20
-69.5695520000000016
11
81.9441899999999919
21
-69.5965779999999938
0
LINE
8
F.Cu
6
CONTINUOUS
10
81.9441899999999919
20
-69.5965779999999938
11
81.8919799999999896
21
-69.5999999999999943
0
LINE
8
F.Cu
6
CONTINUOUS
10
81.8919799999999896
20
-69.5999999999999943
11
81.3599999999999994
21
-69.5999999999999943
0
LINE
8
F.Cu
6
CONTINUOUS
10
81.3599999999999994
20
-69.5999999999999943
11
81.3599999999999994
21
-69.7000000000000028
0
LINE
8
F.Cu
6
CONTINUOUS
10
81.3599999999999994
20
-69.7000000000000028
11
80.4599999999999937
21
-69.7000000000000028
0
LINE
8
F.Cu
6
CONTINUOUS
10
80.4599999999999937
20
-69.7000000000000028
11
80.4599999999999937
21
-69.5999999999999943
0
LINE
8
F.Cu
6
CONTINUOUS
10
80.4599999999999937
20
-69.5999999999999943
11
77.2599999999999909
21
-69.5999999999999943
0
LINE
8
F.Cu
6
CONTINUOUS
10
77.2599999999999909
20
-69.5999999999999943
11
77.2599999999999909
21
-69.7000000000000028
0
LINE
8
F.Cu
6
CONTINUOUS
10
77.2599999999999909
20
-69.7000000000000028
11
76.3599999999999994
21
-69.7000000000000028
0
LINE
8
F.Cu
6
CONTINUOUS
10
76.3599999999999994
20
-69.7000000000000028
11
76.3599999999999994
21
-68.7000000000000028
0
LINE
8
F.Cu
6
CONTINUOUS
10
76.3599999999999994
20
-68.7000000000000028
11
77.2599999999999909
21
-68.7000000000000028
0
LINE
8
F.Cu
6
CONTINUOUS
10
77.2599999999999909
20
-68.7000000000000028
11
77.2599999999999909
21
-68.7999999999999972
0
LINE
8
F.Cu
6
CONTINUOUS
10
77.2599999999999909
20
-68.7999999999999972
11
80.4599999999999937
21
-68.7999999999999972
0
LINE
8
F.Cu
6
CONTINUOUS
10
80.4599999999999937
20
-68.7999999999999972
11
80.4599999999999937
21
-68.7000000000000028
0
LINE
8
F.Cu
6
CONTINUOUS
10
80.4599999999999937
20
-68.7000000000000028
11
81.3599999999999994
21
-68.7000000000000028
0
LINE
8
F.Cu
6
CONTINUOUS
10
81.3599999999999994
20
-68.7000000000000028
11
81.3599999999999994
21
-68.7999999999999972
0
LINE
8
F.Cu
6
CONTINUOUS
10
81.3599999999999994
20
-68.7999999999999972
11
81.7262939999999958
21
-68.7999999999999972
0
LINE
8
F.Cu
6
CONTINUOUS
10
81.7262939999999958
20
-68.7999999999999972
11
86.36099999999999
21
-64.1652940000000029
0
LINE
8
F.Cu
6
CONTINUOUS
10
86.36099999999999
20
-64.1652940000000029
11
86.36099999999999
21
-60.6454999999999984
0
LINE
8
F.Cu
6
CONTINUOUS
10
86.36099999999999
20
-60.6454999999999984
11
83.8999999999999915
21
-60.6454999999999984
0
LINE
8
F.Cu
6
CONTINUOUS
10
83.8999999999999915
20
-60.6454999999999984
11
83.8999999999999915
21
-60.6579999999999941
0
LINE
8
F.Cu
6
CONTINUOUS
10
83.8999999999999915
20
-60.6579999999999941
11
83.8809699999999907
21
-60.7536709999999971
0
LINE
8
F.Cu
6
CONTINUOUS
10
83.8809699999999907
20
-60.7536709999999971
11
83.8267769999999928
21
-60.8347769999999954
0
LINE
8
F.Cu
6
CONTINUOUS
10
83.8267769999999928
20
-60.8347769999999954
11
83.7456710000000015
21
-60.8889700000000005
0
LINE
8
F.Cu
6
CONTINUOUS
10
83.7456710000000015
20
-60.8889700000000005
11
83.6499999999999915
21
-60.9079999999999941
0
LINE
8
F.Cu
6
CONTINUOUS
10
83.6499999999999915
20
-60.9079999999999941
11
82.3499999999999943
21
-60.9079999999999941
0
LINE
8
F.Cu
6
CONTINUOUS
10
82.3499999999999943
20
-60.9079999999999941
11
82.2543289999999985
21
-60.8889700000000005
0
LINE
8
F.Cu
6
CONTINUOUS
10
82.2543289999999985
20
-60.8889700000000005
11
82.173222999999993
21
-60.8347769999999954
0
LINE
8
F.Cu
6
CONTINUOUS
10
82.173222999999993
20
-60.8347769999999954
11
82.1190299999999951
21
-60.7536709999999971
0
LINE
8
F.Cu
6
CONTINUOUS
10
82.1190299999999951
20
-60.7536709999999971
11
82.0999999999999943
21
-60.6579999999999941
0
LINE
8
F.Cu
6
CONTINUOUS
10
82.0999999999999943
20
-60.6579999999999941
11
82.0999999999999943
21
-59.8329999999999984
0
LINE
8
F.Cu
6
CONTINUOUS
10
82.0999999999999943
20
-59.8329999999999984
11
82.1190299999999951
21
-59.7373289999999955
0
LINE
8
F.Cu
6
CONTINUOUS
10
82.1190299999999951
20
-59.7373289999999955
11
82.173222999999993
21
-59.6562229999999971
0
LINE
8
F.Cu
6
CONTINUOUS
10
82.173222999999993
20
-59.6562229999999971
11
82.2543289999999985
21
-59.6020299999999992
0
LINE
8
F.Cu
6
CONTINUOUS
10
82.2543289999999985
20
-59.6020299999999992
11
82.3499999999999943
21
-59.5829999999999984
0
LINE
8
F.Cu
6
CONTINUOUS
10
82.3499999999999943
20
-59.5829999999999984
11
83.6499999999999915
21
-59.5829999999999984
0
LINE
8
F.Cu
6
CONTINUOUS
10
83.6499999999999915
20
-59.5829999999999984
11
83.7456710000000015
21
-59.6020299999999992
0
LINE
8
F.Cu
6
CONTINUOUS
10
83.7456710000000015
20
-59.6020299999999992
11
83.8267769999999928
21
-59.6562229999999971
0
LINE
8
F.Cu
6
CONTINUOUS
10
83.8267769999999928
20
-59.6562229999999971
11
83.8809699999999907
21
-59.7373289999999955
0
LINE
8
F.Cu
6
CONTINUOUS
10
83.8809699999999907
20
-59.7373289999999955
11
83.8999999999999915
21
-59.8329999999999984
0
LINE
8
F.Cu
6
CONTINUOUS
10
83.8999999999999915
20
-59.8329999999999984
11
83.8999999999999915
21
-59.8454999999999941
0
LINE
8
F.Cu
6
CONTINUOUS
10
83.8999999999999915
20
-59.8454999999999941
11
86.6568139999999971
21
-59.8454999999999941
0
LINE
8
F.Cu
6
CONTINUOUS
10
86.6568139999999971
20
-59.8454999999999941
11
88.2599999999999909
21
-58.2423140000000004
0
LINE
8
F.Cu
6
CONTINUOUS
10
88.2599999999999909
20
-58.2423140000000004
11
88.2599999999999909
21
-57.6980000000000004
0
LINE
8
F.Cu
6
CONTINUOUS
10
88.2599999999999909
20
-57.6980000000000004
11
88.2668510000000026
21
-57.6635579999999948
0
LINE
8
F.Cu
6
CONTINUOUS
10
88.2668510000000026
20
-57.6635579999999948
11
88.2863600000000019
21
-57.6343600000000009
0
LINE
8
F.Cu
6
CONTINUOUS
10
88.2863600000000019
20
-57.6343600000000009
11
88.3155579999999958
21
-57.6148509999999945
0
LINE
8
F.Cu
6
CONTINUOUS
10
88.3155579999999958
20
-57.6148509999999945
11
88.3499999999999943
21
-57.607999999999997
0
LINE
8
F.Cu
6
CONTINUOUS
10
88.3499999999999943
20
-57.607999999999997
11
88.8943139999999943
21
-57.607999999999997
0
LINE
8
F.Cu
6
CONTINUOUS
10
88.8943139999999943
20
-57.607999999999997
11
90.0099999999999909
21
-56.4923140000000004
0
LINE
8
F.Cu
6
CONTINUOUS
10
90.0099999999999909
20
-56.4923140000000004
11
90.0099999999999909
21
-51.2736859999999979
0
LINE
8
F.Cu
6
CONTINUOUS
10
90.0099999999999909
20
-51.2736859999999979
11
88.8943139999999943
21
-50.1580000000000013
0
LINE
8
F.Cu
6
CONTINUOUS
10
88.8943139999999943
20
-50.1580000000000013
11
88.3499999999999943
21
-50.1580000000000013
0
LINE
8
F.Cu
6
CONTINUOUS
10
88.3499999999999943
20
-50.1580000000000013
11
88.3155579999999958
21
-50.1511489999999966
0
LINE
8
F.Cu
6
CONTINUOUS
10
88.3155579999999958
20
-50.1511489999999966
11
88.2863600000000019
21
-50.1316399999999973
0
LINE
8
F.Cu
6
CONTINUOUS
10
88.2863600000000019
20
-50.1316399999999973
11
88.2668510000000026
21
-50.1024419999999964
0
LINE
8
F.Cu
6
CONTINUOUS
10
88.2668510000000026
20
-50.1024419999999964
11
88.2599999999999909
21
-50.0679999999999978
0
LINE
8
F.Cu
6
CONTINUOUS
10
88.2599999999999909
20
-50.0679999999999978
11
88.2599999999999909
21
-48.7479999999999976
0
LINE
8
F.Cu
6
CONTINUOUS
10
88.2599999999999909
20
-48.7479999999999976
11
88.2668510000000026
21
-48.713557999999999
0
LINE
8
F.Cu
6
CONTINUOUS
10
88.2668510000000026
20
-48.713557999999999
11
88.2863600000000019
21
-48.6843599999999981
0
LINE
8
F.Cu
6
CONTINUOUS
10
88.2863600000000019
20
-48.6843599999999981
11
88.3100000000000023
21
-48.6685639999999964
0
LINE
8
F.Cu
6
CONTINUOUS
10
88.3100000000000023
20
-48.6685639999999964
11
88.3100000000000023
21
-48.3756859999999946
0
LINE
8
F.Cu
6
CONTINUOUS
10
88.3100000000000023
20
-48.3756859999999946
11
87.584313999999992
21
-47.6499999999999986
0
LINE
8
F.Cu
6
CONTINUOUS
10
87.584313999999992
20
-47.6499999999999986
11
84.4156859999999938
21
-47.6499999999999986
0
LINE
8
F.Cu
6
CONTINUOUS
10
84.4156859999999938
20
-47.6499999999999986
11
82.8100000000000023
21
-49.2556859999999972
0
LINE
8
F.Cu
6
CONTINUOUS
10
82.8100000000000023
20
-49.2556859999999972
11
82.8100000000000023
21
-50.5829999999999984
0
LINE
8
F.Cu
6
CONTINUOUS
10
82.8100000000000023
20
-50.5829999999999984
11
83.0600000000000023
21
-50.5829999999999984
0
LINE
8
F.Cu
6
CONTINUOUS
10
83.0600000000000023
20
-50.5829999999999984
11
83.1556709999999981
21
-50.6020299999999992
0
LINE
8
F.Cu
6
CONTINUOUS
10
83.1556709999999981
20
-50.6020299999999992
11
83.2367769999999894
21
-50.6562229999999971
0
LINE
8
F.Cu
6
CONTINUOUS
10
83.2367769999999894
20
-50.6562229999999971
11
83.2909700000000015
21
-50.7373289999999955
0
LINE
8
F.Cu
6
CONTINUOUS
10
83.2909700000000015
20
-50.7373289999999955
11
83.3100000000000023
21
-50.8329999999999984
0
LINE
8
F.Cu
6
CONTINUOUS
10
83.3100000000000023
20
-50.8329999999999984
11
83.3100000000000023
21
-51.6579999999999941
0
LINE
8
F.Cu
6
CONTINUOUS
10
83.3100000000000023
20
-51.6579999999999941
11
83.2909700000000015
21
-51.7536709999999971
0
LINE
8
F.Cu
6
CONTINUOUS
10
83.2909700000000015
20
-51.7536709999999971
11
83.2367769999999894
21
-51.8347769999999954
0
LINE
8
F.Cu
6
CONTINUOUS
10
83.2367769999999894
20
-51.8347769999999954
11
83.1556709999999981
21
-51.8889700000000005
0
LINE
8
F.Cu
6
CONTINUOUS
10
83.1556709999999981
20
-51.8889700000000005
11
83.0600000000000023
21
-51.9079999999999941
0
LINE
8
F.Cu
6
CONTINUOUS
10
83.0600000000000023
20
-51.9079999999999941
11
82.271261999999993
21
-51.9079999999999941
0
LINE
8
F.Cu
6
CONTINUOUS
10
82.271261999999993
20
-51.9079999999999941
11
82.268574000000001
21
-51.9095519999999979
0
LINE
8
F.Cu
6
CONTINUOUS
10
82.268574000000001
20
-51.9095519999999979
11
82.1677099999999996
21
-51.9365779999999972
0
LINE
8
F.Cu
6
CONTINUOUS
10
82.1677099999999996
20
-51.9365779999999972
11
82.1154999999999973
21
-51.9399999999999977
0
LINE
8
F.Cu
6
CONTINUOUS
10
82.1154999999999973
20
-51.9399999999999977
11
79.875
21
-51.9399999999999977
0
LINE
8
F.Cu
6
CONTINUOUS
10
79.875
20
-51.9399999999999977
11
79.875
21
-52.0399999999999991
0
LINE
8
F.Cu
6
CONTINUOUS
10
79.875
20
-52.0399999999999991
11
79.8635730000000024
21
-52.1462829999999968
0
LINE
8
F.Cu
6
CONTINUOUS
10
79.8635730000000024
20
-52.1462829999999968
11
79.8138390000000015
21
-52.2796239999999983
0
LINE
8
F.Cu
6
CONTINUOUS
10
79.8138390000000015
20
-52.2796239999999983
11
79.7285529999999909
21
-52.3935529999999972
0
LINE
8
F.Cu
6
CONTINUOUS
10
79.7285529999999909
20
-52.3935529999999972
11
79.6146239999999921
21
-52.4788390000000007
0
LINE
8
F.Cu
6
CONTINUOUS
10
79.6146239999999921
20
-52.4788390000000007
11
79.4812829999999906
21
-52.5285729999999944
0
LINE
8
F.Cu
6
CONTINUOUS
10
79.4812829999999906
20
-52.5285729999999944
11
79.375
21
-52.5399999999999991
0
LINE
8
F.Cu
6
CONTINUOUS
10
79.375
20
-52.5399999999999991
11
77.625
21
-52.5399999999999991
0
LINE
8
F.Cu
6
CONTINUOUS
10
77.625
20
-52.5399999999999991
11
77.5187169999999952
21
-52.5285729999999944
0
LINE
8
F.Cu
6
CONTINUOUS
10
77.5187169999999952
20
-52.5285729999999944
11
77.3853759999999937
21
-52.4788390000000007
0
LINE
8
F.Cu
6
CONTINUOUS
10
77.3853759999999937
20
-52.4788390000000007
11
77.2714469999999949
21
-52.3935529999999972
0
LINE
8
F.Cu
6
CONTINUOUS
10
77.2714469999999949
20
-52.3935529999999972
11
77.1861609999999985
21
-52.2796239999999983
0
LINE
8
F.Cu
6
CONTINUOUS
10
77.1861609999999985
20
-52.2796239999999983
11
77.1364269999999976
21
-52.1462829999999968
0
LINE
8
F.Cu
6
CONTINUOUS
10
77.1364269999999976
20
-52.1462829999999968
11
77.125
21
-52.0399999999999991
0
LINE
8
F.Cu
6
CONTINUOUS
10
77.125
20
-52.0399999999999991
11
77.125
21
-51.0399999999999991
0
LINE
8
F.Cu
6
CONTINUOUS
10
77.125
20
-51.0399999999999991
11
77.1364269999999976
21
-50.9337169999999944
0
LINE
8
F.Cu
6
CONTINUOUS
10
77.1364269999999976
20
-50.9337169999999944
11
77.1861609999999985
21
-50.800376
0
LINE
8
F.Cu
6
CONTINUOUS
10
77.1861609999999985
20
-50.800376
11
77.2714469999999949
21
-50.6864470000000011
0
LINE
8
F.Cu
6
CONTINUOUS
10
77.2714469999999949
20
-50.6864470000000011
11
77.3853759999999937
21
-50.6011609999999976
0
LINE
8
F.Cu
6
CONTINUOUS
10
77.3853759999999937
20
-50.6011609999999976
11
77.5187169999999952
21
-50.5514269999999968
0
LINE
8
F.Cu
6
CONTINUOUS
10
77.5187169999999952
20
-50.5514269999999968
11
77.625
21
-50.5399999999999991
0
LINE
8
F.Cu
6
CONTINUOUS
10
77.625
20
-50.5399999999999991
11
79.375
21
-50.5399999999999991
0
LINE
8
F.Cu
6
CONTINUOUS
10
79.375
20
-50.5399999999999991
11
79.4812829999999906
21
-50.5514269999999968
0
LINE
8
F.Cu
6
CONTINUOUS
10
79.4812829999999906
20
-50.5514269999999968
11
79.6146239999999921
21
-50.6011609999999976
0
LINE
8
F.Cu
6
CONTINUOUS
10
79.6146239999999921
20
-50.6011609999999976
11
79.7285529999999909
21
-50.6864470000000011
0
LINE
8
F.Cu
6
CONTINUOUS
10
79.7285529999999909
20
-50.6864470000000011
11
79.8138390000000015
21
-50.800376
0
LINE
8
F.Cu
6
CONTINUOUS
10
79.8138390000000015
20
-50.800376
11
79.8635730000000024
21
-50.9337169999999944
0
LINE
8
F.Cu
6
CONTINUOUS
10
79.8635730000000024
20
-50.9337169999999944
11
79.875
21
-51.0399999999999991
0
LINE
8
F.Cu
6
CONTINUOUS
10
79.875
20
-51.0399999999999991
11
79.875
21
-51.1400000000000006
0
LINE
8
F.Cu
6
CONTINUOUS
10
79.875
20
-51.1400000000000006
11
81.5099999999999909
21
-51.1400000000000006
0
LINE
8
F.Cu
6
CONTINUOUS
10
81.5099999999999909
20
-51.1400000000000006
11
81.5099999999999909
21
-50.8329999999999984
0
LINE
8
F.Cu
6
CONTINUOUS
10
81.5099999999999909
20
-50.8329999999999984
11
81.5290299999999917
21
-50.7373289999999955
0
LINE
8
F.Cu
6
CONTINUOUS
10
81.5290299999999917
20
-50.7373289999999955
11
81.5832229999999896
21
-50.6562229999999971
0
LINE
8
F.Cu
6
CONTINUOUS
10
81.5832229999999896
20
-50.6562229999999971
11
81.6643289999999951
21
-50.6020299999999992
0
LINE
8
F.Cu
6
CONTINUOUS
10
81.6643289999999951
20
-50.6020299999999992
11
81.7599999999999909
21
-50.5829999999999984
0
LINE
8
F.Cu
6
CONTINUOUS
10
81.7599999999999909
20
-50.5829999999999984
11
82.0099999999999909
21
-50.5829999999999984
0
LINE
8
F.Cu
6
CONTINUOUS
10
82.0099999999999909
20
-50.5829999999999984
11
82.0099999999999909
21
-49.0899999999999963
0
LINE
8
F.Cu
6
CONTINUOUS
10
82.0099999999999909
20
-49.0899999999999963
11
82.0134219999999914
21
-49.0377900000000011
0
LINE
8
F.Cu
6
CONTINUOUS
10
82.0134219999999914
20
-49.0377900000000011
11
82.0404479999999978
21
-48.9369269999999972
0
LINE
8
F.Cu
6
CONTINUOUS
10
82.0404479999999978
20
-48.9369269999999972
11
82.0404479999999978
21
-48.9369259999999997
0
LINE
8
F.Cu
6
CONTINUOUS
10
82.0404479999999978
20
-48.9369259999999997
11
82.0926589999999976
21
-48.8464949999999973
0
LINE
8
F.Cu
6
CONTINUOUS
10
82.0926589999999976
20
-48.8464949999999973
11
82.1271569999999969
21
-48.8071569999999966
0
LINE
8
F.Cu
6
CONTINUOUS
10
82.1271569999999969
20
-48.8071569999999966
11
83.9671570000000003
21
-46.9671570000000003
0
LINE
8
F.Cu
6
CONTINUOUS
10
83.9671570000000003
20
-46.9671570000000003
11
84.006495000000001
21
-46.932659000000001
0
LINE
8
F.Cu
6
CONTINUOUS
10
84.006495000000001
20
-46.932659000000001
11
84.0969259999999963
21
-46.8804480000000012
0
LINE
8
F.Cu
6
CONTINUOUS
10
84.0969259999999963
20
-46.8804480000000012
11
84.1977899999999977
21
-46.8534219999999948
0
LINE
8
F.Cu
6
CONTINUOUS
10
84.1977899999999977
20
-46.8534219999999948
11
84.25
21
-46.8500000000000014
0
LINE
8
F.Cu
6
CONTINUOUS
10
84.25
20
-46.8500000000000014
11
87.75
21
-46.8500000000000014
0
LINE
8
F.Cu
6
CONTINUOUS
10
87.75
20
-46.8500000000000014
11
87.8022100000000023
21
-46.8534219999999948
0
LINE
8
F.Cu
6
CONTINUOUS
10
67.0252380000000016
20
-55.7089329999999947
11
67.1144539999999949
21
-55.7685460000000006
0
LINE
8
F.Cu
6
CONTINUOUS
10
67.1144539999999949
20
-55.7685460000000006
11
67.1740669999999938
21
-55.857762000000001
0
LINE
8
F.Cu
6
CONTINUOUS
10
67.1740669999999938
20
-55.857762000000001
11
67.1949999999999932
21
-55.963000000000001
0
LINE
8
F.Cu
6
CONTINUOUS
10
67.1949999999999932
20
-55.963000000000001
11
67.1949999999999932
21
-56.5129999999999981
0
LINE
8
F.Cu
6
CONTINUOUS
10
67.1949999999999932
20
-56.5129999999999981
11
67.1740669999999938
21
-56.6182379999999981
0
LINE
8
F.Cu
6
CONTINUOUS
10
67.1740669999999938
20
-56.6182379999999981
11
67.1144539999999949
21
-56.7074539999999985
0
LINE
8
F.Cu
6
CONTINUOUS
10
67.1144539999999949
20
-56.7074539999999985
11
67.0252380000000016
21
-56.7670669999999973
0
LINE
8
F.Cu
6
CONTINUOUS
10
67.0252380000000016
20
-56.7670669999999973
11
66.9200000000000017
21
-56.7879999999999967
0
LINE
8
F.Cu
6
CONTINUOUS
10
66.9200000000000017
20
-56.7879999999999967
11
66.3449999999999989
21
-56.7879999999999967
0
LINE
8
F.Cu
6
CONTINUOUS
10
66.3449999999999989
20
-56.7879999999999967
11
66.3449999999999989
21
-65.5549999999999926
0
LINE
8
F.Cu
6
CONTINUOUS
10
66.3449999999999989
20
-65.5549999999999926
11
66.3415779999999984
21
-65.6072099999999949
0
LINE
8
F.Cu
6
CONTINUOUS
10
66.3415779999999984
20
-65.6072099999999949
11
66.3145519999999919
21
-65.7080729999999988
0
LINE
8
F.Cu
6
CONTINUOUS
10
66.3145519999999919
20
-65.7080729999999988
11
66.2623409999999922
21
-65.7985049999999916
0
LINE
8
F.Cu
6
CONTINUOUS
10
66.2623409999999922
20
-65.7985049999999916
11
66.2278429999999929
21
-65.8378419999999949
0
LINE
8
F.Cu
6
CONTINUOUS
10
66.2278429999999929
20
-65.8378419999999949
11
64.7828429999999997
21
-67.2828429999999997
0
LINE
8
F.Cu
6
CONTINUOUS
10
64.7828429999999997
20
-67.2828429999999997
11
64.743504999999999
21
-67.317340999999999
0
LINE
8
F.Cu
6
CONTINUOUS
10
64.743504999999999
20
-67.317340999999999
11
64.6530740000000037
21
-67.3695519999999988
0
LINE
8
F.Cu
6
CONTINUOUS
10
64.6530740000000037
20
-67.3695519999999988
11
64.5522100000000023
21
-67.396577999999991
0
LINE
8
F.Cu
6
CONTINUOUS
10
64.5522100000000023
20
-67.396577999999991
11
64.5
21
-67.3999999999999915
0
LINE
8
F.Cu
6
CONTINUOUS
10
64.5
20
-67.3999999999999915
11
60.8915999999999968
21
-67.3999999999999915
0
LINE
8
F.Cu
6
CONTINUOUS
10
60.8915999999999968
20
-67.3999999999999915
11
60.8393899999999945
21
-67.396577999999991
0
LINE
8
F.Cu
6
CONTINUOUS
10
60.8393899999999945
20
-67.396577999999991
11
60.7385260000000002
21
-67.3695519999999988
0
LINE
8
F.Cu
6
CONTINUOUS
10
60.7385260000000002
20
-67.3695519999999988
11
60.6480949999999979
21
-67.317340999999999
0
LINE
8
F.Cu
6
CONTINUOUS
10
60.6480949999999979
20
-67.317340999999999
11
60.6087569999999971
21
-67.2828429999999997
0
LINE
8
F.Cu
6
CONTINUOUS
10
60.6087569999999971
20
-67.2828429999999997
11
59.475913999999996
21
-66.1499999999999915
0
LINE
8
F.Cu
6
CONTINUOUS
10
59.475913999999996
20
-66.1499999999999915
11
56.
21
-66.1499999999999915
0
LINE
8
F.Cu
6
CONTINUOUS
10
56.
20
-66.1499999999999915
11
55.9477899999999977
21
-66.146577999999991
0
LINE
8
F.Cu
6
CONTINUOUS
10
55.9477899999999977
20
-66.146577999999991
11
55.8469270000000009
21
-66.1195519999999988
0
LINE
8
F.Cu
6
CONTINUOUS
10
55.8469270000000009
20
-66.1195519999999988
11
55.756495000000001
21
-66.067340999999999
0
LINE
8
F.Cu
6
CONTINUOUS
10
55.756495000000001
20
-66.067340999999999
11
55.7171570000000003
21
-66.0328429999999997
0
LINE
8
F.Cu
6
CONTINUOUS
10
55.7171570000000003
20
-66.0328429999999997
11
54.8054549999999949
21
-65.1211409999999944
0
LINE
8
F.Cu
6
CONTINUOUS
10
54.8054549999999949
20
-65.1211409999999944
11
54.0806709999999953
21
-65.8459270000000032
0
LINE
8
F.Cu
6
CONTINUOUS
10
54.0806709999999953
20
-65.8459270000000032
11
53.9995659999999944
21
-65.9001190000000037
0
LINE
8
F.Cu
6
CONTINUOUS
10
53.9995659999999944
20
-65.9001190000000037
11
53.9038949999999986
21
-65.9191500000000019
0
LINE
8
F.Cu
6
CONTINUOUS
10
53.9038949999999986
20
-65.9191500000000019
11
53.8082239999999956
21
-65.9001190000000037
0
LINE
8
F.Cu
6
CONTINUOUS
10
53.8082239999999956
20
-65.9001190000000037
11
53.7271189999999947
21
-65.845924999999994
0
LINE
8
F.Cu
6
CONTINUOUS
10
53.7271189999999947
20
-65.845924999999994
11
53.0907209999999949
21
-65.2095290000000034
0
LINE
8
F.Cu
6
CONTINUOUS
10
53.0907209999999949
20
-65.2095290000000034
11
53.0365289999999945
21
-65.1284239999999954
0
LINE
8
F.Cu
6
CONTINUOUS
10
53.0365289999999945
20
-65.1284239999999954
11
53.0174979999999962
21
-65.0327529999999996
0
LINE
8
F.Cu
6
CONTINUOUS
10
53.0174979999999962
20
-65.0327529999999996
11
53.0365289999999945
21
-64.9370820000000037
0
LINE
8
F.Cu
6
CONTINUOUS
10
53.0365289999999945
20
-64.9370820000000037
11
53.090722999999997
21
-64.8559769999999958
0
LINE
8
F.Cu
6
CONTINUOUS
10
53.090722999999997
20
-64.8559769999999958
11
55.1059769999999958
21
-62.8407209999999949
0
LINE
8
F.Cu
6
CONTINUOUS
10
55.1059769999999958
20
-62.8407209999999949
11
55.1870819999999966
21
-62.7865289999999945
0
LINE
8
F.Cu
6
CONTINUOUS
10
55.1870819999999966
20
-62.7865289999999945
11
55.2827529999999996
21
-62.7674979999999962
0
LINE
8
F.Cu
6
CONTINUOUS
10
55.2827529999999996
20
-62.7674979999999962
11
55.3784239999999954
21
-62.7865289999999945
0
LINE
8
F.Cu
6
CONTINUOUS
10
55.3784239999999954
20
-62.7865289999999945
11
55.4595289999999963
21
-62.840722999999997
0
LINE
8
F.Cu
6
CONTINUOUS
10
55.4595289999999963
20
-62.840722999999997
11
55.494883999999999
21
-62.8760769999999951
0
LINE
8
F.Cu
6
CONTINUOUS
10
55.494883999999999
20
-62.8760769999999951
11
58.0999999999999943
21
-60.2709619999999973
0
LINE
8
F.Cu
6
CONTINUOUS
10
58.0999999999999943
20
-60.2709619999999973
11
58.0999999999999943
21
-58.8829999999999956
0
LINE
8
F.Cu
6
CONTINUOUS
10
58.0999999999999943
20
-58.8829999999999956
11
57.875
21
-58.8829999999999956
0
LINE
8
F.Cu
6
CONTINUOUS
10
57.875
20
-58.8829999999999956
11
57.7793289999999971
21
-58.8639699999999948
0
LINE
8
F.Cu
6
CONTINUOUS
10
57.7793289999999971
20
-58.8639699999999948
11
57.6982229999999987
21
-58.8097769999999969
0
LINE
8
F.Cu
6
CONTINUOUS
10
57.6982229999999987
20
-58.8097769999999969
11
57.6440300000000008
21
-58.7286709999999985
0
LINE
8
F.Cu
6
CONTINUOUS
10
57.6440300000000008
20
-58.7286709999999985
11
57.625
21
-58.6329999999999956
0
LINE
8
F.Cu
6
CONTINUOUS
10
57.625
20
-58.6329999999999956
11
57.625
21
-57.8329999999999984
0
LINE
8
F.Cu
6
CONTINUOUS
10
57.625
20
-57.8329999999999984
11
57.6440300000000008
21
-57.7373289999999955
0
LINE
8
F.Cu
6
CONTINUOUS
10
57.6440300000000008
20
-57.7373289999999955
11
57.6982229999999987
21
-57.6562229999999971
0
LINE
8
F.Cu
6
CONTINUOUS
10
57.6982229999999987
20
-57.6562229999999971
11
57.7793289999999971
21
-57.6020299999999992
0
LINE
8
F.Cu
6
CONTINUOUS
10
57.7793289999999971
20
-57.6020299999999992
11
57.875
21
-57.5829999999999984
0
LINE
8
F.Cu
6
CONTINUOUS
10
57.875
20
-57.5829999999999984
11
59.125
21
-57.5829999999999984
0
LINE
8
F.Cu
6
CONTINUOUS
10
59.125
20
-57.5829999999999984
11
59.2206709999999958
21
-57.6020299999999992
0
LINE
8
F.Cu
6
CONTINUOUS
10
59.2206709999999958
20
-57.6020299999999992
11
59.3017769999999942
21
-57.6562229999999971
0
LINE
8
F.Cu
6
CONTINUOUS
10
59.3017769999999942
20
-57.6562229999999971
11
59.3559699999999992
21
-57.7373289999999955
0
LINE
8
F.Cu
6
CONTINUOUS
10
59.3559699999999992
20
-57.7373289999999955
11
59.375
21
-57.8329999999999984
0
LINE
8
F.Cu
6
CONTINUOUS
10
59.375
20
-57.8329999999999984
11
59.375
21
-58.6329999999999956
0
LINE
8
F.Cu
6
CONTINUOUS
10
59.375
20
-58.6329999999999956
11
59.3559699999999992
21
-58.7286709999999985
0
LINE
8
F.Cu
6
CONTINUOUS
10
59.3559699999999992
20
-58.7286709999999985
11
59.3017769999999942
21
-58.8097769999999969
0
LINE
8
F.Cu
6
CONTINUOUS
10
59.3017769999999942
20
-58.8097769999999969
11
59.2206709999999958
21
-58.8639699999999948
0
LINE
8
F.Cu
6
CONTINUOUS
10
59.2206709999999958
20
-58.8639699999999948
11
59.125
21
-58.8829999999999956
0
LINE
8
F.Cu
6
CONTINUOUS
10
59.125
20
-58.8829999999999956
11
58.8999999999999986
21
-58.8829999999999956
0
LINE
8
F.Cu
6
CONTINUOUS
10
58.8999999999999986
20
-58.8829999999999956
11
58.8999999999999986
21
-60.4366479999999981
0
LINE
8
F.Cu
6
CONTINUOUS
10
58.8999999999999986
20
-60.4366479999999981
11
58.8965779999999981
21
-60.4888580000000005
0
LINE
8
F.Cu
6
CONTINUOUS
10
58.8965779999999981
20
-60.4888580000000005
11
58.8695519999999988
21
-60.5897219999999948
0
LINE
8
F.Cu
6
CONTINUOUS
10
58.8695519999999988
20
-60.5897219999999948
11
58.817340999999999
21
-60.6801529999999971
0
LINE
8
F.Cu
6
CONTINUOUS
10
58.817340999999999
20
-60.6801529999999971
11
58.7828429999999997
21
-60.7194909999999979
0
LINE
8
F.Cu
6
CONTINUOUS
10
58.7828429999999997
20
-60.7194909999999979
11
56.0605699999999985
21
-63.4417629999999946
0
LINE
8
F.Cu
6
CONTINUOUS
10
56.0605699999999985
20
-63.4417629999999946
11
56.0959269999999961
21
-63.4771189999999947
0
LINE
8
F.Cu
6
CONTINUOUS
10
56.0959269999999961
20
-63.4771189999999947
11
56.1501189999999966
21
-63.5582239999999956
0
LINE
8
F.Cu
6
CONTINUOUS
10
56.1501189999999966
20
-63.5582239999999956
11
56.1691499999999948
21
-63.6538949999999986
0
LINE
8
F.Cu
6
CONTINUOUS
10
56.1691499999999948
20
-63.6538949999999986
11
56.1501189999999966
21
-63.7495659999999944
0
LINE
8
F.Cu
6
CONTINUOUS
10
56.1501189999999966
20
-63.7495659999999944
11
56.095924999999994
21
-63.8306709999999953
0
LINE
8
F.Cu
6
CONTINUOUS
10
56.095924999999994
20
-63.8306709999999953
11
55.3711409999999944
21
-64.5554549999999949
0
LINE
8
F.Cu
6
CONTINUOUS
10
55.3711409999999944
20
-64.5554549999999949
11
56.1656860000000009
21
-65.3499999999999943
0
LINE
8
F.Cu
6
CONTINUOUS
10
56.1656860000000009
20
-65.3499999999999943
11
59.6415999999999968
21
-65.3499999999999943
0
LINE
8
F.Cu
6
CONTINUOUS
10
59.6415999999999968
20
-65.3499999999999943
11
59.6938099999999991
21
-65.3534219999999948
0
LINE
8
F.Cu
6
CONTINUOUS
10
59.6938099999999991
20
-65.3534219999999948
11
59.7946740000000005
21
-65.3804480000000012
0
LINE
8
F.Cu
6
CONTINUOUS
10
59.7946740000000005
20
-65.3804480000000012
11
59.8851049999999958
21
-65.432659000000001
0
LINE
8
F.Cu
6
CONTINUOUS
10
59.8851049999999958
20
-65.432659000000001
11
59.9244429999999966
21
-65.4671570000000003
0
LINE
8
F.Cu
6
CONTINUOUS
10
59.9244429999999966
20
-65.4671570000000003
11
61.0572859999999977
21
-66.5999999999999943
0
LINE
8
F.Cu
6
CONTINUOUS
10
61.0572859999999977
20
-66.5999999999999943
11
64.334313999999992
21
-66.5999999999999943
0
LINE
8
F.Cu
6
CONTINUOUS
10
64.334313999999992
20
-66.5999999999999943
11
65.5450000000000017
21
-65.3893139999999988
0
LINE
8
F.Cu
6
CONTINUOUS
10
65.5450000000000017
20
-65.3893139999999988
11
65.5450000000000017
21
-56.7879999999999967
0
LINE
8
F.Cu
6
CONTINUOUS
10
65.5450000000000017
20
-56.7879999999999967
11
64.9699999999999989
21
-56.7879999999999967
0
LINE
8
F.Cu
6
CONTINUOUS
10
64.9699999999999989
20
-56.7879999999999967
11
64.8647619999999989
21
-56.7670669999999973
0
LINE
8
F.Cu
6
CONTINUOUS
10
64.8647619999999989
20
-56.7670669999999973
11
64.7755459999999914
21
-56.7074539999999985
0
LINE
8
F.Cu
6
CONTINUOUS
10
64.7755459999999914
20
-56.7074539999999985
11
64.7159329999999926
21
-56.6182379999999981
0
LINE
8
F.Cu
6
CONTINUOUS
10
64.7159329999999926
20
-56.6182379999999981
11
64.6949999999999932
21
-56.5129999999999981
0
LINE
8
F.Cu
6
CONTINUOUS
10
64.6949999999999932
20
-56.5129999999999981
11
64.6949999999999932
21
-55.963000000000001
0
LINE
8
F.Cu
6
CONTINUOUS
10
64.6949999999999932
20
-55.963000000000001
11
64.7159329999999926
21
-55.857762000000001
0
LINE
8
F.Cu
6
CONTINUOUS
10
64.7159329999999926
20
-55.857762000000001
11
64.7755459999999914
21
-55.7685460000000006
0
LINE
8
F.Cu
6
CONTINUOUS
10
64.7755459999999914
20
-55.7685460000000006
11
64.8647619999999989
21
-55.7089329999999947
0
LINE
8
F.Cu
6
CONTINUOUS
10
64.8647619999999989
20
-55.7089329999999947
11
64.9699999999999989
21
-55.6879999999999953
0
LINE
8
F.Cu
6
CONTINUOUS
10
64.9699999999999989
20
-55.6879999999999953
11
66.9200000000000017
21
-55.6879999999999953
0
LINE
8
F.Cu
6
CONTINUOUS
10
66.9200000000000017
20
-55.6879999999999953
11
67.0252380000000016
21
-55.7089329999999947
0
LINE
8
F.Cu
6
CONTINUOUS
10
79.4812829999999906
20
-53.0914269999999959
11
79.6146239999999921
21
-53.1411609999999968
0
LINE
8
F.Cu
6
CONTINUOUS
10
79.6146239999999921
20
-53.1411609999999968
11
79.7285529999999909
21
-53.2264470000000003
0
LINE
8
F.Cu
6
CONTINUOUS
10
79.7285529999999909
20
-53.2264470000000003
11
79.8138390000000015
21
-53.3403759999999991
0
LINE
8
F.Cu
6
CONTINUOUS
10
79.8138390000000015
20
-53.3403759999999991
11
79.8635730000000024
21
-53.4737170000000006
0
LINE
8
F.Cu
6
CONTINUOUS
10
79.8635730000000024
20
-53.4737170000000006
11
79.875
21
-53.5799999999999983
0
LINE
8
F.Cu
6
CONTINUOUS
10
79.875
20
-53.5799999999999983
11
79.875
21
-53.6799999999999997
0
LINE
8
F.Cu
6
CONTINUOUS
10
79.875
20
-53.6799999999999997
11
82.1195000000000022
21
-53.6799999999999997
0
LINE
8
F.Cu
6
CONTINUOUS
10
82.1195000000000022
20
-53.6799999999999997
11
82.1717099999999903
21
-53.6834220000000002
0
LINE
8
F.Cu
6
CONTINUOUS
10
82.1717099999999903
20
-53.6834220000000002
11
82.2634379999999936
21
-53.7079999999999984
0
LINE
8
F.Cu
6
CONTINUOUS
10
82.2634379999999936
20
-53.7079999999999984
11
83.0600000000000023
21
-53.7079999999999984
0
LINE
8
F.Cu
6
CONTINUOUS
10
83.0600000000000023
20
-53.7079999999999984
11
83.1556709999999981
21
-53.7270299999999992
0
LINE
8
F.Cu
6
CONTINUOUS
10
83.1556709999999981
20
-53.7270299999999992
11
83.2367769999999894
21
-53.7812229999999971
0
LINE
8
F.Cu
6
CONTINUOUS
10
83.2367769999999894
20
-53.7812229999999971
11
83.2909700000000015
21
-53.8623289999999955
0
LINE
8
F.Cu
6
CONTINUOUS
10
83.2909700000000015
20
-53.8623289999999955
11
83.3100000000000023
21
-53.9579999999999984
0
LINE
8
F.Cu
6
CONTINUOUS
10
83.3100000000000023
20
-53.9579999999999984
11
83.3100000000000023
21
-53.9704999999999941
0
LINE
8
F.Cu
6
CONTINUOUS
10
83.3100000000000023
20
-53.9704999999999941
11
84.9599999999999937
21
-53.9704999999999941
0
LINE
8
F.Cu
6
CONTINUOUS
10
84.9599999999999937
20
-53.9704999999999941
11
84.9599999999999937
21
-53.6479999999999961
0
LINE
8
F.Cu
6
CONTINUOUS
10
84.9599999999999937
20
-53.6479999999999961
11
84.9668509999999912
21
-53.6135579999999976
0
LINE
8
F.Cu
6
CONTINUOUS
10
84.9668509999999912
20
-53.6135579999999976
11
84.9863599999999906
21
-53.5843599999999967
0
LINE
8
F.Cu
6
CONTINUOUS
10
84.9863599999999906
20
-53.5843599999999967
11
85.0155579999999986
21
-53.5648509999999973
0
LINE
8
F.Cu
6
CONTINUOUS
10
85.0155579999999986
20
-53.5648509999999973
11
85.0499999999999972
21
-53.5579999999999998
0
LINE
8
F.Cu
6
CONTINUOUS
10
85.0499999999999972
20
-53.5579999999999998
11
85.769999999999996
21
-53.5579999999999998
0
LINE
8
F.Cu
6
CONTINUOUS
10
85.769999999999996
20
-53.5579999999999998
11
85.8044419999999946
21
-53.5648509999999973
0
LINE
8
F.Cu
6
CONTINUOUS
10
85.8044419999999946
20
-53.5648509999999973
11
85.8336400000000026
21
-53.5843599999999967
0
LINE
8
F.Cu
6
CONTINUOUS
10
85.8336400000000026
20
-53.5843599999999967
11
85.8531490000000019
21
-53.6135579999999976
0
LINE
8
F.Cu
6
CONTINUOUS
10
85.8531490000000019
20
-53.6135579999999976
11
85.8599999999999994
21
-53.6479999999999961
0
LINE
8
F.Cu
6
CONTINUOUS
10
85.8599999999999994
20
-53.6479999999999961
11
85.8599999999999994
21
-54.9679999999999964
0
LINE
8
F.Cu
6
CONTINUOUS
10
85.8599999999999994
20
-54.9679999999999964
11
85.8531490000000019
21
-55.0024419999999949
0
LINE
8
F.Cu
6
CONTINUOUS
10
85.8531490000000019
20
-55.0024419999999949
11
85.8336400000000026
21
-55.0316399999999959
0
LINE
8
F.Cu
6
CONTINUOUS
10
85.8336400000000026
20
-55.0316399999999959
11
85.8044419999999946
21
-55.0511489999999952
0
LINE
8
F.Cu
6
CONTINUOUS
10
85.8044419999999946
20
-55.0511489999999952
11
85.769999999999996
21
-55.0579999999999998
0
LINE
8
F.Cu
6
CONTINUOUS
10
85.769999999999996
20
-55.0579999999999998
11
85.0499999999999972
21
-55.0579999999999998
0
LINE
8
F.Cu
6
CONTINUOUS
10
85.0499999999999972
20
-55.0579999999999998
11
85.0155579999999986
21
-55.0511489999999952
0
LINE
8
F.Cu
6
CONTINUOUS
10
85.0155579999999986
20
-55.0511489999999952
11
84.9863599999999906
21
-55.0316399999999959
0
LINE
8
F.Cu
6
CONTINUOUS
10
84.9863599999999906
20
-55.0316399999999959
11
84.9668509999999912
21
-55.0024419999999949
0
LINE
8
F.Cu
6
CONTINUOUS
10
84.9668509999999912
20
-55.0024419999999949
11
84.9599999999999937
21
-54.9679999999999964
0
LINE
8
F.Cu
6
CONTINUOUS
10
84.9599999999999937
20
-54.9679999999999964
11
84.9599999999999937
21
-54.7704999999999984
0
LINE
8
F.Cu
6
CONTINUOUS
10
84.9599999999999937
20
-54.7704999999999984
11
83.3100000000000023
21
-54.7704999999999984
0
LINE
8
F.Cu
6
CONTINUOUS
10
83.3100000000000023
20
-54.7704999999999984
11
83.3100000000000023
21
-54.7829999999999941
0
LINE
8
F.Cu
6
CONTINUOUS
10
83.3100000000000023
20
-54.7829999999999941
11
83.2909700000000015
21
-54.8786709999999971
0
LINE
8
F.Cu
6
CONTINUOUS
10
83.2909700000000015
20
-54.8786709999999971
11
83.2367769999999894
21
-54.9597769999999954
0
LINE
8
F.Cu
6
CONTINUOUS
10
83.2367769999999894
20
-54.9597769999999954
11
83.1556709999999981
21
-55.0139700000000005
0
LINE
8
F.Cu
6
CONTINUOUS
10
83.1556709999999981
20
-55.0139700000000005
11
83.0600000000000023
21
-55.0329999999999941
0
LINE
8
F.Cu
6
CONTINUOUS
10
83.0600000000000023
20
-55.0329999999999941
11
81.7599999999999909
21
-55.0329999999999941
0
LINE
8
F.Cu
6
CONTINUOUS
10
81.7599999999999909
20
-55.0329999999999941
11
81.6643289999999951
21
-55.0139700000000005
0
LINE
8
F.Cu
6
CONTINUOUS
10
81.6643289999999951
20
-55.0139700000000005
11
81.5832229999999896
21
-54.9597769999999954
0
LINE
8
F.Cu
6
CONTINUOUS
10
81.5832229999999896
20
-54.9597769999999954
11
81.5290299999999917
21
-54.8786709999999971
0
LINE
8
F.Cu
6
CONTINUOUS
10
81.5290299999999917
20
-54.8786709999999971
11
81.5099999999999909
21
-54.7829999999999941
0
LINE
8
F.Cu
6
CONTINUOUS
10
81.5099999999999909
20
-54.7829999999999941
11
81.5099999999999909
21
-54.4799999999999969
0
LINE
8
F.Cu
6
CONTINUOUS
10
81.5099999999999909
20
-54.4799999999999969
11
79.875
21
-54.4799999999999969
0
LINE
8
F.Cu
6
CONTINUOUS
10
79.875
20
-54.4799999999999969
11
79.875
21
-54.5799999999999983
0
LINE
8
F.Cu
6
CONTINUOUS
10
79.875
20
-54.5799999999999983
11
79.8635730000000024
21
-54.686282999999996
0
LINE
8
F.Cu
6
CONTINUOUS
10
79.8635730000000024
20
-54.686282999999996
11
79.8138390000000015
21
-54.8196239999999975
0
LINE
8
F.Cu
6
CONTINUOUS
10
79.8138390000000015
20
-54.8196239999999975
11
79.7285529999999909
21
-54.9335529999999963
0
LINE
8
F.Cu
6
CONTINUOUS
10
79.7285529999999909
20
-54.9335529999999963
11
79.6146239999999921
21
-55.0188389999999998
0
LINE
8
F.Cu
6
CONTINUOUS
10
79.6146239999999921
20
-55.0188389999999998
11
79.4812829999999906
21
-55.0685730000000007
0
LINE
8
F.Cu
6
CONTINUOUS
10
79.4812829999999906
20
-55.0685730000000007
11
79.375
21
-55.0799999999999983
0
LINE
8
F.Cu
6
CONTINUOUS
10
79.375
20
-55.0799999999999983
11
77.625
21
-55.0799999999999983
0
LINE
8
F.Cu
6
CONTINUOUS
10
77.625
20
-55.0799999999999983
11
77.5187169999999952
21
-55.0685730000000007
0
LINE
8
F.Cu
6
CONTINUOUS
10
77.5187169999999952
20
-55.0685730000000007
11
77.3853759999999937
21
-55.0188389999999998
0
LINE
8
F.Cu
6
CONTINUOUS
10
77.3853759999999937
20
-55.0188389999999998
11
77.2714469999999949
21
-54.9335529999999963
0
LINE
8
F.Cu
6
CONTINUOUS
10
77.2714469999999949
20
-54.9335529999999963
11
77.1861609999999985
21
-54.8196239999999975
0
LINE
8
F.Cu
6
CONTINUOUS
10
77.1861609999999985
20
-54.8196239999999975
11
77.1364269999999976
21
-54.686282999999996
0
LINE
8
F.Cu
6
CONTINUOUS
10
77.1364269999999976
20
-54.686282999999996
11
77.135549999999995
21
-54.6781349999999975
0
LINE
8
F.Cu
6
CONTINUOUS
10
77.135549999999995
20
-54.6781349999999975
11
75.3999999999999915
21
-56.4136859999999984
0
LINE
8
F.Cu
6
CONTINUOUS
10
75.3999999999999915
20
-56.4136859999999984
11
75.3999999999999915
21
-65.334313999999992
0
LINE
8
F.Cu
6
CONTINUOUS
10
75.3999999999999915
20
-65.334313999999992
11
76.6656849999999963
21
-66.5999999999999943
0
LINE
8
F.Cu
6
CONTINUOUS
10
76.6656849999999963
20
-66.5999999999999943
11
80.834313999999992
21
-66.5999999999999943
0
LINE
8
F.Cu
6
CONTINUOUS
10
80.834313999999992
20
-66.5999999999999943
11
82.5999999999999943
21
-64.834313999999992
0
LINE
8
F.Cu
6
CONTINUOUS
10
82.5999999999999943
20
-64.834313999999992
11
82.5999999999999943
21
-64.0330000000000013
0
LINE
8
F.Cu
6
CONTINUOUS
10
82.5999999999999943
20
-64.0330000000000013
11
82.3499999999999943
21
-64.0330000000000013
0
LINE
8
F.Cu
6
CONTINUOUS
10
82.3499999999999943
20
-64.0330000000000013
11
82.2543289999999985
21
-64.0139700000000005
0
LINE
8
F.Cu
6
CONTINUOUS
10
82.2543289999999985
20
-64.0139700000000005
11
82.173222999999993
21
-63.9597769999999954
0
LINE
8
F.Cu
6
CONTINUOUS
10
82.173222999999993
20
-63.9597769999999954
11
82.1190299999999951
21
-63.8786709999999971
0
LINE
8
F.Cu
6
CONTINUOUS
10
82.1190299999999951
20
-63.8786709999999971
11
82.0999999999999943
21
-63.7829999999999941
0
LINE
8
F.Cu
6
CONTINUOUS
10
82.0999999999999943
20
-63.7829999999999941
11
82.0999999999999943
21
-62.9579999999999984
0
LINE
8
F.Cu
6
CONTINUOUS
10
82.0999999999999943
20
-62.9579999999999984
11
82.1190299999999951
21
-62.8623289999999955
0
LINE
8
F.Cu
6
CONTINUOUS
10
82.1190299999999951
20
-62.8623289999999955
11
82.173222999999993
21
-62.7812229999999971
0
LINE
8
F.Cu
6
CONTINUOUS
10
82.173222999999993
20
-62.7812229999999971
11
82.2543289999999985
21
-62.7270299999999992
0
LINE
8
F.Cu
6
CONTINUOUS
10
82.2543289999999985
20
-62.7270299999999992
11
82.3499999999999943
21
-62.7079999999999984
0
LINE
8
F.Cu
6
CONTINUOUS
10
82.3499999999999943
20
-62.7079999999999984
11
83.6499999999999915
21
-62.7079999999999984
0
LINE
8
F.Cu
6
CONTINUOUS
10
83.6499999999999915
20
-62.7079999999999984
11
83.7456710000000015
21
-62.7270299999999992
0
LINE
8
F.Cu
6
CONTINUOUS
10
83.7456710000000015
20
-62.7270299999999992
11
83.8267769999999928
21
-62.7812229999999971
0
LINE
8
F.Cu
6
CONTINUOUS
10
83.8267769999999928
20
-62.7812229999999971
11
83.8780769999999904
21
-62.857999999999997
0
LINE
8
F.Cu
6
CONTINUOUS
10
83.8780769999999904
20
-62.857999999999997
11
84.9599999999999937
21
-62.857999999999997
0
LINE
8
F.Cu
6
CONTINUOUS
10
84.9599999999999937
20
-62.857999999999997
11
84.9599999999999937
21
-62.597999999999999
0
LINE
8
F.Cu
6
CONTINUOUS
10
84.9599999999999937
20
-62.597999999999999
11
84.9668509999999912
21
-62.5635580000000004
0
LINE
8
F.Cu
6
CONTINUOUS
10
84.9668509999999912
20
-62.5635580000000004
11
84.9863599999999906
21
-62.5343599999999995
0
LINE
8
F.Cu
6
CONTINUOUS
10
84.9863599999999906
20
-62.5343599999999995
11
85.0155579999999986
21
-62.5148510000000002
0
LINE
8
F.Cu
6
CONTINUOUS
10
85.0155579999999986
20
-62.5148510000000002
11
85.0499999999999972
21
-62.5079999999999956
0
LINE
8
F.Cu
6
CONTINUOUS
10
85.0499999999999972
20
-62.5079999999999956
11
85.769999999999996
21
-62.5079999999999956
0
LINE
8
F.Cu
6
CONTINUOUS
10
85.769999999999996
20
-62.5079999999999956
11
85.8044419999999946
21
-62.5148510000000002
0
LINE
8
F.Cu
6
CONTINUOUS
10
85.8044419999999946
20
-62.5148510000000002
11
85.8336400000000026
21
-62.5343599999999995
0
LINE
8
F.Cu
6
CONTINUOUS
10
85.8336400000000026
20
-62.5343599999999995
11
85.8531490000000019
21
-62.5635580000000004
0
LINE
8
F.Cu
6
CONTINUOUS
10
85.8531490000000019
20
-62.5635580000000004
11
85.8599999999999994
21
-62.597999999999999
0
LINE
8
F.Cu
6
CONTINUOUS
10
85.8599999999999994
20
-62.597999999999999
11
85.8599999999999994
21
-63.9179999999999993
0
LINE
8
F.Cu
6
CONTINUOUS
10
85.8599999999999994
20
-63.9179999999999993
11
85.8531490000000019
21
-63.9524419999999978
0
LINE
8
F.Cu
6
CONTINUOUS
10
85.8531490000000019
20
-63.9524419999999978
11
85.8336400000000026
21
-63.9816399999999987
0
LINE
8
F.Cu
6
CONTINUOUS
10
85.8336400000000026
20
-63.9816399999999987
11
85.8044419999999946
21
-64.0011489999999981
0
LINE
8
F.Cu
6
CONTINUOUS
10
85.8044419999999946
20
-64.0011489999999981
11
85.769999999999996
21
-64.0079999999999956
0
LINE
8
F.Cu
6
CONTINUOUS
10
85.769999999999996
20
-64.0079999999999956
11
85.0499999999999972
21
-64.0079999999999956
0
LINE
8
F.Cu
6
CONTINUOUS
10
85.0499999999999972
20
-64.0079999999999956
11
85.0155579999999986
21
-64.0011489999999981
0
LINE
8
F.Cu
6
CONTINUOUS
10
85.0155579999999986
20
-64.0011489999999981
11
84.9863599999999906
21
-63.9816399999999987
0
LINE
8
F.Cu
6
CONTINUOUS
10
84.9863599999999906
20
-63.9816399999999987
11
84.9668509999999912
21
-63.9524419999999978
0
LINE
8
F.Cu
6
CONTINUOUS
10
84.9668509999999912
20
-63.9524419999999978
11
84.9599999999999937
21
-63.9179999999999993
0
LINE
8
F.Cu
6
CONTINUOUS
10
84.9599999999999937
20
-63.9179999999999993
11
84.9599999999999937
21
-63.6579999999999941
0
LINE
8
F.Cu
6
CONTINUOUS
10
84.9599999999999937
20
-63.6579999999999941
11
83.8999999999999915
21
-63.6579999999999941
0
LINE
8
F.Cu
6
CONTINUOUS
10
83.8999999999999915
20
-63.6579999999999941
11
83.8999999999999915
21
-63.7829999999999941
0
LINE
8
F.Cu
6
CONTINUOUS
10
83.8999999999999915
20
-63.7829999999999941
11
83.8809699999999907
21
-63.8786709999999971
0
LINE
8
F.Cu
6
CONTINUOUS
10
83.8809699999999907
20
-63.8786709999999971
11
83.8267769999999928
21
-63.9597769999999954
0
LINE
8
F.Cu
6
CONTINUOUS
10
83.8267769999999928
20
-63.9597769999999954
11
83.7456710000000015
21
-64.0139700000000005
0
LINE
8
F.Cu
6
CONTINUOUS
10
83.7456710000000015
20
-64.0139700000000005
11
83.6499999999999915
21
-64.0330000000000013
0
LINE
8
F.Cu
6
CONTINUOUS
10
83.6499999999999915
20
-64.0330000000000013
11
83.3999999999999915
21
-64.0330000000000013
0
LINE
8
F.Cu
6
CONTINUOUS
10
83.3999999999999915
20
-64.0330000000000013
11
83.3999999999999915
21
-65.
0
LINE
8
F.Cu
6
CONTINUOUS
10
83.3999999999999915
20
-65.
11
83.396577999999991
21
-65.0522100000000023
0
LINE
8
F.Cu
6
CONTINUOUS
10
83.396577999999991
20
-65.0522100000000023
11
83.3695519999999988
21
-65.1530740000000037
0
LINE
8
F.Cu
6
CONTINUOUS
10
83.3695519999999988
20
-65.1530740000000037
11
83.317340999999999
21
-65.243504999999999
0
LINE
8
F.Cu
6
CONTINUOUS
10
83.317340999999999
20
-65.243504999999999
11
83.2828429999999997
21
-65.2828429999999997
0
LINE
8
F.Cu
6
CONTINUOUS
10
83.2828429999999997
20
-65.2828429999999997
11
81.2828429999999997
21
-67.2828429999999997
0
LINE
8
F.Cu
6
CONTINUOUS
10
81.2828429999999997
20
-67.2828429999999997
11
81.243504999999999
21
-67.317340999999999
0
LINE
8
F.Cu
6
CONTINUOUS
10
81.243504999999999
20
-67.317340999999999
11
81.1530739999999895
21
-67.3695519999999988
0
LINE
8
F.Cu
6
CONTINUOUS
10
81.1530739999999895
20
-67.3695519999999988
11
81.0522100000000023
21
-67.396577999999991
0
LINE
8
F.Cu
6
CONTINUOUS
10
81.0522100000000023
20
-67.396577999999991
11
81.
21
-67.3999999999999915
0
LINE
8
F.Cu
6
CONTINUOUS
10
81.
20
-67.3999999999999915
11
76.5
21
-67.3999999999999915
0
LINE
8
F.Cu
6
CONTINUOUS
10
76.5
20
-67.3999999999999915
11
76.4477899999999977
21
-67.396577999999991
0
LINE
8
F.Cu
6
CONTINUOUS
10
76.4477899999999977
20
-67.396577999999991
11
76.3469269999999938
21
-67.3695519999999988
0
LINE
8
F.Cu
6
CONTINUOUS
10
76.3469269999999938
20
-67.3695519999999988
11
76.256495000000001
21
-67.317340999999999
0
LINE
8
F.Cu
6
CONTINUOUS
10
76.256495000000001
20
-67.317340999999999
11
76.2171570000000003
21
-67.2828420000000023
0
LINE
8
F.Cu
6
CONTINUOUS
10
76.2171570000000003
20
-67.2828420000000023
11
74.7171570000000003
21
-65.7828429999999997
0
LINE
8
F.Cu
6
CONTINUOUS
10
74.7171570000000003
20
-65.7828429999999997
11
74.682659000000001
21
-65.743504999999999
0
LINE
8
F.Cu
6
CONTINUOUS
10
74.682659000000001
20
-65.743504999999999
11
74.6304480000000012
21
-65.6530740000000037
0
LINE
8
F.Cu
6
CONTINUOUS
10
74.6304480000000012
20
-65.6530740000000037
11
74.6034219999999948
21
-65.5522100000000023
0
LINE
8
F.Cu
6
CONTINUOUS
10
74.6034219999999948
20
-65.5522100000000023
11
74.5999999999999943
21
-65.5
0
LINE
8
F.Cu
6
CONTINUOUS
10
74.5999999999999943
20
-65.5
11
74.5999999999999943
21
-56.2479999999999976
0
LINE
8
F.Cu
6
CONTINUOUS
10
74.5999999999999943
20
-56.2479999999999976
11
74.6034219999999948
21
-56.1957899999999952
0
LINE
8
F.Cu
6
CONTINUOUS
10
74.6034219999999948
20
-56.1957899999999952
11
74.6083089999999913
21
-56.1775519999999986
0
LINE
8
F.Cu
6
CONTINUOUS
10
74.6083089999999913
20
-56.1775519999999986
11
74.6304480000000012
21
-56.094926000000001
0
LINE
8
F.Cu
6
CONTINUOUS
10
74.6304480000000012
20
-56.094926000000001
11
74.682659000000001
21
-56.0044949999999986
0
LINE
8
F.Cu
6
CONTINUOUS
10
74.682659000000001
20
-56.0044949999999986
11
74.7171570000000003
21
-55.9651569999999978
0
LINE
8
F.Cu
6
CONTINUOUS
10
74.7171570000000003
20
-55.9651569999999978
11
76.8851569999999924
21
-53.7971569999999986
0
LINE
8
F.Cu
6
CONTINUOUS
10
76.8851569999999924
20
-53.7971569999999986
11
76.9244949999999932
21
-53.7626589999999993
0
LINE
8
F.Cu
6
CONTINUOUS
10
76.9244949999999932
20
-53.7626589999999993
11
77.0149260000000027
21
-53.7104479999999995
0
LINE
8
F.Cu
6
CONTINUOUS
10
77.0149260000000027
20
-53.7104479999999995
11
77.1157899999999898
21
-53.6834220000000002
0
LINE
8
F.Cu
6
CONTINUOUS
10
77.1157899999999898
20
-53.6834220000000002
11
77.125
21
-53.6828179999999975
0
LINE
8
F.Cu
6
CONTINUOUS
10
77.125
20
-53.6828179999999975
11
77.125
21
-53.5799999999999983
0
LINE
8
F.Cu
6
CONTINUOUS
10
77.125
20
-53.5799999999999983
11
77.1364269999999976
21
-53.4737170000000006
0
LINE
8
F.Cu
6
CONTINUOUS
10
77.1364269999999976
20
-53.4737170000000006
11
77.1861609999999985
21
-53.3403759999999991
0
LINE
8
F.Cu
6
CONTINUOUS
10
77.1861609999999985
20
-53.3403759999999991
11
77.2714469999999949
21
-53.2264470000000003
0
LINE
8
F.Cu
6
CONTINUOUS
10
77.2714469999999949
20
-53.2264470000000003
11
77.3853759999999937
21
-53.1411609999999968
0
LINE
8
F.Cu
6
CONTINUOUS
10
77.3853759999999937
20
-53.1411609999999968
11
77.5187169999999952
21
-53.0914269999999959
0
LINE
8
F.Cu
6
CONTINUOUS
10
77.5187169999999952
20
-53.0914269999999959
11
77.625
21
-53.0799999999999983
0
LINE
8
F.Cu
6
CONTINUOUS
10
77.625
20
-53.0799999999999983
11
79.375
21
-53.0799999999999983
0
LINE
8
F.Cu
6
CONTINUOUS
10
79.375
20
-53.0799999999999983
11
79.4812829999999906
21
-53.0914269999999959
0
LINE
8
F.Cu
6
CONTINUOUS
10
63.3162829999999985
20
-63.2514269999999996
11
63.449624
21
-63.3011610000000005
0
LINE
8
F.Cu
6
CONTINUOUS
10
63.449624
20
-63.3011610000000005
11
63.5635529999999989
21
-63.3864469999999969
0
LINE
8
F.Cu
6
CONTINUOUS
10
63.5635529999999989
20
-63.3864469999999969
11
63.6488389999999953
21
-63.5003759999999957
0
LINE
8
F.Cu
6
CONTINUOUS
10
63.6488389999999953
20
-63.5003759999999957
11
63.6985729999999961
21
-63.6337169999999972
0
LINE
8
F.Cu
6
CONTINUOUS
10
63.6985729999999961
20
-63.6337169999999972
11
63.7099999999999937
21
-63.7399999999999949
0
LINE
8
F.Cu
6
CONTINUOUS
10
63.7099999999999937
20
-63.7399999999999949
11
63.7099999999999937
21
-64.7399999999999949
0
LINE
8
F.Cu
6
CONTINUOUS
10
63.7099999999999937
20
-64.7399999999999949
11
63.6985729999999961
21
-64.8462829999999997
0
LINE
8
F.Cu
6
CONTINUOUS
10
63.6985729999999961
20
-64.8462829999999997
11
63.6488389999999953
21
-64.9796240000000012
0
LINE
8
F.Cu
6
CONTINUOUS
10
63.6488389999999953
20
-64.9796240000000012
11
63.5635529999999989
21
-65.093553
0
LINE
8
F.Cu
6
CONTINUOUS
10
63.5635529999999989
20
-65.093553
11
63.449624
21
-65.1788389999999964
0
LINE
8
F.Cu
6
CONTINUOUS
10
63.449624
20
-65.1788389999999964
11
63.3162829999999985
21
-65.2285729999999973
0
LINE
8
F.Cu
6
CONTINUOUS
10
63.3162829999999985
20
-65.2285729999999973
11
63.2099999999999937
21
-65.2399999999999949
0
LINE
8
F.Cu
6
CONTINUOUS
10
63.2099999999999937
20
-65.2399999999999949
11
61.4599999999999937
21
-65.2399999999999949
0
LINE
8
F.Cu
6
CONTINUOUS
10
61.4599999999999937
20
-65.2399999999999949
11
61.3537169999999961
21
-65.2285729999999973
0
LINE
8
F.Cu
6
CONTINUOUS
10
61.3537169999999961
20
-65.2285729999999973
11
61.2203759999999946
21
-65.1788389999999964
0
LINE
8
F.Cu
6
CONTINUOUS
10
61.2203759999999946
20
-65.1788389999999964
11
61.1064469999999957
21
-65.093553
0
LINE
8
F.Cu
6
CONTINUOUS
10
61.1064469999999957
20
-65.093553
11
61.0211609999999993
21
-64.9796240000000012
0
LINE
8
F.Cu
6
CONTINUOUS
10
61.0211609999999993
20
-64.9796240000000012
11
60.9714269999999985
21
-64.8462829999999997
0
LINE
8
F.Cu
6
CONTINUOUS
10
60.9714269999999985
20
-64.8462829999999997
11
60.9599999999999937
21
-64.7399999999999949
0
LINE
8
F.Cu
6
CONTINUOUS
10
60.9599999999999937
20
-64.7399999999999949
11
60.9599999999999937
21
-63.7399999999999949
0
LINE
8
F.Cu
6
CONTINUOUS
10
60.9599999999999937
20
-63.7399999999999949
11
60.9714269999999985
21
-63.6337169999999972
0
LINE
8
F.Cu
6
CONTINUOUS
10
60.9714269999999985
20
-63.6337169999999972
11
61.0211609999999993
21
-63.5003759999999957
0
LINE
8
F.Cu
6
CONTINUOUS
10
61.0211609999999993
20
-63.5003759999999957
11
61.1064469999999957
21
-63.3864469999999969
0
LINE
8
F.Cu
6
CONTINUOUS
10
61.1064469999999957
20
-63.3864469999999969
11
61.2203759999999946
21
-63.3011610000000005
0
LINE
8
F.Cu
6
CONTINUOUS
10
61.2203759999999946
20
-63.3011610000000005
11
61.3537169999999961
21
-63.2514269999999996
0
LINE
8
F.Cu
6
CONTINUOUS
10
61.3537169999999961
20
-63.2514269999999996
11
61.4599999999999937
21
-63.2399999999999949
0
LINE
8
F.Cu
6
CONTINUOUS
10
61.4599999999999937
20
-63.2399999999999949
11
63.2099999999999937
21
-63.2399999999999949
0
LINE
8
F.Cu
6
CONTINUOUS
10
63.2099999999999937
20
-63.2399999999999949
11
63.3162829999999985
21
-63.2514269999999996
0
LINE
8
F.Cu
6
CONTINUOUS
10
79.4812829999999906
20
-63.2514269999999996
11
79.6146239999999921
21
-63.3011610000000005
0
LINE
8
F.Cu
6
CONTINUOUS
10
79.6146239999999921
20
-63.3011610000000005
11
79.7285529999999909
21
-63.3864469999999969
0
LINE
8
F.Cu
6
CONTINUOUS
10
79.7285529999999909
20
-63.3864469999999969
11
79.8138390000000015
21
-63.5003759999999957
0
LINE
8
F.Cu
6
CONTINUOUS
10
79.8138390000000015
20
-63.5003759999999957
11
79.8635730000000024
21
-63.6337169999999972
0
LINE
8
F.Cu
6
CONTINUOUS
10
79.8635730000000024
20
-63.6337169999999972
11
79.875
21
-63.7399999999999949
0
LINE
8
F.Cu
6
CONTINUOUS
10
79.875
20
-63.7399999999999949
11
79.875
21
-64.7399999999999949
0
LINE
8
F.Cu
6
CONTINUOUS
10
79.875
20
-64.7399999999999949
11
79.8635730000000024
21
-64.8462829999999997
0
LINE
8
F.Cu
6
CONTINUOUS
10
79.8635730000000024
20
-64.8462829999999997
11
79.8138390000000015
21
-64.9796240000000012
0
LINE
8
F.Cu
6
CONTINUOUS
10
79.8138390000000015
20
-64.9796240000000012
11
79.7285529999999909
21
-65.093553
0
LINE
8
F.Cu
6
CONTINUOUS
10
79.7285529999999909
20
-65.093553
11
79.6146239999999921
21
-65.1788389999999964
0
LINE
8
F.Cu
6
CONTINUOUS
10
79.6146239999999921
20
-65.1788389999999964
11
79.4812829999999906
21
-65.2285729999999973
0
LINE
8
F.Cu
6
CONTINUOUS
10
79.4812829999999906
20
-65.2285729999999973
11
79.375
21
-65.2399999999999949
0
LINE
8
F.Cu
6
CONTINUOUS
10
79.375
20
-65.2399999999999949
11
77.625
21
-65.2399999999999949
0
LINE
8
F.Cu
6
CONTINUOUS
10
77.625
20
-65.2399999999999949
11
77.5187169999999952
21
-65.2285729999999973
0
LINE
8
F.Cu
6
CONTINUOUS
10
77.5187169999999952
20
-65.2285729999999973
11
77.3853759999999937
21
-65.1788389999999964
0
LINE
8
F.Cu
6
CONTINUOUS
10
77.3853759999999937
20
-65.1788389999999964
11
77.2714469999999949
21
-65.093553
0
LINE
8
F.Cu
6
CONTINUOUS
10
77.2714469999999949
20
-65.093553
11
77.1861609999999985
21
-64.9796240000000012
0
LINE
8
F.Cu
6
CONTINUOUS
10
77.1861609999999985
20
-64.9796240000000012
11
77.1364269999999976
21
-64.8462829999999997
0
LINE
8
F.Cu
6
CONTINUOUS
10
77.1364269999999976
20
-64.8462829999999997
11
77.125
21
-64.7399999999999949
0
LINE
8
F.Cu
6
CONTINUOUS
10
77.125
20
-64.7399999999999949
11
77.125
21
-63.7399999999999949
0
LINE
8
F.Cu
6
CONTINUOUS
10
77.125
20
-63.7399999999999949
11
77.1364269999999976
21
-63.6337169999999972
0
LINE
8
F.Cu
6
CONTINUOUS
10
77.1364269999999976
20
-63.6337169999999972
11
77.1861609999999985
21
-63.5003759999999957
0
LINE
8
F.Cu
6
CONTINUOUS
10
77.1861609999999985
20
-63.5003759999999957
11
77.2714469999999949
21
-63.3864469999999969
0
LINE
8
F.Cu
6
CONTINUOUS
10
77.2714469999999949
20
-63.3864469999999969
11
77.3853759999999937
21
-63.3011610000000005
0
LINE
8
F.Cu
6
CONTINUOUS
10
77.3853759999999937
20
-63.3011610000000005
11
77.5187169999999952
21
-63.2514269999999996
0
LINE
8
F.Cu
6
CONTINUOUS
10
77.5187169999999952
20
-63.2514269999999996
11
77.625
21
-63.2399999999999949
0
LINE
8
F.Cu
6
CONTINUOUS
10
77.625
20
-63.2399999999999949
11
79.375
21
-63.2399999999999949
0
LINE
8
F.Cu
6
CONTINUOUS
10
79.375
20
-63.2399999999999949
11
79.4812829999999906
21
-63.2514269999999996
0
LINE
8
F.Cu
6
CONTINUOUS
10
89.1044419999999917
20
-62.5148510000000002
11
89.1336399999999998
21
-62.5343599999999995
0
LINE
8
F.Cu
6
CONTINUOUS
10
89.1336399999999998
20
-62.5343599999999995
11
89.1531489999999991
21
-62.5635580000000004
0
LINE
8
F.Cu
6
CONTINUOUS
10
89.1531489999999991
20
-62.5635580000000004
11
89.1599999999999966
21
-62.597999999999999
0
LINE
8
F.Cu
6
CONTINUOUS
10
89.1599999999999966
20
-62.597999999999999
11
89.1599999999999966
21
-63.9179999999999993
0
LINE
8
F.Cu
6
CONTINUOUS
10
89.1599999999999966
20
-63.9179999999999993
11
89.1531489999999991
21
-63.9524419999999978
0
LINE
8
F.Cu
6
CONTINUOUS
10
89.1531489999999991
20
-63.9524419999999978
11
89.1336399999999998
21
-63.9816399999999987
0
LINE
8
F.Cu
6
CONTINUOUS
10
89.1336399999999998
20
-63.9816399999999987
11
89.1044419999999917
21
-64.0011489999999981
0
LINE
8
F.Cu
6
CONTINUOUS
10
89.1044419999999917
20
-64.0011489999999981
11
89.0699999999999932
21
-64.0079999999999956
0
LINE
8
F.Cu
6
CONTINUOUS
10
89.0699999999999932
20
-64.0079999999999956
11
88.3499999999999943
21
-64.0079999999999956
0
LINE
8
F.Cu
6
CONTINUOUS
10
88.3499999999999943
20
-64.0079999999999956
11
88.3155579999999958
21
-64.0011489999999981
0
LINE
8
F.Cu
6
CONTINUOUS
10
88.3155579999999958
20
-64.0011489999999981
11
88.2863600000000019
21
-63.9816399999999987
0
LINE
8
F.Cu
6
CONTINUOUS
10
88.2863600000000019
20
-63.9816399999999987
11
88.2668510000000026
21
-63.9524419999999978
0
LINE
8
F.Cu
6
CONTINUOUS
10
88.2668510000000026
20
-63.9524419999999978
11
88.2599999999999909
21
-63.9179999999999993
0
LINE
8
F.Cu
6
CONTINUOUS
10
88.2599999999999909
20
-63.9179999999999993
11
88.2599999999999909
21
-62.597999999999999
0
LINE
8
F.Cu
6
CONTINUOUS
10
88.2599999999999909
20
-62.597999999999999
11
88.2668510000000026
21
-62.5635580000000004
0
LINE
8
F.Cu
6
CONTINUOUS
10
88.2668510000000026
20
-62.5635580000000004
11
88.2863600000000019
21
-62.5343599999999995
0
LINE
8
F.Cu
6
CONTINUOUS
10
88.2863600000000019
20
-62.5343599999999995
11
88.3155579999999958
21
-62.5148510000000002
0
LINE
8
F.Cu
6
CONTINUOUS
10
88.3155579999999958
20
-62.5148510000000002
11
88.3499999999999943
21
-62.5079999999999956
0
LINE
8
F.Cu
6
CONTINUOUS
10
88.3499999999999943
20
-62.5079999999999956
11
89.0699999999999932
21
-62.5079999999999956
0
LINE
8
F.Cu
6
CONTINUOUS
10
89.0699999999999932
20
-62.5079999999999956
11
89.1044419999999917
21
-62.5148510000000002
0
LINE
8
F.Cu
6
CONTINUOUS
10
63.3162829999999985
20
-60.7114270000000005
11
63.449624
21
-60.7611609999999942
0
LINE
8
F.Cu
6
CONTINUOUS
10
63.449624
20
-60.7611609999999942
11
63.5635529999999989
21
-60.8464469999999977
0
LINE
8
F.Cu
6
CONTINUOUS
10
63.5635529999999989
20
-60.8464469999999977
11
63.6488389999999953
21
-60.9603759999999966
0
LINE
8
F.Cu
6
CONTINUOUS
10
63.6488389999999953
20
-60.9603759999999966
11
63.6985729999999961
21
-61.0937169999999981
0
LINE
8
F.Cu
6
CONTINUOUS
10
63.6985729999999961
20
-61.0937169999999981
11
63.7099999999999937
21
-61.1999999999999957
0
LINE
8
F.Cu
6
CONTINUOUS
10
63.7099999999999937
20
-61.1999999999999957
11
63.7099999999999937
21
-62.1999999999999957
0
LINE
8
F.Cu
6
CONTINUOUS
10
63.7099999999999937
20
-62.1999999999999957
11
63.6985729999999961
21
-62.3062830000000005
0
LINE
8
F.Cu
6
CONTINUOUS
10
63.6985729999999961
20
-62.3062830000000005
11
63.6488389999999953
21
-62.4396239999999949
0
LINE
8
F.Cu
6
CONTINUOUS
10
63.6488389999999953
20
-62.4396239999999949
11
63.5635529999999989
21
-62.5535529999999937
0
LINE
8
F.Cu
6
CONTINUOUS
10
63.5635529999999989
20
-62.5535529999999937
11
63.449624
21
-62.6388389999999973
0
LINE
8
F.Cu
6
CONTINUOUS
10
63.449624
20
-62.6388389999999973
11
63.3162829999999985
21
-62.6885729999999981
0
LINE
8
F.Cu
6
CONTINUOUS
10
63.3162829999999985
20
-62.6885729999999981
11
63.2099999999999937
21
-62.6999999999999957
0
LINE
8
F.Cu
6
CONTINUOUS
10
63.2099999999999937
20
-62.6999999999999957
11
61.4599999999999937
21
-62.6999999999999957
0
LINE
8
F.Cu
6
CONTINUOUS
10
61.4599999999999937
20
-62.6999999999999957
11
61.3537169999999961
21
-62.6885729999999981
0
LINE
8
F.Cu
6
CONTINUOUS
10
61.3537169999999961
20
-62.6885729999999981
11
61.2203759999999946
21
-62.6388389999999973
0
LINE
8
F.Cu
6
CONTINUOUS
10
61.2203759999999946
20
-62.6388389999999973
11
61.1064469999999957
21
-62.5535529999999937
0
LINE
8
F.Cu
6
CONTINUOUS
10
61.1064469999999957
20
-62.5535529999999937
11
61.0211609999999993
21
-62.4396239999999949
0
LINE
8
F.Cu
6
CONTINUOUS
10
61.0211609999999993
20
-62.4396239999999949
11
60.9714269999999985
21
-62.3062830000000005
0
LINE
8
F.Cu
6
CONTINUOUS
10
60.9714269999999985
20
-62.3062830000000005
11
60.9599999999999937
21
-62.1999999999999957
0
LINE
8
F.Cu
6
CONTINUOUS
10
60.9599999999999937
20
-62.1999999999999957
11
60.9599999999999937
21
-61.1999999999999957
0
LINE
8
F.Cu
6
CONTINUOUS
10
60.9599999999999937
20
-61.1999999999999957
11
60.9714269999999985
21
-61.0937169999999981
0
LINE
8
F.Cu
6
CONTINUOUS
10
60.9714269999999985
20
-61.0937169999999981
11
61.0211609999999993
21
-60.9603759999999966
0
LINE
8
F.Cu
6
CONTINUOUS
10
61.0211609999999993
20
-60.9603759999999966
11
61.1064469999999957
21
-60.8464469999999977
0
LINE
8
F.Cu
6
CONTINUOUS
10
61.1064469999999957
20
-60.8464469999999977
11
61.2203759999999946
21
-60.7611609999999942
0
LINE
8
F.Cu
6
CONTINUOUS
10
61.2203759999999946
20
-60.7611609999999942
11
61.3537169999999961
21
-60.7114270000000005
0
LINE
8
F.Cu
6
CONTINUOUS
10
61.3537169999999961
20
-60.7114270000000005
11
61.4599999999999937
21
-60.6999999999999957
0
LINE
8
F.Cu
6
CONTINUOUS
10
61.4599999999999937
20
-60.6999999999999957
11
63.2099999999999937
21
-60.6999999999999957
0
LINE
8
F.Cu
6
CONTINUOUS
10
63.2099999999999937
20
-60.6999999999999957
11
63.3162829999999985
21
-60.7114270000000005
0
LINE
8
F.Cu
6
CONTINUOUS
10
85.8044419999999946
20
-48.6648509999999987
11
85.8336400000000026
21
-48.6843599999999981
0
LINE
8
F.Cu
6
CONTINUOUS
10
85.8336400000000026
20
-48.6843599999999981
11
85.8531490000000019
21
-48.713557999999999
0
LINE
8
F.Cu
6
CONTINUOUS
10
85.8531490000000019
20
-48.713557999999999
11
85.8599999999999994
21
-48.7479999999999976
0
LINE
8
F.Cu
6
CONTINUOUS
10
85.8599999999999994
20
-48.7479999999999976
11
85.8599999999999994
21
-49.2923139999999975
0
LINE
8
F.Cu
6
CONTINUOUS
10
85.8599999999999994
20
-49.2923139999999975
11
87.0428419999999932
21
-50.4751569999999958
0
LINE
8
F.Cu
6
CONTINUOUS
10
87.0428419999999932
20
-50.4751569999999958
11
87.0773409999999899
21
-50.5144949999999966
0
LINE
8
F.Cu
6
CONTINUOUS
10
87.0773409999999899
20
-50.5144949999999966
11
87.1295519999999897
21
-50.6049269999999964
0
LINE
8
F.Cu
6
CONTINUOUS
10
87.1295519999999897
20
-50.6049269999999964
11
87.1565779999999961
21
-50.7057900000000004
0
LINE
8
F.Cu
6
CONTINUOUS
10
87.1565779999999961
20
-50.7057900000000004
11
87.1599999999999966
21
-50.7579999999999956
0
LINE
8
F.Cu
6
CONTINUOUS
10
87.1599999999999966
20
-50.7579999999999956
11
87.1599999999999966
21
-55.4899999999999949
0
LINE
8
F.Cu
6
CONTINUOUS
10
87.1599999999999966
20
-55.4899999999999949
11
87.1565779999999961
21
-55.5422099999999972
0
LINE
8
F.Cu
6
CONTINUOUS
10
87.1565779999999961
20
-55.5422099999999972
11
87.1295519999999897
21
-55.643072999999994
0
LINE
8
F.Cu
6
CONTINUOUS
10
87.1295519999999897
20
-55.643072999999994
11
87.1295509999999922
21
-55.6430739999999986
0
LINE
8
F.Cu
6
CONTINUOUS
10
87.1295509999999922
20
-55.6430739999999986
11
87.0773409999999899
21
-55.733505000000001
0
LINE
8
F.Cu
6
CONTINUOUS
10
87.0773409999999899
20
-55.733505000000001
11
87.0428419999999932
21
-55.7728429999999946
0
LINE
8
F.Cu
6
CONTINUOUS
10
87.0428419999999932
20
-55.7728429999999946
11
86.2828429999999997
21
-56.5328429999999997
0
LINE
8
F.Cu
6
CONTINUOUS
10
86.2828429999999997
20
-56.5328429999999997
11
86.243504999999999
21
-56.567340999999999
0
LINE
8
F.Cu
6
CONTINUOUS
10
86.243504999999999
20
-56.567340999999999
11
86.1530739999999895
21
-56.6195519999999988
0
LINE
8
F.Cu
6
CONTINUOUS
10
86.1530739999999895
20
-56.6195519999999988
11
86.0522100000000023
21
-56.6465779999999981
0
LINE
8
F.Cu
6
CONTINUOUS
10
86.0522100000000023
20
-56.6465779999999981
11
86.
21
-56.6499999999999986
0
LINE
8
F.Cu
6
CONTINUOUS
10
86.
20
-56.6499999999999986
11
83.9156849999999963
21
-56.6499999999999986
0
LINE
8
F.Cu
6
CONTINUOUS
10
83.9156849999999963
20
-56.6499999999999986
11
81.1749999999999972
21
-59.3906849999999977
0
LINE
8
F.Cu
6
CONTINUOUS
10
81.1749999999999972
20
-59.3906849999999977
11
81.1749999999999972
21
-60.7999999999999972
0
LINE
8
F.Cu
6
CONTINUOUS
10
81.1749999999999972
20
-60.7999999999999972
11
81.1715779999999967
21
-60.8522099999999995
0
LINE
8
F.Cu
6
CONTINUOUS
10
81.1715779999999967
20
-60.8522099999999995
11
81.1445519999999902
21
-60.9530739999999938
0
LINE
8
F.Cu
6
CONTINUOUS
10
81.1445519999999902
20
-60.9530739999999938
11
81.0923409999999905
21
-61.0435049999999961
0
LINE
8
F.Cu
6
CONTINUOUS
10
81.0923409999999905
20
-61.0435049999999961
11
81.0578429999999912
21
-61.0828429999999969
0
LINE
8
F.Cu
6
CONTINUOUS
10
81.0578429999999912
20
-61.0828429999999969
11
80.1578429999999997
21
-61.9828429999999955
0
LINE
8
F.Cu
6
CONTINUOUS
10
80.1578429999999997
20
-61.9828429999999955
11
80.118504999999999
21
-62.0173409999999947
0
LINE
8
F.Cu
6
CONTINUOUS
10
80.118504999999999
20
-62.0173409999999947
11
80.0280739999999895
21
-62.0695519999999945
0
LINE
8
F.Cu
6
CONTINUOUS
10
80.0280739999999895
20
-62.0695519999999945
11
79.9272100000000023
21
-62.0965779999999938
0
LINE
8
F.Cu
6
CONTINUOUS
10
79.9272100000000023
20
-62.0965779999999938
11
79.875
21
-62.0999999999999943
0
LINE
8
F.Cu
6
CONTINUOUS
10
79.875
20
-62.0999999999999943
11
79.875
21
-62.1999999999999957
0
LINE
8
F.Cu
6
CONTINUOUS
10
79.875
20
-62.1999999999999957
11
79.8635730000000024
21
-62.3062830000000005
0
LINE
8
F.Cu
6
CONTINUOUS
10
79.8635730000000024
20
-62.3062830000000005
11
79.8138390000000015
21
-62.4396239999999949
0
LINE
8
F.Cu
6
CONTINUOUS
10
79.8138390000000015
20
-62.4396239999999949
11
79.7285529999999909
21
-62.5535529999999937
0
LINE
8
F.Cu
6
CONTINUOUS
10
79.7285529999999909
20
-62.5535529999999937
11
79.6146239999999921
21
-62.6388389999999973
0
LINE
8
F.Cu
6
CONTINUOUS
10
79.6146239999999921
20
-62.6388389999999973
11
79.4812829999999906
21
-62.6885729999999981
0
LINE
8
F.Cu
6
CONTINUOUS
10
79.4812829999999906
20
-62.6885729999999981
11
79.375
21
-62.6999999999999957
0
LINE
8
F.Cu
6
CONTINUOUS
10
79.375
20
-62.6999999999999957
11
77.625
21
-62.6999999999999957
0
LINE
8
F.Cu
6
CONTINUOUS
10
77.625
20
-62.6999999999999957
11
77.5187169999999952
21
-62.6885729999999981
0
LINE
8
F.Cu
6
CONTINUOUS
10
77.5187169999999952
20
-62.6885729999999981
11
77.3853759999999937
21
-62.6388389999999973
0
LINE
8
F.Cu
6
CONTINUOUS
10
77.3853759999999937
20
-62.6388389999999973
11
77.2714469999999949
21
-62.5535529999999937
0
LINE
8
F.Cu
6
CONTINUOUS
10
77.2714469999999949
20
-62.5535529999999937
11
77.1861609999999985
21
-62.4396239999999949
0
LINE
8
F.Cu
6
CONTINUOUS
10
77.1861609999999985
20
-62.4396239999999949
11
77.1364269999999976
21
-62.3062830000000005
0
LINE
8
F.Cu
6
CONTINUOUS
10
77.1364269999999976
20
-62.3062830000000005
11
77.125
21
-62.1999999999999957
0
LINE
8
F.Cu
6
CONTINUOUS
10
77.125
20
-62.1999999999999957
11
77.125
21
-61.1999999999999957
0
LINE
8
F.Cu
6
CONTINUOUS
10
77.125
20
-61.1999999999999957
11
77.1364269999999976
21
-61.0937169999999981
0
LINE
8
F.Cu
6
CONTINUOUS
10
77.1364269999999976
20
-61.0937169999999981
11
77.1861609999999985
21
-60.9603759999999966
0
LINE
8
F.Cu
6
CONTINUOUS
10
77.1861609999999985
20
-60.9603759999999966
11
77.2714469999999949
21
-60.8464469999999977
0
LINE
8
F.Cu
6
CONTINUOUS
10
77.2714469999999949
20
-60.8464469999999977
11
77.3853759999999937
21
-60.7611609999999942
0
LINE
8
F.Cu
6
CONTINUOUS
10
77.3853759999999937
20
-60.7611609999999942
11
77.5187169999999952
21
-60.7114270000000005
0
LINE
8
F.Cu
6
CONTINUOUS
10
77.5187169999999952
20
-60.7114270000000005
11
77.625
21
-60.6999999999999957
0
LINE
8
F.Cu
6
CONTINUOUS
10
77.625
20
-60.6999999999999957
11
79.375
21
-60.6999999999999957
0
LINE
8
F.Cu
6
CONTINUOUS
10
79.375
20
-60.6999999999999957
11
79.4812829999999906
21
-60.7114270000000005
0
LINE
8
F.Cu
6
CONTINUOUS
10
79.4812829999999906
20
-60.7114270000000005
11
79.6146239999999921
21
-60.7611609999999942
0
LINE
8
F.Cu
6
CONTINUOUS
10
79.6146239999999921
20
-60.7611609999999942
11
79.7285529999999909
21
-60.8464469999999977
0
LINE
8
F.Cu
6
CONTINUOUS
10
79.7285529999999909
20
-60.8464469999999977
11
79.8138390000000015
21
-60.9603759999999966
0
LINE
8
F.Cu
6
CONTINUOUS
10
79.8138390000000015
20
-60.9603759999999966
11
79.8635730000000024
21
-61.0937169999999981
0
LINE
8
F.Cu
6
CONTINUOUS
10
79.8635730000000024
20
-61.0937169999999981
11
79.8686229999999995
21
-61.1406899999999993
0
LINE
8
F.Cu
6
CONTINUOUS
10
79.8686229999999995
20
-61.1406899999999993
11
80.375
21
-60.6343139999999963
0
LINE
8
F.Cu
6
CONTINUOUS
10
80.375
20
-60.6343139999999963
11
80.375
21
-59.2249999999999943
0
LINE
8
F.Cu
6
CONTINUOUS
10
80.375
20
-59.2249999999999943
11
80.3784220000000005
21
-59.1727899999999991
0
LINE
8
F.Cu
6
CONTINUOUS
10
80.3784220000000005
20
-59.1727899999999991
11
80.4054479999999927
21
-59.0719269999999952
0
LINE
8
F.Cu
6
CONTINUOUS
10
80.4054479999999927
20
-59.0719269999999952
11
80.4054479999999927
21
-59.0719259999999977
0
LINE
8
F.Cu
6
CONTINUOUS
10
80.4054479999999927
20
-59.0719259999999977
11
80.4576589999999925
21
-58.9814949999999953
0
LINE
8
F.Cu
6
CONTINUOUS
10
80.4576589999999925
20
-58.9814949999999953
11
80.4921569999999917
21
-58.9421569999999946
0
LINE
8
F.Cu
6
CONTINUOUS
10
80.4921569999999917
20
-58.9421569999999946
11
83.4671570000000003
21
-55.9671579999999977
0
LINE
8
F.Cu
6
CONTINUOUS
10
83.4671570000000003
20
-55.9671579999999977
11
83.506495000000001
21
-55.932659000000001
0
LINE
8
F.Cu
6
CONTINUOUS
10
83.506495000000001
20
-55.932659000000001
11
83.5272799999999904
21
-55.9206590000000006
0
LINE
8
F.Cu
6
CONTINUOUS
10
83.5272799999999904
20
-55.9206590000000006
11
83.5969269999999938
21
-55.8804479999999941
0
LINE
8
F.Cu
6
CONTINUOUS
10
83.5969269999999938
20
-55.8804479999999941
11
83.6977899999999977
21
-55.8534219999999948
0
LINE
8
F.Cu
6
CONTINUOUS
10
83.6977899999999977
20
-55.8534219999999948
11
83.75
21
-55.8499999999999943
0
LINE
8
F.Cu
6
CONTINUOUS
10
83.75
20
-55.8499999999999943
11
85.834313999999992
21
-55.8499999999999943
0
LINE
8
F.Cu
6
CONTINUOUS
10
85.834313999999992
20
-55.8499999999999943
11
86.3599999999999994
21
-55.324313999999994
0
LINE
8
F.Cu
6
CONTINUOUS
10
86.3599999999999994
20
-55.324313999999994
11
86.3599999999999994
21
-50.923684999999999
0
LINE
8
F.Cu
6
CONTINUOUS
10
86.3599999999999994
20
-50.923684999999999
11
85.5943139999999971
21
-50.1580000000000013
0
LINE
8
F.Cu
6
CONTINUOUS
10
85.5943139999999971
20
-50.1580000000000013
11
85.0499999999999972
21
-50.1580000000000013
0
LINE
8
F.Cu
6
CONTINUOUS
10
85.0499999999999972
20
-50.1580000000000013
11
85.0155579999999986
21
-50.1511489999999966
0
LINE
8
F.Cu
6
CONTINUOUS
10
85.0155579999999986
20
-50.1511489999999966
11
84.9863599999999906
21
-50.1316399999999973
0
LINE
8
F.Cu
6
CONTINUOUS
10
84.9863599999999906
20
-50.1316399999999973
11
84.9668509999999912
21
-50.1024419999999964
0
LINE
8
F.Cu
6
CONTINUOUS
10
84.9668509999999912
20
-50.1024419999999964
11
84.9599999999999937
21
-50.0679999999999978
0
LINE
8
F.Cu
6
CONTINUOUS
10
84.9599999999999937
20
-50.0679999999999978
11
84.9599999999999937
21
-48.7479999999999976
0
LINE
8
F.Cu
6
CONTINUOUS
10
84.9599999999999937
20
-48.7479999999999976
11
84.9668509999999912
21
-48.713557999999999
0
LINE
8
F.Cu
6
CONTINUOUS
10
84.9668509999999912
20
-48.713557999999999
11
84.9863599999999906
21
-48.6843599999999981
0
LINE
8
F.Cu
6
CONTINUOUS
10
84.9863599999999906
20
-48.6843599999999981
11
85.0155579999999986
21
-48.6648509999999987
0
LINE
8
F.Cu
6
CONTINUOUS
10
85.0155579999999986
20
-48.6648509999999987
11
85.0499999999999972
21
-48.6580000000000013
0
LINE
8
F.Cu
6
CONTINUOUS
10
85.0499999999999972
20
-48.6580000000000013
11
85.769999999999996
21
-48.6580000000000013
0
LINE
8
F.Cu
6
CONTINUOUS
10
85.769999999999996
20
-48.6580000000000013
11
85.8044419999999946
21
-48.6648509999999987
0
LINE
8
F.Cu
6
CONTINUOUS
10
63.3162829999999985
20
-58.1714269999999942
11
63.449624
21
-58.2211609999999951
0
LINE
8
F.Cu
6
CONTINUOUS
10
63.449624
20
-58.2211609999999951
11
63.5635529999999989
21
-58.3064469999999986
0
LINE
8
F.Cu
6
CONTINUOUS
10
63.5635529999999989
20
-58.3064469999999986
11
63.6488389999999953
21
-58.4203759999999974
0
LINE
8
F.Cu
6
CONTINUOUS
10
63.6488389999999953
20
-58.4203759999999974
11
63.6985729999999961
21
-58.5537169999999989
0
LINE
8
F.Cu
6
CONTINUOUS
10
63.6985729999999961
20
-58.5537169999999989
11
63.7099999999999937
21
-58.6599999999999966
0
LINE
8
F.Cu
6
CONTINUOUS
10
63.7099999999999937
20
-58.6599999999999966
11
63.7099999999999937
21
-59.6599999999999966
0
LINE
8
F.Cu
6
CONTINUOUS
10
63.7099999999999937
20
-59.6599999999999966
11
63.6985729999999961
21
-59.7662829999999943
0
LINE
8
F.Cu
6
CONTINUOUS
10
63.6985729999999961
20
-59.7662829999999943
11
63.6488389999999953
21
-59.8996239999999958
0
LINE
8
F.Cu
6
CONTINUOUS
10
63.6488389999999953
20
-59.8996239999999958
11
63.5635529999999989
21
-60.0135529999999946
0
LINE
8
F.Cu
6
CONTINUOUS
10
63.5635529999999989
20
-60.0135529999999946
11
63.449624
21
-60.0988389999999981
0
LINE
8
F.Cu
6
CONTINUOUS
10
63.449624
20
-60.0988389999999981
11
63.3162829999999985
21
-60.148572999999999
0
LINE
8
F.Cu
6
CONTINUOUS
10
63.3162829999999985
20
-60.148572999999999
11
63.2099999999999937
21
-60.1599999999999966
0
LINE
8
F.Cu
6
CONTINUOUS
10
63.2099999999999937
20
-60.1599999999999966
11
61.4599999999999937
21
-60.1599999999999966
0
LINE
8
F.Cu
6
CONTINUOUS
10
61.4599999999999937
20
-60.1599999999999966
11
61.3537169999999961
21
-60.148572999999999
0
LINE
8
F.Cu
6
CONTINUOUS
10
61.3537169999999961
20
-60.148572999999999
11
61.2203759999999946
21
-60.0988389999999981
0
LINE
8
F.Cu
6
CONTINUOUS
10
61.2203759999999946
20
-60.0988389999999981
11
61.1064469999999957
21
-60.0135529999999946
0
LINE
8
F.Cu
6
CONTINUOUS
10
61.1064469999999957
20
-60.0135529999999946
11
61.0211609999999993
21
-59.8996239999999958
0
LINE
8
F.Cu
6
CONTINUOUS
10
61.0211609999999993
20
-59.8996239999999958
11
60.9714269999999985
21
-59.7662829999999943
0
LINE
8
F.Cu
6
CONTINUOUS
10
60.9714269999999985
20
-59.7662829999999943
11
60.9599999999999937
21
-59.6599999999999966
0
LINE
8
F.Cu
6
CONTINUOUS
10
60.9599999999999937
20
-59.6599999999999966
11
60.9599999999999937
21
-58.6599999999999966
0
LINE
8
F.Cu
6
CONTINUOUS
10
60.9599999999999937
20
-58.6599999999999966
11
60.9714269999999985
21
-58.5537169999999989
0
LINE
8
F.Cu
6
CONTINUOUS
10
60.9714269999999985
20
-58.5537169999999989
11
61.0211609999999993
21
-58.4203759999999974
0
LINE
8
F.Cu
6
CONTINUOUS
10
61.0211609999999993
20
-58.4203759999999974
11
61.1064469999999957
21
-58.3064469999999986
0
LINE
8
F.Cu
6
CONTINUOUS
10
61.1064469999999957
20
-58.3064469999999986
11
61.2203759999999946
21
-58.2211609999999951
0
LINE
8
F.Cu
6
CONTINUOUS
10
61.2203759999999946
20
-58.2211609999999951
11
61.3537169999999961
21
-58.1714269999999942
0
LINE
8
F.Cu
6
CONTINUOUS
10
61.3537169999999961
20
-58.1714269999999942
11
61.4599999999999937
21
-58.1599999999999966
0
LINE
8
F.Cu
6
CONTINUOUS
10
61.4599999999999937
20
-58.1599999999999966
11
63.2099999999999937
21
-58.1599999999999966
0
LINE
8
F.Cu
6
CONTINUOUS
10
63.2099999999999937
20
-58.1599999999999966
11
63.3162829999999985
21
-58.1714269999999942
0
LINE
8
F.Cu
6
CONTINUOUS
10
79.4812829999999906
20
-58.1714269999999942
11
79.6146239999999921
21
-58.2211609999999951
0
LINE
8
F.Cu
6
CONTINUOUS
10
79.6146239999999921
20
-58.2211609999999951
11
79.7285529999999909
21
-58.3064469999999986
0
LINE
8
F.Cu
6
CONTINUOUS
10
79.7285529999999909
20
-58.3064469999999986
11
79.8138390000000015
21
-58.4203759999999974
0
LINE
8
F.Cu
6
CONTINUOUS
10
79.8138390000000015
20
-58.4203759999999974
11
79.8635730000000024
21
-58.5537169999999989
0
LINE
8
F.Cu
6
CONTINUOUS
10
79.8635730000000024
20
-58.5537169999999989
11
79.875
21
-58.6599999999999966
0
LINE
8
F.Cu
6
CONTINUOUS
10
79.875
20
-58.6599999999999966
11
79.875
21
-59.6599999999999966
0
LINE
8
F.Cu
6
CONTINUOUS
10
79.875
20
-59.6599999999999966
11
79.8635730000000024
21
-59.7662829999999943
0
LINE
8
F.Cu
6
CONTINUOUS
10
79.8635730000000024
20
-59.7662829999999943
11
79.8138390000000015
21
-59.8996239999999958
0
LINE
8
F.Cu
6
CONTINUOUS
10
79.8138390000000015
20
-59.8996239999999958
11
79.7285529999999909
21
-60.0135529999999946
0
LINE
8
F.Cu
6
CONTINUOUS
10
79.7285529999999909
20
-60.0135529999999946
11
79.6146239999999921
21
-60.0988389999999981
0
LINE
8
F.Cu
6
CONTINUOUS
10
79.6146239999999921
20
-60.0988389999999981
11
79.4812829999999906
21
-60.148572999999999
0
LINE
8
F.Cu
6
CONTINUOUS
10
79.4812829999999906
20
-60.148572999999999
11
79.375
21
-60.1599999999999966
0
LINE
8
F.Cu
6
CONTINUOUS
10
79.375
20
-60.1599999999999966
11
77.625
21
-60.1599999999999966
0
LINE
8
F.Cu
6
CONTINUOUS
10
77.625
20
-60.1599999999999966
11
77.5187169999999952
21
-60.148572999999999
0
LINE
8
F.Cu
6
CONTINUOUS
10
77.5187169999999952
20
-60.148572999999999
11
77.3853759999999937
21
-60.0988389999999981
0
LINE
8
F.Cu
6
CONTINUOUS
10
77.3853759999999937
20
-60.0988389999999981
11
77.2714469999999949
21
-60.0135529999999946
0
LINE
8
F.Cu
6
CONTINUOUS
10
77.2714469999999949
20
-60.0135529999999946
11
77.1861609999999985
21
-59.8996239999999958
0
LINE
8
F.Cu
6
CONTINUOUS
10
77.1861609999999985
20
-59.8996239999999958
11
77.1364269999999976
21
-59.7662829999999943
0
LINE
8
F.Cu
6
CONTINUOUS
10
77.1364269999999976
20
-59.7662829999999943
11
77.125
21
-59.6599999999999966
0
LINE
8
F.Cu
6
CONTINUOUS
10
77.125
20
-59.6599999999999966
11
77.125
21
-58.6599999999999966
0
LINE
8
F.Cu
6
CONTINUOUS
10
77.125
20
-58.6599999999999966
11
77.1364269999999976
21
-58.5537169999999989
0
LINE
8
F.Cu
6
CONTINUOUS
10
77.1364269999999976
20
-58.5537169999999989
11
77.1861609999999985
21
-58.4203759999999974
0
LINE
8
F.Cu
6
CONTINUOUS
10
77.1861609999999985
20
-58.4203759999999974
11
77.2714469999999949
21
-58.3064469999999986
0
LINE
8
F.Cu
6
CONTINUOUS
10
77.2714469999999949
20
-58.3064469999999986
11
77.3853759999999937
21
-58.2211609999999951
0
LINE
8
F.Cu
6
CONTINUOUS
10
77.3853759999999937
20
-58.2211609999999951
11
77.5187169999999952
21
-58.1714269999999942
0
LINE
8
F.Cu
6
CONTINUOUS
10
77.5187169999999952
20
-58.1714269999999942
11
77.625
21
-58.1599999999999966
0
LINE
8
F.Cu
6
CONTINUOUS
10
77.625
20
-58.1599999999999966
11
79.375
21
-58.1599999999999966
0
LINE
8
F.Cu
6
CONTINUOUS
10
79.375
20
-58.1599999999999966
11
79.4812829999999906
21
-58.1714269999999942
0
LINE
8
F.Cu
6
CONTINUOUS
10
89.1044419999999917
20
-53.5648509999999973
11
89.1336399999999998
21
-53.5843599999999967
0
LINE
8
F.Cu
6
CONTINUOUS
10
89.1336399999999998
20
-53.5843599999999967
11
89.1531489999999991
21
-53.6135579999999976
0
LINE
8
F.Cu
6
CONTINUOUS
10
89.1531489999999991
20
-53.6135579999999976
11
89.1599999999999966
21
-53.6479999999999961
0
LINE
8
F.Cu
6
CONTINUOUS
10
89.1599999999999966
20
-53.6479999999999961
11
89.1599999999999966
21
-54.9679999999999964
0
LINE
8
F.Cu
6
CONTINUOUS
10
89.1599999999999966
20
-54.9679999999999964
11
89.1531489999999991
21
-55.0024419999999949
0
LINE
8
F.Cu
6
CONTINUOUS
10
89.1531489999999991
20
-55.0024419999999949
11
89.1336399999999998
21
-55.0316399999999959
0
LINE
8
F.Cu
6
CONTINUOUS
10
89.1336399999999998
20
-55.0316399999999959
11
89.1099999999999994
21
-55.0474350000000001
0
LINE
8
F.Cu
6
CONTINUOUS
10
89.1099999999999994
20
-55.0474350000000001
11
89.1099999999999994
21
-55.5399999999999991
0
LINE
8
F.Cu
6
CONTINUOUS
10
89.1099999999999994
20
-55.5399999999999991
11
89.106577999999999
21
-55.5922099999999944
0
LINE
8
F.Cu
6
CONTINUOUS
10
89.106577999999999
20
-55.5922099999999944
11
89.0795519999999925
21
-55.6930739999999957
0
LINE
8
F.Cu
6
CONTINUOUS
10
89.0795519999999925
20
-55.6930739999999957
11
89.0273409999999927
21
-55.7835049999999981
0
LINE
8
F.Cu
6
CONTINUOUS
10
89.0273409999999927
20
-55.7835049999999981
11
88.9928429999999935
21
-55.8228429999999989
0
LINE
8
F.Cu
6
CONTINUOUS
10
88.9928429999999935
20
-55.8228429999999989
11
86.1748429999999956
21
-58.6408429999999967
0
LINE
8
F.Cu
6
CONTINUOUS
10
86.1748429999999956
20
-58.6408429999999967
11
86.1355049999999949
21
-58.675340999999996
0
LINE
8
F.Cu
6
CONTINUOUS
10
86.1355049999999949
20
-58.675340999999996
11
86.0450739999999996
21
-58.7275519999999958
0
LINE
8
F.Cu
6
CONTINUOUS
10
86.0450739999999996
20
-58.7275519999999958
11
85.9442099999999982
21
-58.7545779999999951
0
LINE
8
F.Cu
6
CONTINUOUS
10
85.9442099999999982
20
-58.7545779999999951
11
85.8919999999999959
21
-58.7579999999999956
0
LINE
8
F.Cu
6
CONTINUOUS
10
85.8919999999999959
20
-58.7579999999999956
11
85.8599999999999994
21
-58.7579999999999956
0
LINE
8
F.Cu
6
CONTINUOUS
10
85.8599999999999994
20
-58.7579999999999956
11
85.8599999999999994
21
-59.0180000000000007
0
LINE
8
F.Cu
6
CONTINUOUS
10
85.8599999999999994
20
-59.0180000000000007
11
85.8531490000000019
21
-59.0524419999999992
0
LINE
8
F.Cu
6
CONTINUOUS
10
85.8531490000000019
20
-59.0524419999999992
11
85.8336400000000026
21
-59.0816400000000002
0
LINE
8
F.Cu
6
CONTINUOUS
10
85.8336400000000026
20
-59.0816400000000002
11
85.8044419999999946
21
-59.1011489999999995
0
LINE
8
F.Cu
6
CONTINUOUS
10
85.8044419999999946
20
-59.1011489999999995
11
85.769999999999996
21
-59.107999999999997
0
LINE
8
F.Cu
6
CONTINUOUS
10
85.769999999999996
20
-59.107999999999997
11
85.0499999999999972
21
-59.107999999999997
0
LINE
8
F.Cu
6
CONTINUOUS
10
85.0499999999999972
20
-59.107999999999997
11
85.0155579999999986
21
-59.1011489999999995
0
LINE
8
F.Cu
6
CONTINUOUS
10
85.0155579999999986
20
-59.1011489999999995
11
84.9863599999999906
21
-59.0816400000000002
0
LINE
8
F.Cu
6
CONTINUOUS
10
84.9863599999999906
20
-59.0816400000000002
11
84.9668509999999912
21
-59.0524419999999992
0
LINE
8
F.Cu
6
CONTINUOUS
10
84.9668509999999912
20
-59.0524419999999992
11
84.9599999999999937
21
-59.0180000000000007
0
LINE
8
F.Cu
6
CONTINUOUS
10
84.9599999999999937
20
-59.0180000000000007
11
84.9599999999999937
21
-57.6980000000000004
0
LINE
8
F.Cu
6
CONTINUOUS
10
84.9599999999999937
20
-57.6980000000000004
11
84.9668509999999912
21
-57.6635579999999948
0
LINE
8
F.Cu
6
CONTINUOUS
10
84.9668509999999912
20
-57.6635579999999948
11
84.9863599999999906
21
-57.6343600000000009
0
LINE
8
F.Cu
6
CONTINUOUS
10
84.9863599999999906
20
-57.6343600000000009
11
85.0155579999999986
21
-57.6148509999999945
0
LINE
8
F.Cu
6
CONTINUOUS
10
85.0155579999999986
20
-57.6148509999999945
11
85.0499999999999972
21
-57.607999999999997
0
LINE
8
F.Cu
6
CONTINUOUS
10
85.0499999999999972
20
-57.607999999999997
11
85.769999999999996
21
-57.607999999999997
0
LINE
8
F.Cu
6
CONTINUOUS
10
85.769999999999996
20
-57.607999999999997
11
85.8044419999999946
21
-57.6148509999999945
0
LINE
8
F.Cu
6
CONTINUOUS
10
85.8044419999999946
20
-57.6148509999999945
11
85.8336400000000026
21
-57.6343600000000009
0
LINE
8
F.Cu
6
CONTINUOUS
10
85.8336400000000026
20
-57.6343600000000009
11
85.8531490000000019
21
-57.6635579999999948
0
LINE
8
F.Cu
6
CONTINUOUS
10
85.8531490000000019
20
-57.6635579999999948
11
85.8599999999999994
21
-57.6980000000000004
0
LINE
8
F.Cu
6
CONTINUOUS
10
85.8599999999999994
20
-57.6980000000000004
11
85.8599999999999994
21
-57.824313999999994
0
LINE
8
F.Cu
6
CONTINUOUS
10
85.8599999999999994
20
-57.824313999999994
11
88.3100000000000023
21
-55.3743139999999983
0
LINE
8
F.Cu
6
CONTINUOUS
10
88.3100000000000023
20
-55.3743139999999983
11
88.3100000000000023
21
-55.0474350000000001
0
LINE
8
F.Cu
6
CONTINUOUS
10
88.3100000000000023
20
-55.0474350000000001
11
88.2863600000000019
21
-55.0316399999999959
0
LINE
8
F.Cu
6
CONTINUOUS
10
88.2863600000000019
20
-55.0316399999999959
11
88.2668510000000026
21
-55.0024419999999949
0
LINE
8
F.Cu
6
CONTINUOUS
10
88.2668510000000026
20
-55.0024419999999949
11
88.2599999999999909
21
-54.9679999999999964
0
LINE
8
F.Cu
6
CONTINUOUS
10
88.2599999999999909
20
-54.9679999999999964
11
88.2599999999999909
21
-53.6479999999999961
0
LINE
8
F.Cu
6
CONTINUOUS
10
88.2599999999999909
20
-53.6479999999999961
11
88.2668510000000026
21
-53.6135579999999976
0
LINE
8
F.Cu
6
CONTINUOUS
10
88.2668510000000026
20
-53.6135579999999976
11
88.2863600000000019
21
-53.5843599999999967
0
LINE
8
F.Cu
6
CONTINUOUS
10
88.2863600000000019
20
-53.5843599999999967
11
88.3155579999999958
21
-53.5648509999999973
0
LINE
8
F.Cu
6
CONTINUOUS
10
88.3155579999999958
20
-53.5648509999999973
11
88.3499999999999943
21
-53.5579999999999998
0
LINE
8
F.Cu
6
CONTINUOUS
10
88.3499999999999943
20
-53.5579999999999998
11
89.0699999999999932
21
-53.5579999999999998
0
LINE
8
F.Cu
6
CONTINUOUS
10
89.0699999999999932
20
-53.5579999999999998
11
89.1044419999999917
21
-53.5648509999999973
0
LINE
8
F.Cu
6
CONTINUOUS
10
55.8956710000000001
20
-48.0770300000000006
11
55.9767769999999985
21
-48.1312229999999985
0
LINE
8
F.Cu
6
CONTINUOUS
10
55.9767769999999985
20
-48.1312229999999985
11
56.0309699999999964
21
-48.2123289999999969
0
LINE
8
F.Cu
6
CONTINUOUS
10
56.0309699999999964
20
-48.2123289999999969
11
56.0499999999999972
21
-48.3079999999999998
0
LINE
8
F.Cu
6
CONTINUOUS
10
56.0499999999999972
20
-48.3079999999999998
11
56.0499999999999972
21
-49.5579999999999998
0
LINE
8
F.Cu
6
CONTINUOUS
10
56.0499999999999972
20
-49.5579999999999998
11
56.0309699999999964
21
-49.6536709999999957
0
LINE
8
F.Cu
6
CONTINUOUS
10
56.0309699999999964
20
-49.6536709999999957
11
55.9767769999999985
21
-49.7347770000000011
0
LINE
8
F.Cu
6
CONTINUOUS
10
55.9767769999999985
20
-49.7347770000000011
11
55.8956710000000001
21
-49.7889699999999991
0
LINE
8
F.Cu
6
CONTINUOUS
10
55.8956710000000001
20
-49.7889699999999991
11
55.7999999999999972
21
-49.8079999999999998
0
LINE
8
F.Cu
6
CONTINUOUS
10
55.7999999999999972
20
-49.8079999999999998
11
55.090685999999998
21
-49.8079999999999998
0
LINE
8
F.Cu
6
CONTINUOUS
10
55.090685999999998
20
-49.8079999999999998
11
53.8990000000000009
21
-50.999685999999997
0
LINE
8
F.Cu
6
CONTINUOUS
10
53.8990000000000009
20
-50.999685999999997
11
53.8990000000000009
21
-56.9454999999999956
0
LINE
8
F.Cu
6
CONTINUOUS
10
53.8990000000000009
20
-56.9454999999999956
11
54.
21
-56.9454999999999956
0
LINE
8
F.Cu
6
CONTINUOUS
10
54.
20
-56.9454999999999956
11
54.0574030000000008
21
-56.9569179999999946
0
LINE
8
F.Cu
6
CONTINUOUS
10
54.0574030000000008
20
-56.9569179999999946
11
54.1060659999999984
21
-56.9894339999999957
0
LINE
8
F.Cu
6
CONTINUOUS
10
54.1060659999999984
20
-56.9894339999999957
11
54.1385819999999995
21
-57.0380970000000005
0
LINE
8
F.Cu
6
CONTINUOUS
10
54.1385819999999995
20
-57.0380970000000005
11
54.1499999999999986
21
-57.0954999999999941
0
LINE
8
F.Cu
6
CONTINUOUS
10
54.1499999999999986
20
-57.0954999999999941
11
54.1499999999999986
21
-57.4197209999999956
0
LINE
8
F.Cu
6
CONTINUOUS
10
54.1499999999999986
20
-57.4197209999999956
11
54.1673410000000004
21
-57.4394950000000009
0
LINE
8
F.Cu
6
CONTINUOUS
10
54.1673410000000004
20
-57.4394950000000009
11
54.2195520000000002
21
-57.5299259999999961
0
LINE
8
F.Cu
6
CONTINUOUS
10
54.2195520000000002
20
-57.5299259999999961
11
54.2465779999999995
21
-57.6307899999999975
0
LINE
8
F.Cu
6
CONTINUOUS
10
54.2465779999999995
20
-57.6307899999999975
11
54.2465779999999995
21
-57.735209999999995
0
LINE
8
F.Cu
6
CONTINUOUS
10
54.2465779999999995
20
-57.735209999999995
11
54.2195520000000002
21
-57.8360739999999964
0
LINE
8
F.Cu
6
CONTINUOUS
10
54.2195520000000002
20
-57.8360739999999964
11
54.1673410000000004
21
-57.9265049999999988
0
LINE
8
F.Cu
6
CONTINUOUS
10
54.1673410000000004
20
-57.9265049999999988
11
54.1499999999999986
21
-57.9438460000000006
0
LINE
8
F.Cu
6
CONTINUOUS
10
54.1499999999999986
20
-57.9438460000000006
11
54.1499999999999986
21
-58.2704999999999984
0
LINE
8
F.Cu
6
CONTINUOUS
10
54.1499999999999986
20
-58.2704999999999984
11
54.1385819999999995
21
-58.3279029999999992
0
LINE
8
F.Cu
6
CONTINUOUS
10
54.1385819999999995
20
-58.3279029999999992
11
54.1060659999999984
21
-58.3765659999999968
0
LINE
8
F.Cu
6
CONTINUOUS
10
54.1060659999999984
20
-58.3765659999999968
11
54.0574030000000008
21
-58.4090819999999979
0
LINE
8
F.Cu
6
CONTINUOUS
10
54.0574030000000008
20
-58.4090819999999979
11
54.
21
-58.420499999999997
0
LINE
8
F.Cu
6
CONTINUOUS
10
54.
20
-58.420499999999997
11
53.6999999999999957
21
-58.420499999999997
0
LINE
8
F.Cu
6
CONTINUOUS
10
53.6999999999999957
20
-58.420499999999997
11
53.642596999999995
21
-58.4090819999999979
0
LINE
8
F.Cu
6
CONTINUOUS
10
53.642596999999995
20
-58.4090819999999979
11
53.5939339999999973
21
-58.3765659999999968
0
LINE
8
F.Cu
6
CONTINUOUS
10
53.5939339999999973
20
-58.3765659999999968
11
53.5614179999999962
21
-58.3279029999999992
0
LINE
8
F.Cu
6
CONTINUOUS
10
53.5614179999999962
20
-58.3279029999999992
11
53.5499999999999972
21
-58.2704999999999984
0
LINE
8
F.Cu
6
CONTINUOUS
10
53.5499999999999972
20
-58.2704999999999984
11
53.5499999999999972
21
-57.948685999999995
0
LINE
8
F.Cu
6
CONTINUOUS
10
53.5499999999999972
20
-57.948685999999995
11
53.2161569999999955
21
-57.6148430000000005
0
LINE
8
F.Cu
6
CONTINUOUS
10
53.2161569999999955
20
-57.6148430000000005
11
53.1816589999999962
21
-57.5755049999999997
0
LINE
8
F.Cu
6
CONTINUOUS
10
53.1816589999999962
20
-57.5755049999999997
11
53.1294479999999965
21
-57.4850739999999973
0
LINE
8
F.Cu
6
CONTINUOUS
10
53.1294479999999965
20
-57.4850739999999973
11
53.1024219999999971
21
-57.3842099999999959
0
LINE
8
F.Cu
6
CONTINUOUS
10
53.1024219999999971
20
-57.3842099999999959
11
53.0989999999999966
21
-57.3320000000000007
0
LINE
8
F.Cu
6
CONTINUOUS
10
53.0989999999999966
20
-57.3320000000000007
11
53.0989999999999966
21
-50.8339999999999961
0
LINE
8
F.Cu
6
CONTINUOUS
10
53.0989999999999966
20
-50.8339999999999961
11
53.1024219999999971
21
-50.7817900000000009
0
LINE
8
F.Cu
6
CONTINUOUS
10
53.1024219999999971
20
-50.7817900000000009
11
53.1294479999999965
21
-50.680926999999997
0
LINE
8
F.Cu
6
CONTINUOUS
10
53.1294479999999965
20
-50.680926999999997
11
53.1294479999999965
21
-50.6809259999999995
0
LINE
8
F.Cu
6
CONTINUOUS
10
53.1294479999999965
20
-50.6809259999999995
11
53.1816589999999962
21
-50.5904949999999971
0
LINE
8
F.Cu
6
CONTINUOUS
10
53.1816589999999962
20
-50.5904949999999971
11
53.2161569999999955
21
-50.5511569999999963
0
LINE
8
F.Cu
6
CONTINUOUS
10
53.2161569999999955
20
-50.5511569999999963
11
54.75
21
-49.0173139999999989
0
LINE
8
F.Cu
6
CONTINUOUS
10
54.75
20
-49.0173139999999989
11
54.75
21
-48.3079999999999998
0
LINE
8
F.Cu
6
CONTINUOUS
10
54.75
20
-48.3079999999999998
11
54.7690300000000008
21
-48.2123289999999969
0
LINE
8
F.Cu
6
CONTINUOUS
10
54.7690300000000008
20
-48.2123289999999969
11
54.8232229999999987
21
-48.1312229999999985
0
LINE
8
F.Cu
6
CONTINUOUS
10
54.8232229999999987
20
-48.1312229999999985
11
54.9043289999999971
21
-48.0770300000000006
0
LINE
8
F.Cu
6
CONTINUOUS
10
54.9043289999999971
20
-48.0770300000000006
11
55.
21
-48.0579999999999998
0
LINE
8
F.Cu
6
CONTINUOUS
10
55.
20
-48.0579999999999998
11
55.7999999999999972
21
-48.0579999999999998
0
LINE
8
F.Cu
6
CONTINUOUS
10
55.7999999999999972
20
-48.0579999999999998
11
55.8956710000000001
21
-48.0770300000000006
0
LINE
8
F.Cu
6
CONTINUOUS
10
63.3162829999999985
20
-55.6314269999999951
11
63.449624
21
-55.6811609999999959
0
LINE
8
F.Cu
6
CONTINUOUS
10
63.449624
20
-55.6811609999999959
11
63.5635529999999989
21
-55.7664469999999994
0
LINE
8
F.Cu
6
CONTINUOUS
10
63.5635529999999989
20
-55.7664469999999994
11
63.6488389999999953
21
-55.8803759999999983
0
LINE
8
F.Cu
6
CONTINUOUS
10
63.6488389999999953
20
-55.8803759999999983
11
63.6985729999999961
21
-56.0137169999999998
0
LINE
8
F.Cu
6
CONTINUOUS
10
63.6985729999999961
20
-56.0137169999999998
11
63.7099999999999937
21
-56.1199999999999974
0
LINE
8
F.Cu
6
CONTINUOUS
10
63.7099999999999937
20
-56.1199999999999974
11
63.7099999999999937
21
-57.1199999999999974
0
LINE
8
F.Cu
6
CONTINUOUS
10
63.7099999999999937
20
-57.1199999999999974
11
63.6985729999999961
21
-57.2262829999999951
0
LINE
8
F.Cu
6
CONTINUOUS
10
63.6985729999999961
20
-57.2262829999999951
11
63.6488389999999953
21
-57.3596239999999966
0
LINE
8
F.Cu
6
CONTINUOUS
10
63.6488389999999953
20
-57.3596239999999966
11
63.5635529999999989
21
-57.4735529999999954
0
LINE
8
F.Cu
6
CONTINUOUS
10
63.5635529999999989
20
-57.4735529999999954
11
63.449624
21
-57.558838999999999
0
LINE
8
F.Cu
6
CONTINUOUS
10
63.449624
20
-57.558838999999999
11
63.3162829999999985
21
-57.6085729999999998
0
LINE
8
F.Cu
6
CONTINUOUS
10
63.3162829999999985
20
-57.6085729999999998
11
63.2099999999999937
21
-57.6199999999999974
0
LINE
8
F.Cu
6
CONTINUOUS
10
63.2099999999999937
20
-57.6199999999999974
11
61.4599999999999937
21
-57.6199999999999974
0
LINE
8
F.Cu
6
CONTINUOUS
10
61.4599999999999937
20
-57.6199999999999974
11
61.3537169999999961
21
-57.6085729999999998
0
LINE
8
F.Cu
6
CONTINUOUS
10
61.3537169999999961
20
-57.6085729999999998
11
61.2203759999999946
21
-57.558838999999999
0
LINE
8
F.Cu
6
CONTINUOUS
10
61.2203759999999946
20
-57.558838999999999
11
61.1064469999999957
21
-57.4735529999999954
0
LINE
8
F.Cu
6
CONTINUOUS
10
61.1064469999999957
20
-57.4735529999999954
11
61.0211609999999993
21
-57.3596239999999966
0
LINE
8
F.Cu
6
CONTINUOUS
10
61.0211609999999993
20
-57.3596239999999966
11
60.9714269999999985
21
-57.2262829999999951
0
LINE
8
F.Cu
6
CONTINUOUS
10
60.9714269999999985
20
-57.2262829999999951
11
60.9599999999999937
21
-57.1199999999999974
0
LINE
8
F.Cu
6
CONTINUOUS
10
60.9599999999999937
20
-57.1199999999999974
11
60.9599999999999937
21
-56.1199999999999974
0
LINE
8
F.Cu
6
CONTINUOUS
10
60.9599999999999937
20
-56.1199999999999974
11
60.9714269999999985
21
-56.0137169999999998
0
LINE
8
F.Cu
6
CONTINUOUS
10
60.9714269999999985
20
-56.0137169999999998
11
61.0211609999999993
21
-55.8803759999999983
0
LINE
8
F.Cu
6
CONTINUOUS
10
61.0211609999999993
20
-55.8803759999999983
11
61.1064469999999957
21
-55.7664469999999994
0
LINE
8
F.Cu
6
CONTINUOUS
10
61.1064469999999957
20
-55.7664469999999994
11
61.2203759999999946
21
-55.6811609999999959
0
LINE
8
F.Cu
6
CONTINUOUS
10
61.2203759999999946
20
-55.6811609999999959
11
61.3537169999999961
21
-55.6314269999999951
0
LINE
8
F.Cu
6
CONTINUOUS
10
61.3537169999999961
20
-55.6314269999999951
11
61.4599999999999937
21
-55.6199999999999974
0
LINE
8
F.Cu
6
CONTINUOUS
10
61.4599999999999937
20
-55.6199999999999974
11
63.2099999999999937
21
-55.6199999999999974
0
LINE
8
F.Cu
6
CONTINUOUS
10
63.2099999999999937
20
-55.6199999999999974
11
63.3162829999999985
21
-55.6314269999999951
0
LINE
8
F.Cu
6
CONTINUOUS
10
79.4812829999999906
20
-55.6314269999999951
11
79.6146239999999921
21
-55.6811609999999959
0
LINE
8
F.Cu
6
CONTINUOUS
10
79.6146239999999921
20
-55.6811609999999959
11
79.7285529999999909
21
-55.7664469999999994
0
LINE
8
F.Cu
6
CONTINUOUS
10
79.7285529999999909
20
-55.7664469999999994
11
79.8138390000000015
21
-55.8803759999999983
0
LINE
8
F.Cu
6
CONTINUOUS
10
79.8138390000000015
20
-55.8803759999999983
11
79.8635730000000024
21
-56.0137169999999998
0
LINE
8
F.Cu
6
CONTINUOUS
10
79.8635730000000024
20
-56.0137169999999998
11
79.875
21
-56.1199999999999974
0
LINE
8
F.Cu
6
CONTINUOUS
10
79.875
20
-56.1199999999999974
11
79.875
21
-57.1199999999999974
0
LINE
8
F.Cu
6
CONTINUOUS
10
79.875
20
-57.1199999999999974
11
79.8635730000000024
21
-57.2262829999999951
0
LINE
8
F.Cu
6
CONTINUOUS
10
79.8635730000000024
20
-57.2262829999999951
11
79.8138390000000015
21
-57.3596239999999966
0
LINE
8
F.Cu
6
CONTINUOUS
10
79.8138390000000015
20
-57.3596239999999966
11
79.7285529999999909
21
-57.4735529999999954
0
LINE
8
F.Cu
6
CONTINUOUS
10
79.7285529999999909
20
-57.4735529999999954
11
79.6146239999999921
21
-57.558838999999999
0
LINE
8
F.Cu
6
CONTINUOUS
10
79.6146239999999921
20
-57.558838999999999
11
79.4812829999999906
21
-57.6085729999999998
0
LINE
8
F.Cu
6
CONTINUOUS
10
79.4812829999999906
20
-57.6085729999999998
11
79.375
21
-57.6199999999999974
0
LINE
8
F.Cu
6
CONTINUOUS
10
79.375
20
-57.6199999999999974
11
77.625
21
-57.6199999999999974
0
LINE
8
F.Cu
6
CONTINUOUS
10
77.625
20
-57.6199999999999974
11
77.5187169999999952
21
-57.6085729999999998
0
LINE
8
F.Cu
6
CONTINUOUS
10
77.5187169999999952
20
-57.6085729999999998
11
77.3853759999999937
21
-57.558838999999999
0
LINE
8
F.Cu
6
CONTINUOUS
10
77.3853759999999937
20
-57.558838999999999
11
77.2714469999999949
21
-57.4735529999999954
0
LINE
8
F.Cu
6
CONTINUOUS
10
77.2714469999999949
20
-57.4735529999999954
11
77.1861609999999985
21
-57.3596239999999966
0
LINE
8
F.Cu
6
CONTINUOUS
10
77.1861609999999985
20
-57.3596239999999966
11
77.1364269999999976
21
-57.2262829999999951
0
LINE
8
F.Cu
6
CONTINUOUS
10
77.1364269999999976
20
-57.2262829999999951
11
77.125
21
-57.1199999999999974
0
LINE
8
F.Cu
6
CONTINUOUS
10
77.125
20
-57.1199999999999974
11
77.125
21
-56.1199999999999974
0
LINE
8
F.Cu
6
CONTINUOUS
10
77.125
20
-56.1199999999999974
11
77.1364269999999976
21
-56.0137169999999998
0
LINE
8
F.Cu
6
CONTINUOUS
10
77.1364269999999976
20
-56.0137169999999998
11
77.1861609999999985
21
-55.8803759999999983
0
LINE
8
F.Cu
6
CONTINUOUS
10
77.1861609999999985
20
-55.8803759999999983
11
77.2714469999999949
21
-55.7664469999999994
0
LINE
8
F.Cu
6
CONTINUOUS
10
77.2714469999999949
20
-55.7664469999999994
11
77.3853759999999937
21
-55.6811609999999959
0
LINE
8
F.Cu
6
CONTINUOUS
10
77.3853759999999937
20
-55.6811609999999959
11
77.5187169999999952
21
-55.6314269999999951
0
LINE
8
F.Cu
6
CONTINUOUS
10
77.5187169999999952
20
-55.6314269999999951
11
77.625
21
-55.6199999999999974
0
LINE
8
F.Cu
6
CONTINUOUS
10
77.625
20
-55.6199999999999974
11
79.375
21
-55.6199999999999974
0
LINE
8
F.Cu
6
CONTINUOUS
10
79.375
20
-55.6199999999999974
11
79.4812829999999906
21
-55.6314269999999951
0
LINE
8
F.Cu
6
CONTINUOUS
10
55.8956710000000001
20
-51.0770300000000006
11
55.9767769999999985
21
-51.1312229999999985
0
LINE
8
F.Cu
6
CONTINUOUS
10
55.9767769999999985
20
-51.1312229999999985
11
56.0309699999999964
21
-51.2123289999999969
0
LINE
8
F.Cu
6
CONTINUOUS
10
56.0309699999999964
20
-51.2123289999999969
11
56.0499999999999972
21
-51.3079999999999998
0
LINE
8
F.Cu
6
CONTINUOUS
10
56.0499999999999972
20
-51.3079999999999998
11
56.0499999999999972
21
-52.5579999999999998
0
LINE
8
F.Cu
6
CONTINUOUS
10
56.0499999999999972
20
-52.5579999999999998
11
56.0309699999999964
21
-52.6536709999999957
0
LINE
8
F.Cu
6
CONTINUOUS
10
56.0309699999999964
20
-52.6536709999999957
11
55.9767769999999985
21
-52.7347770000000011
0
LINE
8
F.Cu
6
CONTINUOUS
10
55.9767769999999985
20
-52.7347770000000011
11
55.8956710000000001
21
-52.7889699999999991
0
LINE
8
F.Cu
6
CONTINUOUS
10
55.8956710000000001
20
-52.7889699999999991
11
55.7999999999999972
21
-52.8079999999999998
0
LINE
8
F.Cu
6
CONTINUOUS
10
55.7999999999999972
20
-52.8079999999999998
11
55.1999999999999957
21
-52.8079999999999998
0
LINE
8
F.Cu
6
CONTINUOUS
10
55.1999999999999957
20
-52.8079999999999998
11
55.1999999999999957
21
-55.8079999999999998
0
LINE
8
F.Cu
6
CONTINUOUS
10
55.1999999999999957
20
-55.8079999999999998
11
55.1965779999999953
21
-55.860209999999995
0
LINE
8
F.Cu
6
CONTINUOUS
10
55.1965779999999953
20
-55.860209999999995
11
55.1695519999999959
21
-55.961072999999999
0
LINE
8
F.Cu
6
CONTINUOUS
10
55.1695519999999959
20
-55.961072999999999
11
55.1173409999999961
21
-56.0515049999999988
0
LINE
8
F.Cu
6
CONTINUOUS
10
55.1173409999999961
20
-56.0515049999999988
11
55.0999999999999943
21
-56.0688460000000006
0
LINE
8
F.Cu
6
CONTINUOUS
10
55.0999999999999943
20
-56.0688460000000006
11
55.0999999999999943
21
-56.3954999999999984
0
LINE
8
F.Cu
6
CONTINUOUS
10
55.0999999999999943
20
-56.3954999999999984
11
55.0885819999999953
21
-56.4529029999999992
0
LINE
8
F.Cu
6
CONTINUOUS
10
55.0885819999999953
20
-56.4529029999999992
11
55.0560659999999942
21
-56.5015659999999968
0
LINE
8
F.Cu
6
CONTINUOUS
10
55.0560659999999942
20
-56.5015659999999968
11
55.0074029999999965
21
-56.5340819999999979
0
LINE
8
F.Cu
6
CONTINUOUS
10
55.0074029999999965
20
-56.5340819999999979
11
54.9499999999999957
21
-56.545499999999997
0
LINE
8
F.Cu
6
CONTINUOUS
10
54.9499999999999957
20
-56.545499999999997
11
54.6499999999999986
21
-56.545499999999997
0
LINE
8
F.Cu
6
CONTINUOUS
10
54.6499999999999986
20
-56.545499999999997
11
54.5925969999999978
21
-56.5340819999999979
0
LINE
8
F.Cu
6
CONTINUOUS
10
54.5925969999999978
20
-56.5340819999999979
11
54.5439340000000001
21
-56.5015659999999968
0
LINE
8
F.Cu
6
CONTINUOUS
10
54.5439340000000001
20
-56.5015659999999968
11
54.511417999999999
21
-56.4529029999999992
0
LINE
8
F.Cu
6
CONTINUOUS
10
54.511417999999999
20
-56.4529029999999992
11
54.5
21
-56.3954999999999984
0
LINE
8
F.Cu
6
CONTINUOUS
10
54.5
20
-56.3954999999999984
11
54.5
21
-56.0688460000000006
0
LINE
8
F.Cu
6
CONTINUOUS
10
54.5
20
-56.0688460000000006
11
54.4826589999999982
21
-56.0515049999999988
0
LINE
8
F.Cu
6
CONTINUOUS
10
54.4826589999999982
20
-56.0515049999999988
11
54.4304479999999984
21
-55.961072999999999
0
LINE
8
F.Cu
6
CONTINUOUS
10
54.4304479999999984
20
-55.961072999999999
11
54.4034219999999991
21
-55.860209999999995
0
LINE
8
F.Cu
6
CONTINUOUS
10
54.4034219999999991
20
-55.860209999999995
11
54.3999999999999986
21
-55.8079999999999998
0
LINE
8
F.Cu
6
CONTINUOUS
10
54.3999999999999986
20
-55.8079999999999998
11
54.3999999999999986
21
-52.3829999999999956
0
LINE
8
F.Cu
6
CONTINUOUS
10
54.3999999999999986
20
-52.3829999999999956
11
54.4034219999999991
21
-52.3307900000000004
0
LINE
8
F.Cu
6
CONTINUOUS
10
54.4034219999999991
20
-52.3307900000000004
11
54.4304479999999984
21
-52.2299269999999964
0
LINE
8
F.Cu
6
CONTINUOUS
10
54.4304479999999984
20
-52.2299269999999964
11
54.4304479999999984
21
-52.229925999999999
0
LINE
8
F.Cu
6
CONTINUOUS
10
54.4304479999999984
20
-52.229925999999999
11
54.4826589999999982
21
-52.1394949999999966
0
LINE
8
F.Cu
6
CONTINUOUS
10
54.4826589999999982
20
-52.1394949999999966
11
54.5171569999999974
21
-52.1001569999999958
0
LINE
8
F.Cu
6
CONTINUOUS
10
54.5171569999999974
20
-52.1001569999999958
11
54.75
21
-51.8673140000000004
0
LINE
8
F.Cu
6
CONTINUOUS
10
54.75
20
-51.8673140000000004
11
54.75
21
-51.3079999999999998
0
LINE
8
F.Cu
6
CONTINUOUS
10
54.75
20
-51.3079999999999998
11
54.7690300000000008
21
-51.2123289999999969
0
LINE
8
F.Cu
6
CONTINUOUS
10
54.7690300000000008
20
-51.2123289999999969
11
54.8232229999999987
21
-51.1312229999999985
0
LINE
8
F.Cu
6
CONTINUOUS
10
54.8232229999999987
20
-51.1312229999999985
11
54.9043289999999971
21
-51.0770300000000006
0
LINE
8
F.Cu
6
CONTINUOUS
10
54.9043289999999971
20
-51.0770300000000006
11
55.
21
-51.0579999999999998
0
LINE
8
F.Cu
6
CONTINUOUS
10
55.
20
-51.0579999999999998
11
55.7999999999999972
21
-51.0579999999999998
0
LINE
8
F.Cu
6
CONTINUOUS
10
55.7999999999999972
20
-51.0579999999999998
11
55.8956710000000001
21
-51.0770300000000006
0
LINE
8
F.Cu
6
CONTINUOUS
10
58.9956709999999944
20
-51.0770300000000006
11
59.0767769999999999
21
-51.1312229999999985
0
LINE
8
F.Cu
6
CONTINUOUS
10
59.0767769999999999
20
-51.1312229999999985
11
59.1309699999999978
21
-51.2123289999999969
0
LINE
8
F.Cu
6
CONTINUOUS
10
59.1309699999999978
20
-51.2123289999999969
11
59.1499999999999986
21
-51.3079999999999998
0
LINE
8
F.Cu
6
CONTINUOUS
10
59.1499999999999986
20
-51.3079999999999998
11
59.1499999999999986
21
-52.5579999999999998
0
LINE
8
F.Cu
6
CONTINUOUS
10
59.1499999999999986
20
-52.5579999999999998
11
59.1309699999999978
21
-52.6536709999999957
0
LINE
8
F.Cu
6
CONTINUOUS
10
59.1309699999999978
20
-52.6536709999999957
11
59.0767769999999999
21
-52.7347770000000011
0
LINE
8
F.Cu
6
CONTINUOUS
10
59.0767769999999999
20
-52.7347770000000011
11
58.9956709999999944
21
-52.7889699999999991
0
LINE
8
F.Cu
6
CONTINUOUS
10
58.9956709999999944
20
-52.7889699999999991
11
58.8999999999999986
21
-52.8079999999999998
0
LINE
8
F.Cu
6
CONTINUOUS
10
58.8999999999999986
20
-52.8079999999999998
11
58.8999999999999986
21
-53.9013139999999993
0
LINE
8
F.Cu
6
CONTINUOUS
10
58.8999999999999986
20
-53.9013139999999993
11
59.059156999999999
21
-53.7421569999999988
0
LINE
8
F.Cu
6
CONTINUOUS
10
59.059156999999999
20
-53.7421569999999988
11
59.0984949999999998
21
-53.7076589999999996
0
LINE
8
F.Cu
6
CONTINUOUS
10
59.0984949999999998
20
-53.7076589999999996
11
59.188925999999995
21
-53.6554479999999998
0
LINE
8
F.Cu
6
CONTINUOUS
10
59.188925999999995
20
-53.6554479999999998
11
59.2897899999999964
21
-53.6284220000000005
0
LINE
8
F.Cu
6
CONTINUOUS
10
59.2897899999999964
20
-53.6284220000000005
11
59.3419999999999987
21
-53.625
0
LINE
8
F.Cu
6
CONTINUOUS
10
59.3419999999999987
20
-53.625
11
60.9599999999999937
21
-53.625
0
LINE
8
F.Cu
6
CONTINUOUS
10
60.9599999999999937
20
-53.625
11
60.9599999999999937
21
-53.5799999999999983
0
LINE
8
F.Cu
6
CONTINUOUS
10
60.9599999999999937
20
-53.5799999999999983
11
60.9714269999999985
21
-53.4737170000000006
0
LINE
8
F.Cu
6
CONTINUOUS
10
60.9714269999999985
20
-53.4737170000000006
11
61.0211609999999993
21
-53.3403759999999991
0
LINE
8
F.Cu
6
CONTINUOUS
10
61.0211609999999993
20
-53.3403759999999991
11
61.1064469999999957
21
-53.2264470000000003
0
LINE
8
F.Cu
6
CONTINUOUS
10
61.1064469999999957
20
-53.2264470000000003
11
61.2203759999999946
21
-53.1411609999999968
0
LINE
8
F.Cu
6
CONTINUOUS
10
61.2203759999999946
20
-53.1411609999999968
11
61.3537169999999961
21
-53.0914269999999959
0
LINE
8
F.Cu
6
CONTINUOUS
10
61.3537169999999961
20
-53.0914269999999959
11
61.4599999999999937
21
-53.0799999999999983
0
LINE
8
F.Cu
6
CONTINUOUS
10
61.4599999999999937
20
-53.0799999999999983
11
63.2099999999999937
21
-53.0799999999999983
0
LINE
8
F.Cu
6
CONTINUOUS
10
63.2099999999999937
20
-53.0799999999999983
11
63.3162829999999985
21
-53.0914269999999959
0
LINE
8
F.Cu
6
CONTINUOUS
10
63.3162829999999985
20
-53.0914269999999959
11
63.449624
21
-53.1411609999999968
0
LINE
8
F.Cu
6
CONTINUOUS
10
63.449624
20
-53.1411609999999968
11
63.5635529999999989
21
-53.2264470000000003
0
LINE
8
F.Cu
6
CONTINUOUS
10
63.5635529999999989
20
-53.2264470000000003
11
63.6488389999999953
21
-53.3403759999999991
0
LINE
8
F.Cu
6
CONTINUOUS
10
63.6488389999999953
20
-53.3403759999999991
11
63.6985729999999961
21
-53.4737170000000006
0
LINE
8
F.Cu
6
CONTINUOUS
10
63.6985729999999961
20
-53.4737170000000006
11
63.7099999999999937
21
-53.5799999999999983
0
LINE
8
F.Cu
6
CONTINUOUS
10
63.7099999999999937
20
-53.5799999999999983
11
63.7099999999999937
21
-54.5799999999999983
0
LINE
8
F.Cu
6
CONTINUOUS
10
63.7099999999999937
20
-54.5799999999999983
11
63.6985729999999961
21
-54.686282999999996
0
LINE
8
F.Cu
6
CONTINUOUS
10
63.6985729999999961
20
-54.686282999999996
11
63.6488389999999953
21
-54.8196239999999975
0
LINE
8
F.Cu
6
CONTINUOUS
10
63.6488389999999953
20
-54.8196239999999975
11
63.5635529999999989
21
-54.9335529999999963
0
LINE
8
F.Cu
6
CONTINUOUS
10
63.5635529999999989
20
-54.9335529999999963
11
63.449624
21
-55.0188389999999998
0
LINE
8
F.Cu
6
CONTINUOUS
10
63.449624
20
-55.0188389999999998
11
63.3162829999999985
21
-55.0685730000000007
0
LINE
8
F.Cu
6
CONTINUOUS
10
63.3162829999999985
20
-55.0685730000000007
11
63.2099999999999937
21
-55.0799999999999983
0
LINE
8
F.Cu
6
CONTINUOUS
10
63.2099999999999937
20
-55.0799999999999983
11
61.4599999999999937
21
-55.0799999999999983
0
LINE
8
F.Cu
6
CONTINUOUS
10
61.4599999999999937
20
-55.0799999999999983
11
61.3537169999999961
21
-55.0685730000000007
0
LINE
8
F.Cu
6
CONTINUOUS
10
61.3537169999999961
20
-55.0685730000000007
11
61.2203759999999946
21
-55.0188389999999998
0
LINE
8
F.Cu
6
CONTINUOUS
10
61.2203759999999946
20
-55.0188389999999998
11
61.1064469999999957
21
-54.9335529999999963
0
LINE
8
F.Cu
6
CONTINUOUS
10
61.1064469999999957
20
-54.9335529999999963
11
61.0211609999999993
21
-54.8196239999999975
0
LINE
8
F.Cu
6
CONTINUOUS
10
61.0211609999999993
20
-54.8196239999999975
11
60.9714269999999985
21
-54.686282999999996
0
LINE
8
F.Cu
6
CONTINUOUS
10
60.9714269999999985
20
-54.686282999999996
11
60.9599999999999937
21
-54.5799999999999983
0
LINE
8
F.Cu
6
CONTINUOUS
10
60.9599999999999937
20
-54.5799999999999983
11
60.9599999999999937
21
-54.4249999999999972
0
LINE
8
F.Cu
6
CONTINUOUS
10
60.9599999999999937
20
-54.4249999999999972
11
59.5076859999999996
21
-54.4249999999999972
0
LINE
8
F.Cu
6
CONTINUOUS
10
59.5076859999999996
20
-54.4249999999999972
11
59.3316909999999993
21
-54.600994
0
LINE
8
F.Cu
6
CONTINUOUS
10
59.3316909999999993
20
-54.600994
11
59.3559699999999992
21
-54.637328999999994
0
LINE
8
F.Cu
6
CONTINUOUS
10
59.3559699999999992
20
-54.637328999999994
11
59.375
21
-54.732999999999997
0
LINE
8
F.Cu
6
CONTINUOUS
10
59.375
20
-54.732999999999997
11
59.375
21
-55.5329999999999941
0
LINE
8
F.Cu
6
CONTINUOUS
10
59.375
20
-55.5329999999999941
11
59.3559699999999992
21
-55.6286709999999971
0
LINE
8
F.Cu
6
CONTINUOUS
10
59.3559699999999992
20
-55.6286709999999971
11
59.3017769999999942
21
-55.7097769999999954
0
LINE
8
F.Cu
6
CONTINUOUS
10
59.3017769999999942
20
-55.7097769999999954
11
59.2206709999999958
21
-55.7639700000000005
0
LINE
8
F.Cu
6
CONTINUOUS
10
59.2206709999999958
20
-55.7639700000000005
11
59.125
21
-55.7829999999999941
0
LINE
8
F.Cu
6
CONTINUOUS
10
59.125
20
-55.7829999999999941
11
57.875
21
-55.7829999999999941
0
LINE
8
F.Cu
6
CONTINUOUS
10
57.875
20
-55.7829999999999941
11
57.7793289999999971
21
-55.7639700000000005
0
LINE
8
F.Cu
6
CONTINUOUS
10
57.7793289999999971
20
-55.7639700000000005
11
57.6982229999999987
21
-55.7097769999999954
0
LINE
8
F.Cu
6
CONTINUOUS
10
57.6982229999999987
20
-55.7097769999999954
11
57.6440300000000008
21
-55.6286709999999971
0
LINE
8
F.Cu
6
CONTINUOUS
10
57.6440300000000008
20
-55.6286709999999971
11
57.625
21
-55.5329999999999941
0
LINE
8
F.Cu
6
CONTINUOUS
10
57.625
20
-55.5329999999999941
11
57.625
21
-54.732999999999997
0
LINE
8
F.Cu
6
CONTINUOUS
10
57.625
20
-54.732999999999997
11
57.6440300000000008
21
-54.637328999999994
0
LINE
8
F.Cu
6
CONTINUOUS
10
57.6440300000000008
20
-54.637328999999994
11
57.6982229999999987
21
-54.5562229999999957
0
LINE
8
F.Cu
6
CONTINUOUS
10
57.6982229999999987
20
-54.5562229999999957
11
57.7793289999999971
21
-54.5020299999999978
0
LINE
8
F.Cu
6
CONTINUOUS
10
57.7793289999999971
20
-54.5020299999999978
11
57.875
21
-54.482999999999997
0
LINE
8
F.Cu
6
CONTINUOUS
10
57.875
20
-54.482999999999997
11
58.0999999999999943
21
-54.482999999999997
0
LINE
8
F.Cu
6
CONTINUOUS
10
58.0999999999999943
20
-54.482999999999997
11
58.0999999999999943
21
-52.8079999999999998
0
LINE
8
F.Cu
6
CONTINUOUS
10
58.0999999999999943
20
-52.8079999999999998
11
58.0043289999999985
21
-52.7889699999999991
0
LINE
8
F.Cu
6
CONTINUOUS
10
58.0043289999999985
20
-52.7889699999999991
11
57.9232230000000001
21
-52.7347770000000011
0
LINE
8
F.Cu
6
CONTINUOUS
10
57.9232230000000001
20
-52.7347770000000011
11
57.8690299999999951
21
-52.6536709999999957
0
LINE
8
F.Cu
6
CONTINUOUS
10
57.8690299999999951
20
-52.6536709999999957
11
57.8499999999999943
21
-52.5579999999999998
0
LINE
8
F.Cu
6
CONTINUOUS
10
57.8499999999999943
20
-52.5579999999999998
11
57.8499999999999943
21
-51.3079999999999998
0
LINE
8
F.Cu
6
CONTINUOUS
10
57.8499999999999943
20
-51.3079999999999998
11
57.8690299999999951
21
-51.2123289999999969
0
LINE
8
F.Cu
6
CONTINUOUS
10
57.8690299999999951
20
-51.2123289999999969
11
57.9232230000000001
21
-51.1312229999999985
0
LINE
8
F.Cu
6
CONTINUOUS
10
57.9232230000000001
20
-51.1312229999999985
11
58.0043289999999985
21
-51.0770300000000006
0
LINE
8
F.Cu
6
CONTINUOUS
10
58.0043289999999985
20
-51.0770300000000006
11
58.0999999999999943
21
-51.0579999999999998
0
LINE
8
F.Cu
6
CONTINUOUS
10
58.0999999999999943
20
-51.0579999999999998
11
58.8999999999999986
21
-51.0579999999999998
0
LINE
8
F.Cu
6
CONTINUOUS
10
58.8999999999999986
20
-51.0579999999999998
11
58.9956709999999944
21
-51.0770300000000006
0
LINE
8
F.Cu
6
CONTINUOUS
10
63.3162829999999985
20
-48.0114269999999976
11
63.449624
21
-48.0611609999999985
0
LINE
8
F.Cu
6
CONTINUOUS
10
63.449624
20
-48.0611609999999985
11
63.5635529999999989
21
-48.1464469999999949
0
LINE
8
F.Cu
6
CONTINUOUS
10
63.5635529999999989
20
-48.1464469999999949
11
63.6488389999999953
21
-48.2603760000000008
0
LINE
8
F.Cu
6
CONTINUOUS
10
63.6488389999999953
20
-48.2603760000000008
11
63.6985729999999961
21
-48.3937169999999952
0
LINE
8
F.Cu
6
CONTINUOUS
10
63.6985729999999961
20
-48.3937169999999952
11
63.7099999999999937
21
-48.5
0
LINE
8
F.Cu
6
CONTINUOUS
10
63.7099999999999937
20
-48.5
11
63.7099999999999937
21
-49.5
0
LINE
8
F.Cu
6
CONTINUOUS
10
63.7099999999999937
20
-49.5
11
63.6985729999999961
21
-49.6062829999999977
0
LINE
8
F.Cu
6
CONTINUOUS
10
63.6985729999999961
20
-49.6062829999999977
11
63.6488389999999953
21
-49.7396239999999992
0
LINE
8
F.Cu
6
CONTINUOUS
10
63.6488389999999953
20
-49.7396239999999992
11
63.5635529999999989
21
-49.853552999999998
0
LINE
8
F.Cu
6
CONTINUOUS
10
63.5635529999999989
20
-49.853552999999998
11
63.449624
21
-49.9388389999999944
0
LINE
8
F.Cu
6
CONTINUOUS
10
63.449624
20
-49.9388389999999944
11
63.3162829999999985
21
-49.9885729999999953
0
LINE
8
F.Cu
6
CONTINUOUS
10
63.3162829999999985
20
-49.9885729999999953
11
63.2099999999999937
21
-50.
0
LINE
8
F.Cu
6
CONTINUOUS
10
63.2099999999999937
20
-50.
11
61.4599999999999937
21
-50.
0
LINE
8
F.Cu
6
CONTINUOUS
10
61.4599999999999937
20
-50.
11
61.3537169999999961
21
-49.9885729999999953
0
LINE
8
F.Cu
6
CONTINUOUS
10
61.3537169999999961
20
-49.9885729999999953
11
61.2203759999999946
21
-49.9388389999999944
0
LINE
8
F.Cu
6
CONTINUOUS
10
61.2203759999999946
20
-49.9388389999999944
11
61.1064469999999957
21
-49.853552999999998
0
LINE
8
F.Cu
6
CONTINUOUS
10
61.1064469999999957
20
-49.853552999999998
11
61.0211609999999993
21
-49.7396239999999992
0
LINE
8
F.Cu
6
CONTINUOUS
10
61.0211609999999993
20
-49.7396239999999992
11
60.9714269999999985
21
-49.6062829999999977
0
LINE
8
F.Cu
6
CONTINUOUS
10
60.9714269999999985
20
-49.6062829999999977
11
60.9599999999999937
21
-49.5
0
LINE
8
F.Cu
6
CONTINUOUS
10
60.9599999999999937
20
-49.5
11
60.9599999999999937
21
-49.3449999999999989
0
LINE
8
F.Cu
6
CONTINUOUS
10
60.9599999999999937
20
-49.3449999999999989
11
59.1499999999999986
21
-49.3449999999999989
0
LINE
8
F.Cu
6
CONTINUOUS
10
59.1499999999999986
20
-49.3449999999999989
11
59.1499999999999986
21
-49.5579999999999998
0
LINE
8
F.Cu
6
CONTINUOUS
10
59.1499999999999986
20
-49.5579999999999998
11
59.1309699999999978
21
-49.6536709999999957
0
LINE
8
F.Cu
6
CONTINUOUS
10
59.1309699999999978
20
-49.6536709999999957
11
59.0767769999999999
21
-49.7347770000000011
0
LINE
8
F.Cu
6
CONTINUOUS
10
59.0767769999999999
20
-49.7347770000000011
11
58.9956709999999944
21
-49.7889699999999991
0
LINE
8
F.Cu
6
CONTINUOUS
10
58.9956709999999944
20
-49.7889699999999991
11
58.8999999999999986
21
-49.8079999999999998
0
LINE
8
F.Cu
6
CONTINUOUS
10
58.8999999999999986
20
-49.8079999999999998
11
58.0999999999999943
21
-49.8079999999999998
0
LINE
8
F.Cu
6
CONTINUOUS
10
58.0999999999999943
20
-49.8079999999999998
11
58.0043289999999985
21
-49.7889699999999991
0
LINE
8
F.Cu
6
CONTINUOUS
10
58.0043289999999985
20
-49.7889699999999991
11
57.9232230000000001
21
-49.7347770000000011
0
LINE
8
F.Cu
6
CONTINUOUS
10
57.9232230000000001
20
-49.7347770000000011
11
57.8690299999999951
21
-49.6536709999999957
0
LINE
8
F.Cu
6
CONTINUOUS
10
57.8690299999999951
20
-49.6536709999999957
11
57.8499999999999943
21
-49.5579999999999998
0
LINE
8
F.Cu
6
CONTINUOUS
10
57.8499999999999943
20
-49.5579999999999998
11
57.8499999999999943
21
-48.3079999999999998
0
LINE
8
F.Cu
6
CONTINUOUS
10
57.8499999999999943
20
-48.3079999999999998
11
57.8690299999999951
21
-48.2123289999999969
0
LINE
8
F.Cu
6
CONTINUOUS
10
57.8690299999999951
20
-48.2123289999999969
11
57.9232230000000001
21
-48.1312229999999985
0
LINE
8
F.Cu
6
CONTINUOUS
10
57.9232230000000001
20
-48.1312229999999985
11
58.0043289999999985
21
-48.0770300000000006
0
LINE
8
F.Cu
6
CONTINUOUS
10
58.0043289999999985
20
-48.0770300000000006
11
58.0999999999999943
21
-48.0579999999999998
0
LINE
8
F.Cu
6
CONTINUOUS
10
58.0999999999999943
20
-48.0579999999999998
11
58.8999999999999986
21
-48.0579999999999998
0
LINE
8
F.Cu
6
CONTINUOUS
10
58.8999999999999986
20
-48.0579999999999998
11
58.9956709999999944
21
-48.0770300000000006
0
LINE
8
F.Cu
6
CONTINUOUS
10
58.9956709999999944
20
-48.0770300000000006
11
59.0767769999999999
21
-48.1312229999999985
0
LINE
8
F.Cu
6
CONTINUOUS
10
59.0767769999999999
20
-48.1312229999999985
11
59.1309699999999978
21
-48.2123289999999969
0
LINE
8
F.Cu
6
CONTINUOUS
10
59.1309699999999978
20
-48.2123289999999969
11
59.1499999999999986
21
-48.3079999999999998
0
LINE
8
F.Cu
6
CONTINUOUS
10
59.1499999999999986
20
-48.3079999999999998
11
59.1499999999999986
21
-48.5449999999999946
0
LINE
8
F.Cu
6
CONTINUOUS
10
59.1499999999999986
20
-48.5449999999999946
11
60.9599999999999937
21
-48.5449999999999946
0
LINE
8
F.Cu
6
CONTINUOUS
10
60.9599999999999937
20
-48.5449999999999946
11
60.9599999999999937
21
-48.5
0
LINE
8
F.Cu
6
CONTINUOUS
10
60.9599999999999937
20
-48.5
11
60.9714269999999985
21
-48.3937169999999952
0
LINE
8
F.Cu
6
CONTINUOUS
10
60.9714269999999985
20
-48.3937169999999952
11
61.0211609999999993
21
-48.2603760000000008
0
LINE
8
F.Cu
6
CONTINUOUS
10
61.0211609999999993
20
-48.2603760000000008
11
61.1064469999999957
21
-48.1464469999999949
0
LINE
8
F.Cu
6
CONTINUOUS
10
61.1064469999999957
20
-48.1464469999999949
11
61.2203759999999946
21
-48.0611609999999985
0
LINE
8
F.Cu
6
CONTINUOUS
10
61.2203759999999946
20
-48.0611609999999985
11
61.3537169999999961
21
-48.0114269999999976
0
LINE
8
F.Cu
6
CONTINUOUS
10
61.3537169999999961
20
-48.0114269999999976
11
61.4599999999999937
21
-48.
0
LINE
8
F.Cu
6
CONTINUOUS
10
61.4599999999999937
20
-48.
11
63.2099999999999937
21
-48.
0
LINE
8
F.Cu
6
CONTINUOUS
10
63.2099999999999937
20
-48.
11
63.3162829999999985
21
-48.0114269999999976
0
LINE
8
F.Cu
6
CONTINUOUS
10
79.4812829999999906
20
-48.0114269999999976
11
79.6146239999999921
21
-48.0611609999999985
0
LINE
8
F.Cu
6
CONTINUOUS
10
79.6146239999999921
20
-48.0611609999999985
11
79.7285529999999909
21
-48.1464469999999949
0
LINE
8
F.Cu
6
CONTINUOUS
10
79.7285529999999909
20
-48.1464469999999949
11
79.8138390000000015
21
-48.2603760000000008
0
LINE
8
F.Cu
6
CONTINUOUS
10
79.8138390000000015
20
-48.2603760000000008
11
79.8635730000000024
21
-48.3937169999999952
0
LINE
8
F.Cu
6
CONTINUOUS
10
79.8635730000000024
20
-48.3937169999999952
11
79.875
21
-48.5
0
LINE
8
F.Cu
6
CONTINUOUS
10
79.875
20
-48.5
11
79.875
21
-49.5
0
LINE
8
F.Cu
6
CONTINUOUS
10
79.875
20
-49.5
11
79.8635730000000024
21
-49.6062829999999977
0
LINE
8
F.Cu
6
CONTINUOUS
10
79.8635730000000024
20
-49.6062829999999977
11
79.8138390000000015
21
-49.7396239999999992
0
LINE
8
F.Cu
6
CONTINUOUS
10
79.8138390000000015
20
-49.7396239999999992
11
79.7285529999999909
21
-49.853552999999998
0
LINE
8
F.Cu
6
CONTINUOUS
10
79.7285529999999909
20
-49.853552999999998
11
79.6146239999999921
21
-49.9388389999999944
0
LINE
8
F.Cu
6
CONTINUOUS
10
79.6146239999999921
20
-49.9388389999999944
11
79.4812829999999906
21
-49.9885729999999953
0
LINE
8
F.Cu
6
CONTINUOUS
10
79.4812829999999906
20
-49.9885729999999953
11
79.375
21
-50.
0
LINE
8
F.Cu
6
CONTINUOUS
10
79.375
20
-50.
11
77.625
21
-50.
0
LINE
8
F.Cu
6
CONTINUOUS
10
77.625
20
-50.
11
77.5187169999999952
21
-49.9885729999999953
0
LINE
8
F.Cu
6
CONTINUOUS
10
77.5187169999999952
20
-49.9885729999999953
11
77.3853759999999937
21
-49.9388389999999944
0
LINE
8
F.Cu
6
CONTINUOUS
10
77.3853759999999937
20
-49.9388389999999944
11
77.2714469999999949
21
-49.853552999999998
0
LINE
8
F.Cu
6
CONTINUOUS
10
77.2714469999999949
20
-49.853552999999998
11
77.1861609999999985
21
-49.7396239999999992
0
LINE
8
F.Cu
6
CONTINUOUS
10
77.1861609999999985
20
-49.7396239999999992
11
77.1364269999999976
21
-49.6062829999999977
0
LINE
8
F.Cu
6
CONTINUOUS
10
77.1364269999999976
20
-49.6062829999999977
11
77.125
21
-49.5
0
LINE
8
F.Cu
6
CONTINUOUS
10
77.125
20
-49.5
11
77.125
21
-48.5
0
LINE
8
F.Cu
6
CONTINUOUS
10
77.125
20
-48.5
11
77.1364269999999976
21
-48.3937169999999952
0
LINE
8
F.Cu
6
CONTINUOUS
10
77.1364269999999976
20
-48.3937169999999952
11
77.1861609999999985
21
-48.2603760000000008
0
LINE
8
F.Cu
6
CONTINUOUS
10
77.1861609999999985
20
-48.2603760000000008
11
77.2714469999999949
21
-48.1464469999999949
0
LINE
8
F.Cu
6
CONTINUOUS
10
77.2714469999999949
20
-48.1464469999999949
11
77.3853759999999937
21
-48.0611609999999985
0
LINE
8
F.Cu
6
CONTINUOUS
10
77.3853759999999937
20
-48.0611609999999985
11
77.5187169999999952
21
-48.0114269999999976
0
LINE
8
F.Cu
6
CONTINUOUS
10
77.5187169999999952
20
-48.0114269999999976
11
77.625
21
-48.
0
LINE
8
F.Cu
6
CONTINUOUS
10
77.625
20
-48.
11
79.375
21
-48.
0
LINE
8
F.Cu
6
CONTINUOUS
10
79.375
20
-48.
11
79.4812829999999906
21
-48.0114269999999976
0
LINE
8
F.Cu
6
CONTINUOUS
10
88.3305000000000007
20
-45.5549999999999997
11
88.6466989999999981
21
-45.5715709999999987
0
LINE
8
F.Cu
6
CONTINUOUS
10
88.6466989999999981
20
-45.5715709999999987
11
88.95943299999999
21
-45.6211039999999954
0
LINE
8
F.Cu
6
CONTINUOUS
10
88.95943299999999
20
-45.6211039999999954
11
89.2652760000000001
21
-45.7030539999999945
0
LINE
8
F.Cu
6
CONTINUOUS
10
89.2652760000000001
20
-45.7030539999999945
11
89.5608780000000024
21
-45.8165249999999986
0
LINE
8
F.Cu
6
CONTINUOUS
10
89.5608780000000024
20
-45.8165249999999986
11
89.8429999999999893
21
-45.9602739999999983
0
LINE
8
F.Cu
6
CONTINUOUS
10
89.8429999999999893
20
-45.9602739999999983
11
90.1085499999999939
21
-46.1327239999999961
0
LINE
8
F.Cu
6
CONTINUOUS
10
90.1085499999999939
20
-46.1327239999999961
11
90.354619999999997
21
-46.331986999999998
0
LINE
8
F.Cu
6
CONTINUOUS
10
90.354619999999997
20
-46.331986999999998
11
90.5785130000000009
21
-46.5558799999999948
0
LINE
8
F.Cu
6
CONTINUOUS
10
90.5785130000000009
20
-46.5558799999999948
11
90.7777760000000029
21
-46.8019499999999979
0
LINE
8
F.Cu
6
CONTINUOUS
10
90.7777760000000029
20
-46.8019499999999979
11
90.9502260000000007
21
-47.0674999999999955
0
LINE
8
F.Cu
6
CONTINUOUS
10
90.9502260000000007
20
-47.0674999999999955
11
91.0939750000000004
21
-47.3496219999999965
0
LINE
8
F.Cu
6
CONTINUOUS
10
91.0939750000000004
20
-47.3496219999999965
11
91.2074459999999902
21
-47.6452239999999989
0
LINE
8
F.Cu
6
CONTINUOUS
10
91.2074459999999902
20
-47.6452239999999989
11
91.2893959999999964
21
-47.9510669999999948
0
LINE
8
F.Cu
6
CONTINUOUS
10
91.2893959999999964
20
-47.9510669999999948
11
91.3389289999999932
21
-48.2638010000000008
0
LINE
8
F.Cu
6
CONTINUOUS
10
91.3389289999999932
20
-48.2638010000000008
11
91.3554999999999922
21
-48.5799999999999983
0
LINE
8
F.Cu
6
CONTINUOUS
10
91.3554999999999922
20
-48.5799999999999983
11
91.3554999999999922
21
-63.3373579999999947
0
LINE
8
F.Cu
6
CONTINUOUS
10
91.3554999999999922
20
-63.3373579999999947
11
91.3409410000000008
21
-63.6338620000000006
0
LINE
8
F.Cu
6
CONTINUOUS
10
91.3409410000000008
20
-63.6338620000000006
11
91.2973870000000005
21
-63.9275099999999981
0
LINE
8
F.Cu
6
CONTINUOUS
10
91.2973870000000005
20
-63.9275099999999981
11
91.2252589999999941
21
-64.2154740000000004
0
LINE
8
F.Cu
6
CONTINUOUS
10
91.2252589999999941
20
-64.2154740000000004
11
91.1252499999999941
21
-64.4949819999999931
0
LINE
8
F.Cu
6
CONTINUOUS
10
91.1252499999999941
20
-64.4949819999999931
11
90.9983249999999941
21
-64.7633399999999995
0
LINE
8
F.Cu
6
CONTINUOUS
10
90.9983249999999941
20
-64.7633399999999995
11
90.8457059999999927
21
-65.0179650000000038
0
LINE
8
F.Cu
6
CONTINUOUS
10
90.8457059999999927
20
-65.0179650000000038
11
90.6688630000000018
21
-65.2564019999999942
0
LINE
8
F.Cu
6
CONTINUOUS
10
90.6688630000000018
20
-65.2564019999999942
11
90.469498999999999
21
-65.4763549999999981
0
LINE
8
F.Cu
6
CONTINUOUS
10
90.469498999999999
20
-65.4763549999999981
11
90.469498999999999
21
-65.4763559999999956
0
LINE
8
F.Cu
6
CONTINUOUS
10
90.469498999999999
20
-65.4763559999999956
11
82.2268579999999929
21
-73.7189979999999991
0
LINE
8
F.Cu
6
CONTINUOUS
10
82.2268579999999929
20
-73.7189979999999991
11
82.226854000000003
21
-73.7189999999999941
0
LINE
8
F.Cu
6
CONTINUOUS
10
82.226854000000003
20
-73.7189999999999941
11
82.0068929999999909
21
-73.9183479999999946
0
LINE
8
F.Cu
6
CONTINUOUS
10
82.0068929999999909
20
-73.9183479999999946
11
81.7684500000000014
21
-74.0951799999999992
0
LINE
8
F.Cu
6
CONTINUOUS
10
81.7684500000000014
20
-74.0951799999999992
11
81.5138249999999971
21
-74.2477919999999898
0
LINE
8
F.Cu
6
CONTINUOUS
10
81.5138249999999971
20
-74.2477919999999898
11
81.2454680000000025
21
-74.3747139999999973
0
LINE
8
F.Cu
6
CONTINUOUS
10
81.2454680000000025
20
-74.3747139999999973
11
80.9659639999999996
21
-74.4747229999999973
0
LINE
8
F.Cu
6
CONTINUOUS
10
80.9659639999999996
20
-74.4747229999999973
11
80.6780029999999897
21
-74.5468580000000003
0
LINE
8
F.Cu
6
CONTINUOUS
10
80.6780029999999897
20
-74.5468580000000003
11
80.3843600000000009
21
-74.5904239999999987
0
LINE
8
F.Cu
6
CONTINUOUS
10
80.3843600000000009
20
-74.5904239999999987
11
80.0878599999999921
21
-74.6049999999999898
0
LINE
8
F.Cu
6
CONTINUOUS
10
80.0878599999999921
20
-74.6049999999999898
11
80.0878589999999946
21
-74.6049989999999923
0
LINE
8
F.Cu
6
CONTINUOUS
10
80.0878589999999946
20
-74.6049989999999923
11
80.0878589999999946
21
-74.6049999999999898
0
LINE
8
F.Cu
6
CONTINUOUS
10
80.0878589999999946
20
-74.6049999999999898
11
60.5731409999999997
21
-74.6049999999999898
0
LINE
8
F.Cu
6
CONTINUOUS
10
60.5731409999999997
20
-74.6049999999999898
11
60.5731399999999951
21
-74.6049989999999923
0
LINE
8
F.Cu
6
CONTINUOUS
10
60.5731399999999951
20
-74.6049989999999923
11
60.5731399999999951
21
-74.6049999999999898
0
LINE
8
F.Cu
6
CONTINUOUS
10
60.5731399999999951
20
-74.6049999999999898
11
60.2766400000000004
21
-74.5904280000000028
0
LINE
8
F.Cu
6
CONTINUOUS
10
60.2766400000000004
20
-74.5904280000000028
11
59.9829949999999954
21
-74.5468649999999968
0
LINE
8
F.Cu
6
CONTINUOUS
10
59.9829949999999954
20
-74.5468649999999968
11
59.6950339999999997
21
-74.474732000000003
0
LINE
8
F.Cu
6
CONTINUOUS
10
59.6950339999999997
20
-74.474732000000003
11
59.4155279999999948
21
-74.374723000000003
0
LINE
8
F.Cu
6
CONTINUOUS
10
59.4155279999999948
20
-74.374723000000003
11
59.1471710000000002
21
-74.247799999999998
0
LINE
8
F.Cu
6
CONTINUOUS
10
59.1471710000000002
20
-74.247799999999998
11
58.8925459999999958
21
-74.0951869999999957
0
LINE
8
F.Cu
6
CONTINUOUS
10
58.8925459999999958
20
-74.0951869999999957
11
58.6541039999999967
21
-73.9183519999999987
0
LINE
8
F.Cu
6
CONTINUOUS
10
58.6541039999999967
20
-73.9183519999999987
11
58.4341429999999988
21
-73.7189979999999991
0
LINE
8
F.Cu
6
CONTINUOUS
10
58.4341429999999988
20
-73.7189979999999991
11
50.1915009999999953
21
-65.476356999999993
0
LINE
8
F.Cu
6
CONTINUOUS
10
50.1915009999999953
20
-65.476356999999993
11
50.1914999999999978
21
-65.4763559999999956
0
LINE
8
F.Cu
6
CONTINUOUS
10
50.1914999999999978
20
-65.4763559999999956
11
49.9921429999999987
21
-65.2563979999999901
0
LINE
8
F.Cu
6
CONTINUOUS
10
49.9921429999999987
20
-65.2563979999999901
11
49.8153039999999976
21
-65.0179589999999905
0
LINE
8
F.Cu
6
CONTINUOUS
10
49.8153039999999976
20
-65.0179589999999905
11
49.6626879999999957
21
-64.7633340000000004
0
LINE
8
F.Cu
6
CONTINUOUS
10
49.6626879999999957
20
-64.7633340000000004
11
49.5357640000000004
21
-64.4949759999999941
0
LINE
8
F.Cu
6
CONTINUOUS
10
49.5357640000000004
20
-64.4949759999999941
11
49.4357550000000003
21
-64.2154699999999963
0
LINE
8
F.Cu
6
CONTINUOUS
10
49.4357550000000003
20
-64.2154699999999963
11
49.3636239999999944
21
-63.9275069999999985
0
LINE
8
F.Cu
6
CONTINUOUS
10
49.3636239999999944
20
-63.9275069999999985
11
49.3200659999999971
21
-63.633860999999996
0
LINE
8
F.Cu
6
CONTINUOUS
10
49.3200659999999971
20
-63.633860999999996
11
49.305499999999995
21
-63.3373589999999993
0
LINE
8
F.Cu
6
CONTINUOUS
10
49.305499999999995
20
-63.3373589999999993
11
49.305499999999995
21
-63.3373579999999947
0
LINE
8
F.Cu
6
CONTINUOUS
10
49.305499999999995
20
-63.3373579999999947
11
49.305499999999995
21
-48.5799999999999983
0
LINE
8
F.Cu
6
CONTINUOUS
10
49.305499999999995
20
-48.5799999999999983
11
49.3220710000000011
21
-48.2638010000000008
0
LINE
8
F.Cu
6
CONTINUOUS
10
49.3220710000000011
20
-48.2638010000000008
11
49.3716039999999978
21
-47.9510669999999948
0
LINE
8
F.Cu
6
CONTINUOUS
10
49.3716039999999978
20
-47.9510669999999948
11
49.4535539999999969
21
-47.6452239999999989
0
LINE
8
F.Cu
6
CONTINUOUS
10
49.4535539999999969
20
-47.6452239999999989
11
49.567025000000001
21
-47.3496219999999965
0
LINE
8
F.Cu
6
CONTINUOUS
10
49.567025000000001
20
-47.3496219999999965
11
49.7107740000000007
21
-47.0674999999999955
0
LINE
8
F.Cu
6
CONTINUOUS
10
49.7107740000000007
20
-47.0674999999999955
11
49.8832239999999985
21
-46.8019499999999979
0
LINE
8
F.Cu
6
CONTINUOUS
10
49.8832239999999985
20
-46.8019499999999979
11
50.0824870000000004
21
-46.5558799999999948
0
LINE
8
F.Cu
6
CONTINUOUS
10
50.0824870000000004
20
-46.5558799999999948
11
50.3063799999999972
21
-46.331986999999998
0
LINE
8
F.Cu
6
CONTINUOUS
10
50.3063799999999972
20
-46.331986999999998
11
50.5524500000000003
21
-46.1327239999999961
0
LINE
8
F.Cu
6
CONTINUOUS
10
50.5524500000000003
20
-46.1327239999999961
11
50.8179999999999978
21
-45.9602739999999983
0
LINE
8
F.Cu
6
CONTINUOUS
10
50.8179999999999978
20
-45.9602739999999983
11
51.1001219999999989
21
-45.8165249999999986
0
LINE
8
F.Cu
6
CONTINUOUS
10
51.1001219999999989
20
-45.8165249999999986
11
51.3957239999999942
21
-45.7030539999999945
0
LINE
8
F.Cu
6
CONTINUOUS
10
51.3957239999999942
20
-45.7030539999999945
11
51.7015669999999972
21
-45.6211039999999954
0
LINE
8
F.Cu
6
CONTINUOUS
10
51.7015669999999972
20
-45.6211039999999954
11
52.0143009999999961
21
-45.5715709999999987
0
LINE
8
F.Cu
6
CONTINUOUS
10
52.0143009999999961
20
-45.5715709999999987
11
52.3305000000000007
21
-45.5549999999999997
0
LINE
8
F.Cu
6
CONTINUOUS
10
52.3305000000000007
20
-45.5549999999999997
11
88.3305000000000007
21
-45.5549999999999997
0
LINE
8
F.Cu
6
CONTINUOUS
10
52.3305000000000007
20
-45.6049999999999969
11
52.1745869999999954
21
-45.6049999999999969
0
LINE
8
F.Cu
6
CONTINUOUS
10
52.1745869999999954
20
-45.6049999999999969
11
51.8644689999999997
21
-45.6375949999999975
0
LINE
8
F.Cu
6
CONTINUOUS
10
51.8644689999999997
20
-45.6375949999999975
11
51.5594569999999948
21
-45.7024270000000001
0
LINE
8
F.Cu
6
CONTINUOUS
10
51.5594569999999948
20
-45.7024270000000001
11
51.2628920000000008
21
-45.7987869999999972
0
LINE
8
F.Cu
6
CONTINUOUS
10
51.2628920000000008
20
-45.7987869999999972
11
50.9780249999999953
21
-45.9256180000000001
0
LINE
8
F.Cu
6
CONTINUOUS
10
50.9780249999999953
20
-45.9256180000000001
11
50.7079749999999976
21
-46.0815309999999982
0
LINE
8
F.Cu
6
CONTINUOUS
10
50.7079749999999976
20
-46.0815309999999982
11
50.4557029999999997
21
-46.2648179999999982
0
LINE
8
F.Cu
6
CONTINUOUS
10
50.4557029999999997
20
-46.2648179999999982
11
50.2239709999999988
21
-46.4734709999999964
0
LINE
8
F.Cu
6
CONTINUOUS
10
50.2239709999999988
20
-46.4734709999999964
11
50.0153180000000006
21
-46.7052029999999974
0
LINE
8
F.Cu
6
CONTINUOUS
10
50.0153180000000006
20
-46.7052029999999974
11
49.8320310000000006
21
-46.9574749999999952
0
LINE
8
F.Cu
6
CONTINUOUS
10
49.8320310000000006
20
-46.9574749999999952
11
49.6761179999999953
21
-47.227525
0
LINE
8
F.Cu
6
CONTINUOUS
10
49.6761179999999953
20
-47.227525
11
49.5492869999999996
21
-47.5123919999999984
0
LINE
8
F.Cu
6
CONTINUOUS
10
49.5492869999999996
20
-47.5123919999999984
11
49.4529269999999954
21
-47.8089569999999995
0
LINE
8
F.Cu
6
CONTINUOUS
10
49.4529269999999954
20
-47.8089569999999995
11
49.3880949999999999
21
-48.1139689999999973
0
LINE
8
F.Cu
6
CONTINUOUS
10
49.3880949999999999
20
-48.1139689999999973
11
49.3554999999999993
21
-48.4240870000000001
0
LINE
8
F.Cu
6
CONTINUOUS
10
49.3554999999999993
20
-48.4240870000000001
11
49.3554999999999993
21
-48.5799999999999983
0
LINE
8
F.Cu
6
CONTINUOUS
10
49.3554999999999993
20
-48.5799999999999983
11
49.3554999999999993
21
-63.3373579999999947
0
LINE
8
F.Cu
6
CONTINUOUS
10
49.3554999999999993
20
-63.3373579999999947
11
49.3554999999999993
21
-63.3373589999999993
0
LINE
8
F.Cu
6
CONTINUOUS
10
49.3554999999999993
20
-63.3373589999999993
11
49.3554999999999993
21
-63.483511
0
LINE
8
F.Cu
6
CONTINUOUS
10
49.3554999999999993
20
-63.483511
11
49.3841509999999957
21
-63.7744089999999986
0
LINE
8
F.Cu
6
CONTINUOUS
10
49.3841509999999957
20
-63.7744089999999986
11
49.4411759999999987
21
-64.0610970000000037
0
LINE
8
F.Cu
6
CONTINUOUS
10
49.4411759999999987
20
-64.0610970000000037
11
49.5260279999999966
21
-64.3408149999999921
0
LINE
8
F.Cu
6
CONTINUOUS
10
49.5260279999999966
20
-64.3408149999999921
11
49.6378879999999967
21
-64.6108689999999939
0
LINE
8
F.Cu
6
CONTINUOUS
10
49.6378879999999967
20
-64.6108689999999939
11
49.7756789999999967
21
-64.8686589999999939
0
LINE
8
F.Cu
6
CONTINUOUS
10
49.7756789999999967
20
-64.8686589999999939
11
49.9380749999999978
21
-65.111701999999994
0
LINE
8
F.Cu
6
CONTINUOUS
10
49.9380749999999978
20
-65.111701999999994
11
50.1235110000000006
21
-65.3376559999999955
0
LINE
8
F.Cu
6
CONTINUOUS
10
50.1235110000000006
20
-65.3376559999999955
11
50.2268569999999954
21
-65.441001
0
LINE
8
F.Cu
6
CONTINUOUS
10
50.2268569999999954
20
-65.441001
11
58.4694969999999969
21
-73.6836419999999919
0
LINE
8
F.Cu
6
CONTINUOUS
10
58.4694969999999969
20
-73.6836419999999919
11
58.5728439999999964
21
-73.7869850000000014
0
LINE
8
F.Cu
6
CONTINUOUS
10
58.5728439999999964
20
-73.7869850000000014
11
58.7988019999999949
21
-73.972416999999993
0
LINE
8
F.Cu
6
CONTINUOUS
10
58.7988019999999949
20
-73.972416999999993
11
59.0418459999999996
21
-74.13480899999999
0
LINE
8
F.Cu
6
CONTINUOUS
10
59.0418459999999996
20
-74.13480899999999
11
59.2996359999999996
21
-74.2725989999999996
0
LINE
8
F.Cu
6
CONTINUOUS
10
59.2996359999999996
20
-74.2725989999999996
11
59.5696889999999968
21
-74.3844589999999926
0
LINE
8
F.Cu
6
CONTINUOUS
10
59.5696889999999968
20
-74.3844589999999926
11
59.8494069999999994
21
-74.4693120000000022
0
LINE
8
F.Cu
6
CONTINUOUS
10
59.8494069999999994
20
-74.4693120000000022
11
60.1360929999999954
21
-74.5263410000000022
0
LINE
8
F.Cu
6
CONTINUOUS
10
60.1360929999999954
20
-74.5263410000000022
11
60.4269899999999964
21
-74.5549970000000002
0
LINE
8
F.Cu
6
CONTINUOUS
10
60.4269899999999964
20
-74.5549970000000002
11
60.5731419999999972
21
-74.5549999999999926
0
LINE
8
F.Cu
6
CONTINUOUS
10
60.5731419999999972
20
-74.5549999999999926
11
80.0878579999999971
21
-74.5549999999999926
0
LINE
8
F.Cu
6
CONTINUOUS
10
80.0878579999999971
20
-74.5549999999999926
11
80.2340099999999978
21
-74.554994999999991
0
LINE
8
F.Cu
6
CONTINUOUS
10
80.2340099999999978
20
-74.554994999999991
11
80.5249049999999897
21
-74.5263350000000031
0
LINE
8
F.Cu
6
CONTINUOUS
10
80.5249049999999897
20
-74.5263350000000031
11
80.8115909999999928
21
-74.4693039999999939
0
LINE
8
F.Cu
6
CONTINUOUS
10
80.8115909999999928
20
-74.4693039999999939
11
81.0913070000000005
21
-74.3844500000000011
0
LINE
8
F.Cu
6
CONTINUOUS
10
81.0913070000000005
20
-74.3844500000000011
11
81.3613599999999906
21
-74.2725899999999939
0
LINE
8
F.Cu
6
CONTINUOUS
10
81.3613599999999906
20
-74.2725899999999939
11
81.6191499999999905
21
-74.1348019999999934
0
LINE
8
F.Cu
6
CONTINUOUS
10
81.6191499999999905
20
-74.1348019999999934
11
81.8621949999999998
21
-73.9724119999999914
0
LINE
8
F.Cu
6
CONTINUOUS
10
81.8621949999999998
20
-73.9724119999999914
11
82.088154000000003
21
-73.7869829999999922
0
LINE
8
F.Cu
6
CONTINUOUS
10
82.088154000000003
20
-73.7869829999999922
11
82.1914989999999932
21
-73.6836449999999985
0
LINE
8
F.Cu
6
CONTINUOUS
10
82.1914989999999932
20
-73.6836449999999985
11
82.1915019999999998
21
-73.6836419999999919
0
LINE
8
F.Cu
6
CONTINUOUS
10
82.1915019999999998
20
-73.6836419999999919
11
90.4341439999999892
21
-65.441001
0
LINE
8
F.Cu
6
CONTINUOUS
10
90.4341439999999892
20
-65.441001
11
90.5374920000000003
21
-65.3376579999999905
0
LINE
8
F.Cu
6
CONTINUOUS
10
90.5374920000000003
20
-65.3376579999999905
11
90.7229329999999976
21
-65.1117059999999981
0
LINE
8
F.Cu
6
CONTINUOUS
10
90.7229329999999976
20
-65.1117059999999981
11
90.8853319999999911
21
-64.8686649999999929
0
LINE
8
F.Cu
6
CONTINUOUS
10
90.8853319999999911
20
-64.8686649999999929
11
91.0231259999999907
21
-64.610874999999993
0
LINE
8
F.Cu
6
CONTINUOUS
10
91.0231259999999907
20
-64.610874999999993
11
91.1349859999999978
21
-64.3408199999999937
0
LINE
8
F.Cu
6
CONTINUOUS
10
91.1349859999999978
20
-64.3408199999999937
11
91.2198360000000008
21
-64.0611009999999936
0
LINE
8
F.Cu
6
CONTINUOUS
10
91.2198360000000008
20
-64.0611009999999936
11
91.2768590000000017
21
-63.7744110000000006
0
LINE
8
F.Cu
6
CONTINUOUS
10
91.2768590000000017
20
-63.7744110000000006
11
91.3055039999999991
21
-63.4835119999999975
0
LINE
8
F.Cu
6
CONTINUOUS
10
91.3055039999999991
20
-63.4835119999999975
11
91.305499999999995
21
-63.3373599999999968
0
LINE
8
F.Cu
6
CONTINUOUS
10
91.305499999999995
20
-63.3373599999999968
11
91.305499999999995
21
-63.3373589999999993
0
LINE
8
F.Cu
6
CONTINUOUS
10
91.305499999999995
20
-63.3373589999999993
11
91.305499999999995
21
-48.5799999999999983
0
LINE
8
F.Cu
6
CONTINUOUS
10
91.305499999999995
20
-48.5799999999999983
11
91.305499999999995
21
-48.4240870000000001
0
LINE
8
F.Cu
6
CONTINUOUS
10
91.305499999999995
20
-48.4240870000000001
11
91.2729049999999944
21
-48.1139689999999973
0
LINE
8
F.Cu
6
CONTINUOUS
10
91.2729049999999944
20
-48.1139689999999973
11
91.2080729999999988
21
-47.8089569999999995
0
LINE
8
F.Cu
6
CONTINUOUS
10
91.2080729999999988
20
-47.8089569999999995
11
91.1117129999999946
21
-47.5123919999999984
0
LINE
8
F.Cu
6
CONTINUOUS
10
91.1117129999999946
20
-47.5123919999999984
11
90.9848819999999989
21
-47.227525
0
LINE
8
F.Cu
6
CONTINUOUS
10
90.9848819999999989
20
-47.227525
11
90.8289690000000007
21
-46.9574749999999952
0
LINE
8
F.Cu
6
CONTINUOUS
10
90.8289690000000007
20
-46.9574749999999952
11
90.6456819999999936
21
-46.7052029999999974
0
LINE
8
F.Cu
6
CONTINUOUS
10
90.6456819999999936
20
-46.7052029999999974
11
90.4370289999999954
21
-46.4734709999999964
0
LINE
8
F.Cu
6
CONTINUOUS
10
90.4370289999999954
20
-46.4734709999999964
11
90.2052970000000016
21
-46.2648179999999982
0
LINE
8
F.Cu
6
CONTINUOUS
10
90.2052970000000016
20
-46.2648179999999982
11
89.9530249999999967
21
-46.0815309999999982
0
LINE
8
F.Cu
6
CONTINUOUS
10
89.9530249999999967
20
-46.0815309999999982
11
89.682974999999999
21
-45.9256180000000001
0
LINE
8
F.Cu
6
CONTINUOUS
10
89.682974999999999
20
-45.9256180000000001
11
89.3981079999999935
21
-45.7987869999999972
0
LINE
8
F.Cu
6
CONTINUOUS
10
89.3981079999999935
20
-45.7987869999999972
11
89.1015429999999924
21
-45.7024270000000001
0
LINE
8
F.Cu
6
CONTINUOUS
10
89.1015429999999924
20
-45.7024270000000001
11
88.7965310000000017
21
-45.6375949999999975
0
LINE
8
F.Cu
6
CONTINUOUS
10
88.7965310000000017
20
-45.6375949999999975
11
88.4864129999999989
21
-45.6049999999999969
0
LINE
8
F.Cu
6
CONTINUOUS
10
88.4864129999999989
20
-45.6049999999999969
11
88.3305000000000007
21
-45.6049999999999969
0
LINE
8
F.Cu
6
CONTINUOUS
10
88.3305000000000007
20
-45.6049999999999969
11
52.3305000000000007
21
-45.6049999999999969
  0
ENDSEC
  0
EOF
