  0
SECTION
  2
HEADER
  9
$ANGBASE
  50
0.0
  9
$ANGDIR
  70
1
  9
$MEASUREMENT
  70
1
  9
$INSUNITS
  70
4
  0
ENDSEC
  0
SECTION
  2
TABLES
  0
TABLE
  2
LTYPE
  70
4
  0
LTYPE
  5
40F
  2
CONTINUOUS
  70
0
  3
Solid line
  72
65
  73
0
  40
0.0
  0
LTYPE
  5
410
  2
DASHDOT
 70
0
  3
Dash Dot ____ _ ____ _
 72
65
 73
4
 40
2.0
 49
1.25
 49
-0.25
 49
0.25
 49
-0.25
  0
LTYPE
  5
411
  2
DASHED
 70
0
  3
Dashed __ __ __ __ __
 72
65
 73
2
 40
0.75
 49
0.5
 49
-0.25
  0
LTYPE
  5
43B
  2
DOTTED
 70
0
  3
Dotted .  .  .  .
 72
65
 73
2
 40
0.2
 49
0.0
 49
-0.2
  0
ENDTAB
  0
TABLE
  2
STYLE
  70
4
  0
STYLE
  2
KICAD
  70
0
  40
0
  41
1
  42
1
  50
0
  71
0
  3
isocp.shx
  0
STYLE
  2
KICADB
  70
0
  40
0
  41
1
  42
1
  50
0
  71
0
  3
isocp.shx
  0
STYLE
  2
KICADI
  70
0
  40
0
  41
1
  42
1
  50
15
  71
0
  3
isocp.shx
  0
STYLE
  2
KICADBI
  70
0
  40
0
  41
1
  42
1
  50
15
  71
0
  3
isocp.shx
  0
ENDTAB
  0
TABLE
  2
LAYER
  70
2
  0
LAYER
  2
F.Cu
  70
0
  62
13
  420
13120564
  6
CONTINUOUS
  0
LAYER
  2
Edge.Cuts
  70
0
  62
254
  420
13685453
  6
CONTINUOUS
  0
ENDTAB
  0
ENDSEC
  0
SECTION
  2
ENTITIES
0
LINE
8
Edge.Cuts
6
CONTINUOUS
10
88.3305000000000007
20
-45.5549999999999997
11
88.6466989999999981
21
-45.5715709999999987
0
LINE
8
Edge.Cuts
6
CONTINUOUS
10
88.6466989999999981
20
-45.5715709999999987
11
88.95943299999999
21
-45.6211039999999954
0
LINE
8
Edge.Cuts
6
CONTINUOUS
10
88.95943299999999
20
-45.6211039999999954
11
89.2652760000000001
21
-45.7030539999999945
0
LINE
8
Edge.Cuts
6
CONTINUOUS
10
89.2652760000000001
20
-45.7030539999999945
11
89.5608780000000024
21
-45.8165249999999986
0
LINE
8
Edge.Cuts
6
CONTINUOUS
10
89.5608780000000024
20
-45.8165249999999986
11
89.8429999999999893
21
-45.9602739999999983
0
LINE
8
Edge.Cuts
6
CONTINUOUS
10
89.8429999999999893
20
-45.9602739999999983
11
90.1085499999999939
21
-46.1327239999999961
0
LINE
8
Edge.Cuts
6
CONTINUOUS
10
90.1085499999999939
20
-46.1327239999999961
11
90.354619999999997
21
-46.331986999999998
0
LINE
8
Edge.Cuts
6
CONTINUOUS
10
90.354619999999997
20
-46.331986999999998
11
90.5785130000000009
21
-46.5558799999999948
0
LINE
8
Edge.Cuts
6
CONTINUOUS
10
90.5785130000000009
20
-46.5558799999999948
11
90.7777760000000029
21
-46.8019499999999979
0
LINE
8
Edge.Cuts
6
CONTINUOUS
10
90.7777760000000029
20
-46.8019499999999979
11
90.9502260000000007
21
-47.0674999999999955
0
LINE
8
Edge.Cuts
6
CONTINUOUS
10
90.9502260000000007
20
-47.0674999999999955
11
91.0939750000000004
21
-47.3496219999999965
0
LINE
8
Edge.Cuts
6
CONTINUOUS
10
91.0939750000000004
20
-47.3496219999999965
11
91.2074459999999902
21
-47.6452239999999989
0
LINE
8
Edge.Cuts
6
CONTINUOUS
10
91.2074459999999902
20
-47.6452239999999989
11
91.2893959999999964
21
-47.9510669999999948
0
LINE
8
Edge.Cuts
6
CONTINUOUS
10
91.2893959999999964
20
-47.9510669999999948
11
91.3389289999999932
21
-48.2638010000000008
0
LINE
8
Edge.Cuts
6
CONTINUOUS
10
91.3389289999999932
20
-48.2638010000000008
11
91.3554999999999922
21
-48.5799999999999983
0
LINE
8
Edge.Cuts
6
CONTINUOUS
10
91.3554999999999922
20
-48.5799999999999983
11
91.3554999999999922
21
-63.3373579999999947
0
LINE
8
Edge.Cuts
6
CONTINUOUS
10
91.3554999999999922
20
-63.3373579999999947
11
91.3409410000000008
21
-63.6338620000000006
0
LINE
8
Edge.Cuts
6
CONTINUOUS
10
91.3409410000000008
20
-63.6338620000000006
11
91.2973870000000005
21
-63.9275099999999981
0
LINE
8
Edge.Cuts
6
CONTINUOUS
10
91.2973870000000005
20
-63.9275099999999981
11
91.2252589999999941
21
-64.2154740000000004
0
LINE
8
Edge.Cuts
6
CONTINUOUS
10
91.2252589999999941
20
-64.2154740000000004
11
91.1252499999999941
21
-64.4949819999999931
0
LINE
8
Edge.Cuts
6
CONTINUOUS
10
91.1252499999999941
20
-64.4949819999999931
11
90.9983249999999941
21
-64.7633399999999995
0
LINE
8
Edge.Cuts
6
CONTINUOUS
10
90.9983249999999941
20
-64.7633399999999995
11
90.8457059999999927
21
-65.0179650000000038
0
LINE
8
Edge.Cuts
6
CONTINUOUS
10
90.8457059999999927
20
-65.0179650000000038
11
90.6688630000000018
21
-65.2564019999999942
0
LINE
8
Edge.Cuts
6
CONTINUOUS
10
90.6688630000000018
20
-65.2564019999999942
11
90.469498999999999
21
-65.4763549999999981
0
LINE
8
Edge.Cuts
6
CONTINUOUS
10
90.469498999999999
20
-65.4763549999999981
11
90.469498999999999
21
-65.4763559999999956
0
LINE
8
Edge.Cuts
6
CONTINUOUS
10
90.469498999999999
20
-65.4763559999999956
11
82.2268579999999929
21
-73.7189979999999991
0
LINE
8
Edge.Cuts
6
CONTINUOUS
10
82.2268579999999929
20
-73.7189979999999991
11
82.226854000000003
21
-73.7189999999999941
0
LINE
8
Edge.Cuts
6
CONTINUOUS
10
82.226854000000003
20
-73.7189999999999941
11
82.0068929999999909
21
-73.9183479999999946
0
LINE
8
Edge.Cuts
6
CONTINUOUS
10
82.0068929999999909
20
-73.9183479999999946
11
81.7684500000000014
21
-74.0951799999999992
0
LINE
8
Edge.Cuts
6
CONTINUOUS
10
81.7684500000000014
20
-74.0951799999999992
11
81.5138249999999971
21
-74.2477919999999898
0
LINE
8
Edge.Cuts
6
CONTINUOUS
10
81.5138249999999971
20
-74.2477919999999898
11
81.2454680000000025
21
-74.3747139999999973
0
LINE
8
Edge.Cuts
6
CONTINUOUS
10
81.2454680000000025
20
-74.3747139999999973
11
80.9659639999999996
21
-74.4747229999999973
0
LINE
8
Edge.Cuts
6
CONTINUOUS
10
80.9659639999999996
20
-74.4747229999999973
11
80.6780029999999897
21
-74.5468580000000003
0
LINE
8
Edge.Cuts
6
CONTINUOUS
10
80.6780029999999897
20
-74.5468580000000003
11
80.3843600000000009
21
-74.5904239999999987
0
LINE
8
Edge.Cuts
6
CONTINUOUS
10
80.3843600000000009
20
-74.5904239999999987
11
80.0878599999999921
21
-74.6049999999999898
0
LINE
8
Edge.Cuts
6
CONTINUOUS
10
80.0878599999999921
20
-74.6049999999999898
11
80.0878589999999946
21
-74.6049989999999923
0
LINE
8
Edge.Cuts
6
CONTINUOUS
10
80.0878589999999946
20
-74.6049989999999923
11
80.0878589999999946
21
-74.6049999999999898
0
LINE
8
Edge.Cuts
6
CONTINUOUS
10
80.0878589999999946
20
-74.6049999999999898
11
60.5731409999999997
21
-74.6049999999999898
0
LINE
8
Edge.Cuts
6
CONTINUOUS
10
60.5731409999999997
20
-74.6049999999999898
11
60.5731399999999951
21
-74.6049989999999923
0
LINE
8
Edge.Cuts
6
CONTINUOUS
10
60.5731399999999951
20
-74.6049989999999923
11
60.5731399999999951
21
-74.6049999999999898
0
LINE
8
Edge.Cuts
6
CONTINUOUS
10
60.5731399999999951
20
-74.6049999999999898
11
60.2766400000000004
21
-74.5904280000000028
0
LINE
8
Edge.Cuts
6
CONTINUOUS
10
60.2766400000000004
20
-74.5904280000000028
11
59.9829949999999954
21
-74.5468649999999968
0
LINE
8
Edge.Cuts
6
CONTINUOUS
10
59.9829949999999954
20
-74.5468649999999968
11
59.6950339999999997
21
-74.474732000000003
0
LINE
8
Edge.Cuts
6
CONTINUOUS
10
59.6950339999999997
20
-74.474732000000003
11
59.4155279999999948
21
-74.374723000000003
0
LINE
8
Edge.Cuts
6
CONTINUOUS
10
59.4155279999999948
20
-74.374723000000003
11
59.1471710000000002
21
-74.247799999999998
0
LINE
8
Edge.Cuts
6
CONTINUOUS
10
59.1471710000000002
20
-74.247799999999998
11
58.8925459999999958
21
-74.0951869999999957
0
LINE
8
Edge.Cuts
6
CONTINUOUS
10
58.8925459999999958
20
-74.0951869999999957
11
58.6541039999999967
21
-73.9183519999999987
0
LINE
8
Edge.Cuts
6
CONTINUOUS
10
58.6541039999999967
20
-73.9183519999999987
11
58.4341429999999988
21
-73.7189979999999991
0
LINE
8
Edge.Cuts
6
CONTINUOUS
10
58.4341429999999988
20
-73.7189979999999991
11
50.1915009999999953
21
-65.476356999999993
0
LINE
8
Edge.Cuts
6
CONTINUOUS
10
50.1915009999999953
20
-65.476356999999993
11
50.1914999999999978
21
-65.4763559999999956
0
LINE
8
Edge.Cuts
6
CONTINUOUS
10
50.1914999999999978
20
-65.4763559999999956
11
49.9921429999999987
21
-65.2563979999999901
0
LINE
8
Edge.Cuts
6
CONTINUOUS
10
49.9921429999999987
20
-65.2563979999999901
11
49.8153039999999976
21
-65.0179589999999905
0
LINE
8
Edge.Cuts
6
CONTINUOUS
10
49.8153039999999976
20
-65.0179589999999905
11
49.6626879999999957
21
-64.7633340000000004
0
LINE
8
Edge.Cuts
6
CONTINUOUS
10
49.6626879999999957
20
-64.7633340000000004
11
49.5357640000000004
21
-64.4949759999999941
0
LINE
8
Edge.Cuts
6
CONTINUOUS
10
49.5357640000000004
20
-64.4949759999999941
11
49.4357550000000003
21
-64.2154699999999963
0
LINE
8
Edge.Cuts
6
CONTINUOUS
10
49.4357550000000003
20
-64.2154699999999963
11
49.3636239999999944
21
-63.9275069999999985
0
LINE
8
Edge.Cuts
6
CONTINUOUS
10
49.3636239999999944
20
-63.9275069999999985
11
49.3200659999999971
21
-63.633860999999996
0
LINE
8
Edge.Cuts
6
CONTINUOUS
10
49.3200659999999971
20
-63.633860999999996
11
49.305499999999995
21
-63.3373589999999993
0
LINE
8
Edge.Cuts
6
CONTINUOUS
10
49.305499999999995
20
-63.3373589999999993
11
49.305499999999995
21
-63.3373579999999947
0
LINE
8
Edge.Cuts
6
CONTINUOUS
10
49.305499999999995
20
-63.3373579999999947
11
49.305499999999995
21
-48.5799999999999983
0
LINE
8
Edge.Cuts
6
CONTINUOUS
10
49.305499999999995
20
-48.5799999999999983
11
49.3220710000000011
21
-48.2638010000000008
0
LINE
8
Edge.Cuts
6
CONTINUOUS
10
49.3220710000000011
20
-48.2638010000000008
11
49.3716039999999978
21
-47.9510669999999948
0
LINE
8
Edge.Cuts
6
CONTINUOUS
10
49.3716039999999978
20
-47.9510669999999948
11
49.4535539999999969
21
-47.6452239999999989
0
LINE
8
Edge.Cuts
6
CONTINUOUS
10
49.4535539999999969
20
-47.6452239999999989
11
49.567025000000001
21
-47.3496219999999965
0
LINE
8
Edge.Cuts
6
CONTINUOUS
10
49.567025000000001
20
-47.3496219999999965
11
49.7107740000000007
21
-47.0674999999999955
0
LINE
8
Edge.Cuts
6
CONTINUOUS
10
49.7107740000000007
20
-47.0674999999999955
11
49.8832239999999985
21
-46.8019499999999979
0
LINE
8
Edge.Cuts
6
CONTINUOUS
10
49.8832239999999985
20
-46.8019499999999979
11
50.0824870000000004
21
-46.5558799999999948
0
LINE
8
Edge.Cuts
6
CONTINUOUS
10
50.0824870000000004
20
-46.5558799999999948
11
50.3063799999999972
21
-46.331986999999998
0
LINE
8
Edge.Cuts
6
CONTINUOUS
10
50.3063799999999972
20
-46.331986999999998
11
50.5524500000000003
21
-46.1327239999999961
0
LINE
8
Edge.Cuts
6
CONTINUOUS
10
50.5524500000000003
20
-46.1327239999999961
11
50.8179999999999978
21
-45.9602739999999983
0
LINE
8
Edge.Cuts
6
CONTINUOUS
10
50.8179999999999978
20
-45.9602739999999983
11
51.1001219999999989
21
-45.8165249999999986
0
LINE
8
Edge.Cuts
6
CONTINUOUS
10
51.1001219999999989
20
-45.8165249999999986
11
51.3957239999999942
21
-45.7030539999999945
0
LINE
8
Edge.Cuts
6
CONTINUOUS
10
51.3957239999999942
20
-45.7030539999999945
11
51.7015669999999972
21
-45.6211039999999954
0
LINE
8
Edge.Cuts
6
CONTINUOUS
10
51.7015669999999972
20
-45.6211039999999954
11
52.0143009999999961
21
-45.5715709999999987
0
LINE
8
Edge.Cuts
6
CONTINUOUS
10
52.0143009999999961
20
-45.5715709999999987
11
52.3305000000000007
21
-45.5549999999999997
0
LINE
8
Edge.Cuts
6
CONTINUOUS
10
52.3305000000000007
20
-45.5549999999999997
11
88.3305000000000007
21
-45.5549999999999997
0
LINE
8
Edge.Cuts
6
CONTINUOUS
10
52.3305000000000007
20
-45.6049999999999969
11
52.1745869999999954
21
-45.6049999999999969
0
LINE
8
Edge.Cuts
6
CONTINUOUS
10
52.1745869999999954
20
-45.6049999999999969
11
51.8644689999999997
21
-45.6375949999999975
0
LINE
8
Edge.Cuts
6
CONTINUOUS
10
51.8644689999999997
20
-45.6375949999999975
11
51.5594569999999948
21
-45.7024270000000001
0
LINE
8
Edge.Cuts
6
CONTINUOUS
10
51.5594569999999948
20
-45.7024270000000001
11
51.2628920000000008
21
-45.7987869999999972
0
LINE
8
Edge.Cuts
6
CONTINUOUS
10
51.2628920000000008
20
-45.7987869999999972
11
50.9780249999999953
21
-45.9256180000000001
0
LINE
8
Edge.Cuts
6
CONTINUOUS
10
50.9780249999999953
20
-45.9256180000000001
11
50.7079749999999976
21
-46.0815309999999982
0
LINE
8
Edge.Cuts
6
CONTINUOUS
10
50.7079749999999976
20
-46.0815309999999982
11
50.4557029999999997
21
-46.2648179999999982
0
LINE
8
Edge.Cuts
6
CONTINUOUS
10
50.4557029999999997
20
-46.2648179999999982
11
50.2239709999999988
21
-46.4734709999999964
0
LINE
8
Edge.Cuts
6
CONTINUOUS
10
50.2239709999999988
20
-46.4734709999999964
11
50.0153180000000006
21
-46.7052029999999974
0
LINE
8
Edge.Cuts
6
CONTINUOUS
10
50.0153180000000006
20
-46.7052029999999974
11
49.8320310000000006
21
-46.9574749999999952
0
LINE
8
Edge.Cuts
6
CONTINUOUS
10
49.8320310000000006
20
-46.9574749999999952
11
49.6761179999999953
21
-47.227525
0
LINE
8
Edge.Cuts
6
CONTINUOUS
10
49.6761179999999953
20
-47.227525
11
49.5492869999999996
21
-47.5123919999999984
0
LINE
8
Edge.Cuts
6
CONTINUOUS
10
49.5492869999999996
20
-47.5123919999999984
11
49.4529269999999954
21
-47.8089569999999995
0
LINE
8
Edge.Cuts
6
CONTINUOUS
10
49.4529269999999954
20
-47.8089569999999995
11
49.3880949999999999
21
-48.1139689999999973
0
LINE
8
Edge.Cuts
6
CONTINUOUS
10
49.3880949999999999
20
-48.1139689999999973
11
49.3554999999999993
21
-48.4240870000000001
0
LINE
8
Edge.Cuts
6
CONTINUOUS
10
49.3554999999999993
20
-48.4240870000000001
11
49.3554999999999993
21
-48.5799999999999983
0
LINE
8
Edge.Cuts
6
CONTINUOUS
10
49.3554999999999993
20
-48.5799999999999983
11
49.3554999999999993
21
-63.3373579999999947
0
LINE
8
Edge.Cuts
6
CONTINUOUS
10
49.3554999999999993
20
-63.3373579999999947
11
49.3554999999999993
21
-63.3373589999999993
0
LINE
8
Edge.Cuts
6
CONTINUOUS
10
49.3554999999999993
20
-63.3373589999999993
11
49.3554999999999993
21
-63.483511
0
LINE
8
Edge.Cuts
6
CONTINUOUS
10
49.3554999999999993
20
-63.483511
11
49.3841509999999957
21
-63.7744089999999986
0
LINE
8
Edge.Cuts
6
CONTINUOUS
10
49.3841509999999957
20
-63.7744089999999986
11
49.4411759999999987
21
-64.0610970000000037
0
LINE
8
Edge.Cuts
6
CONTINUOUS
10
49.4411759999999987
20
-64.0610970000000037
11
49.5260279999999966
21
-64.3408149999999921
0
LINE
8
Edge.Cuts
6
CONTINUOUS
10
49.5260279999999966
20
-64.3408149999999921
11
49.6378879999999967
21
-64.6108689999999939
0
LINE
8
Edge.Cuts
6
CONTINUOUS
10
49.6378879999999967
20
-64.6108689999999939
11
49.7756789999999967
21
-64.8686589999999939
0
LINE
8
Edge.Cuts
6
CONTINUOUS
10
49.7756789999999967
20
-64.8686589999999939
11
49.9380749999999978
21
-65.111701999999994
0
LINE
8
Edge.Cuts
6
CONTINUOUS
10
49.9380749999999978
20
-65.111701999999994
11
50.1235110000000006
21
-65.3376559999999955
0
LINE
8
Edge.Cuts
6
CONTINUOUS
10
50.1235110000000006
20
-65.3376559999999955
11
50.2268569999999954
21
-65.441001
0
LINE
8
Edge.Cuts
6
CONTINUOUS
10
50.2268569999999954
20
-65.441001
11
58.4694969999999969
21
-73.6836419999999919
0
LINE
8
Edge.Cuts
6
CONTINUOUS
10
58.4694969999999969
20
-73.6836419999999919
11
58.5728439999999964
21
-73.7869850000000014
0
LINE
8
Edge.Cuts
6
CONTINUOUS
10
58.5728439999999964
20
-73.7869850000000014
11
58.7988019999999949
21
-73.972416999999993
0
LINE
8
Edge.Cuts
6
CONTINUOUS
10
58.7988019999999949
20
-73.972416999999993
11
59.0418459999999996
21
-74.13480899999999
0
LINE
8
Edge.Cuts
6
CONTINUOUS
10
59.0418459999999996
20
-74.13480899999999
11
59.2996359999999996
21
-74.2725989999999996
0
LINE
8
Edge.Cuts
6
CONTINUOUS
10
59.2996359999999996
20
-74.2725989999999996
11
59.5696889999999968
21
-74.3844589999999926
0
LINE
8
Edge.Cuts
6
CONTINUOUS
10
59.5696889999999968
20
-74.3844589999999926
11
59.8494069999999994
21
-74.4693120000000022
0
LINE
8
Edge.Cuts
6
CONTINUOUS
10
59.8494069999999994
20
-74.4693120000000022
11
60.1360929999999954
21
-74.5263410000000022
0
LINE
8
Edge.Cuts
6
CONTINUOUS
10
60.1360929999999954
20
-74.5263410000000022
11
60.4269899999999964
21
-74.5549970000000002
0
LINE
8
Edge.Cuts
6
CONTINUOUS
10
60.4269899999999964
20
-74.5549970000000002
11
60.5731419999999972
21
-74.5549999999999926
0
LINE
8
Edge.Cuts
6
CONTINUOUS
10
60.5731419999999972
20
-74.5549999999999926
11
80.0878579999999971
21
-74.5549999999999926
0
LINE
8
Edge.Cuts
6
CONTINUOUS
10
80.0878579999999971
20
-74.5549999999999926
11
80.2340099999999978
21
-74.554994999999991
0
LINE
8
Edge.Cuts
6
CONTINUOUS
10
80.2340099999999978
20
-74.554994999999991
11
80.5249049999999897
21
-74.5263350000000031
0
LINE
8
Edge.Cuts
6
CONTINUOUS
10
80.5249049999999897
20
-74.5263350000000031
11
80.8115909999999928
21
-74.4693039999999939
0
LINE
8
Edge.Cuts
6
CONTINUOUS
10
80.8115909999999928
20
-74.4693039999999939
11
81.0913070000000005
21
-74.3844500000000011
0
LINE
8
Edge.Cuts
6
CONTINUOUS
10
81.0913070000000005
20
-74.3844500000000011
11
81.3613599999999906
21
-74.2725899999999939
0
LINE
8
Edge.Cuts
6
CONTINUOUS
10
81.3613599999999906
20
-74.2725899999999939
11
81.6191499999999905
21
-74.1348019999999934
0
LINE
8
Edge.Cuts
6
CONTINUOUS
10
81.6191499999999905
20
-74.1348019999999934
11
81.8621949999999998
21
-73.9724119999999914
0
LINE
8
Edge.Cuts
6
CONTINUOUS
10
81.8621949999999998
20
-73.9724119999999914
11
82.088154000000003
21
-73.7869829999999922
0
LINE
8
Edge.Cuts
6
CONTINUOUS
10
82.088154000000003
20
-73.7869829999999922
11
82.1914989999999932
21
-73.6836449999999985
0
LINE
8
Edge.Cuts
6
CONTINUOUS
10
82.1914989999999932
20
-73.6836449999999985
11
82.1915019999999998
21
-73.6836419999999919
0
LINE
8
Edge.Cuts
6
CONTINUOUS
10
82.1915019999999998
20
-73.6836419999999919
11
90.4341439999999892
21
-65.441001
0
LINE
8
Edge.Cuts
6
CONTINUOUS
10
90.4341439999999892
20
-65.441001
11
90.5374920000000003
21
-65.3376579999999905
0
LINE
8
Edge.Cuts
6
CONTINUOUS
10
90.5374920000000003
20
-65.3376579999999905
11
90.7229329999999976
21
-65.1117059999999981
0
LINE
8
Edge.Cuts
6
CONTINUOUS
10
90.7229329999999976
20
-65.1117059999999981
11
90.8853319999999911
21
-64.8686649999999929
0
LINE
8
Edge.Cuts
6
CONTINUOUS
10
90.8853319999999911
20
-64.8686649999999929
11
91.0231259999999907
21
-64.610874999999993
0
LINE
8
Edge.Cuts
6
CONTINUOUS
10
91.0231259999999907
20
-64.610874999999993
11
91.1349859999999978
21
-64.3408199999999937
0
LINE
8
Edge.Cuts
6
CONTINUOUS
10
91.1349859999999978
20
-64.3408199999999937
11
91.2198360000000008
21
-64.0611009999999936
0
LINE
8
Edge.Cuts
6
CONTINUOUS
10
91.2198360000000008
20
-64.0611009999999936
11
91.2768590000000017
21
-63.7744110000000006
0
LINE
8
Edge.Cuts
6
CONTINUOUS
10
91.2768590000000017
20
-63.7744110000000006
11
91.3055039999999991
21
-63.4835119999999975
0
LINE
8
Edge.Cuts
6
CONTINUOUS
10
91.3055039999999991
20
-63.4835119999999975
11
91.305499999999995
21
-63.3373599999999968
0
LINE
8
Edge.Cuts
6
CONTINUOUS
10
91.305499999999995
20
-63.3373599999999968
11
91.305499999999995
21
-63.3373589999999993
0
LINE
8
Edge.Cuts
6
CONTINUOUS
10
91.305499999999995
20
-63.3373589999999993
11
91.305499999999995
21
-48.5799999999999983
0
LINE
8
Edge.Cuts
6
CONTINUOUS
10
91.305499999999995
20
-48.5799999999999983
11
91.305499999999995
21
-48.4240870000000001
0
LINE
8
Edge.Cuts
6
CONTINUOUS
10
91.305499999999995
20
-48.4240870000000001
11
91.2729049999999944
21
-48.1139689999999973
0
LINE
8
Edge.Cuts
6
CONTINUOUS
10
91.2729049999999944
20
-48.1139689999999973
11
91.2080729999999988
21
-47.8089569999999995
0
LINE
8
Edge.Cuts
6
CONTINUOUS
10
91.2080729999999988
20
-47.8089569999999995
11
91.1117129999999946
21
-47.5123919999999984
0
LINE
8
Edge.Cuts
6
CONTINUOUS
10
91.1117129999999946
20
-47.5123919999999984
11
90.9848819999999989
21
-47.227525
0
LINE
8
Edge.Cuts
6
CONTINUOUS
10
90.9848819999999989
20
-47.227525
11
90.8289690000000007
21
-46.9574749999999952
0
LINE
8
Edge.Cuts
6
CONTINUOUS
10
90.8289690000000007
20
-46.9574749999999952
11
90.6456819999999936
21
-46.7052029999999974
0
LINE
8
Edge.Cuts
6
CONTINUOUS
10
90.6456819999999936
20
-46.7052029999999974
11
90.4370289999999954
21
-46.4734709999999964
0
LINE
8
Edge.Cuts
6
CONTINUOUS
10
90.4370289999999954
20
-46.4734709999999964
11
90.2052970000000016
21
-46.2648179999999982
0
LINE
8
Edge.Cuts
6
CONTINUOUS
10
90.2052970000000016
20
-46.2648179999999982
11
89.9530249999999967
21
-46.0815309999999982
0
LINE
8
Edge.Cuts
6
CONTINUOUS
10
89.9530249999999967
20
-46.0815309999999982
11
89.682974999999999
21
-45.9256180000000001
0
LINE
8
Edge.Cuts
6
CONTINUOUS
10
89.682974999999999
20
-45.9256180000000001
11
89.3981079999999935
21
-45.7987869999999972
0
LINE
8
Edge.Cuts
6
CONTINUOUS
10
89.3981079999999935
20
-45.7987869999999972
11
89.1015429999999924
21
-45.7024270000000001
0
LINE
8
Edge.Cuts
6
CONTINUOUS
10
89.1015429999999924
20
-45.7024270000000001
11
88.7965310000000017
21
-45.6375949999999975
0
LINE
8
Edge.Cuts
6
CONTINUOUS
10
88.7965310000000017
20
-45.6375949999999975
11
88.4864129999999989
21
-45.6049999999999969
0
LINE
8
Edge.Cuts
6
CONTINUOUS
10
88.4864129999999989
20
-45.6049999999999969
11
88.3305000000000007
21
-45.6049999999999969
0
LINE
8
Edge.Cuts
6
CONTINUOUS
10
88.3305000000000007
20
-45.6049999999999969
11
52.3305000000000007
21
-45.6049999999999969
  0
ENDSEC
  0
EOF
