%TF.GenerationSoftware,KiCad,Pcbnew,10.0.3*%
%TF.CreationDate,2026-06-05T11:16:08+02:00*%
%TF.ProjectId,OpenTallyESP32,4f70656e-5461-46c6-9c79-45535033322e,rev?*%
%TF.SameCoordinates,Original*%
%TF.FileFunction,Copper,L1,Top*%
%TF.FilePolarity,Positive*%
%FSLAX46Y46*%
G04 Gerber Fmt 4.6, Leading zero omitted, Abs format (unit mm)*
G04 Created by KiCad (PCBNEW 10.0.3) date 2026-06-05 11:16:08*
%MOMM*%
%LPD*%
G01*
G04 APERTURE LIST*
G04 Aperture macros list*
%AMRoundRect*
0 Rectangle with rounded corners*
0 $1 Rounding radius*
0 $2 $3 $4 $5 $6 $7 $8 $9 X,Y pos of 4 corners*
0 Add a 4 corners polygon primitive as box body*
4,1,4,$2,$3,$4,$5,$6,$7,$8,$9,$2,$3,0*
0 Add four circle primitives for the rounded corners*
1,1,$1+$1,$2,$3*
1,1,$1+$1,$4,$5*
1,1,$1+$1,$6,$7*
1,1,$1+$1,$8,$9*
0 Add four rect primitives between the rounded corners*
20,1,$1+$1,$2,$3,$4,$5,0*
20,1,$1+$1,$4,$5,$6,$7,0*
20,1,$1+$1,$6,$7,$8,$9,0*
20,1,$1+$1,$8,$9,$2,$3,0*%
G04 Aperture macros list end*
%TA.AperFunction,SMDPad,CuDef*%
%ADD10RoundRect,0.250000X0.650000X-0.412500X0.650000X0.412500X-0.650000X0.412500X-0.650000X-0.412500X0*%
%TD*%
%TA.AperFunction,SMDPad,CuDef*%
%ADD11RoundRect,0.090000X0.360000X-0.660000X0.360000X0.660000X-0.360000X0.660000X-0.360000X-0.660000X0*%
%TD*%
%TA.AperFunction,SMDPad,CuDef*%
%ADD12RoundRect,0.250000X0.400000X0.625000X-0.400000X0.625000X-0.400000X-0.625000X0.400000X-0.625000X0*%
%TD*%
%TA.AperFunction,SMDPad,CuDef*%
%ADD13RoundRect,0.250000X0.625000X-0.400000X0.625000X0.400000X-0.625000X0.400000X-0.625000X-0.400000X0*%
%TD*%
%TA.AperFunction,SMDPad,CuDef*%
%ADD14RoundRect,0.500000X-0.875000X-0.500000X0.875000X-0.500000X0.875000X0.500000X-0.875000X0.500000X0*%
%TD*%
%TA.AperFunction,SMDPad,CuDef*%
%ADD15RoundRect,0.275000X0.975000X0.275000X-0.975000X0.275000X-0.975000X-0.275000X0.975000X-0.275000X0*%
%TD*%
%TA.AperFunction,SMDPad,CuDef*%
%ADD16RoundRect,0.150000X0.150000X-0.587500X0.150000X0.587500X-0.150000X0.587500X-0.150000X-0.587500X0*%
%TD*%
%TA.AperFunction,SMDPad,CuDef*%
%ADD17RoundRect,0.249999X1.325827X0.689429X0.689429X1.325827X-1.325827X-0.689429X-0.689429X-1.325827X0*%
%TD*%
%TA.AperFunction,SMDPad,CuDef*%
%ADD18R,0.900000X1.000000*%
%TD*%
%TA.AperFunction,Conductor*%
%ADD19C,0.800000*%
%TD*%
%TA.AperFunction,Profile*%
%ADD20C,0.050000*%
%TD*%
G04 APERTURE END LIST*
D10*
%TO.P,C1,1*%
%TO.N,+3.3V*%
X82410000Y-54370500D03*
%TO.P,C1,2*%
%TO.N,GND*%
X82410000Y-51245500D03*
%TD*%
D11*
%TO.P,D1,1,VDD*%
%TO.N,+3.3V*%
X85410000Y-63258000D03*
%TO.P,D1,2,DOUT*%
%TO.N,unconnected-(D1-DOUT-Pad2)*%
X88710000Y-63258000D03*
%TO.P,D1,3,VSS*%
%TO.N,GND*%
X88710000Y-58358000D03*
%TO.P,D1,4,DIN*%
%TO.N,Net-(D1-DIN)*%
X85410000Y-58358000D03*
%TD*%
D12*
%TO.P,R2,1*%
%TO.N,BATT_LEVEL*%
X58500000Y-51933000D03*
%TO.P,R2,2*%
%TO.N,Net-(Q1-D)*%
X55400000Y-51933000D03*
%TD*%
%TO.P,R3,1*%
%TO.N,BATT_READ*%
X58500000Y-48933000D03*
%TO.P,R3,2*%
%TO.N,Net-(Q1-G)*%
X55400000Y-48933000D03*
%TD*%
D10*
%TO.P,C2,1*%
%TO.N,+3.3V*%
X83000000Y-63370500D03*
%TO.P,C2,2*%
%TO.N,GND*%
X83000000Y-60245500D03*
%TD*%
D13*
%TO.P,R1,1*%
%TO.N,+BATT*%
X58500000Y-58233000D03*
%TO.P,R1,2*%
%TO.N,BATT_LEVEL*%
X58500000Y-55133000D03*
%TD*%
D14*
%TO.P,U1,1,D0*%
%TO.N,BATT_READ*%
X62335000Y-49000000D03*
%TO.P,U1,2,D1*%
%TO.N,SW*%
X62335000Y-51540000D03*
%TO.P,U1,3,D2*%
%TO.N,BATT_LEVEL*%
X62335000Y-54080000D03*
%TO.P,U1,4,D3*%
%TO.N,unconnected-(U1-D3-Pad4)*%
X62335000Y-56620000D03*
%TO.P,U1,5,D4*%
%TO.N,unconnected-(U1-D4-Pad5)*%
X62335000Y-59160000D03*
%TO.P,U1,6,D5*%
%TO.N,unconnected-(U1-D5-Pad6)*%
X62335000Y-61700000D03*
%TO.P,U1,7,D6*%
%TO.N,unconnected-(U1-D6-Pad7)*%
X62335000Y-64240000D03*
%TO.P,U1,8,D7*%
%TO.N,unconnected-(U1-D7-Pad8)*%
X78500000Y-64240000D03*
%TO.P,U1,9,D8*%
%TO.N,NEOPIXEL*%
X78500000Y-61700000D03*
%TO.P,U1,10,D9*%
%TO.N,unconnected-(U1-D9-Pad10)*%
X78500000Y-59160000D03*
%TO.P,U1,11,D10*%
%TO.N,unconnected-(U1-D10-Pad11)*%
X78500000Y-56620000D03*
%TO.P,U1,12,VCC_3V3*%
%TO.N,+3.3V*%
X78500000Y-54080000D03*
%TO.P,U1,13,GND*%
%TO.N,GND*%
X78500000Y-51540000D03*
%TO.P,U1,14,VUSB*%
%TO.N,unconnected-(U1-VUSB-Pad14)*%
X78500000Y-49000000D03*
D15*
%TO.P,U1,15,Batt+*%
%TO.N,+BATT*%
X65945000Y-56238000D03*
%TO.P,U1,16,Batt-*%
%TO.N,-BATT*%
X65945000Y-54333000D03*
%TD*%
D16*
%TO.P,Q1,1,G*%
%TO.N,Net-(Q1-G)*%
X53850000Y-57683000D03*
%TO.P,Q1,2,S*%
%TO.N,-BATT*%
X55750000Y-57683000D03*
%TO.P,Q1,3,D*%
%TO.N,Net-(Q1-D)*%
X54800000Y-55808000D03*
%TD*%
D11*
%TO.P,D2,1,VDD*%
%TO.N,+3.3V*%
X85410000Y-54308000D03*
%TO.P,D2,2,DOUT*%
%TO.N,Net-(D1-DIN)*%
X88710000Y-54308000D03*
%TO.P,D2,3,VSS*%
%TO.N,GND*%
X88710000Y-49408000D03*
%TO.P,D2,4,DIN*%
%TO.N,NEOPIXEL*%
X85410000Y-49408000D03*
%TD*%
D17*
%TO.P,J1,1,Pin_1*%
%TO.N,-BATT*%
X58906676Y-68656676D03*
%TO.P,J1,2,Pin_2*%
%TO.N,+BATT*%
X54593324Y-64343324D03*
%TD*%
D18*
%TO.P,SW1,1,1*%
%TO.N,SW*%
X80910000Y-70800000D03*
X76810000Y-70800000D03*
%TO.P,SW1,2,2*%
%TO.N,GND*%
X80910000Y-69200000D03*
X76810000Y-69200000D03*
%TD*%
%TO.N,+3.3V*%
D19*
X82280500Y-54500000D02*
X82410000Y-54370500D01*
X77168000Y-54080000D02*
X78500000Y-54080000D01*
X82119500Y-54080000D02*
X82410000Y-54370500D01*
X76500000Y-67000000D02*
X75000000Y-65500000D01*
X82410000Y-54370500D02*
X85347500Y-54370500D01*
X81000000Y-67000000D02*
X76500000Y-67000000D01*
X75000000Y-56248000D02*
X77168000Y-54080000D01*
X85410000Y-63258000D02*
X83112500Y-63258000D01*
X75000000Y-65500000D02*
X75000000Y-56248000D01*
X83000000Y-65000000D02*
X81000000Y-67000000D01*
X83112500Y-63258000D02*
X83000000Y-63370500D01*
X85347500Y-54370500D02*
X85410000Y-54308000D01*
X83000000Y-63370500D02*
X83000000Y-65000000D01*
X78500000Y-54080000D02*
X82119500Y-54080000D01*
%TO.N,GND*%
X86822500Y-60245500D02*
X88710000Y-58358000D01*
X86822500Y-60245500D02*
X86761000Y-60307000D01*
X82410000Y-49090000D02*
X84250000Y-47250000D01*
X82410000Y-51245500D02*
X82410000Y-49090000D01*
X87750000Y-47250000D02*
X88710000Y-48210000D01*
X90410000Y-51108000D02*
X90410000Y-56658000D01*
X86761000Y-60307000D02*
X86761000Y-64330980D01*
X90410000Y-56658000D02*
X88710000Y-58358000D01*
X84250000Y-47250000D02*
X87750000Y-47250000D01*
X78500000Y-51540000D02*
X82115500Y-51540000D01*
X86761000Y-64330980D02*
X81891980Y-69200000D01*
X80910000Y-69200000D02*
X76810000Y-69200000D01*
X81891980Y-69200000D02*
X80910000Y-69200000D01*
X82115500Y-51540000D02*
X82410000Y-51245500D01*
X88710000Y-49408000D02*
X90410000Y-51108000D01*
X88710000Y-48210000D02*
X88710000Y-49408000D01*
X83000000Y-60245500D02*
X86822500Y-60245500D01*
%TO.N,Net-(D1-DIN)*%
X85892000Y-58358000D02*
X85410000Y-58358000D01*
X88710000Y-54308000D02*
X88710000Y-55540000D01*
X88710000Y-55540000D02*
X85892000Y-58358000D01*
%TO.N,BATT_LEVEL*%
X59342000Y-54025000D02*
X61675000Y-54025000D01*
X58500000Y-51933000D02*
X58500000Y-55133000D01*
X58500000Y-54867000D02*
X59342000Y-54025000D01*
X58500000Y-55133000D02*
X58500000Y-54867000D01*
%TO.N,Net-(Q1-D)*%
X55400000Y-51933000D02*
X55250000Y-51933000D01*
X54800000Y-52383000D02*
X54800000Y-55808000D01*
X55250000Y-51933000D02*
X54800000Y-52383000D01*
%TO.N,BATT_READ*%
X61675000Y-48945000D02*
X58512000Y-48945000D01*
X61663000Y-48933000D02*
X61675000Y-48945000D01*
X58512000Y-48945000D02*
X58500000Y-48933000D01*
%TO.N,Net-(Q1-G)*%
X53499000Y-57332000D02*
X53850000Y-57683000D01*
X53499000Y-50834000D02*
X53499000Y-57332000D01*
X55400000Y-48933000D02*
X53499000Y-50834000D01*
%TO.N,+BATT*%
X56000000Y-65750000D02*
X59641600Y-65750000D01*
X58500000Y-60436648D02*
X54593324Y-64343324D01*
X58500000Y-58233000D02*
X58500000Y-60436648D01*
X64500000Y-67000000D02*
X65945000Y-65555000D01*
X59641600Y-65750000D02*
X60891600Y-67000000D01*
X54593324Y-64343324D02*
X56000000Y-65750000D01*
X60891600Y-67000000D02*
X64500000Y-67000000D01*
X65945000Y-65555000D02*
X65945000Y-56238000D01*
%TO.N,SW*%
X72000000Y-55500000D02*
X72000000Y-68448000D01*
X68000000Y-51500000D02*
X72000000Y-55500000D01*
X62375000Y-51500000D02*
X68000000Y-51500000D01*
X76810000Y-70800000D02*
X74352000Y-70800000D01*
X62335000Y-51540000D02*
X62375000Y-51500000D01*
X74352000Y-70800000D02*
X72000000Y-68448000D01*
%TO.N,NEOPIXEL*%
X79875000Y-61700000D02*
X78500000Y-61700000D01*
X85410000Y-49408000D02*
X86760000Y-50758000D01*
X86000000Y-56250000D02*
X83750000Y-56250000D01*
X80775000Y-59225000D02*
X80775000Y-60800000D01*
X86760000Y-50758000D02*
X86760000Y-55490000D01*
X86760000Y-55490000D02*
X86000000Y-56250000D01*
X83750000Y-56250000D02*
X80775000Y-59225000D01*
X80775000Y-60800000D02*
X79875000Y-61700000D01*
%TO.N,-BATT*%
X65945000Y-54333000D02*
X66959320Y-54333000D01*
X56023292Y-70000000D02*
X51500000Y-65476708D01*
X55750000Y-59500000D02*
X55750000Y-57683000D01*
X68095000Y-55468680D02*
X68095000Y-66155000D01*
X66959320Y-54333000D02*
X68095000Y-55468680D01*
X58906676Y-68656676D02*
X58843324Y-68656676D01*
X57500000Y-70000000D02*
X56023292Y-70000000D01*
X64500000Y-69750000D02*
X60000000Y-69750000D01*
X51500000Y-65476708D02*
X51500000Y-63750000D01*
X51500000Y-63750000D02*
X55750000Y-59500000D01*
X58843324Y-68656676D02*
X57500000Y-70000000D01*
X68095000Y-66155000D02*
X64500000Y-69750000D01*
X60000000Y-69750000D02*
X58906676Y-68656676D01*
%TD*%
D20*
X49330500Y-48580000D02*
G75*
G02*
X52330500Y-45580000I3000000J0D01*
G01*
X49330500Y-63337359D02*
X49330500Y-48580000D01*
X50209179Y-65458679D02*
G75*
G02*
X49330529Y-63337359I2121321J2121279D01*
G01*
X58451820Y-73701320D02*
X50209179Y-65458679D01*
X60573141Y-74580000D02*
G75*
G02*
X58451808Y-73701332I59J3000200D01*
G01*
X60573141Y-74580000D02*
X80087859Y-74580000D01*
X82209180Y-73701320D02*
G75*
G02*
X80087859Y-74580025I-2121480J2121620D01*
G01*
X82209180Y-73701320D02*
X90451821Y-65458679D01*
X88330500Y-45580000D02*
X52330500Y-45580000D01*
X88330500Y-45580000D02*
G75*
G02*
X91330500Y-48580000I0J-3000000D01*
G01*
X91330500Y-63337359D02*
G75*
G02*
X90451800Y-65458658I-2999800J-41D01*
G01*
X91330500Y-63337359D02*
X91330500Y-48580000D01*
M02*
