  0
SECTION
  2
HEADER
  9
$ANGBASE
  50
0.0
  9
$ANGDIR
  70
1
  9
$MEASUREMENT
  70
1
  0
ENDSEC
  0
SECTION
  2
TABLES
  0
TABLE
  2
LTYPE
  70
4
  0
LTYPE
  5
40F
  2
CONTINUOUS
  70
0
  3
Solid line
  72
65
  73
0
  40
0.0
  0
LTYPE
  5
410
  2
DASHDOT
 70
0
  3
Dash Dot ____ _ ____ _
 72
65
 73
4
 40
2.0
 49
1.25
 49
-0.25
 49
0.25
 49
-0.25
  0
LTYPE
  5
411
  2
DASHED
 70
0
  3
Dashed __ __ __ __ __
 72
65
 73
2
 40
0.75
 49
0.5
 49
-0.25
  0
LTYPE
  5
43B
  2
DOTTED
 70
0
  3
Dotted .  .  .  .
 72
65
 73
2
 40
0.2
 49
0.0
 49
-0.2
  0
ENDTAB
  0
TABLE
  2
STYLE
  70
4
  0
STYLE
  2
KICAD
  70
0
  40
0
  41
1
  42
1
  50
0
  71
0
  3
isocp.shx
  0
STYLE
  2
KICADB
  70
0
  40
0
  41
1
  42
1
  50
0
  71
0
  3
isocp.shx
  0
STYLE
  2
KICADI
  70
0
  40
0
  41
1
  42
1
  50
15
  71
0
  3
isocp.shx
  0
STYLE
  2
KICADBI
  70
0
  40
0
  41
1
  42
1
  50
15
  71
0
  3
isocp.shx
  0
ENDTAB
  0
TABLE
  2
LAYER
  70
1
  0
LAYER
  2
BLACK
  70
0
  62
7
  6
CONTINUOUS
  0
ENDTAB
  0
ENDSEC
  0
SECTION
  2
ENTITIES
0
LINE
8
BLACK
6
CONTINUOUS
10
89.
20
-45.9750000000000014
11
89.3161989999999975
21
-45.9915710000000004
0
LINE
8
BLACK
6
CONTINUOUS
10
89.3161989999999975
20
-45.9915710000000004
11
89.6289329999999893
21
-46.0411039999999971
0
LINE
8
BLACK
6
CONTINUOUS
10
89.6289329999999893
20
-46.0411039999999971
11
89.9347759999999994
21
-46.1230539999999962
0
LINE
8
BLACK
6
CONTINUOUS
10
89.9347759999999994
20
-46.1230539999999962
11
90.2303780000000017
21
-46.2365250000000003
0
LINE
8
BLACK
6
CONTINUOUS
10
90.2303780000000017
20
-46.2365250000000003
11
90.5125000000000028
21
-46.3802729999999954
0
LINE
8
BLACK
6
CONTINUOUS
10
90.5125000000000028
20
-46.3802729999999954
11
90.7780499999999932
21
-46.5527239999999978
0
LINE
8
BLACK
6
CONTINUOUS
10
90.7780499999999932
20
-46.5527239999999978
11
91.0241199999999964
21
-46.7519869999999997
0
LINE
8
BLACK
6
CONTINUOUS
10
91.0241199999999964
20
-46.7519869999999997
11
91.2480130000000003
21
-46.9758799999999965
0
LINE
8
BLACK
6
CONTINUOUS
10
91.2480130000000003
20
-46.9758799999999965
11
91.4472760000000022
21
-47.2219499999999996
0
LINE
8
BLACK
6
CONTINUOUS
10
91.4472760000000022
20
-47.2219499999999996
11
91.6197269999999975
21
-47.4874999999999972
0
LINE
8
BLACK
6
CONTINUOUS
10
91.6197269999999975
20
-47.4874999999999972
11
91.7634749999999997
21
-47.7696219999999983
0
LINE
8
BLACK
6
CONTINUOUS
10
91.7634749999999997
20
-47.7696219999999983
11
91.8769459999999896
21
-48.0652240000000006
0
LINE
8
BLACK
6
CONTINUOUS
10
91.8769459999999896
20
-48.0652240000000006
11
91.9588959999999958
21
-48.3710669999999965
0
LINE
8
BLACK
6
CONTINUOUS
10
91.9588959999999958
20
-48.3710669999999965
11
92.0084289999999925
21
-48.6838009999999954
0
LINE
8
BLACK
6
CONTINUOUS
10
92.0084289999999925
20
-48.6838009999999954
11
92.0249999999999915
21
-49.
0
LINE
8
BLACK
6
CONTINUOUS
10
92.0249999999999915
20
-49.
11
92.0249999999999915
21
-63.7573589999999939
0
LINE
8
BLACK
6
CONTINUOUS
10
92.0249999999999915
20
-63.7573589999999939
11
92.0104379999999935
21
-64.0538619999999952
0
LINE
8
BLACK
6
CONTINUOUS
10
92.0104379999999935
20
-64.0538619999999952
11
91.9668829999999957
21
-64.3475099999999998
0
LINE
8
BLACK
6
CONTINUOUS
10
91.9668829999999957
20
-64.3475099999999998
11
91.8947549999999893
21
-64.635475999999997
0
LINE
8
BLACK
6
CONTINUOUS
10
91.8947549999999893
20
-64.635475999999997
11
91.7947489999999959
21
-64.914984000000004
0
LINE
8
BLACK
6
CONTINUOUS
10
91.7947489999999959
20
-64.914984000000004
11
91.6678280000000001
21
-65.1833450000000028
0
LINE
8
BLACK
6
CONTINUOUS
10
91.6678280000000001
20
-65.1833450000000028
11
91.5152140000000003
21
-65.4379729999999995
0
LINE
8
BLACK
6
CONTINUOUS
10
91.5152140000000003
20
-65.4379729999999995
11
91.3383769999999942
21
-65.6764149999999916
0
LINE
8
BLACK
6
CONTINUOUS
10
91.3383769999999942
20
-65.6764149999999916
11
91.1390189999999905
21
-65.8963770000000011
0
LINE
8
BLACK
6
CONTINUOUS
10
91.1390189999999905
20
-65.8963770000000011
11
91.1389989999999983
21
-65.8963559999999973
0
LINE
8
BLACK
6
CONTINUOUS
10
91.1389989999999983
20
-65.8963559999999973
11
82.8963579999999922
21
-74.1389980000000008
0
LINE
8
BLACK
6
CONTINUOUS
10
82.8963579999999922
20
-74.1389980000000008
11
82.8963540000000023
21
-74.1389999999999958
0
LINE
8
BLACK
6
CONTINUOUS
10
82.8963540000000023
20
-74.1389999999999958
11
82.6763940000000019
21
-74.3383489999999938
0
LINE
8
BLACK
6
CONTINUOUS
10
82.6763940000000019
20
-74.3383489999999938
11
82.4379519999999957
21
-74.5151809999999983
0
LINE
8
BLACK
6
CONTINUOUS
10
82.4379519999999957
20
-74.5151809999999983
11
82.1833259999999939
21
-74.6677919999999915
0
LINE
8
BLACK
6
CONTINUOUS
10
82.1833259999999939
20
-74.6677919999999915
11
81.9149689999999993
21
-74.7947119999999899
0
LINE
8
BLACK
6
CONTINUOUS
10
81.9149689999999993
20
-74.7947119999999899
11
81.6354639999999989
21
-74.8947199999999924
0
LINE
8
BLACK
6
CONTINUOUS
10
81.6354639999999989
20
-74.8947199999999924
11
81.3475030000000032
21
-74.9668509999999912
0
LINE
8
BLACK
6
CONTINUOUS
10
81.3475030000000032
20
-74.9668509999999912
11
81.0538590000000028
21
-75.0104120000000023
0
LINE
8
BLACK
6
CONTINUOUS
10
81.0538590000000028
20
-75.0104120000000023
11
80.7574719999999928
21
-75.0249769999999927
0
LINE
8
BLACK
6
CONTINUOUS
10
80.7574719999999928
20
-75.0249769999999927
11
80.7573589999999939
21
-75.0249999999999915
0
LINE
8
BLACK
6
CONTINUOUS
10
80.7573589999999939
20
-75.0249999999999915
11
63.242640999999999
21
-75.0249999999999915
0
LINE
8
BLACK
6
CONTINUOUS
10
63.242640999999999
20
-75.0249999999999915
11
62.9461399999999998
21
-75.010436999999996
0
LINE
8
BLACK
6
CONTINUOUS
10
62.9461399999999998
20
-75.010436999999996
11
62.6524939999999972
21
-74.9668800000000033
0
LINE
8
BLACK
6
CONTINUOUS
10
62.6524939999999972
20
-74.9668800000000033
11
62.3645309999999995
21
-74.8947479999999928
0
LINE
8
BLACK
6
CONTINUOUS
10
62.3645309999999995
20
-74.8947479999999928
11
62.0850259999999992
21
-74.7947369999999978
0
LINE
8
BLACK
6
CONTINUOUS
10
62.0850259999999992
20
-74.7947369999999978
11
61.8166709999999995
21
-74.6678100000000029
0
LINE
8
BLACK
6
CONTINUOUS
10
61.8166709999999995
20
-74.6678100000000029
11
61.5620499999999993
21
-74.5151879999999949
0
LINE
8
BLACK
6
CONTINUOUS
10
61.5620499999999993
20
-74.5151879999999949
11
61.3236149999999967
21
-74.3383429999999947
0
LINE
8
BLACK
6
CONTINUOUS
10
61.3236149999999967
20
-74.3383429999999947
11
61.1038149999999973
21
-74.1391139999999922
0
LINE
8
BLACK
6
CONTINUOUS
10
61.1038149999999973
20
-74.1391139999999922
11
61.1036429999999982
21
-74.1389989999999983
0
LINE
8
BLACK
6
CONTINUOUS
10
61.1036429999999982
20
-74.1389989999999983
11
50.8610019999999992
21
-63.8963579999999993
0
LINE
8
BLACK
6
CONTINUOUS
10
50.8610019999999992
20
-63.8963579999999993
11
50.8609989999999996
21
-63.8963539999999952
0
LINE
8
BLACK
6
CONTINUOUS
10
50.8609989999999996
20
-63.8963539999999952
11
50.6616509999999991
21
-63.6763939999999948
0
LINE
8
BLACK
6
CONTINUOUS
10
50.6616509999999991
20
-63.6763939999999948
11
50.4848189999999946
21
-63.4379519999999957
0
LINE
8
BLACK
6
CONTINUOUS
10
50.4848189999999946
20
-63.4379519999999957
11
50.3322079999999943
21
-63.1833259999999939
0
LINE
8
BLACK
6
CONTINUOUS
10
50.3322079999999943
20
-63.1833259999999939
11
50.2052879999999959
21
-62.9149689999999993
0
LINE
8
BLACK
6
CONTINUOUS
10
50.2052879999999959
20
-62.9149689999999993
11
50.1052800000000005
21
-62.6354639999999989
0
LINE
8
BLACK
6
CONTINUOUS
10
50.1052800000000005
20
-62.6354639999999989
11
50.0331489999999945
21
-62.3475029999999961
0
LINE
8
BLACK
6
CONTINUOUS
10
50.0331489999999945
20
-62.3475029999999961
11
49.9895879999999977
21
-62.0538589999999957
0
LINE
8
BLACK
6
CONTINUOUS
10
49.9895879999999977
20
-62.0538589999999957
11
49.9750219999999956
21
-61.7574719999999999
0
LINE
8
BLACK
6
CONTINUOUS
10
49.9750219999999956
20
-61.7574719999999999
11
49.9749999999999943
21
-61.7573589999999939
0
LINE
8
BLACK
6
CONTINUOUS
10
49.9749999999999943
20
-61.7573589999999939
11
49.9749999999999943
21
-49.
0
LINE
8
BLACK
6
CONTINUOUS
10
49.9749999999999943
20
-49.
11
49.9915710000000004
21
-48.6838009999999954
0
LINE
8
BLACK
6
CONTINUOUS
10
49.9915710000000004
20
-48.6838009999999954
11
50.0411039999999971
21
-48.3710669999999965
0
LINE
8
BLACK
6
CONTINUOUS
10
50.0411039999999971
20
-48.3710669999999965
11
50.1230539999999962
21
-48.0652240000000006
0
LINE
8
BLACK
6
CONTINUOUS
10
50.1230539999999962
20
-48.0652240000000006
11
50.2365250000000003
21
-47.7696219999999983
0
LINE
8
BLACK
6
CONTINUOUS
10
50.2365250000000003
20
-47.7696219999999983
11
50.3802729999999954
21
-47.4874999999999972
0
LINE
8
BLACK
6
CONTINUOUS
10
50.3802729999999954
20
-47.4874999999999972
11
50.5527239999999978
21
-47.2219499999999996
0
LINE
8
BLACK
6
CONTINUOUS
10
50.5527239999999978
20
-47.2219499999999996
11
50.7519869999999997
21
-46.9758799999999965
0
LINE
8
BLACK
6
CONTINUOUS
10
50.7519869999999997
20
-46.9758799999999965
11
50.9758799999999965
21
-46.7519869999999997
0
LINE
8
BLACK
6
CONTINUOUS
10
50.9758799999999965
20
-46.7519869999999997
11
51.2219499999999996
21
-46.5527239999999978
0
LINE
8
BLACK
6
CONTINUOUS
10
51.2219499999999996
20
-46.5527239999999978
11
51.4874999999999972
21
-46.3802729999999954
0
LINE
8
BLACK
6
CONTINUOUS
10
51.4874999999999972
20
-46.3802729999999954
11
51.7696219999999983
21
-46.2365250000000003
0
LINE
8
BLACK
6
CONTINUOUS
10
51.7696219999999983
20
-46.2365250000000003
11
52.0652240000000006
21
-46.1230539999999962
0
LINE
8
BLACK
6
CONTINUOUS
10
52.0652240000000006
20
-46.1230539999999962
11
52.3710669999999965
21
-46.0411039999999971
0
LINE
8
BLACK
6
CONTINUOUS
10
52.3710669999999965
20
-46.0411039999999971
11
52.6838009999999954
21
-45.9915710000000004
0
LINE
8
BLACK
6
CONTINUOUS
10
52.6838009999999954
20
-45.9915710000000004
11
53.
21
-45.9750000000000014
0
LINE
8
BLACK
6
CONTINUOUS
10
53.
20
-45.9750000000000014
11
89.
21
-45.9750000000000014
0
LINE
8
BLACK
6
CONTINUOUS
10
53.
20
-46.0249999999999986
11
52.8440869999999947
21
-46.0249999999999986
0
LINE
8
BLACK
6
CONTINUOUS
10
52.8440869999999947
20
-46.0249999999999986
11
52.533968999999999
21
-46.0575939999999946
0
LINE
8
BLACK
6
CONTINUOUS
10
52.533968999999999
20
-46.0575939999999946
11
52.2289570000000012
21
-46.1224269999999947
0
LINE
8
BLACK
6
CONTINUOUS
10
52.2289570000000012
20
-46.1224269999999947
11
51.9323920000000001
21
-46.2187859999999944
0
LINE
8
BLACK
6
CONTINUOUS
10
51.9323920000000001
20
-46.2187859999999944
11
51.6475249999999946
21
-46.3456179999999947
0
LINE
8
BLACK
6
CONTINUOUS
10
51.6475249999999946
20
-46.3456179999999947
11
51.3774749999999969
21
-46.5015309999999999
0
LINE
8
BLACK
6
CONTINUOUS
10
51.3774749999999969
20
-46.5015309999999999
11
51.1252019999999945
21
-46.6848179999999999
0
LINE
8
BLACK
6
CONTINUOUS
10
51.1252019999999945
20
-46.6848179999999999
11
50.8934700000000007
21
-46.8934700000000007
0
LINE
8
BLACK
6
CONTINUOUS
10
50.8934700000000007
20
-46.8934700000000007
11
50.6848179999999999
21
-47.1252019999999945
0
LINE
8
BLACK
6
CONTINUOUS
10
50.6848179999999999
20
-47.1252019999999945
11
50.5015309999999999
21
-47.3774749999999969
0
LINE
8
BLACK
6
CONTINUOUS
10
50.5015309999999999
20
-47.3774749999999969
11
50.3456179999999947
21
-47.6475249999999946
0
LINE
8
BLACK
6
CONTINUOUS
10
50.3456179999999947
20
-47.6475249999999946
11
50.2187859999999944
21
-47.9323920000000001
0
LINE
8
BLACK
6
CONTINUOUS
10
50.2187859999999944
20
-47.9323920000000001
11
50.1224269999999947
21
-48.2289570000000012
0
LINE
8
BLACK
6
CONTINUOUS
10
50.1224269999999947
20
-48.2289570000000012
11
50.0575939999999946
21
-48.533968999999999
0
LINE
8
BLACK
6
CONTINUOUS
10
50.0575939999999946
20
-48.533968999999999
11
50.0249999999999986
21
-48.8440869999999947
0
LINE
8
BLACK
6
CONTINUOUS
10
50.0249999999999986
20
-48.8440869999999947
11
50.0249999999999986
21
-49.
0
LINE
8
BLACK
6
CONTINUOUS
10
50.0249999999999986
20
-49.
11
50.0249999999999986
21
-61.7573589999999939
0
LINE
8
BLACK
6
CONTINUOUS
10
50.0249999999999986
20
-61.7573589999999939
11
50.0250169999999983
21
-61.7573589999999939
0
LINE
8
BLACK
6
CONTINUOUS
10
50.0250169999999983
20
-61.7573589999999939
11
50.0250190000000003
21
-61.9035099999999971
0
LINE
8
BLACK
6
CONTINUOUS
10
50.0250190000000003
20
-61.9035099999999971
11
50.0536740000000009
21
-62.1944049999999962
0
LINE
8
BLACK
6
CONTINUOUS
10
50.0536740000000009
20
-62.1944049999999962
11
50.1107009999999988
21
-62.4810919999999967
0
LINE
8
BLACK
6
CONTINUOUS
10
50.1107009999999988
20
-62.4810919999999967
11
50.1955519999999993
21
-62.7608079999999973
0
LINE
8
BLACK
6
CONTINUOUS
10
50.1955519999999993
20
-62.7608079999999973
11
50.3074099999999973
21
-63.0308619999999991
0
LINE
8
BLACK
6
CONTINUOUS
10
50.3074099999999973
20
-63.0308619999999991
11
50.4451979999999978
21
-63.288651999999999
0
LINE
8
BLACK
6
CONTINUOUS
10
50.4451979999999978
20
-63.288651999999999
11
50.6075879999999998
21
-63.5316959999999966
0
LINE
8
BLACK
6
CONTINUOUS
10
50.6075879999999998
20
-63.5316959999999966
11
50.793016999999999
21
-63.7576549999999997
0
LINE
8
BLACK
6
CONTINUOUS
10
50.793016999999999
20
-63.7576549999999997
11
50.8963589999999968
21
-63.8610029999999966
0
LINE
8
BLACK
6
CONTINUOUS
10
50.8963589999999968
20
-63.8610029999999966
11
61.1389989999999983
21
-74.103642999999991
0
LINE
8
BLACK
6
CONTINUOUS
10
61.1389989999999983
20
-74.103642999999991
11
61.139019999999995
21
-74.1036229999999989
0
LINE
8
BLACK
6
CONTINUOUS
10
61.139019999999995
20
-74.1036229999999989
11
61.242362
21
-74.2069719999999933
0
LINE
8
BLACK
6
CONTINUOUS
10
61.242362
20
-74.2069719999999933
11
61.4683099999999953
21
-74.3924149999999997
0
LINE
8
BLACK
6
CONTINUOUS
10
61.4683099999999953
20
-74.3924149999999997
11
61.7113479999999939
21
-74.5548160000000024
0
LINE
8
BLACK
6
CONTINUOUS
10
61.7113479999999939
20
-74.5548160000000024
11
61.9691349999999943
21
-74.6926119999999969
0
LINE
8
BLACK
6
CONTINUOUS
10
61.9691349999999943
20
-74.6926119999999969
11
62.239186999999994
21
-74.8044749999999965
0
LINE
8
BLACK
6
CONTINUOUS
10
62.239186999999994
20
-74.8044749999999965
11
62.5189039999999991
21
-74.8893279999999919
0
LINE
8
BLACK
6
CONTINUOUS
10
62.5189039999999991
20
-74.8893279999999919
11
62.8055919999999972
21
-74.946353000000002
0
LINE
8
BLACK
6
CONTINUOUS
10
62.8055919999999972
20
-74.946353000000002
11
63.0964889999999983
21
-74.9750020000000035
0
LINE
8
BLACK
6
CONTINUOUS
10
63.0964889999999983
20
-74.9750020000000035
11
63.242640999999999
21
-74.9749999999999943
0
LINE
8
BLACK
6
CONTINUOUS
10
63.242640999999999
20
-74.9749999999999943
11
80.7573589999999939
21
-74.9749999999999943
0
LINE
8
BLACK
6
CONTINUOUS
10
80.7573589999999939
20
-74.9749999999999943
11
80.7573589999999939
21
-74.9749829999999946
0
LINE
8
BLACK
6
CONTINUOUS
10
80.7573589999999939
20
-74.9749829999999946
11
80.9035099999999971
21
-74.9749809999999997
0
LINE
8
BLACK
6
CONTINUOUS
10
80.9035099999999971
20
-74.9749809999999997
11
81.1944050000000033
21
-74.9463259999999991
0
LINE
8
BLACK
6
CONTINUOUS
10
81.1944050000000033
20
-74.9463259999999991
11
81.4810919999999896
21
-74.8892989999999941
0
LINE
8
BLACK
6
CONTINUOUS
10
81.4810919999999896
20
-74.8892989999999941
11
81.7608079999999973
21
-74.8044479999999936
0
LINE
8
BLACK
6
CONTINUOUS
10
81.7608079999999973
20
-74.8044479999999936
11
82.0308619999999991
21
-74.6925899999999956
0
LINE
8
BLACK
6
CONTINUOUS
10
82.0308619999999991
20
-74.6925899999999956
11
82.288651999999999
21
-74.5548019999999951
0
LINE
8
BLACK
6
CONTINUOUS
10
82.288651999999999
20
-74.5548019999999951
11
82.5316959999999966
21
-74.3924119999999931
0
LINE
8
BLACK
6
CONTINUOUS
10
82.5316959999999966
20
-74.3924119999999931
11
82.7576549999999997
21
-74.2069829999999939
0
LINE
8
BLACK
6
CONTINUOUS
10
82.7576549999999997
20
-74.2069829999999939
11
82.8610029999999966
21
-74.1036409999999961
0
LINE
8
BLACK
6
CONTINUOUS
10
82.8610029999999966
20
-74.1036409999999961
11
91.1036440000000027
21
-65.8610010000000017
0
LINE
8
BLACK
6
CONTINUOUS
10
91.1036440000000027
20
-65.8610010000000017
11
91.1037639999999982
21
-65.860919999999993
0
LINE
8
BLACK
6
CONTINUOUS
10
91.1037639999999982
20
-65.860919999999993
11
91.2070080000000019
21
-65.7576749999999919
0
LINE
8
BLACK
6
CONTINUOUS
10
91.2070080000000019
20
-65.7576749999999919
11
91.3924430000000001
21
-65.5317170000000004
0
LINE
8
BLACK
6
CONTINUOUS
10
91.3924430000000001
20
-65.5317170000000004
11
91.554836999999992
21
-65.2886719999999912
0
LINE
8
BLACK
6
CONTINUOUS
10
91.554836999999992
20
-65.2886719999999912
11
91.69262599999999
21
-65.0308789999999988
0
LINE
8
BLACK
6
CONTINUOUS
10
91.69262599999999
20
-65.0308789999999988
11
91.8044840000000022
21
-64.7608219999999903
0
LINE
8
BLACK
6
CONTINUOUS
10
91.8044840000000022
20
-64.7608219999999903
11
91.889331999999996
21
-64.4811019999999928
0
LINE
8
BLACK
6
CONTINUOUS
10
91.889331999999996
20
-64.4811019999999928
11
91.9463549999999969
21
-64.1944110000000023
0
LINE
8
BLACK
6
CONTINUOUS
10
91.9463549999999969
20
-64.1944110000000023
11
91.9750019999999893
21
-63.9035119999999992
0
LINE
8
BLACK
6
CONTINUOUS
10
91.9750019999999893
20
-63.9035119999999992
11
91.9749999999999943
21
-63.7573589999999939
0
LINE
8
BLACK
6
CONTINUOUS
10
91.9749999999999943
20
-63.7573589999999939
11
91.9749999999999943
21
-49.
0
LINE
8
BLACK
6
CONTINUOUS
10
91.9749999999999943
20
-49.
11
91.9749999999999943
21
-48.8440869999999947
0
LINE
8
BLACK
6
CONTINUOUS
10
91.9749999999999943
20
-48.8440869999999947
11
91.9424059999999912
21
-48.533968999999999
0
LINE
8
BLACK
6
CONTINUOUS
10
91.9424059999999912
20
-48.533968999999999
11
91.8775729999999982
21
-48.2289570000000012
0
LINE
8
BLACK
6
CONTINUOUS
10
91.8775729999999982
20
-48.2289570000000012
11
91.7812139999999914
21
-47.9323920000000001
0
LINE
8
BLACK
6
CONTINUOUS
10
91.7812139999999914
20
-47.9323920000000001
11
91.6543819999999982
21
-47.6475249999999946
0
LINE
8
BLACK
6
CONTINUOUS
10
91.6543819999999982
20
-47.6475249999999946
11
91.4984690000000001
21
-47.3774749999999969
0
LINE
8
BLACK
6
CONTINUOUS
10
91.4984690000000001
20
-47.3774749999999969
11
91.315181999999993
21
-47.1252019999999945
0
LINE
8
BLACK
6
CONTINUOUS
10
91.315181999999993
20
-47.1252019999999945
11
91.1065299999999922
21
-46.8934700000000007
0
LINE
8
BLACK
6
CONTINUOUS
10
91.1065299999999922
20
-46.8934700000000007
11
90.8747979999999984
21
-46.6848179999999999
0
LINE
8
BLACK
6
CONTINUOUS
10
90.8747979999999984
20
-46.6848179999999999
11
90.622524999999996
21
-46.5015309999999999
0
LINE
8
BLACK
6
CONTINUOUS
10
90.622524999999996
20
-46.5015309999999999
11
90.3524749999999983
21
-46.3456179999999947
0
LINE
8
BLACK
6
CONTINUOUS
10
90.3524749999999983
20
-46.3456179999999947
11
90.0676079999999928
21
-46.2187859999999944
0
LINE
8
BLACK
6
CONTINUOUS
10
90.0676079999999928
20
-46.2187859999999944
11
89.7710429999999917
21
-46.1224269999999947
0
LINE
8
BLACK
6
CONTINUOUS
10
89.7710429999999917
20
-46.1224269999999947
11
89.466031000000001
21
-46.0575939999999946
0
LINE
8
BLACK
6
CONTINUOUS
10
89.466031000000001
20
-46.0575939999999946
11
89.1559129999999982
21
-46.0249999999999986
0
LINE
8
BLACK
6
CONTINUOUS
10
89.1559129999999982
20
-46.0249999999999986
11
89.
21
-46.0249999999999986
0
LINE
8
BLACK
6
CONTINUOUS
10
89.
20
-46.0249999999999986
11
53.
21
-46.0249999999999986
  0
ENDSEC
  0
EOF
